<svg xmlns="http://www.w3.org/2000/svg" xmlns:xlink="http://www.w3.org/1999/xlink" width="512" zoomAndPan="magnify" viewBox="0 0 384 383.999986" height="512" preserveAspectRatio="xMidYMid meet" version="1.0"><defs><clipPath id="5e04ba4841"><path d="M 42.808594 50.132812 L 341.308594 50.132812 L 341.308594 333.632812 L 42.808594 333.632812 Z M 42.808594 50.132812 " clip-rule="nonzero"/></clipPath></defs><g clip-path="url(#5e04ba4841)"><path fill="#f4c01e" d="M 192.058594 50.132812 L 230.492188 136.4375 C 231.96875 139.753906 234.292969 142.621094 237.234375 144.753906 C 240.171875 146.886719 243.621094 148.207031 247.234375 148.585938 L 341.292969 158.425781 L 270.988281 221.605469 C 268.289062 224.03125 266.273438 227.125 265.152344 230.578125 C 264.03125 234.027344 263.835938 237.714844 264.59375 241.261719 L 284.289062 333.648438 L 202.402344 286.390625 C 199.257812 284.574219 195.691406 283.617188 192.058594 283.617188 C 188.425781 283.617188 184.855469 284.574219 181.710938 286.390625 L 99.824219 333.648438 L 119.523438 241.261719 C 120.277344 237.714844 120.085938 234.027344 118.964844 230.578125 C 117.839844 227.125 115.828125 224.03125 113.128906 221.605469 L 42.820312 158.425781 L 136.882812 148.585938 C 140.492188 148.207031 143.945312 146.886719 146.882812 144.753906 C 149.820312 142.621094 152.144531 139.753906 153.621094 136.4375 Z M 192.058594 50.132812 " fill-opacity="1" fill-rule="evenodd"/></g></svg>