<svg xmlns="http://www.w3.org/2000/svg" xmlns:xlink="http://www.w3.org/1999/xlink" width="512" zoomAndPan="magnify" viewBox="0 0 384 383.999986" height="512" preserveAspectRatio="xMidYMid meet" version="1.0"><defs><clipPath id="203d35faa6"><path d="M 115.199219 197 L 256 197 L 256 201 L 115.199219 201 Z M 115.199219 197 " clip-rule="nonzero"/></clipPath><clipPath id="2bb0ae33f4"><path d="M 253 191 L 268.949219 191 L 268.949219 206 L 253 206 Z M 253 191 " clip-rule="nonzero"/></clipPath><clipPath id="184904b2ee"><path d="M 136 172 L 241 172 L 241 223.242188 L 136 223.242188 Z M 136 172 " clip-rule="nonzero"/></clipPath><clipPath id="8895c5a61c"><path d="M 69 26.925781 L 297 26.925781 L 297 322 L 69 322 Z M 69 26.925781 " clip-rule="nonzero"/></clipPath><clipPath id="c305661054"><path d="M 34 62 L 262 62 L 262 356.925781 L 34 356.925781 Z M 34 62 " clip-rule="nonzero"/></clipPath><clipPath id="6cc6eb92af"><path d="M 34 62 L 54 62 L 54 356.925781 L 34 356.925781 Z M 34 62 " clip-rule="nonzero"/></clipPath></defs><g clip-path="url(#203d35faa6)"><path fill="#ffffff" d="M 117.269531 200.375 C 118.492188 200.375 119.71875 200.375 120.90625 200.375 C 124.214844 200.375 127.527344 200.375 130.835938 200.375 C 135.738281 200.375 140.644531 200.375 145.546875 200.375 C 151.515625 200.375 157.480469 200.375 163.488281 200.375 C 170.027344 200.375 176.566406 200.375 183.105469 200.375 C 189.726562 200.375 196.304688 200.375 202.925781 200.375 C 209.097656 200.375 215.226562 200.375 221.398438 200.375 C 226.585938 200.375 231.816406 200.375 237.007812 200.375 C 240.769531 200.375 244.488281 200.375 248.246094 200.375 C 250.003906 200.375 251.800781 200.414062 253.558594 200.375 C 253.640625 200.375 253.722656 200.375 253.804688 200.375 C 255.808594 200.375 255.808594 197.261719 253.804688 197.261719 C 252.578125 197.261719 251.351562 197.261719 250.167969 197.261719 C 246.855469 197.261719 243.546875 197.261719 240.238281 197.261719 C 235.332031 197.261719 230.429688 197.261719 225.523438 197.261719 C 219.558594 197.261719 213.589844 197.261719 207.585938 197.261719 C 201.046875 197.261719 194.507812 197.261719 187.96875 197.261719 C 181.347656 197.261719 174.769531 197.261719 168.148438 197.261719 C 161.976562 197.261719 155.847656 197.261719 149.675781 197.261719 C 144.484375 197.261719 139.253906 197.261719 134.0625 197.261719 C 130.304688 197.261719 126.585938 197.261719 122.824219 197.261719 C 121.070312 197.261719 119.269531 197.21875 117.511719 197.261719 C 117.429688 197.261719 117.347656 197.261719 117.269531 197.261719 C 115.265625 197.261719 115.265625 200.375 117.269531 200.375 Z M 117.269531 200.375 " fill-opacity="1" fill-rule="nonzero"/></g><g clip-path="url(#2bb0ae33f4)"><path fill="#ffffff" d="M 253.886719 193.324219 L 254.253906 204.1875 C 254.296875 205.375 255.5625 206.113281 256.625 205.539062 L 267.699219 199.433594 C 268.882812 198.777344 268.761719 197.054688 267.535156 196.5625 L 256.09375 191.808594 C 254.988281 191.359375 253.84375 192.179688 253.886719 193.324219 Z M 253.886719 193.324219 " fill-opacity="1" fill-rule="nonzero"/></g><path fill="#ffffff" d="M 233.332031 174.148438 L 243.792969 177.015625 C 244.9375 177.34375 246.039062 176.320312 245.792969 175.128906 L 243.21875 162.714844 C 242.933594 161.402344 241.257812 160.992188 240.398438 162.015625 L 232.511719 171.566406 C 231.777344 172.464844 232.226562 173.820312 233.332031 174.148438 Z M 233.332031 174.148438 " fill-opacity="1" fill-rule="nonzero"/><g clip-path="url(#184904b2ee)"><path fill="#ffffff" d="M 137.414062 174.761719 C 136.882812 182.710938 136.71875 190.664062 137.78125 198.570312 C 138.152344 201.152344 138.4375 203.40625 138.804688 206.113281 C 139.171875 208.613281 139.621094 211.152344 140.4375 213.570312 C 141.257812 215.949219 142.402344 218.285156 144.199219 220.128906 C 145.875 221.808594 148.328125 223.242188 150.820312 223.117188 C 155.640625 222.875 157.929688 217.503906 159.238281 213.570312 C 160.015625 211.152344 160.585938 208.613281 161.160156 206.152344 C 162.058594 202.261719 162.917969 198.324219 163.734375 194.433594 C 164.511719 190.742188 164.671875 186.972656 165.613281 183.328125 C 165.980469 181.933594 166.429688 180.457031 167.167969 179.1875 C 167.65625 178.328125 168.148438 177.875 169.085938 177.589844 C 168.636719 177.710938 169.003906 177.589844 169.210938 177.589844 C 169.414062 177.589844 169.742188 177.710938 169.292969 177.589844 C 169.375 177.628906 169.496094 177.628906 169.617188 177.671875 C 169.699219 177.671875 169.78125 177.710938 169.863281 177.753906 C 169.699219 177.710938 169.578125 177.589844 169.78125 177.753906 C 169.90625 177.835938 169.988281 177.875 170.109375 177.957031 C 170.394531 178.121094 169.90625 177.710938 170.191406 178 C 170.394531 178.246094 170.640625 178.449219 170.84375 178.695312 C 170.558594 178.328125 170.886719 178.777344 170.96875 178.859375 C 171.050781 178.984375 171.128906 179.148438 171.210938 179.269531 C 171.417969 179.636719 171.621094 179.964844 171.785156 180.335938 C 171.824219 180.457031 171.988281 180.828125 171.867188 180.539062 C 171.949219 180.746094 172.03125 180.949219 172.113281 181.15625 C 172.273438 181.5625 172.398438 182.015625 172.5625 182.425781 C 173.132812 184.308594 173.542969 186.234375 173.867188 188.164062 C 173.949219 188.652344 174.03125 189.144531 174.113281 189.636719 C 174.15625 189.882812 174.195312 190.128906 174.195312 190.335938 C 174.195312 190.457031 174.238281 190.582031 174.238281 190.742188 C 174.238281 190.867188 174.238281 190.867188 174.238281 190.703125 C 174.238281 190.785156 174.277344 190.867188 174.277344 190.949219 C 174.398438 191.933594 174.523438 192.957031 174.644531 193.941406 C 174.929688 196.808594 175.054688 199.761719 175.542969 202.585938 C 176.035156 205.742188 176.566406 208.898438 177.382812 211.972656 C 177.914062 213.898438 178.527344 215.824219 179.425781 217.628906 C 180.121094 219.019531 181.101562 220.496094 182.53125 221.234375 C 184.371094 222.175781 186.332031 221.601562 187.761719 220.25 C 189.808594 218.40625 190.625 215.457031 191.441406 212.914062 C 193.566406 206.316406 194.75 199.433594 196.183594 192.671875 C 196.714844 190.089844 197.285156 187.546875 198.101562 185.046875 C 198.796875 182.792969 199.777344 180.335938 201.289062 178.695312 C 201.496094 178.492188 201.699219 178.285156 201.902344 178.082031 C 202.148438 177.875 202.066406 177.917969 202.3125 177.753906 C 202.476562 177.628906 202.640625 177.546875 202.800781 177.464844 C 202.84375 177.464844 203.171875 177.300781 202.925781 177.425781 C 202.679688 177.507812 203.007812 177.382812 203.089844 177.382812 C 203.332031 177.34375 203.539062 177.34375 203.171875 177.34375 C 203.292969 177.34375 203.496094 177.34375 203.621094 177.34375 C 203.210938 177.382812 203.457031 177.34375 203.660156 177.382812 C 204.070312 177.507812 203.496094 177.21875 203.824219 177.464844 C 203.90625 177.546875 204.355469 177.835938 203.988281 177.546875 C 204.109375 177.628906 204.191406 177.710938 204.273438 177.792969 C 204.394531 177.917969 204.519531 178.039062 204.640625 178.164062 C 204.683594 178.203125 204.722656 178.285156 204.765625 178.328125 C 204.519531 178 204.765625 178.328125 204.804688 178.410156 C 205.253906 179.105469 205.664062 179.84375 205.992188 180.621094 C 205.867188 180.335938 206.113281 180.867188 206.113281 180.992188 C 206.195312 181.195312 206.277344 181.402344 206.359375 181.605469 C 206.523438 182.097656 206.683594 182.546875 206.847656 183.039062 C 207.132812 184.023438 207.421875 185.007812 207.664062 186.03125 C 208.074219 187.792969 208.402344 189.515625 208.726562 191.277344 C 209.75 197.097656 210.851562 202.914062 211.914062 208.734375 C 212.40625 211.5625 212.816406 214.390625 213.960938 217.011719 C 214.859375 219.101562 216.371094 221.355469 218.742188 221.890625 C 221.96875 222.628906 224.667969 220.292969 226.382812 217.832031 C 228.425781 214.839844 229.898438 211.480469 231.082031 208.039062 C 232.269531 204.636719 233.25 201.113281 234.351562 197.667969 C 235.539062 193.859375 236.640625 190.007812 237.664062 186.152344 C 238.683594 182.382812 239.625 178.613281 240.605469 174.84375 C 241.09375 172.875 238.113281 172.058594 237.582031 174.023438 C 235.578125 181.644531 233.65625 189.308594 231.285156 196.851562 C 229.203125 203.53125 227.566406 210.660156 223.480469 216.480469 C 222.703125 217.546875 221.683594 218.570312 220.375 218.898438 C 220.089844 218.980469 219.722656 218.980469 219.4375 218.898438 C 219.476562 218.898438 218.984375 218.773438 219.191406 218.816406 C 219.394531 218.898438 218.945312 218.691406 218.984375 218.691406 C 218.902344 218.652344 218.824219 218.570312 218.742188 218.527344 C 218.453125 218.367188 218.78125 218.609375 218.578125 218.40625 C 217.066406 217.136719 216.371094 215.046875 215.878906 213.039062 C 215.023438 209.636719 214.574219 206.070312 213.960938 202.628906 C 213.347656 199.226562 212.691406 195.824219 212.039062 192.425781 C 211.425781 189.1875 210.894531 185.949219 209.996094 182.792969 C 209.136719 179.84375 207.746094 175.210938 204.316406 174.3125 C 202.394531 173.820312 200.597656 174.925781 199.328125 176.195312 C 197.488281 178.082031 196.34375 180.539062 195.488281 183 C 194.589844 185.457031 194.015625 188 193.445312 190.539062 C 192.832031 193.40625 192.175781 196.277344 191.5625 199.1875 C 190.789062 202.914062 190.050781 206.6875 188.949219 210.332031 C 188.253906 212.667969 187.601562 215.457031 186.128906 217.382812 C 185.800781 217.832031 185.433594 218.121094 184.984375 218.367188 C 184.902344 218.40625 184.820312 218.445312 184.738281 218.488281 C 184.78125 218.488281 185.066406 218.367188 184.820312 218.445312 C 184.65625 218.488281 184.496094 218.527344 184.371094 218.570312 C 184.863281 218.445312 184.371094 218.527344 184.25 218.527344 C 184.042969 218.570312 184.332031 218.527344 184.414062 218.570312 C 184.332031 218.527344 184.25 218.527344 184.207031 218.527344 C 183.964844 218.445312 183.839844 218.324219 184.125 218.527344 C 184.003906 218.445312 183.839844 218.367188 183.675781 218.285156 C 183.390625 218.121094 183.839844 218.488281 183.59375 218.203125 C 183.472656 218.078125 183.351562 217.957031 183.226562 217.832031 C 183.1875 217.75 182.859375 217.421875 182.980469 217.585938 C 183.144531 217.792969 182.898438 217.464844 182.898438 217.464844 C 182.820312 217.382812 182.777344 217.257812 182.695312 217.175781 C 182.492188 216.847656 182.289062 216.519531 182.125 216.191406 C 182.042969 216.03125 181.960938 215.824219 181.878906 215.660156 C 181.835938 215.539062 181.796875 215.457031 181.757812 215.332031 C 181.757812 215.292969 181.550781 214.882812 181.675781 215.210938 C 180.242188 211.765625 179.550781 208.039062 178.9375 204.351562 C 178.8125 203.734375 178.730469 203.121094 178.648438 202.503906 C 178.609375 202.300781 178.570312 202.097656 178.570312 201.890625 C 178.527344 201.726562 178.488281 201.03125 178.527344 201.6875 C 178.445312 200.414062 178.28125 199.1875 178.160156 197.914062 C 177.832031 194.023438 177.425781 190.128906 176.730469 186.277344 C 176.117188 182.875 175.300781 178.984375 173.011719 176.320312 C 172.070312 175.253906 170.761719 174.476562 169.292969 174.476562 C 166.636719 174.515625 164.960938 176.6875 163.980469 178.941406 C 162.589844 182.21875 162.097656 185.664062 161.609375 189.144531 C 161.078125 192.957031 160.179688 196.726562 159.359375 200.496094 C 158.625 203.777344 157.890625 207.09375 157.03125 210.332031 C 156.5 212.300781 155.886719 214.308594 155.027344 215.988281 C 154.578125 216.929688 154.007812 217.832031 153.476562 218.445312 C 153.3125 218.609375 153.148438 218.773438 152.984375 218.9375 C 152.902344 219.019531 152.414062 219.390625 152.617188 219.265625 C 152.453125 219.390625 152.289062 219.472656 152.128906 219.59375 C 152.003906 219.675781 151.882812 219.71875 151.757812 219.800781 C 152.003906 219.675781 151.71875 219.839844 151.597656 219.839844 C 151.433594 219.882812 151.226562 219.964844 151.066406 219.964844 C 150.617188 220.046875 151.351562 219.964844 150.902344 219.964844 C 150.820312 219.964844 150.695312 219.964844 150.617188 219.964844 C 150.535156 219.964844 150.410156 219.964844 150.328125 219.964844 C 149.839844 219.921875 150.492188 220.003906 150.207031 219.964844 C 149.921875 219.921875 149.59375 219.839844 149.308594 219.71875 C 148.449219 219.429688 147.46875 218.773438 146.773438 218.121094 C 143.382812 214.964844 142.523438 209.59375 141.871094 205.046875 C 141.011719 198.859375 140.195312 192.382812 140.195312 185.992188 C 140.195312 182.21875 140.359375 178.492188 140.644531 174.71875 C 140.683594 173.859375 139.867188 173.164062 139.089844 173.164062 C 138.070312 173.164062 137.457031 173.902344 137.414062 174.761719 Z M 137.414062 174.761719 " fill-opacity="1" fill-rule="nonzero"/></g><g clip-path="url(#8895c5a61c)"><path fill="#d1d1d6" d="M 75.566406 26.925781 L 257.375 26.925781 C 259.007812 26.925781 260.414062 27.507812 261.570312 28.664062 L 294.867188 61.988281 C 296.023438 63.144531 296.605469 64.550781 296.605469 66.183594 L 296.605469 315.378906 C 296.605469 318.648438 293.941406 321.3125 290.675781 321.3125 L 75.566406 321.3125 C 72.300781 321.3125 69.636719 318.648438 69.636719 315.378906 L 69.636719 32.859375 C 69.636719 29.589844 72.300781 26.925781 75.566406 26.925781 Z M 75.566406 26.925781 " fill-opacity="1" fill-rule="evenodd"/></g><path fill="#a79ba7" d="M 259.832031 27.441406 C 260.460938 27.726562 261.042969 28.136719 261.570312 28.664062 L 294.867188 61.988281 C 295.394531 62.515625 295.804688 63.09375 296.089844 63.726562 L 262.796875 63.726562 C 261.164062 63.726562 259.832031 62.390625 259.832031 60.757812 Z M 259.832031 27.441406 " fill-opacity="1" fill-rule="evenodd"/><g clip-path="url(#c305661054)"><path fill="#eceff1" d="M 39.980469 62.539062 L 221.789062 62.539062 C 223.421875 62.539062 224.828125 63.121094 225.984375 64.277344 L 259.28125 97.601562 C 260.4375 98.753906 261.019531 100.160156 261.019531 101.796875 L 261.019531 350.992188 C 261.019531 354.257812 258.355469 356.925781 255.089844 356.925781 L 39.980469 356.925781 C 36.714844 356.925781 34.050781 354.261719 34.050781 350.992188 L 34.050781 68.472656 C 34.050781 65.203125 36.714844 62.539062 39.980469 62.539062 Z M 39.980469 62.539062 " fill-opacity="1" fill-rule="evenodd"/></g><g clip-path="url(#6cc6eb92af)"><path fill="#d1d1d6" d="M 39.980469 62.539062 L 53.871094 62.539062 L 53.871094 356.925781 L 39.980469 356.925781 C 36.714844 356.925781 34.050781 354.257812 34.050781 350.988281 L 34.050781 68.472656 C 34.050781 65.203125 36.714844 62.539062 39.980469 62.539062 Z M 39.980469 62.539062 " fill-opacity="1" fill-rule="evenodd"/></g><path fill="#a79ba7" d="M 224.246094 63.050781 C 224.875 63.339844 225.457031 63.75 225.984375 64.277344 L 259.28125 97.597656 C 259.808594 98.125 260.21875 98.707031 260.503906 99.335938 L 227.210938 99.335938 C 225.578125 99.335938 224.246094 98.003906 224.246094 96.371094 Z M 224.246094 63.050781 " fill-opacity="1" fill-rule="evenodd"/><path fill="#a79ba7" d="M 151.898438 159.089844 C 148.890625 159.089844 146.453125 156.652344 146.453125 153.640625 C 146.453125 150.628906 148.890625 148.191406 151.898438 148.191406 L 214.703125 148.191406 C 217.710938 148.191406 220.148438 150.628906 220.148438 153.640625 C 220.148438 156.652344 217.710938 159.089844 214.703125 159.089844 Z M 151.898438 119.472656 C 148.890625 119.472656 146.453125 117.03125 146.453125 114.023438 C 146.453125 111.011719 148.890625 108.574219 151.898438 108.574219 L 214.703125 108.574219 C 217.710938 108.574219 220.148438 111.011719 220.148438 114.023438 C 220.148438 117.03125 217.710938 119.472656 214.703125 119.472656 Z M 80.367188 317.5625 C 77.359375 317.5625 74.921875 315.121094 74.921875 312.109375 C 74.921875 309.101562 77.359375 306.660156 80.367188 306.660156 L 214.703125 306.660156 C 217.710938 306.660156 220.148438 309.101562 220.148438 312.109375 C 220.148438 315.121094 217.710938 317.5625 214.703125 317.5625 Z M 80.367188 277.945312 C 77.359375 277.945312 74.921875 275.503906 74.921875 272.492188 C 74.921875 269.484375 77.359375 267.042969 80.367188 267.042969 L 214.703125 267.042969 C 217.710938 267.042969 220.148438 269.484375 220.148438 272.492188 C 220.148438 275.503906 217.710938 277.945312 214.703125 277.945312 Z M 80.367188 238.328125 C 77.359375 238.328125 74.921875 235.886719 74.921875 232.875 C 74.921875 229.867188 77.359375 227.425781 80.367188 227.425781 L 214.703125 227.425781 C 217.710938 227.425781 220.148438 229.867188 220.148438 232.875 C 220.148438 235.886719 217.710938 238.328125 214.703125 238.328125 Z M 80.367188 198.707031 C 77.359375 198.707031 74.921875 196.269531 74.921875 193.257812 C 74.921875 190.25 77.359375 187.808594 80.367188 187.808594 L 214.703125 187.808594 C 217.710938 187.808594 220.148438 190.25 220.148438 193.257812 C 220.148438 196.269531 217.710938 198.707031 214.703125 198.707031 Z M 80.367188 198.707031 " fill-opacity="1" fill-rule="evenodd"/><path fill="#8ac9fe" d="M 83.601562 108.570312 L 116.722656 108.570312 C 121.496094 108.570312 125.402344 112.480469 125.402344 117.257812 L 125.402344 150.402344 C 125.402344 155.179688 121.496094 159.089844 116.722656 159.089844 L 83.601562 159.089844 C 78.828125 159.089844 74.917969 155.179688 74.917969 150.402344 L 74.917969 117.257812 C 74.917969 112.480469 78.828125 108.570312 83.601562 108.570312 Z M 83.601562 108.570312 " fill-opacity="1" fill-rule="evenodd"/><path fill="#60b7ff" d="M 118.554688 108.769531 C 122.457031 109.617188 125.402344 113.109375 125.402344 117.257812 L 125.402344 150.402344 C 125.402344 155.179688 121.496094 159.089844 116.722656 159.089844 L 83.601562 159.089844 C 79.457031 159.089844 75.964844 156.144531 75.117188 152.238281 C 75.710938 152.371094 76.324219 152.4375 76.953125 152.4375 L 110.074219 152.4375 C 114.847656 152.4375 118.753906 148.527344 118.753906 143.75 L 118.753906 110.605469 C 118.753906 109.976562 118.683594 109.363281 118.554688 108.769531 Z M 118.554688 108.769531 " fill-opacity="1" fill-rule="evenodd"/><path fill="#837683" d="M 220.601562 242.070312 L 251.445312 272.9375 C 252.714844 274.207031 252.714844 276.28125 251.445312 277.546875 L 234.390625 294.613281 C 233.125 295.882812 231.054688 295.882812 229.785156 294.613281 L 198.941406 263.746094 C 197.675781 262.480469 197.675781 260.40625 198.941406 259.140625 L 215.996094 242.070312 C 217.261719 240.804688 219.335938 240.804688 220.601562 242.070312 Z M 220.601562 242.070312 " fill-opacity="1" fill-rule="evenodd"/><path fill="#685e68" d="M 249.046875 270.539062 L 251.445312 272.9375 C 252.714844 274.207031 252.714844 276.28125 251.445312 277.546875 L 234.390625 294.613281 C 233.125 295.882812 231.054688 295.882812 229.785156 294.613281 L 198.941406 263.746094 C 197.675781 262.480469 197.675781 260.40625 198.941406 259.136719 L 201.339844 256.738281 L 229.785156 285.207031 C 231.054688 286.472656 233.125 286.472656 234.390625 285.207031 Z M 249.046875 270.539062 " fill-opacity="1" fill-rule="evenodd"/><path fill="#ffe177" d="M 190.410156 274.605469 C 192.488281 272.527344 195.855469 272.527344 197.933594 274.605469 C 200.011719 276.683594 200.011719 280.054688 197.933594 282.132812 L 187.371094 292.703125 C 185.292969 294.78125 181.925781 294.78125 179.847656 292.703125 C 177.769531 290.625 177.769531 287.253906 179.847656 285.175781 Z M 211.414062 295.625 L 200.851562 306.195312 C 198.773438 308.273438 198.773438 311.644531 200.851562 313.722656 C 202.929688 315.800781 206.296875 315.800781 208.375 313.722656 L 218.9375 303.152344 C 221.015625 301.070312 221.015625 297.703125 218.9375 295.625 C 216.859375 293.542969 213.492188 293.542969 211.414062 295.625 Z M 200.914062 285.113281 L 180.972656 305.070312 C 178.894531 307.148438 178.894531 310.519531 180.972656 312.597656 C 183.046875 314.675781 186.417969 314.675781 188.492188 312.597656 L 208.433594 292.640625 C 210.511719 290.5625 210.511719 287.191406 208.433594 285.113281 C 206.359375 283.035156 202.992188 283.035156 200.914062 285.113281 Z M 200.914062 285.113281 " fill-opacity="1" fill-rule="evenodd"/><path fill="#ffe177" d="M 201.925781 233.59375 L 175.953125 234.085938 C 174.554688 234.113281 173.339844 233.394531 172.691406 232.15625 C 172.039062 230.917969 172.136719 229.511719 172.953125 228.375 L 206.234375 181.964844 C 207.109375 180.746094 208.550781 180.210938 210.003906 180.558594 L 242.449219 188.316406 Z M 201.925781 233.59375 " fill-opacity="1" fill-rule="evenodd"/><path fill="#ffd064" d="M 210.0625 193.832031 L 181.265625 233.988281 L 175.953125 234.085938 C 174.554688 234.113281 173.339844 233.394531 172.691406 232.15625 C 172.039062 230.917969 172.136719 229.511719 172.953125 228.375 L 206.234375 181.964844 C 207.105469 180.746094 208.546875 180.210938 210.003906 180.558594 L 242.449219 188.316406 L 234.375 197.339844 L 232.847656 196.972656 L 213.828125 192.425781 C 212.375 192.078125 210.933594 192.613281 210.0625 193.832031 Z M 210.0625 193.832031 " fill-opacity="1" fill-rule="evenodd"/><path fill="#ffe177" d="M 259.917969 291.628906 L 259.425781 317.621094 C 259.398438 319.019531 260.117188 320.234375 261.355469 320.882812 C 262.59375 321.535156 263.996094 321.4375 265.132812 320.621094 L 311.511719 287.3125 C 312.726562 286.441406 313.265625 285 312.917969 283.542969 L 305.160156 251.074219 Z M 259.917969 291.628906 " fill-opacity="1" fill-rule="evenodd"/><path fill="#ffd064" d="M 299.652344 283.484375 L 259.523438 312.304688 L 259.425781 317.621094 C 259.398438 319.019531 260.113281 320.234375 261.351562 320.882812 C 262.589844 321.535156 263.996094 321.4375 265.132812 320.621094 L 311.511719 287.3125 C 312.726562 286.441406 313.261719 285 312.914062 283.542969 L 305.160156 251.074219 L 296.144531 259.15625 L 296.511719 260.683594 L 301.054688 279.714844 C 301.40625 281.171875 300.867188 282.613281 299.652344 283.484375 Z M 299.652344 283.484375 " fill-opacity="1" fill-rule="evenodd"/><path fill="#eceff1" d="M 201.925781 233.59375 C 209.503906 222.265625 218.5625 211.179688 229.007812 200.726562 C 266.320312 163.386719 311.671875 143.773438 347.492188 145.957031 C 349.675781 181.804688 330.074219 227.1875 292.761719 264.523438 C 282.316406 274.980469 271.238281 284.042969 259.917969 291.628906 Z M 201.925781 233.59375 " fill-opacity="1" fill-rule="evenodd"/><path fill="#d1d1d6" d="M 342.945312 145.800781 C 344.476562 145.816406 345.992188 145.867188 347.488281 145.957031 C 349.671875 181.804688 330.074219 227.1875 292.761719 264.527344 C 282.316406 274.980469 271.238281 284.042969 259.917969 291.628906 L 255.214844 286.925781 C 266.539062 279.339844 277.613281 270.277344 288.0625 259.820312 C 323.8125 224.046875 343.296875 180.882812 342.945312 145.800781 Z M 342.945312 145.800781 " fill-opacity="1" fill-rule="evenodd"/><path fill="#ffe177" d="M 308.382812 204.339844 C 308.382812 204.96875 308.355469 205.59375 308.292969 206.222656 C 308.230469 206.847656 308.136719 207.46875 308.015625 208.085938 C 307.894531 208.703125 307.742188 209.3125 307.558594 209.914062 C 307.375 210.515625 307.164062 211.109375 306.921875 211.691406 C 306.683594 212.273438 306.414062 212.839844 306.117188 213.394531 C 305.820312 213.949219 305.5 214.488281 305.148438 215.011719 C 304.800781 215.535156 304.425781 216.039062 304.027344 216.527344 C 303.628906 217.011719 303.207031 217.480469 302.761719 217.921875 C 302.316406 218.367188 301.851562 218.789062 301.367188 219.191406 C 300.878906 219.589844 300.375 219.964844 299.851562 220.3125 C 299.328125 220.664062 298.789062 220.984375 298.234375 221.28125 C 297.679688 221.578125 297.113281 221.847656 296.53125 222.089844 C 295.953125 222.328125 295.359375 222.539062 294.757812 222.722656 C 294.15625 222.90625 293.546875 223.058594 292.929688 223.179688 C 292.316406 223.304688 291.695312 223.398438 291.066406 223.457031 C 290.441406 223.519531 289.816406 223.550781 289.1875 223.550781 C 288.558594 223.550781 287.929688 223.519531 287.304688 223.457031 C 286.679688 223.398438 286.058594 223.304688 285.441406 223.179688 C 284.824219 223.058594 284.214844 222.90625 283.613281 222.722656 C 283.011719 222.539062 282.417969 222.328125 281.839844 222.089844 C 281.257812 221.847656 280.691406 221.578125 280.136719 221.28125 C 279.582031 220.984375 279.042969 220.664062 278.519531 220.3125 C 277.996094 219.964844 277.492188 219.589844 277.007812 219.191406 C 276.519531 218.789062 276.054688 218.367188 275.609375 217.921875 C 275.164062 217.480469 274.742188 217.011719 274.34375 216.527344 C 273.945312 216.039062 273.570312 215.535156 273.222656 215.011719 C 272.875 214.488281 272.550781 213.949219 272.253906 213.394531 C 271.957031 212.839844 271.6875 212.273438 271.449219 211.691406 C 271.207031 211.109375 270.996094 210.515625 270.8125 209.914062 C 270.632812 209.3125 270.480469 208.703125 270.355469 208.085938 C 270.234375 207.46875 270.140625 206.847656 270.078125 206.222656 C 270.019531 205.59375 269.988281 204.96875 269.988281 204.339844 C 269.988281 203.710938 270.019531 203.082031 270.078125 202.453125 C 270.140625 201.828125 270.234375 201.207031 270.355469 200.589844 C 270.480469 199.972656 270.632812 199.363281 270.8125 198.761719 C 270.996094 198.160156 271.207031 197.566406 271.449219 196.984375 C 271.6875 196.40625 271.957031 195.835938 272.253906 195.28125 C 272.550781 194.726562 272.875 194.1875 273.222656 193.664062 C 273.570312 193.140625 273.945312 192.636719 274.34375 192.148438 C 274.742188 191.664062 275.164062 191.199219 275.609375 190.753906 C 276.054688 190.308594 276.519531 189.886719 277.007812 189.488281 C 277.492188 189.085938 277.996094 188.714844 278.519531 188.363281 C 279.042969 188.015625 279.582031 187.691406 280.136719 187.394531 C 280.691406 187.097656 281.257812 186.828125 281.839844 186.589844 C 282.417969 186.347656 283.011719 186.136719 283.613281 185.953125 C 284.214844 185.769531 284.824219 185.617188 285.441406 185.496094 C 286.058594 185.371094 286.679688 185.28125 287.304688 185.21875 C 287.929688 185.15625 288.558594 185.125 289.1875 185.125 C 289.816406 185.125 290.441406 185.15625 291.066406 185.21875 C 291.695312 185.28125 292.316406 185.371094 292.929688 185.496094 C 293.546875 185.617188 294.15625 185.769531 294.757812 185.953125 C 295.359375 186.136719 295.953125 186.347656 296.53125 186.589844 C 297.113281 186.828125 297.679688 187.097656 298.234375 187.394531 C 298.789062 187.691406 299.328125 188.015625 299.851562 188.363281 C 300.375 188.714844 300.878906 189.085938 301.367188 189.488281 C 301.851562 189.886719 302.316406 190.308594 302.761719 190.753906 C 303.207031 191.199219 303.628906 191.664062 304.027344 192.148438 C 304.425781 192.636719 304.800781 193.140625 305.148438 193.664062 C 305.5 194.1875 305.820312 194.726562 306.117188 195.28125 C 306.414062 195.835938 306.683594 196.40625 306.921875 196.984375 C 307.164062 197.566406 307.375 198.160156 307.558594 198.761719 C 307.742188 199.363281 307.894531 199.972656 308.015625 200.589844 C 308.136719 201.207031 308.230469 201.828125 308.292969 202.453125 C 308.355469 203.082031 308.382812 203.710938 308.382812 204.339844 Z M 308.382812 204.339844 " fill-opacity="1" fill-rule="nonzero"/><path fill="#ffd064" d="M 302.761719 190.753906 C 303.5625 191.554688 304.277344 192.410156 304.910156 193.308594 C 297.417969 188.042969 287.007812 188.757812 280.3125 195.457031 C 273.617188 202.160156 272.902344 212.578125 278.164062 220.074219 C 277.265625 219.441406 276.410156 218.726562 275.609375 217.925781 C 268.113281 210.421875 268.113281 198.257812 275.609375 190.753906 C 283.109375 183.25 295.265625 183.25 302.761719 190.753906 Z M 302.761719 190.753906 " fill-opacity="1" fill-rule="evenodd"/><path fill="#d1d1d6" d="M 212.839844 244.519531 L 249 280.703125 L 259.917969 291.628906 C 264.886719 288.300781 269.804688 284.6875 274.648438 280.796875 L 274.632812 280.78125 L 212.75 218.851562 C 208.863281 223.695312 205.25 228.621094 201.925781 233.59375 Z M 212.839844 244.519531 " fill-opacity="1" fill-rule="evenodd"/><path fill="#b1b1b5" d="M 259.917969 291.628906 C 264.886719 288.300781 269.804688 284.6875 274.648438 280.796875 L 274.632812 280.78125 L 269.949219 276.089844 C 266.917969 278.527344 263.855469 280.855469 260.769531 283.070312 L 209.921875 232.1875 L 205.773438 228.039062 C 204.453125 229.882812 203.167969 231.734375 201.925781 233.59375 C 221.253906 252.9375 240.585938 272.285156 259.917969 291.628906 Z M 259.917969 291.628906 " fill-opacity="1" fill-rule="evenodd"/></svg>