<svg xmlns="http://www.w3.org/2000/svg" xmlns:xlink="http://www.w3.org/1999/xlink" width="512" zoomAndPan="magnify" viewBox="0 0 384 383.999986" height="512" preserveAspectRatio="xMidYMid meet" version="1.0"><defs><clipPath id="4844047970"><path d="M 27.125 52.679688 L 357.125 52.679688 L 357.125 331.679688 L 27.125 331.679688 Z M 27.125 52.679688 " clip-rule="nonzero"/></clipPath></defs><g clip-path="url(#4844047970)"><path fill="#f0f0f0" d="M 328.933594 52.757812 L 76.332031 52.757812 C 60.800781 52.757812 48.160156 65.402344 48.160156 80.941406 L 48.160156 204.585938 C 34.574219 218.644531 27.125 237.058594 27.125 256.625 C 27.125 297.972656 60.746094 331.601562 102.070312 331.601562 C 121.996094 331.601562 141.289062 323.507812 155.332031 309.328125 L 328.953125 309.328125 C 344.484375 309.328125 357.125 296.679688 357.125 281.140625 L 357.125 80.941406 C 357.105469 65.402344 344.472656 52.757812 328.933594 52.757812 Z M 328.933594 52.757812 " fill-opacity="1" fill-rule="evenodd"/></g><path fill="#fffffe" d="M 328.933594 57.089844 L 76.332031 57.089844 C 63.183594 57.089844 52.488281 67.789062 52.488281 80.941406 L 52.488281 206.363281 C 39.507812 219.175781 31.453125 236.972656 31.453125 256.625 C 31.453125 295.585938 63.128906 327.269531 102.070312 327.269531 C 122.316406 327.269531 140.601562 318.699219 153.488281 304.996094 L 328.941406 304.996094 C 342.089844 304.996094 352.785156 294.292969 352.785156 281.140625 L 352.785156 80.941406 C 352.777344 67.789062 342.078125 57.089844 328.933594 57.089844 Z M 328.933594 57.089844 " fill-opacity="1" fill-rule="evenodd"/><path fill="#e14659" d="M 89.566406 80.769531 L 86.15625 88.910156 L 101.75 88.910156 L 98.339844 80.769531 Z M 89.566406 80.769531 " fill-opacity="1" fill-rule="evenodd"/><path fill="#e14659" d="M 133.097656 80.769531 L 129.683594 88.910156 L 145.277344 88.910156 L 141.867188 80.769531 Z M 133.097656 80.769531 " fill-opacity="1" fill-rule="evenodd"/><path fill="#e14659" d="M 220.164062 80.769531 L 216.742188 88.910156 L 232.34375 88.910156 L 228.921875 80.769531 Z M 220.164062 80.769531 " fill-opacity="1" fill-rule="evenodd"/><path fill="#e14659" d="M 176.632812 80.769531 L 173.210938 88.910156 L 188.816406 88.910156 L 185.394531 80.769531 Z M 176.632812 80.769531 " fill-opacity="1" fill-rule="evenodd"/><path fill="#e14659" d="M 191.183594 75.703125 L 197.660156 91.140625 C 198.136719 92.269531 198.019531 93.5625 197.339844 94.574219 C 196.660156 95.589844 195.523438 96.195312 194.300781 96.195312 L 167.726562 96.195312 C 166.507812 96.195312 165.367188 95.589844 164.691406 94.574219 C 164.019531 93.5625 163.890625 92.269531 164.367188 91.140625 L 170.84375 75.703125 C 171.414062 74.34375 172.734375 73.460938 174.210938 73.460938 L 187.835938 73.460938 C 189.292969 73.472656 190.613281 74.351562 191.183594 75.703125 Z M 76.332031 65.761719 C 67.964844 65.761719 61.15625 72.5625 61.15625 80.941406 L 61.15625 103.90625 L 344.117188 103.90625 L 344.117188 80.953125 C 344.117188 72.582031 337.308594 65.769531 328.941406 65.769531 Z M 207.886719 91.140625 L 214.363281 75.703125 C 214.925781 74.34375 216.253906 73.460938 217.730469 73.460938 L 231.355469 73.460938 C 232.820312 73.460938 234.152344 74.34375 234.722656 75.703125 L 241.199219 91.140625 C 241.664062 92.269531 241.546875 93.5625 240.867188 94.574219 C 240.199219 95.589844 239.050781 96.195312 237.832031 96.195312 L 211.253906 96.195312 C 210.035156 96.195312 208.898438 95.589844 208.21875 94.574219 C 207.539062 93.5625 207.421875 92.277344 207.886719 91.140625 Z M 147.65625 75.703125 L 154.132812 91.140625 C 154.597656 92.269531 154.480469 93.5625 153.800781 94.574219 C 153.121094 95.589844 151.984375 96.195312 150.765625 96.195312 L 124.1875 96.195312 C 122.976562 96.195312 121.832031 95.589844 121.152344 94.574219 C 120.472656 93.5625 120.355469 92.269531 120.824219 91.140625 L 127.300781 75.703125 C 127.867188 74.34375 129.199219 73.460938 130.664062 73.460938 L 144.289062 73.460938 C 145.765625 73.472656 147.085938 74.351562 147.65625 75.703125 Z M 104.117188 75.703125 L 110.59375 91.140625 C 111.070312 92.269531 110.941406 93.5625 110.273438 94.574219 C 109.59375 95.589844 108.457031 96.195312 107.234375 96.195312 L 80.660156 96.195312 C 79.441406 96.195312 78.304688 95.589844 77.625 94.574219 C 76.945312 93.5625 76.824219 92.269531 77.304688 91.140625 L 83.78125 75.703125 C 84.347656 74.34375 85.667969 73.460938 87.144531 73.460938 L 100.769531 73.460938 C 102.226562 73.472656 103.546875 74.351562 104.117188 75.703125 Z M 104.117188 75.703125 " fill-opacity="1" fill-rule="evenodd"/><path fill="#e14659" d="M 191.835938 134.699219 L 191.835938 272.84375 L 308.449219 272.84375 L 308.449219 134.699219 Z M 212.335938 194.746094 L 287.925781 194.746094 C 289.945312 194.746094 291.578125 196.378906 291.578125 198.398438 C 291.578125 200.417969 289.945312 202.050781 287.925781 202.050781 L 212.335938 202.050781 C 210.320312 202.050781 208.6875 200.417969 208.6875 198.398438 C 208.6875 196.378906 210.328125 194.746094 212.335938 194.746094 Z M 212.335938 214.175781 L 287.925781 214.175781 C 289.945312 214.175781 291.578125 215.808594 291.578125 217.828125 C 291.578125 219.847656 289.945312 221.480469 287.925781 221.480469 L 212.335938 221.480469 C 210.320312 221.480469 208.6875 219.847656 208.6875 217.828125 C 208.695312 215.816406 210.328125 214.175781 212.335938 214.175781 Z M 212.335938 233.613281 L 287.925781 233.613281 C 289.945312 233.613281 291.578125 235.25 291.578125 237.269531 C 291.578125 239.289062 289.945312 240.921875 287.925781 240.921875 L 212.335938 240.921875 C 210.320312 240.921875 208.6875 239.296875 208.6875 237.269531 C 208.695312 235.25 210.328125 233.613281 212.335938 233.613281 Z M 212.335938 253.054688 L 287.925781 253.054688 C 289.945312 253.054688 291.578125 254.6875 291.578125 256.707031 C 291.578125 258.726562 289.945312 260.359375 287.925781 260.359375 L 212.335938 260.359375 C 210.320312 260.359375 208.6875 258.726562 208.6875 256.707031 C 208.695312 254.6875 210.328125 253.054688 212.335938 253.054688 Z M 230.003906 181.933594 L 210.226562 167.871094 C 209.265625 167.183594 208.6875 166.082031 208.6875 164.898438 C 208.6875 163.714844 209.253906 162.601562 210.226562 161.921875 L 229.996094 147.871094 C 231.640625 146.695312 233.914062 147.082031 235.078125 148.734375 C 236.253906 150.375 235.867188 152.652344 234.214844 153.820312 L 218.648438 164.898438 L 234.234375 175.984375 C 235.875 177.148438 236.261719 179.425781 235.097656 181.070312 C 234.390625 182.070312 233.261719 182.609375 232.125 182.609375 C 231.382812 182.601562 230.640625 182.390625 230.003906 181.933594 Z M 255.5 182.601562 C 254.03125 182.601562 252.636719 181.703125 252.085938 180.253906 L 241.363281 152.140625 C 240.648438 150.257812 241.59375 148.144531 243.472656 147.429688 C 245.351562 146.714844 247.464844 147.660156 248.179688 149.542969 L 258.902344 177.65625 C 259.617188 179.535156 258.671875 181.648438 256.792969 182.363281 C 256.371094 182.527344 255.929688 182.601562 255.5 182.601562 Z M 268.160156 182.601562 C 267.019531 182.601562 265.894531 182.058594 265.1875 181.058594 C 264.019531 179.417969 264.40625 177.140625 266.046875 175.976562 L 281.644531 164.886719 L 266.046875 153.800781 C 264.40625 152.632812 264.019531 150.359375 265.1875 148.714844 C 266.351562 147.074219 268.625 146.679688 270.269531 147.851562 L 290.046875 161.90625 C 291.011719 162.59375 291.578125 163.695312 291.578125 164.878906 C 291.578125 166.054688 291.011719 167.171875 290.046875 167.851562 L 270.269531 181.914062 C 269.625 182.390625 268.882812 182.601562 268.160156 182.601562 Z M 268.160156 182.601562 " fill-opacity="1" fill-rule="evenodd"/><path fill="#e14659" d="M 61.15625 111.210938 L 61.15625 200.765625 C 72.625 192.332031 86.777344 187.339844 102.0625 187.339844 C 140.242188 187.339844 171.304688 218.414062 171.304688 256.617188 C 171.304688 271.375 166.671875 285.070312 158.773438 296.320312 L 328.933594 296.320312 C 337.300781 296.320312 344.105469 289.511719 344.105469 281.140625 L 344.105469 111.210938 Z M 184.53125 276.496094 L 184.53125 131.054688 C 184.53125 129.039062 186.164062 127.402344 188.183594 127.402344 L 312.089844 127.402344 C 314.109375 127.402344 315.742188 129.039062 315.742188 131.054688 L 315.742188 276.496094 C 315.742188 278.515625 314.109375 280.148438 312.089844 280.148438 L 188.175781 280.148438 C 186.175781 280.140625 184.53125 278.515625 184.53125 276.496094 Z M 184.53125 276.496094 " fill-opacity="1" fill-rule="evenodd"/><path fill="#e14659" d="M 102.0625 213.285156 C 78.175781 213.285156 58.746094 232.726562 58.746094 256.625 C 58.746094 280.527344 78.175781 299.964844 102.0625 299.964844 C 125.949219 299.964844 145.378906 280.527344 145.378906 256.625 C 145.390625 232.726562 125.949219 213.285156 102.0625 213.285156 Z M 88.429688 270.640625 L 124.179688 234.871094 C 125.601562 233.449219 127.914062 233.449219 129.34375 234.871094 C 130.765625 236.296875 130.765625 238.609375 129.34375 240.03125 L 91.007812 278.386719 C 90.320312 279.074219 89.394531 279.460938 88.429688 279.460938 C 87.46875 279.460938 86.539062 279.074219 85.851562 278.386719 L 74.78125 267.316406 C 73.367188 265.894531 73.367188 263.582031 74.78125 262.152344 C 76.203125 260.738281 78.515625 260.738281 79.945312 262.152344 Z M 88.429688 270.640625 " fill-opacity="1" fill-rule="evenodd"/><path fill="#e14659" d="M 164.011719 256.625 C 164.011719 222.453125 136.226562 194.644531 102.0625 194.644531 C 67.898438 194.644531 40.121094 222.445312 40.121094 256.625 C 40.121094 290.796875 67.910156 318.605469 102.070312 318.605469 C 136.226562 318.605469 164.011719 290.804688 164.011719 256.625 Z M 102.0625 205.988281 C 129.976562 205.988281 152.683594 228.714844 152.683594 256.632812 C 152.683594 284.554688 129.976562 307.28125 102.0625 307.28125 C 74.15625 307.28125 51.441406 284.554688 51.441406 256.632812 C 51.453125 228.703125 74.15625 205.988281 102.0625 205.988281 Z M 102.0625 205.988281 " fill-opacity="1" fill-rule="evenodd"/></svg>