<svg width="36" height="36" viewBox="0 0 36 36" fill="none" xmlns="http://www.w3.org/2000/svg">
<path d="M13.6299 21.7H17V29.2299L17 29.283C16.9999 29.6821 16.9999 30.0617 17.0303 30.3442C17.0456 30.4869 17.0769 30.7007 17.1698 30.9086C17.2728 31.139 17.5127 31.4825 17.9811 31.5857C18.4495 31.6888 18.8116 31.4779 19.0018 31.3121C19.1735 31.1625 19.2917 30.9816 19.3656 30.8586C19.5118 30.615 19.6713 30.2705 19.8389 29.9082L19.8612 29.8601L25.0925 18.5604C25.1023 18.5392 25.1121 18.5181 25.1218 18.4971C25.3925 17.9128 25.6409 17.3762 25.7732 16.9271C25.915 16.4454 25.9999 15.817 25.6204 15.2231C25.2409 14.6292 24.6349 14.4422 24.1382 14.3685C23.6751 14.2998 23.0838 14.2999 22.4398 14.3C22.4167 14.3 22.3934 14.3 22.3701 14.3H19V6.77013C19 6.75239 19 6.73469 19 6.71702C19.0001 6.31789 19.0001 5.9383 18.9697 5.6558C18.9544 5.51307 18.9231 5.2993 18.8302 5.09138C18.7272 4.86098 18.4873 4.51749 18.0189 4.41432C17.5505 4.31116 17.1884 4.52206 16.9982 4.68788C16.8265 4.83752 16.7083 5.01837 16.6344 5.14144C16.4882 5.38503 16.3287 5.72952 16.1611 6.09174C16.1537 6.10777 16.1463 6.12384 16.1388 6.13994L10.9075 17.4396C10.8977 17.4608 10.8879 17.4819 10.8782 17.5029C10.6076 18.0872 10.3591 18.6238 10.2268 19.0729C10.085 19.5546 10.0001 20.183 10.3796 20.7769C10.7591 21.3708 11.3651 21.5578 11.8618 21.6315C12.3249 21.7002 12.9162 21.7001 13.5602 21.7C13.5833 21.7 13.6066 21.7 13.6299 21.7ZM16.9745 5.82175C16.9745 5.82173 16.9747 5.82268 16.9751 5.8247C16.9747 5.82279 16.9745 5.82178 16.9745 5.82175ZM17.6247 29.8697C17.6247 29.8697 17.6253 29.8688 17.6266 29.8671C17.6253 29.8689 17.6247 29.8697 17.6247 29.8697ZM19.0255 30.1782C19.0255 30.1783 19.0253 30.1773 19.0249 30.1753C19.0253 30.1772 19.0255 30.1782 19.0255 30.1782ZM18.3753 6.13029C18.3753 6.13032 18.3747 6.13115 18.3735 6.13269C18.3747 6.13103 18.3753 6.13026 18.3753 6.13029Z" stroke="#33363F" stroke-width="2"/>
</svg>
