<svg xmlns="http://www.w3.org/2000/svg" xmlns:xlink="http://www.w3.org/1999/xlink" width="512" zoomAndPan="magnify" viewBox="0 0 384 383.999986" height="512" preserveAspectRatio="xMidYMid meet" version="1.0"><defs><clipPath id="5eb56649db"><path d="M 197 346 L 208 346 L 208 356.941406 L 197 356.941406 Z M 197 346 " clip-rule="nonzero"/></clipPath></defs><path fill="#ffffff" d="M 150.46875 270.574219 C 150.226562 268.140625 150.269531 265.710938 150.589844 263.289062 C 150.914062 260.863281 151.511719 258.511719 152.382812 256.226562 C 153.253906 253.941406 154.378906 251.785156 155.75 249.761719 C 157.121094 247.734375 158.710938 245.894531 160.511719 244.238281 C 162.296875 242.574219 164.238281 241.117188 166.335938 239.867188 C 168.4375 238.617188 170.644531 237.605469 172.960938 236.832031 C 175.277344 236.054688 177.648438 235.535156 180.074219 235.269531 C 182.503906 235.003906 184.933594 234.996094 187.363281 235.25 C 184.996094 235.46875 182.648438 235.824219 180.324219 236.324219 C 163.355469 239.949219 151.707031 253.277344 150.46875 270.574219 Z M 150.46875 270.574219 " fill-opacity="1" fill-rule="nonzero"/><path fill="#ffffff" d="M 187.363281 242.90625 C 178.820312 242.90625 171.8125 245.511719 166.34375 250.722656 C 160.867188 255.933594 158.132812 262.550781 158.132812 270.574219 C 158.132812 278.480469 160.808594 285.007812 166.160156 290.15625 C 171.511719 295.308594 178.578125 297.882812 187.363281 297.882812 C 196.140625 297.882812 203.207031 295.308594 208.5625 290.15625 C 213.910156 285.007812 216.589844 278.480469 216.589844 270.574219 C 216.589844 262.550781 213.851562 255.933594 208.382812 250.722656 C 202.90625 245.511719 195.898438 242.90625 187.363281 242.90625 Z M 187.363281 242.90625 " fill-opacity="1" fill-rule="nonzero"/><path fill="#f26b6d" d="M 187.363281 291.363281 C 180.269531 291.363281 174.816406 289.433594 170.691406 285.460938 C 166.632812 281.558594 164.660156 276.691406 164.660156 270.574219 C 164.660156 264.355469 166.683594 259.402344 170.84375 255.445312 C 175.097656 251.394531 180.5 249.429688 187.363281 249.429688 C 194.222656 249.429688 199.625 251.394531 203.878906 255.445312 C 208.039062 259.40625 210.0625 264.355469 210.0625 270.574219 C 210.0625 276.6875 208.089844 281.558594 204.035156 285.460938 C 199.90625 289.429688 194.453125 291.363281 187.363281 291.363281 Z M 187.363281 291.363281 " fill-opacity="1" fill-rule="nonzero"/><path fill="#ffffff" d="M 255.382812 48.988281 C 271.648438 62.246094 279.054688 81.613281 280.003906 102.175781 C 281.726562 132.285156 267.21875 152.523438 246.117188 172.1875 C 241.1875 176.671875 236.261719 181.160156 231.269531 185.578125 C 239.367188 177.226562 247.972656 169.328125 255.578125 160.511719 C 267.894531 146.429688 276.570312 131.09375 277.875 112.125 C 278.5625 101.765625 277.582031 91.566406 274.933594 81.527344 C 273.261719 75.296875 270.765625 69.417969 267.441406 63.886719 C 264.121094 58.359375 260.101562 53.390625 255.382812 48.988281 Z M 255.382812 48.988281 " fill-opacity="1" fill-rule="nonzero"/><path fill="#ffffff" d="M 126.066406 50.015625 C 142.691406 33.0625 167.816406 26.980469 190.96875 28.59375 C 167.785156 30.082031 144.671875 35.441406 126.066406 50.015625 Z M 126.066406 50.015625 " fill-opacity="1" fill-rule="nonzero"/><path fill="#ffffff" d="M 169.753906 102.496094 C 168.636719 110.929688 161.117188 117.511719 152.726562 118.289062 C 151.546875 118.386719 150.363281 118.421875 149.179688 118.402344 C 139.976562 118.378906 130.78125 118.1875 121.597656 117.339844 C 131.347656 116.441406 141.121094 116.269531 150.898438 116.277344 C 151.441406 116.273438 151.984375 116.25 152.527344 116.199219 C 153.496094 116.109375 154.453125 115.953125 155.398438 115.722656 C 156.34375 115.496094 157.265625 115.199219 158.167969 114.835938 C 159.070312 114.472656 159.941406 114.046875 160.785156 113.558594 C 161.625 113.066406 162.425781 112.519531 163.1875 111.914062 C 163.945312 111.308594 164.660156 110.652344 165.324219 109.945312 C 165.992188 109.234375 166.601562 108.480469 167.15625 107.683594 C 167.714844 106.886719 168.207031 106.050781 168.644531 105.183594 C 169.078125 104.3125 169.449219 103.417969 169.753906 102.496094 Z M 169.753906 102.496094 " fill-opacity="1" fill-rule="nonzero"/><path fill="#ffffff" d="M 250.328125 54.746094 C 236.257812 42.417969 216.46875 36.25 190.96875 36.25 C 165.710938 36.25 145.773438 42.746094 131.160156 55.738281 C 119.535156 66.070312 112.460938 79.558594 109.929688 96.203125 C 109.867188 96.621094 109.828125 97.039062 109.8125 97.460938 C 109.792969 97.882812 109.800781 98.304688 109.828125 98.726562 C 109.859375 99.144531 109.910156 99.5625 109.984375 99.980469 C 110.058594 100.394531 110.152344 100.804688 110.273438 101.207031 C 110.390625 101.613281 110.53125 102.011719 110.691406 102.402344 C 110.851562 102.789062 111.03125 103.171875 111.234375 103.539062 C 111.4375 103.910156 111.65625 104.269531 111.898438 104.617188 C 112.136719 104.960938 112.394531 105.296875 112.671875 105.613281 C 112.949219 105.933594 113.242188 106.238281 113.550781 106.523438 C 113.859375 106.8125 114.179688 107.082031 114.519531 107.335938 C 114.855469 107.585938 115.207031 107.820312 115.570312 108.035156 C 115.933594 108.25 116.308594 108.445312 116.691406 108.621094 C 117.074219 108.796875 117.46875 108.949219 117.867188 109.082031 C 118.269531 109.214844 118.675781 109.328125 119.085938 109.414062 C 119.5 109.503906 119.914062 109.570312 120.335938 109.617188 C 120.753906 109.660156 121.175781 109.683594 121.597656 109.683594 L 150.757812 109.683594 C 151.417969 109.6875 152.070312 109.636719 152.71875 109.53125 C 153.367188 109.429688 154.003906 109.273438 154.625 109.0625 C 155.25 108.851562 155.851562 108.589844 156.429688 108.277344 C 157.007812 107.96875 157.558594 107.613281 158.078125 107.207031 C 158.597656 106.804688 159.078125 106.363281 159.523438 105.878906 C 159.96875 105.394531 160.371094 104.878906 160.730469 104.328125 C 161.089844 103.777344 161.398438 103.203125 161.660156 102.601562 C 161.925781 101.996094 162.132812 101.378906 162.292969 100.738281 C 162.851562 98.160156 163.75 95.703125 164.988281 93.371094 C 166.226562 91.039062 167.761719 88.917969 169.589844 87.011719 C 174.941406 81.53125 182.066406 78.789062 190.96875 78.789062 C 209.734375 78.789062 219.117188 88.960938 219.117188 109.300781 C 219.109375 112.695312 218.648438 116.023438 217.730469 119.289062 C 216.808594 122.550781 215.46875 125.632812 213.703125 128.53125 C 210.09375 134.609375 202.847656 142.488281 191.960938 152.171875 C 181.074219 161.855469 173.585938 171.6875 169.5 181.671875 C 166.484375 189.027344 164.582031 198.246094 163.789062 209.328125 C 163.734375 210.132812 163.761719 210.9375 163.871094 211.738281 C 163.980469 212.535156 164.171875 213.316406 164.441406 214.078125 C 164.714844 214.835938 165.058594 215.5625 165.476562 216.253906 C 165.898438 216.941406 166.382812 217.582031 166.9375 218.171875 C 167.488281 218.761719 168.09375 219.289062 168.753906 219.753906 C 169.414062 220.21875 170.113281 220.613281 170.855469 220.933594 C 171.597656 221.253906 172.363281 221.496094 173.15625 221.660156 C 173.945312 221.824219 174.746094 221.90625 175.554688 221.90625 L 198.511719 221.90625 C 199.253906 221.90625 199.988281 221.835938 200.71875 221.695312 C 201.445312 221.558594 202.15625 221.351562 202.84375 221.082031 C 203.535156 220.808594 204.191406 220.472656 204.820312 220.078125 C 205.445312 219.679688 206.03125 219.230469 206.570312 218.722656 C 207.113281 218.21875 207.601562 217.664062 208.039062 217.066406 C 208.476562 216.46875 208.851562 215.832031 209.167969 215.164062 C 209.484375 214.492188 209.738281 213.800781 209.921875 213.082031 C 210.109375 212.367188 210.226562 211.636719 210.273438 210.898438 C 211.597656 199.113281 216.828125 188.828125 225.972656 180.046875 L 240.585938 166.15625 C 252.011719 155.089844 260.011719 145.015625 264.582031 135.9375 C 266.855469 131.449219 268.570312 126.757812 269.730469 121.863281 C 270.886719 116.96875 271.457031 112.007812 271.4375 106.976562 C 271.4375 84.488281 264.402344 67.078125 250.328125 54.746094 Z M 250.328125 54.746094 " fill-opacity="1" fill-rule="nonzero"/><path fill="#f26b6d" d="M 175.554688 215.382812 C 174.820312 215.386719 174.117188 215.242188 173.441406 214.949219 C 172.769531 214.65625 172.183594 214.238281 171.6875 213.699219 C 171.191406 213.175781 170.824219 212.574219 170.582031 211.894531 C 170.339844 211.214844 170.246094 210.511719 170.300781 209.792969 C 171.039062 199.453125 172.800781 190.820312 175.539062 184.140625 C 179.230469 175.128906 186.214844 166.011719 196.300781 157.042969 C 207.800781 146.8125 215.328125 138.574219 219.316406 131.859375 C 221.378906 128.457031 222.945312 124.839844 224.019531 121.011719 C 225.09375 117.179688 225.636719 113.277344 225.644531 109.300781 C 225.644531 85.421875 213.328125 72.269531 190.96875 72.269531 C 180.285156 72.269531 171.519531 75.695312 164.917969 82.457031 C 162.675781 84.789062 160.792969 87.382812 159.269531 90.230469 C 157.742188 93.082031 156.632812 96.089844 155.941406 99.246094 C 155.789062 99.8125 155.546875 100.339844 155.21875 100.828125 C 154.890625 101.316406 154.492188 101.738281 154.023438 102.09375 C 153.554688 102.449219 153.039062 102.71875 152.480469 102.898438 C 151.921875 103.082031 151.347656 103.171875 150.757812 103.160156 L 121.597656 103.160156 C 120.824219 103.164062 120.085938 103.007812 119.382812 102.683594 C 118.683594 102.359375 118.082031 101.90625 117.578125 101.316406 C 117.085938 100.75 116.730469 100.105469 116.523438 99.382812 C 116.3125 98.660156 116.265625 97.925781 116.378906 97.183594 C 117.410156 89.96875 119.585938 83.117188 122.914062 76.628906 C 126.128906 70.523438 130.324219 65.183594 135.5 60.609375 C 138.929688 57.601562 142.632812 54.980469 146.605469 52.742188 C 150.582031 50.503906 154.746094 48.695312 159.097656 47.324219 C 168.363281 44.304688 179.089844 42.773438 190.96875 42.773438 C 203 42.773438 213.773438 44.226562 222.992188 47.101562 C 227.226562 48.359375 231.289062 50.050781 235.167969 52.164062 C 239.050781 54.277344 242.667969 56.773438 246.027344 59.648438 C 249.125 62.355469 251.863281 65.382812 254.242188 68.738281 C 256.625 72.089844 258.578125 75.675781 260.109375 79.492188 C 263.296875 87.378906 264.910156 96.625 264.910156 106.976562 C 264.925781 111.5 264.410156 115.957031 263.371094 120.355469 C 262.328125 124.753906 260.789062 128.972656 258.75 133.007812 C 254.53125 141.390625 246.898438 150.960938 236.0625 161.453125 L 221.449219 175.347656 C 211.21875 185.171875 205.277344 196.886719 203.789062 210.171875 L 203.773438 210.320312 L 203.761719 210.472656 C 203.738281 210.800781 203.6875 211.125 203.605469 211.445312 C 203.519531 211.765625 203.40625 212.074219 203.265625 212.375 C 203.125 212.671875 202.957031 212.953125 202.761719 213.222656 C 202.566406 213.488281 202.347656 213.734375 202.105469 213.960938 C 201.863281 214.1875 201.605469 214.386719 201.324219 214.566406 C 201.046875 214.742188 200.753906 214.890625 200.445312 215.011719 C 200.136719 215.136719 199.820312 215.226562 199.496094 215.289062 C 199.171875 215.351562 198.84375 215.382812 198.511719 215.382812 Z M 175.554688 215.382812 " fill-opacity="1" fill-rule="nonzero"/><path fill="#ffffff" d="M 229.003906 271.753906 C 229.410156 270.664062 229.941406 269.636719 230.589844 268.667969 C 231.238281 267.703125 231.988281 266.824219 232.839844 266.03125 C 233.695312 265.238281 234.625 264.554688 235.636719 263.976562 C 236.648438 263.402344 237.714844 262.949219 238.832031 262.621094 C 239.945312 262.285156 241.082031 262.074219 242.238281 261.980469 C 243.398438 261.890625 244.554688 261.921875 245.703125 262.078125 C 246.855469 262.234375 247.976562 262.507812 249.070312 262.90625 C 250.164062 263.300781 251.199219 263.808594 252.183594 264.429688 C 251.128906 264.023438 250.050781 263.683594 248.957031 263.40625 C 248.015625 263.152344 247.0625 262.976562 246.09375 262.878906 C 245.128906 262.78125 244.15625 262.761719 243.1875 262.828125 C 242.214844 262.890625 241.257812 263.03125 240.308594 263.253906 C 239.363281 263.476562 238.441406 263.777344 237.542969 264.152344 C 236.644531 264.527344 235.785156 264.972656 234.960938 265.492188 C 234.136719 266.007812 233.363281 266.59375 232.636719 267.238281 C 231.910156 267.886719 231.242188 268.585938 230.632812 269.34375 C 230.023438 270.101562 229.476562 270.90625 229.003906 271.753906 Z M 229.003906 271.753906 " fill-opacity="1" fill-rule="nonzero"/><path fill="#ffffff" d="M 250.570312 267.695312 C 248.945312 266.820312 247.210938 266.285156 245.371094 266.097656 C 243.53125 265.910156 241.726562 266.082031 239.957031 266.613281 C 239.132812 266.894531 238.34375 267.253906 237.585938 267.6875 C 236.832031 268.121094 236.128906 268.625 235.472656 269.195312 C 234.816406 269.769531 234.222656 270.398438 233.691406 271.089844 C 233.15625 271.777344 232.699219 272.511719 232.308594 273.289062 C 231.921875 274.066406 231.613281 274.875 231.382812 275.714844 C 231.152344 276.554688 231.003906 277.40625 230.941406 278.277344 C 230.878906 279.144531 230.902344 280.007812 231.007812 280.871094 C 231.113281 281.734375 231.304688 282.582031 231.578125 283.40625 C 232.773438 286.730469 235.25 289.3125 238.996094 291.160156 C 242.742188 293.003906 246.300781 293.390625 249.671875 292.316406 C 250.492188 292.027344 251.277344 291.664062 252.03125 291.222656 C 252.78125 290.78125 253.480469 290.273438 254.132812 289.695312 C 254.78125 289.113281 255.371094 288.480469 255.894531 287.785156 C 256.421875 287.09375 256.875 286.355469 257.257812 285.574219 C 257.636719 284.789062 257.941406 283.980469 258.164062 283.136719 C 258.386719 282.296875 258.523438 281.441406 258.578125 280.574219 C 258.632812 279.707031 258.601562 278.839844 258.488281 277.976562 C 258.375 277.117188 258.175781 276.273438 257.898438 275.449219 C 257.242188 273.722656 256.277344 272.1875 255.007812 270.84375 C 253.738281 269.5 252.261719 268.449219 250.570312 267.695312 Z M 250.570312 267.695312 " fill-opacity="1" fill-rule="nonzero"/><path fill="#5bc4bf" d="M 240.371094 288.375 C 237.34375 286.886719 235.421875 284.914062 234.496094 282.355469 C 234.042969 281.101562 233.863281 279.8125 233.960938 278.484375 C 234.058594 277.15625 234.425781 275.90625 235.058594 274.734375 C 235.613281 273.496094 236.398438 272.425781 237.414062 271.527344 C 238.429688 270.625 239.585938 269.976562 240.882812 269.574219 C 241.574219 269.40625 242.277344 269.296875 242.988281 269.25 C 243.703125 269.203125 244.414062 269.21875 245.121094 269.292969 C 245.832031 269.371094 246.527344 269.507812 247.210938 269.707031 C 247.898438 269.90625 248.558594 270.164062 249.199219 270.480469 C 249.839844 270.792969 250.445312 271.164062 251.023438 271.585938 C 251.597656 272.003906 252.132812 272.472656 252.625 272.988281 C 253.117188 273.503906 253.5625 274.058594 253.957031 274.648438 C 254.355469 275.242188 254.695312 275.867188 254.980469 276.519531 C 255.453125 277.789062 255.640625 279.101562 255.546875 280.457031 C 255.453125 281.808594 255.082031 283.082031 254.433594 284.273438 C 253.890625 285.492188 253.121094 286.542969 252.128906 287.429688 C 251.132812 288.316406 250 288.960938 248.726562 289.359375 C 246.128906 290.1875 243.398438 289.867188 240.371094 288.375 Z M 240.371094 288.375 " fill-opacity="1" fill-rule="nonzero"/><path fill="#ffffff" d="M 320.429688 199.230469 C 324.582031 208.308594 323.664062 218.128906 319.738281 227.101562 C 314.136719 240.316406 303.683594 245.90625 290.539062 249.859375 C 287.488281 250.738281 284.441406 251.621094 281.382812 252.457031 C 286.597656 250.59375 291.929688 249.03125 297.035156 246.867188 C 305.253906 243.445312 312.1875 238.722656 316.738281 230.902344 C 319.210938 226.625 320.941406 222.066406 321.921875 217.226562 C 322.523438 214.214844 322.695312 211.179688 322.441406 208.125 C 322.1875 205.066406 321.515625 202.101562 320.429688 199.230469 Z M 320.429688 199.230469 " fill-opacity="1" fill-rule="nonzero"/><path fill="#ffffff" d="M 265.023438 172.496094 C 275.691406 168.753906 287.695312 171.4375 297.234375 176.992188 C 287.027344 172.753906 276.035156 170.183594 265.023438 172.496094 Z M 265.023438 172.496094 " fill-opacity="1" fill-rule="nonzero"/><path fill="#ffffff" d="M 272.621094 204.070312 C 272.332031 204.476562 272.011719 204.851562 271.65625 205.203125 C 271.304688 205.550781 270.929688 205.871094 270.523438 206.160156 C 270.117188 206.445312 269.695312 206.699219 269.246094 206.917969 C 268.800781 207.136719 268.339844 207.316406 267.863281 207.457031 C 267.390625 207.597656 266.90625 207.703125 266.410156 207.765625 C 265.917969 207.828125 265.425781 207.847656 264.929688 207.828125 C 264.433594 207.808594 263.941406 207.75 263.453125 207.652344 C 262.96875 207.550781 262.492188 207.414062 262.027344 207.234375 C 261.503906 207.027344 260.992188 206.796875 260.492188 206.539062 C 256.566406 204.59375 252.683594 202.578125 248.945312 200.289062 C 253.292969 201.953125 257.5 203.933594 261.671875 205.992188 C 261.902344 206.105469 262.140625 206.207031 262.382812 206.300781 C 263.253906 206.632812 264.152344 206.835938 265.078125 206.90625 C 266.007812 206.972656 266.925781 206.910156 267.835938 206.710938 C 268.742188 206.515625 269.605469 206.191406 270.421875 205.742188 C 271.234375 205.292969 271.96875 204.734375 272.621094 204.070312 Z M 272.621094 204.070312 " fill-opacity="1" fill-rule="nonzero"/><path fill="#ffffff" d="M 317.0625 200.625 C 313.652344 192.40625 306.503906 185.617188 295.621094 180.257812 C 284.84375 174.953125 274.96875 173.535156 265.996094 176.007812 C 258.859375 177.972656 253 182.242188 248.414062 188.816406 C 248.183594 189.148438 247.992188 189.5 247.839844 189.871094 C 247.6875 190.242188 247.578125 190.628906 247.507812 191.023438 C 247.4375 191.421875 247.410156 191.820312 247.425781 192.222656 C 247.441406 192.625 247.5 193.019531 247.601562 193.410156 C 247.703125 193.796875 247.847656 194.171875 248.03125 194.53125 C 248.210938 194.890625 248.429688 195.226562 248.683594 195.535156 C 248.941406 195.847656 249.226562 196.128906 249.539062 196.378906 C 249.855469 196.628906 250.195312 196.84375 250.554688 197.019531 L 263 203.148438 C 263.5625 203.429688 264.15625 203.613281 264.78125 203.695312 C 265.40625 203.777344 266.027344 203.757812 266.644531 203.628906 C 267.261719 203.503906 267.84375 203.28125 268.382812 202.957031 C 268.925781 202.636719 269.398438 202.234375 269.804688 201.753906 C 271.398438 199.746094 273.402344 198.304688 275.8125 197.429688 C 279.25 196.214844 282.867188 196.542969 286.667969 198.414062 C 294.675781 202.355469 296.539062 208.667969 292.253906 217.351562 C 290.792969 220.296875 288.675781 222.65625 285.894531 224.417969 C 283.074219 226.253906 278.324219 228.09375 271.640625 229.941406 C 264.953125 231.785156 259.6875 234.40625 255.84375 237.808594 C 252.53125 240.910156 249.777344 244.445312 247.582031 248.414062 C 247.390625 248.746094 247.230469 249.09375 247.109375 249.457031 C 246.988281 249.820312 246.90625 250.195312 246.859375 250.578125 C 246.816406 250.957031 246.8125 251.339844 246.84375 251.722656 C 246.878906 252.105469 246.953125 252.480469 247.0625 252.847656 C 247.175781 253.214844 247.320312 253.566406 247.503906 253.90625 C 247.691406 254.242188 247.90625 254.558594 248.15625 254.851562 C 248.402344 255.144531 248.679688 255.40625 248.984375 255.644531 C 249.285156 255.878906 249.609375 256.082031 249.957031 256.253906 L 259.753906 261.078125 C 260.070312 261.230469 260.398438 261.355469 260.738281 261.449219 C 261.078125 261.546875 261.425781 261.605469 261.777344 261.636719 C 262.128906 261.664062 262.476562 261.660156 262.828125 261.621094 C 263.179688 261.585938 263.523438 261.515625 263.863281 261.410156 C 264.199219 261.308594 264.523438 261.175781 264.835938 261.011719 C 265.148438 260.847656 265.445312 260.65625 265.71875 260.4375 C 265.996094 260.21875 266.25 259.976562 266.480469 259.710938 C 266.710938 259.441406 266.914062 259.15625 267.089844 258.851562 C 268.625 256.464844 270.527344 254.425781 272.796875 252.726562 C 275.066406 251.027344 277.5625 249.78125 280.285156 248.984375 L 289.445312 246.125 C 296.652344 243.804688 302.1875 241.1875 306.050781 238.269531 C 309.933594 235.355469 312.941406 231.714844 315.074219 227.351562 C 319.808594 217.753906 320.472656 208.84375 317.0625 200.625 Z M 317.0625 200.625 " fill-opacity="1" fill-rule="nonzero"/><path fill="#5bc4bf" d="M 251.328125 253.46875 C 250.671875 253.148438 250.238281 252.640625 250.03125 251.9375 C 249.820312 251.25 249.898438 250.597656 250.261719 249.980469 C 252.296875 246.300781 254.839844 243.015625 257.898438 240.132812 C 261.371094 237.0625 266.273438 234.640625 272.464844 232.929688 C 279.527344 230.980469 284.476562 229.046875 287.589844 227.019531 C 290.84375 224.941406 293.328125 222.175781 295.039062 218.722656 C 300.066406 208.53125 297.582031 200.328125 288.039062 195.632812 C 283.480469 193.386719 279.015625 193.007812 274.777344 194.503906 C 271.824219 195.574219 269.371094 197.332031 267.410156 199.78125 C 267.226562 199.992188 267.011719 200.167969 266.769531 200.308594 C 266.527344 200.445312 266.265625 200.542969 265.992188 200.59375 C 265.71875 200.648438 265.441406 200.65625 265.164062 200.617188 C 264.886719 200.574219 264.625 200.492188 264.375 200.367188 L 251.929688 194.238281 C 251.234375 193.898438 250.792969 193.355469 250.601562 192.605469 C 250.410156 191.878906 250.527344 191.207031 250.960938 190.589844 C 252.917969 187.726562 255.292969 185.261719 258.078125 183.191406 C 260.734375 181.261719 263.648438 179.863281 266.820312 179 C 271.058594 177.863281 275.351562 177.625 279.6875 178.285156 C 284.792969 179.105469 289.648438 180.691406 294.25 183.042969 C 298.933594 185.257812 303.183594 188.117188 307.003906 191.617188 C 310.125 194.507812 312.519531 197.90625 314.191406 201.8125 C 315.71875 205.476562 316.332031 209.285156 316.027344 213.242188 C 315.601562 217.730469 314.355469 221.976562 312.289062 225.980469 C 310.371094 229.898438 307.667969 233.171875 304.179688 235.796875 C 300.613281 238.484375 295.339844 240.964844 288.507812 243.167969 L 279.34375 246.027344 C 276.277344 246.9375 273.464844 248.347656 270.90625 250.269531 C 268.347656 252.1875 266.203125 254.488281 264.476562 257.179688 L 264.4375 257.238281 L 264.402344 257.300781 C 264.242188 257.574219 264.039062 257.8125 263.789062 258.007812 C 263.539062 258.203125 263.261719 258.347656 262.960938 258.441406 C 262.65625 258.535156 262.34375 258.566406 262.027344 258.542969 C 261.710938 258.515625 261.410156 258.433594 261.125 258.292969 Z M 251.328125 253.46875 " fill-opacity="1" fill-rule="nonzero"/><path fill="#ffffff" d="M 107.136719 338.164062 C 106.648438 337.105469 106.289062 336.007812 106.058594 334.867188 C 105.828125 333.726562 105.730469 332.574219 105.765625 331.410156 C 105.804688 330.25 105.972656 329.105469 106.277344 327.980469 C 106.578125 326.859375 107.007812 325.785156 107.558594 324.761719 C 108.101562 323.734375 108.75 322.777344 109.5 321.890625 C 110.25 321.003906 111.085938 320.207031 112.007812 319.496094 C 112.929688 318.789062 113.914062 318.1875 114.964844 317.691406 C 116.015625 317.195312 117.105469 316.816406 118.238281 316.554688 C 117.207031 317.015625 116.207031 317.542969 115.242188 318.125 C 114.398438 318.613281 113.601562 319.164062 112.851562 319.785156 C 112.101562 320.402344 111.40625 321.078125 110.769531 321.8125 C 110.128906 322.546875 109.554688 323.328125 109.046875 324.15625 C 108.539062 324.984375 108.105469 325.851562 107.738281 326.753906 C 107.375 327.652344 107.085938 328.578125 106.875 329.527344 C 106.664062 330.476562 106.535156 331.4375 106.484375 332.40625 C 106.433594 333.378906 106.460938 334.347656 106.570312 335.3125 C 106.679688 336.277344 106.867188 337.226562 107.136719 338.164062 Z M 107.136719 338.164062 " fill-opacity="1" fill-rule="nonzero"/><path fill="#ffffff" d="M 119.429688 319.996094 C 117.660156 320.535156 116.058594 321.390625 114.632812 322.5625 C 113.203125 323.738281 112.058594 325.140625 111.191406 326.773438 C 110.808594 327.554688 110.507812 328.367188 110.285156 329.207031 C 110.0625 330.046875 109.925781 330.902344 109.871094 331.769531 C 109.816406 332.640625 109.847656 333.503906 109.964844 334.367188 C 110.078125 335.230469 110.277344 336.074219 110.558594 336.894531 C 110.835938 337.71875 111.195312 338.507812 111.628906 339.261719 C 112.066406 340.015625 112.570312 340.71875 113.140625 341.375 C 113.714844 342.03125 114.347656 342.625 115.035156 343.15625 C 115.722656 343.6875 116.457031 344.148438 117.238281 344.535156 C 120.445312 346.023438 124.023438 346.082031 127.972656 344.71875 C 131.921875 343.359375 134.699219 341.105469 136.304688 337.957031 C 136.679688 337.171875 136.972656 336.359375 137.1875 335.515625 C 137.402344 334.671875 137.53125 333.816406 137.578125 332.945312 C 137.625 332.078125 137.585938 331.210938 137.464844 330.351562 C 137.339844 329.492188 137.136719 328.648438 136.847656 327.828125 C 136.558594 327.007812 136.195312 326.222656 135.753906 325.472656 C 135.3125 324.722656 134.800781 324.023438 134.222656 323.371094 C 133.640625 322.722656 133.007812 322.136719 132.3125 321.609375 C 131.617188 321.085938 130.878906 320.632812 130.097656 320.25 C 128.40625 319.5 126.636719 319.105469 124.789062 319.0625 C 122.9375 319.015625 121.152344 319.328125 119.429688 319.996094 Z M 119.429688 319.996094 " fill-opacity="1" fill-rule="nonzero"/><path fill="#fee56e" d="M 126.960938 341.789062 C 123.769531 342.890625 121.015625 342.867188 118.546875 341.722656 C 117.332031 341.164062 116.289062 340.382812 115.414062 339.378906 C 114.539062 338.375 113.90625 337.234375 113.519531 335.960938 C 113.027344 334.695312 112.820312 333.386719 112.894531 332.03125 C 112.96875 330.679688 113.320312 329.398438 113.949219 328.195312 C 114.316406 327.585938 114.730469 327.011719 115.199219 326.472656 C 115.664062 325.933594 116.175781 325.4375 116.730469 324.988281 C 117.285156 324.539062 117.871094 324.144531 118.496094 323.796875 C 119.117188 323.449219 119.769531 323.160156 120.441406 322.929688 C 121.117188 322.695312 121.804688 322.523438 122.511719 322.410156 C 123.214844 322.300781 123.921875 322.25 124.636719 322.261719 C 125.351562 322.273438 126.054688 322.347656 126.757812 322.484375 C 127.457031 322.621094 128.140625 322.816406 128.804688 323.070312 C 130.042969 323.632812 131.109375 324.421875 132.003906 325.441406 C 132.898438 326.460938 133.542969 327.621094 133.9375 328.917969 C 134.421875 330.160156 134.628906 331.445312 134.558594 332.777344 C 134.488281 334.105469 134.148438 335.363281 133.539062 336.546875 C 132.300781 338.972656 130.148438 340.6875 126.960938 341.789062 Z M 126.960938 341.789062 " fill-opacity="1" fill-rule="nonzero"/><path fill="#ffffff" d="M 119.878906 222.230469 C 129.253906 225.671875 135.597656 233.230469 139.21875 242.332031 C 144.675781 255.605469 141.296875 266.960938 134.859375 279.074219 C 133.339844 281.855469 131.824219 284.640625 130.265625 287.402344 C 132.609375 282.390625 135.25 277.5 137.300781 272.355469 C 140.652344 264.113281 142.171875 255.871094 139.808594 247.136719 C 138.507812 242.371094 136.480469 237.9375 133.730469 233.832031 C 132.007812 231.289062 129.972656 229.03125 127.621094 227.0625 C 125.265625 225.089844 122.6875 223.480469 119.878906 222.230469 Z M 119.878906 222.230469 " fill-opacity="1" fill-rule="nonzero"/><path fill="#ffffff" d="M 61.878906 242.753906 C 66.722656 232.550781 77.078125 225.914062 87.742188 223.050781 C 77.542969 227.316406 67.984375 233.3125 61.878906 242.753906 Z M 61.878906 242.753906 " fill-opacity="1" fill-rule="nonzero"/><path fill="#ffffff" d="M 89.683594 259.578125 C 89.765625 260.066406 89.808594 260.558594 89.8125 261.054688 C 89.8125 261.550781 89.773438 262.046875 89.695312 262.535156 C 89.613281 263.023438 89.496094 263.503906 89.335938 263.976562 C 89.175781 264.445312 88.980469 264.898438 88.746094 265.335938 C 88.511719 265.773438 88.246094 266.191406 87.941406 266.582031 C 87.640625 266.976562 87.308594 267.34375 86.945312 267.683594 C 86.582031 268.023438 86.195312 268.328125 85.78125 268.605469 C 85.367188 268.878906 84.933594 269.117188 84.480469 269.324219 C 83.964844 269.550781 83.441406 269.75 82.90625 269.921875 C 78.761719 271.339844 74.59375 272.679688 70.335938 273.722656 C 74.578125 271.808594 78.949219 270.214844 83.347656 268.703125 C 83.589844 268.617188 83.832031 268.519531 84.066406 268.414062 C 84.914062 268.03125 85.691406 267.535156 86.394531 266.925781 C 87.097656 266.316406 87.695312 265.617188 88.195312 264.832031 C 88.695312 264.046875 89.070312 263.210938 89.324219 262.316406 C 89.578125 261.417969 89.699219 260.507812 89.683594 259.578125 Z M 89.683594 259.578125 " fill-opacity="1" fill-rule="nonzero"/><path fill="#ffffff" d="M 118.5 225.605469 C 110.257812 222.242188 100.398438 222.539062 88.929688 226.496094 C 77.570312 230.414062 69.613281 236.425781 65.058594 244.535156 C 61.4375 250.984375 60.351562 258.148438 61.800781 266.03125 C 61.875 266.425781 61.992188 266.808594 62.148438 267.179688 C 62.304688 267.546875 62.5 267.898438 62.734375 268.226562 C 62.964844 268.554688 63.230469 268.855469 63.527344 269.125 C 63.828125 269.398438 64.148438 269.632812 64.496094 269.835938 C 64.847656 270.039062 65.210938 270.199219 65.597656 270.324219 C 65.980469 270.445312 66.371094 270.527344 66.773438 270.566406 C 67.171875 270.601562 67.574219 270.597656 67.972656 270.550781 C 68.375 270.503906 68.765625 270.414062 69.144531 270.28125 L 82.257812 265.757812 C 82.855469 265.554688 83.402344 265.261719 83.902344 264.878906 C 84.402344 264.492188 84.820312 264.035156 85.167969 263.507812 C 85.511719 262.980469 85.757812 262.414062 85.910156 261.800781 C 86.066406 261.191406 86.113281 260.574219 86.058594 259.945312 C 85.75 257.402344 86.132812 254.96875 87.203125 252.640625 C 88.757812 249.34375 91.539062 247.007812 95.542969 245.625 C 103.980469 242.714844 109.78125 245.832031 112.945312 254.980469 C 114.011719 258.09375 114.199219 261.257812 113.496094 264.46875 C 112.820312 267.761719 110.785156 272.429688 107.394531 278.476562 C 104.003906 284.519531 102.164062 290.101562 101.878906 295.226562 C 101.753906 299.757812 102.332031 304.199219 103.609375 308.550781 C 103.707031 308.921875 103.84375 309.277344 104.019531 309.621094 C 104.191406 309.964844 104.398438 310.285156 104.640625 310.585938 C 104.878906 310.886719 105.148438 311.15625 105.445312 311.402344 C 105.738281 311.648438 106.058594 311.859375 106.398438 312.039062 C 106.738281 312.21875 107.089844 312.363281 107.460938 312.46875 C 107.832031 312.578125 108.207031 312.644531 108.589844 312.671875 C 108.972656 312.703125 109.355469 312.691406 109.738281 312.644531 C 110.117188 312.59375 110.492188 312.507812 110.855469 312.382812 L 121.179688 308.820312 C 121.511719 308.707031 121.832031 308.558594 122.136719 308.386719 C 122.445312 308.210938 122.730469 308.007812 123 307.777344 C 123.265625 307.546875 123.511719 307.296875 123.730469 307.019531 C 123.953125 306.746094 124.144531 306.453125 124.308594 306.140625 C 124.472656 305.828125 124.605469 305.503906 124.710938 305.167969 C 124.8125 304.828125 124.886719 304.484375 124.921875 304.136719 C 124.960938 303.785156 124.96875 303.433594 124.941406 303.082031 C 124.910156 302.730469 124.851562 302.386719 124.757812 302.046875 C 124.140625 299.28125 124.027344 296.492188 124.417969 293.6875 C 124.808594 290.878906 125.675781 288.230469 127.023438 285.734375 L 131.4375 277.222656 C 134.855469 270.472656 136.886719 264.699219 137.53125 259.90625 C 138.191406 255.097656 137.71875 250.402344 136.113281 245.820312 C 132.617188 235.707031 126.746094 228.964844 118.5 225.605469 Z M 118.5 225.605469 " fill-opacity="1" fill-rule="nonzero"/><path fill="#fee56e" d="M 109.839844 309.449219 C 109.148438 309.691406 108.484375 309.636719 107.839844 309.292969 C 107.203125 308.957031 106.792969 308.445312 106.609375 307.75 C 105.421875 303.71875 104.878906 299.601562 104.976562 295.398438 C 105.238281 290.773438 106.960938 285.589844 110.101562 279.992188 C 113.683594 273.609375 115.789062 268.734375 116.539062 265.09375 C 117.351562 261.324219 117.132812 257.617188 115.878906 253.96875 C 112.167969 243.230469 104.585938 239.226562 94.527344 242.691406 C 89.722656 244.351562 86.3125 247.253906 84.394531 251.316406 C 83.078125 254.164062 82.605469 257.144531 82.96875 260.257812 C 82.988281 260.539062 82.960938 260.8125 82.890625 261.082031 C 82.816406 261.355469 82.703125 261.605469 82.546875 261.835938 C 82.390625 262.070312 82.203125 262.269531 81.980469 262.441406 C 81.757812 262.609375 81.511719 262.738281 81.246094 262.824219 L 68.132812 267.347656 C 67.402344 267.605469 66.703125 267.535156 66.035156 267.140625 C 65.382812 266.765625 64.988281 266.210938 64.855469 265.46875 C 64.195312 262.0625 64.109375 258.644531 64.597656 255.210938 C 65.097656 251.964844 66.152344 248.914062 67.769531 246.054688 C 69.941406 242.246094 72.792969 239.03125 76.316406 236.417969 C 80.492188 233.371094 85.035156 231.039062 89.945312 229.425781 C 94.816406 227.660156 99.839844 226.65625 105.019531 226.40625 C 109.269531 226.222656 113.371094 226.914062 117.328125 228.476562 C 121.007812 229.96875 124.148438 232.21875 126.746094 235.214844 C 129.640625 238.675781 131.785156 242.546875 133.179688 246.832031 C 134.617188 250.953125 135.039062 255.171875 134.453125 259.496094 C 133.859375 263.917969 131.914062 269.40625 128.671875 275.808594 L 124.257812 284.324219 C 122.746094 287.140625 121.773438 290.132812 121.339844 293.296875 C 120.902344 296.464844 121.03125 299.605469 121.726562 302.726562 L 121.746094 302.796875 L 121.761719 302.863281 C 121.847656 303.171875 121.871094 303.480469 121.835938 303.796875 C 121.800781 304.113281 121.707031 304.410156 121.558594 304.691406 C 121.414062 304.972656 121.21875 305.214844 120.976562 305.421875 C 120.734375 305.628906 120.464844 305.785156 120.164062 305.886719 Z M 109.839844 309.449219 " fill-opacity="1" fill-rule="nonzero"/><path fill="#ffffff" d="M 196.128906 350.121094 C 196.214844 349.234375 196.5 348.417969 196.972656 347.667969 C 197.449219 346.914062 198.066406 346.308594 198.828125 345.847656 C 199.582031 345.386719 200.398438 345.097656 201.277344 344.988281 C 202.15625 344.878906 203.015625 344.957031 203.863281 345.222656 C 203.4375 345.175781 203.015625 345.15625 202.589844 345.160156 C 201.851562 345.15625 201.132812 345.269531 200.433594 345.503906 C 199.730469 345.738281 199.089844 346.082031 198.503906 346.53125 C 197.917969 346.980469 197.421875 347.511719 197.015625 348.125 C 196.609375 348.742188 196.3125 349.40625 196.128906 350.121094 Z M 196.128906 350.121094 " fill-opacity="1" fill-rule="nonzero"/><g clip-path="url(#5eb56649db)"><path fill="#ffffff" d="M 203.589844 346.566406 C 202.914062 346.402344 202.230469 346.375 201.542969 346.484375 C 200.855469 346.59375 200.214844 346.832031 199.621094 347.195312 C 199.347656 347.375 199.09375 347.582031 198.863281 347.8125 C 198.628906 348.042969 198.421875 348.292969 198.238281 348.566406 C 198.054688 348.835938 197.898438 349.125 197.769531 349.425781 C 197.644531 349.726562 197.546875 350.039062 197.480469 350.359375 C 197.414062 350.679688 197.378906 351.003906 197.375 351.332031 C 197.375 351.660156 197.402344 351.984375 197.464844 352.308594 C 197.523438 352.628906 197.617188 352.941406 197.738281 353.246094 C 197.859375 353.550781 198.011719 353.839844 198.1875 354.113281 C 198.621094 354.660156 199.132812 355.113281 199.726562 355.472656 C 200.320312 355.835938 200.957031 356.085938 201.636719 356.222656 C 202.320312 356.359375 203.003906 356.378906 203.691406 356.273438 C 204.378906 356.167969 205.027344 355.949219 205.636719 355.617188 C 205.90625 355.433594 206.160156 355.226562 206.390625 354.992188 C 206.621094 354.761719 206.828125 354.507812 207.007812 354.234375 C 207.1875 353.960938 207.339844 353.671875 207.464844 353.371094 C 207.589844 353.066406 207.683594 352.753906 207.75 352.433594 C 207.8125 352.109375 207.84375 351.785156 207.84375 351.457031 C 207.84375 351.132812 207.8125 350.804688 207.746094 350.484375 C 207.683594 350.164062 207.589844 349.851562 207.464844 349.546875 C 207.339844 349.246094 207.1875 348.957031 207.003906 348.683594 C 206.601562 348.117188 206.101562 347.652344 205.507812 347.285156 C 204.917969 346.917969 204.277344 346.679688 203.589844 346.566406 Z M 203.589844 346.566406 " fill-opacity="1" fill-rule="nonzero"/></g><path fill="#1d545d" d="M 201.871094 355.078125 C 200.734375 354.917969 199.828125 354.375 199.152344 353.449219 C 198.550781 352.585938 198.371094 351.644531 198.621094 350.621094 C 198.703125 350.117188 198.886719 349.652344 199.167969 349.226562 C 199.453125 348.800781 199.808594 348.453125 200.242188 348.183594 C 200.71875 347.925781 201.222656 347.753906 201.761719 347.671875 C 202.296875 347.59375 202.828125 347.605469 203.359375 347.710938 C 203.890625 347.820312 204.386719 348.015625 204.847656 348.296875 C 205.308594 348.578125 205.710938 348.929688 206.046875 349.355469 C 206.339844 349.773438 206.535156 350.230469 206.632812 350.734375 C 206.726562 351.234375 206.714844 351.734375 206.597656 352.230469 C 206.425781 353.269531 205.898438 354.070312 205.007812 354.632812 C 204.023438 355.21875 202.976562 355.367188 201.871094 355.078125 Z M 201.871094 355.078125 " fill-opacity="1" fill-rule="nonzero"/><path fill="#ffffff" d="M 222.425781 314.914062 C 224.8125 317.820312 225.425781 321.484375 224.859375 325.128906 C 224.09375 330.480469 220.828125 333.519531 216.421875 336.226562 C 215.398438 336.839844 214.371094 337.453125 213.339844 338.054688 C 215.058594 336.871094 216.851562 335.789062 218.5 334.511719 C 221.164062 332.472656 223.230469 330.085938 224.132812 326.800781 C 224.621094 325.007812 224.8125 323.179688 224.703125 321.324219 C 224.554688 318.96875 223.796875 316.832031 222.425781 314.914062 Z M 222.425781 314.914062 " fill-opacity="1" fill-rule="nonzero"/><path fill="#ffffff" d="M 199.671875 310.511719 C 203.195312 308.121094 207.824219 307.945312 211.835938 309.050781 C 207.710938 308.488281 203.457031 308.609375 199.671875 310.511719 Z M 199.671875 310.511719 " fill-opacity="1" fill-rule="nonzero"/><path fill="#ffffff" d="M 205.484375 321.277344 C 205.347656 321.628906 205.160156 321.949219 204.921875 322.238281 C 204.679688 322.527344 204.398438 322.773438 204.078125 322.96875 C 203.757812 323.164062 203.414062 323.304688 203.042969 323.386719 C 202.675781 323.46875 202.304688 323.488281 201.933594 323.449219 C 201.722656 323.425781 201.511719 323.390625 201.304688 323.34375 C 199.6875 323.011719 198.082031 322.652344 196.496094 322.179688 C 198.242188 322.367188 199.964844 322.683594 201.683594 323.03125 C 201.777344 323.050781 201.875 323.066406 201.96875 323.074219 C 202.683594 323.152344 203.359375 323.027344 203.996094 322.699219 C 204.632812 322.375 205.128906 321.898438 205.484375 321.277344 Z M 205.484375 321.277344 " fill-opacity="1" fill-rule="nonzero"/><path fill="#ffffff" d="M 221.332031 315.746094 C 219.296875 313.082031 216.042969 311.296875 211.5625 310.394531 C 207.125 309.5 203.394531 309.933594 200.363281 311.695312 C 199.148438 312.410156 198.097656 313.316406 197.207031 314.410156 C 196.320312 315.503906 195.648438 316.71875 195.199219 318.054688 C 195.09375 318.339844 195.054688 318.636719 195.082031 318.945312 C 195.105469 319.25 195.195312 319.535156 195.347656 319.804688 C 195.496094 320.070312 195.695312 320.292969 195.945312 320.472656 C 196.195312 320.652344 196.46875 320.773438 196.769531 320.835938 L 201.890625 321.867188 C 202.125 321.917969 202.359375 321.925781 202.59375 321.894531 C 202.828125 321.867188 203.050781 321.796875 203.265625 321.691406 C 203.476562 321.585938 203.667969 321.449219 203.832031 321.28125 C 204 321.113281 204.132812 320.917969 204.234375 320.707031 C 204.46875 320.160156 204.789062 319.667969 205.195312 319.238281 C 205.605469 318.808594 206.078125 318.460938 206.613281 318.199219 C 207.148438 317.9375 207.710938 317.78125 208.300781 317.722656 C 208.894531 317.664062 209.476562 317.714844 210.050781 317.867188 C 213.347656 318.53125 214.636719 320.648438 213.914062 324.222656 C 213.664062 325.4375 213.121094 326.5 212.277344 327.410156 C 210.886719 328.753906 209.332031 329.882812 207.621094 330.792969 C 205.617188 331.871094 203.953125 333.332031 202.628906 335.175781 C 201.722656 336.625 201.058594 338.175781 200.640625 339.832031 C 200.566406 340.113281 200.546875 340.402344 200.589844 340.691406 C 200.628906 340.980469 200.726562 341.25 200.882812 341.496094 C 201.035156 341.746094 201.230469 341.953125 201.472656 342.121094 C 201.710938 342.289062 201.976562 342.402344 202.261719 342.460938 L 206.296875 343.273438 C 206.558594 343.324219 206.820312 343.328125 207.085938 343.28125 C 207.347656 343.234375 207.59375 343.140625 207.824219 343 C 208.050781 342.859375 208.246094 342.679688 208.40625 342.464844 C 208.566406 342.25 208.683594 342.015625 208.753906 341.757812 C 209.082031 340.742188 209.574219 339.8125 210.238281 338.976562 C 210.902344 338.140625 211.691406 337.445312 212.605469 336.894531 L 215.664062 334.972656 C 217.671875 333.773438 219.433594 332.289062 220.953125 330.511719 C 222.085938 329.078125 222.832031 327.460938 223.1875 325.667969 C 223.984375 321.71875 223.367188 318.410156 221.332031 315.746094 Z M 221.332031 315.746094 " fill-opacity="1" fill-rule="nonzero"/><path fill="#1d545d" d="M 202.492188 341.3125 C 202.222656 341.261719 202.015625 341.117188 201.875 340.882812 C 201.730469 340.652344 201.695312 340.40625 201.769531 340.144531 C 202.15625 338.609375 202.765625 337.167969 203.601562 335.824219 C 204.832031 334.132812 206.367188 332.792969 208.210938 331.800781 C 210.03125 330.835938 211.675781 329.632812 213.148438 328.191406 C 214.132812 327.125 214.769531 325.878906 215.058594 324.453125 C 215.90625 320.261719 214.210938 317.511719 210.285156 316.722656 C 209.578125 316.542969 208.867188 316.488281 208.144531 316.566406 C 207.421875 316.640625 206.734375 316.839844 206.082031 317.160156 C 205.429688 317.480469 204.855469 317.902344 204.355469 318.429688 C 203.851562 318.953125 203.460938 319.550781 203.171875 320.21875 C 203.074219 320.410156 202.929688 320.554688 202.734375 320.648438 C 202.539062 320.746094 202.335938 320.769531 202.125 320.722656 L 197 319.6875 C 196.714844 319.632812 196.5 319.476562 196.359375 319.222656 C 196.21875 318.976562 196.199219 318.71875 196.296875 318.453125 C 196.734375 317.222656 197.359375 316.097656 198.175781 315.074219 C 198.957031 314.117188 199.882812 313.328125 200.953125 312.707031 C 202.386719 311.882812 203.925781 311.386719 205.570312 311.210938 C 207.507812 311.015625 209.429688 311.125 211.332031 311.539062 C 213.25 311.894531 215.074219 312.527344 216.800781 313.433594 C 218.214844 314.1875 219.417969 315.191406 220.402344 316.453125 C 221.3125 317.640625 221.902344 318.96875 222.171875 320.441406 C 222.449219 322.113281 222.40625 323.78125 222.039062 325.4375 C 221.71875 327.050781 221.050781 328.5 220.03125 329.792969 C 218.59375 331.460938 216.929688 332.855469 215.039062 333.984375 L 211.976562 335.90625 C 210.949219 336.535156 210.058594 337.320312 209.3125 338.261719 C 208.566406 339.207031 208.007812 340.253906 207.636719 341.398438 L 207.628906 341.425781 L 207.625 341.449219 C 207.558594 341.691406 207.417969 341.875 207.207031 342.003906 C 206.996094 342.136719 206.769531 342.175781 206.527344 342.128906 Z M 202.492188 341.3125 " fill-opacity="1" fill-rule="nonzero"/></svg>