<svg width="72" height="72" viewBox="0 0 72 72" fill="none" xmlns="http://www.w3.org/2000/svg">
<g clip-path="url(#clip0_205_24)">
<path d="M0 36C0 55.8822 16.1178 72 36 72C55.8823 72 72 55.8822 72 36C72 16.1177 55.8823 0 36 0C16.1178 0 0 16.1177 0 36Z" fill="url(#paint0_linear_205_24)"/>
<path fill-rule="evenodd" clip-rule="evenodd" d="M36 8.07776C20.5775 8.07776 8.07812 20.5787 8.07812 35.9996C8.07812 51.4205 20.5791 63.9219 36 63.9219C40.4108 63.9285 44.7598 62.8853 48.6878 60.8787L52.5 58.5L56.2766 55.1931C61.0138 50.1895 63.9203 43.4342 63.9203 35.9996C63.9203 20.5771 51.4193 8.07776 35.9984 8.07776" fill="#181A1F"/>
<path fill-rule="evenodd" clip-rule="evenodd" d="M29.6509 8.8031C17.2891 11.6778 8.0801 22.7617 8.0801 35.998C8.07441 40.1601 9.00297 44.2705 10.7973 48.026C22.3459 41.5072 30.1446 29.1215 30.1446 14.9153C30.1446 12.868 29.9801 10.8241 29.6529 8.8031" fill="#14161A"/>
<path d="M36.8483 39.2483L33.885 36.32L33.92 36.285C35.8965 34.0883 37.3732 31.4891 38.2483 28.6667H41.6667V26.3333H33.5V24H31.1667V26.3333H23V28.6667H36.0317C35.25 30.9067 34.0133 33.0417 32.3333 34.9083C31.2483 33.7067 30.35 32.3883 29.6383 31H27.305C28.1567 32.9017 29.3233 34.6983 30.7817 36.32L24.8433 42.1767L26.5 43.8333L32.3333 38L35.9617 41.6283L36.8483 39.2483ZM43.4167 33.3333H41.0833L35.8333 47.3333H38.1667L39.4733 43.8333H45.015L46.3333 47.3333H48.6667L43.4167 33.3333ZM40.36 41.5L42.25 36.4483L44.14 41.5H40.36Z" fill="white"/>
</g>
<defs>
<linearGradient id="paint0_linear_205_24" x1="40.1311" y1="74.2255" x2="32.6222" y2="4.7448" gradientUnits="userSpaceOnUse">
<stop stop-color="#EE5350"/>
<stop offset="1" stop-color="#EE5350"/>
</linearGradient>
<clipPath id="clip0_205_24">
<rect width="72" height="72" fill="white"/>
</clipPath>
</defs>
</svg>
