<svg xmlns="http://www.w3.org/2000/svg" xmlns:xlink="http://www.w3.org/1999/xlink" width="512" zoomAndPan="magnify" viewBox="0 0 384 383.999986" height="512" preserveAspectRatio="xMidYMid meet" version="1.0"><path fill="#28384c" d="M 306.261719 311.980469 L 174.804688 311.980469 C 171.652344 311.980469 169.089844 309.425781 169.089844 306.261719 C 169.089844 303.101562 171.652344 300.546875 174.804688 300.546875 L 306.261719 300.546875 C 309.417969 300.546875 311.980469 303.101562 311.980469 306.261719 C 311.980469 309.425781 309.417969 311.980469 306.261719 311.980469 Z M 306.261719 311.980469 " fill-opacity="1" fill-rule="nonzero"/><path fill="#28384c" d="M 306.261719 254.824219 L 174.804688 254.824219 C 171.652344 254.824219 169.089844 252.269531 169.089844 249.109375 C 169.089844 245.949219 171.652344 243.394531 174.804688 243.394531 L 306.261719 243.394531 C 309.417969 243.394531 311.980469 245.949219 311.980469 249.109375 C 311.980469 252.269531 309.417969 254.824219 306.261719 254.824219 Z M 306.261719 254.824219 " fill-opacity="1" fill-rule="nonzero"/><path fill="#28384c" d="M 306.261719 197.667969 L 174.804688 197.667969 C 171.652344 197.667969 169.089844 195.113281 169.089844 191.953125 C 169.089844 188.792969 171.652344 186.238281 174.804688 186.238281 L 306.261719 186.238281 C 309.417969 186.238281 311.980469 188.792969 311.980469 191.953125 C 311.980469 195.113281 309.417969 197.667969 306.261719 197.667969 Z M 306.261719 197.667969 " fill-opacity="1" fill-rule="nonzero"/><path fill="#28384c" d="M 306.261719 140.511719 L 174.804688 140.511719 C 171.652344 140.511719 169.089844 137.957031 169.089844 134.796875 C 169.089844 131.636719 171.652344 129.082031 174.804688 129.082031 L 306.261719 129.082031 C 309.417969 129.082031 311.980469 131.636719 311.980469 134.796875 C 311.980469 137.957031 309.417969 140.511719 306.261719 140.511719 Z M 306.261719 140.511719 " fill-opacity="1" fill-rule="nonzero"/><path fill="#28384c" d="M 306.261719 83.359375 L 174.804688 83.359375 C 171.652344 83.359375 169.089844 80.804688 169.089844 77.644531 C 169.089844 74.480469 171.652344 71.925781 174.804688 71.925781 L 306.261719 71.925781 C 309.417969 71.925781 311.980469 74.480469 311.980469 77.644531 C 311.980469 80.804688 309.417969 83.359375 306.261719 83.359375 Z M 306.261719 83.359375 " fill-opacity="1" fill-rule="nonzero"/><path fill="#7383bf" d="M 77.644531 226.246094 C 76.179688 226.246094 74.714844 225.6875 73.601562 224.570312 C 71.367188 222.335938 71.367188 218.726562 73.601562 216.488281 L 98.136719 191.953125 L 73.601562 167.417969 C 71.367188 165.183594 71.367188 161.570312 73.601562 159.335938 C 75.832031 157.101562 79.453125 157.101562 81.683594 159.335938 L 110.261719 187.914062 C 112.496094 190.148438 112.496094 193.757812 110.261719 195.992188 L 81.683594 224.570312 C 80.570312 225.6875 79.105469 226.246094 77.644531 226.246094 Z M 77.644531 226.246094 " fill-opacity="1" fill-rule="nonzero"/><path fill="#dd352e" d="M 129.082031 77.644531 L 151.945312 77.644531 L 151.945312 306.261719 L 129.082031 306.261719 Z M 129.082031 77.644531 " fill-opacity="1" fill-rule="nonzero"/></svg>