<svg xmlns="http://www.w3.org/2000/svg" xmlns:xlink="http://www.w3.org/1999/xlink" width="512" zoomAndPan="magnify" viewBox="0 0 384 383.999986" height="512" preserveAspectRatio="xMidYMid meet" version="1.0"><defs><clipPath id="6122c09ffc"><path d="M 115.199219 197 L 256 197 L 256 201 L 115.199219 201 Z M 115.199219 197 " clip-rule="nonzero"/></clipPath><clipPath id="44a84c307c"><path d="M 253 191 L 268.949219 191 L 268.949219 206 L 253 206 Z M 253 191 " clip-rule="nonzero"/></clipPath><clipPath id="7d487039c9"><path d="M 136 172 L 241 172 L 241 223.242188 L 136 223.242188 Z M 136 172 " clip-rule="nonzero"/></clipPath><clipPath id="a7a2da60a1"><path d="M 48 26.875 L 116 26.875 L 116 154 L 48 154 Z M 48 26.875 " clip-rule="nonzero"/></clipPath><clipPath id="aa81d51b6a"><path d="M 278 26.875 L 299 26.875 L 299 154 L 278 154 Z M 278 26.875 " clip-rule="nonzero"/></clipPath><clipPath id="818697c133"><path d="M 192 338 L 204 338 L 204 356.875 L 192 356.875 Z M 192 338 " clip-rule="nonzero"/></clipPath><clipPath id="53c5f7c9c5"><path d="M 193 26.875 L 204 26.875 L 204 190 L 193 190 Z M 193 26.875 " clip-rule="nonzero"/></clipPath></defs><g clip-path="url(#6122c09ffc)"><path fill="#ffffff" d="M 117.269531 200.375 C 118.492188 200.375 119.71875 200.375 120.90625 200.375 C 124.214844 200.375 127.527344 200.375 130.835938 200.375 C 135.738281 200.375 140.644531 200.375 145.546875 200.375 C 151.515625 200.375 157.480469 200.375 163.488281 200.375 C 170.027344 200.375 176.566406 200.375 183.105469 200.375 C 189.726562 200.375 196.304688 200.375 202.925781 200.375 C 209.097656 200.375 215.226562 200.375 221.398438 200.375 C 226.585938 200.375 231.816406 200.375 237.007812 200.375 C 240.769531 200.375 244.488281 200.375 248.246094 200.375 C 250.003906 200.375 251.800781 200.414062 253.558594 200.375 C 253.640625 200.375 253.722656 200.375 253.804688 200.375 C 255.808594 200.375 255.808594 197.261719 253.804688 197.261719 C 252.578125 197.261719 251.351562 197.261719 250.167969 197.261719 C 246.855469 197.261719 243.546875 197.261719 240.238281 197.261719 C 235.332031 197.261719 230.429688 197.261719 225.523438 197.261719 C 219.558594 197.261719 213.589844 197.261719 207.585938 197.261719 C 201.046875 197.261719 194.507812 197.261719 187.96875 197.261719 C 181.347656 197.261719 174.769531 197.261719 168.148438 197.261719 C 161.976562 197.261719 155.847656 197.261719 149.675781 197.261719 C 144.484375 197.261719 139.253906 197.261719 134.0625 197.261719 C 130.304688 197.261719 126.585938 197.261719 122.824219 197.261719 C 121.070312 197.261719 119.269531 197.21875 117.511719 197.261719 C 117.429688 197.261719 117.347656 197.261719 117.269531 197.261719 C 115.265625 197.261719 115.265625 200.375 117.269531 200.375 Z M 117.269531 200.375 " fill-opacity="1" fill-rule="nonzero"/></g><g clip-path="url(#44a84c307c)"><path fill="#ffffff" d="M 253.886719 193.324219 L 254.253906 204.1875 C 254.296875 205.375 255.5625 206.113281 256.625 205.539062 L 267.699219 199.433594 C 268.882812 198.777344 268.761719 197.054688 267.535156 196.5625 L 256.09375 191.808594 C 254.988281 191.359375 253.84375 192.179688 253.886719 193.324219 Z M 253.886719 193.324219 " fill-opacity="1" fill-rule="nonzero"/></g><path fill="#ffffff" d="M 233.332031 174.148438 L 243.792969 177.015625 C 244.9375 177.34375 246.039062 176.320312 245.792969 175.128906 L 243.21875 162.714844 C 242.933594 161.402344 241.257812 160.992188 240.398438 162.015625 L 232.511719 171.566406 C 231.777344 172.464844 232.226562 173.820312 233.332031 174.148438 Z M 233.332031 174.148438 " fill-opacity="1" fill-rule="nonzero"/><g clip-path="url(#7d487039c9)"><path fill="#ffffff" d="M 137.414062 174.761719 C 136.882812 182.710938 136.71875 190.664062 137.78125 198.570312 C 138.152344 201.152344 138.4375 203.40625 138.804688 206.113281 C 139.171875 208.613281 139.621094 211.152344 140.4375 213.570312 C 141.257812 215.949219 142.402344 218.285156 144.199219 220.128906 C 145.875 221.808594 148.328125 223.242188 150.820312 223.117188 C 155.640625 222.875 157.929688 217.503906 159.238281 213.570312 C 160.015625 211.152344 160.585938 208.613281 161.160156 206.152344 C 162.058594 202.261719 162.917969 198.324219 163.734375 194.433594 C 164.511719 190.742188 164.671875 186.972656 165.613281 183.328125 C 165.980469 181.933594 166.429688 180.457031 167.167969 179.1875 C 167.65625 178.328125 168.148438 177.875 169.085938 177.589844 C 168.636719 177.710938 169.003906 177.589844 169.210938 177.589844 C 169.414062 177.589844 169.742188 177.710938 169.292969 177.589844 C 169.375 177.628906 169.496094 177.628906 169.617188 177.671875 C 169.699219 177.671875 169.78125 177.710938 169.863281 177.753906 C 169.699219 177.710938 169.578125 177.589844 169.78125 177.753906 C 169.90625 177.835938 169.988281 177.875 170.109375 177.957031 C 170.394531 178.121094 169.90625 177.710938 170.191406 178 C 170.394531 178.246094 170.640625 178.449219 170.84375 178.695312 C 170.558594 178.328125 170.886719 178.777344 170.96875 178.859375 C 171.050781 178.984375 171.128906 179.148438 171.210938 179.269531 C 171.417969 179.636719 171.621094 179.964844 171.785156 180.335938 C 171.824219 180.457031 171.988281 180.828125 171.867188 180.539062 C 171.949219 180.746094 172.03125 180.949219 172.113281 181.15625 C 172.273438 181.5625 172.398438 182.015625 172.5625 182.425781 C 173.132812 184.308594 173.542969 186.234375 173.867188 188.164062 C 173.949219 188.652344 174.03125 189.144531 174.113281 189.636719 C 174.15625 189.882812 174.195312 190.128906 174.195312 190.335938 C 174.195312 190.457031 174.238281 190.582031 174.238281 190.742188 C 174.238281 190.867188 174.238281 190.867188 174.238281 190.703125 C 174.238281 190.785156 174.277344 190.867188 174.277344 190.949219 C 174.398438 191.933594 174.523438 192.957031 174.644531 193.941406 C 174.929688 196.808594 175.054688 199.761719 175.542969 202.585938 C 176.035156 205.742188 176.566406 208.898438 177.382812 211.972656 C 177.914062 213.898438 178.527344 215.824219 179.425781 217.628906 C 180.121094 219.019531 181.101562 220.496094 182.53125 221.234375 C 184.371094 222.175781 186.332031 221.601562 187.761719 220.25 C 189.808594 218.40625 190.625 215.457031 191.441406 212.914062 C 193.566406 206.316406 194.75 199.433594 196.183594 192.671875 C 196.714844 190.089844 197.285156 187.546875 198.101562 185.046875 C 198.796875 182.792969 199.777344 180.335938 201.289062 178.695312 C 201.496094 178.492188 201.699219 178.285156 201.902344 178.082031 C 202.148438 177.875 202.066406 177.917969 202.3125 177.753906 C 202.476562 177.628906 202.640625 177.546875 202.800781 177.464844 C 202.84375 177.464844 203.171875 177.300781 202.925781 177.425781 C 202.679688 177.507812 203.007812 177.382812 203.089844 177.382812 C 203.332031 177.34375 203.539062 177.34375 203.171875 177.34375 C 203.292969 177.34375 203.496094 177.34375 203.621094 177.34375 C 203.210938 177.382812 203.457031 177.34375 203.660156 177.382812 C 204.070312 177.507812 203.496094 177.21875 203.824219 177.464844 C 203.90625 177.546875 204.355469 177.835938 203.988281 177.546875 C 204.109375 177.628906 204.191406 177.710938 204.273438 177.792969 C 204.394531 177.917969 204.519531 178.039062 204.640625 178.164062 C 204.683594 178.203125 204.722656 178.285156 204.765625 178.328125 C 204.519531 178 204.765625 178.328125 204.804688 178.410156 C 205.253906 179.105469 205.664062 179.84375 205.992188 180.621094 C 205.867188 180.335938 206.113281 180.867188 206.113281 180.992188 C 206.195312 181.195312 206.277344 181.402344 206.359375 181.605469 C 206.523438 182.097656 206.683594 182.546875 206.847656 183.039062 C 207.132812 184.023438 207.421875 185.007812 207.664062 186.03125 C 208.074219 187.792969 208.402344 189.515625 208.726562 191.277344 C 209.75 197.097656 210.851562 202.914062 211.914062 208.734375 C 212.40625 211.5625 212.816406 214.390625 213.960938 217.011719 C 214.859375 219.101562 216.371094 221.355469 218.742188 221.890625 C 221.96875 222.628906 224.667969 220.292969 226.382812 217.832031 C 228.425781 214.839844 229.898438 211.480469 231.082031 208.039062 C 232.269531 204.636719 233.25 201.113281 234.351562 197.667969 C 235.539062 193.859375 236.640625 190.007812 237.664062 186.152344 C 238.683594 182.382812 239.625 178.613281 240.605469 174.84375 C 241.09375 172.875 238.113281 172.058594 237.582031 174.023438 C 235.578125 181.644531 233.65625 189.308594 231.285156 196.851562 C 229.203125 203.53125 227.566406 210.660156 223.480469 216.480469 C 222.703125 217.546875 221.683594 218.570312 220.375 218.898438 C 220.089844 218.980469 219.722656 218.980469 219.4375 218.898438 C 219.476562 218.898438 218.984375 218.773438 219.191406 218.816406 C 219.394531 218.898438 218.945312 218.691406 218.984375 218.691406 C 218.902344 218.652344 218.824219 218.570312 218.742188 218.527344 C 218.453125 218.367188 218.78125 218.609375 218.578125 218.40625 C 217.066406 217.136719 216.371094 215.046875 215.878906 213.039062 C 215.023438 209.636719 214.574219 206.070312 213.960938 202.628906 C 213.347656 199.226562 212.691406 195.824219 212.039062 192.425781 C 211.425781 189.1875 210.894531 185.949219 209.996094 182.792969 C 209.136719 179.84375 207.746094 175.210938 204.316406 174.3125 C 202.394531 173.820312 200.597656 174.925781 199.328125 176.195312 C 197.488281 178.082031 196.34375 180.539062 195.488281 183 C 194.589844 185.457031 194.015625 188 193.445312 190.539062 C 192.832031 193.40625 192.175781 196.277344 191.5625 199.1875 C 190.789062 202.914062 190.050781 206.6875 188.949219 210.332031 C 188.253906 212.667969 187.601562 215.457031 186.128906 217.382812 C 185.800781 217.832031 185.433594 218.121094 184.984375 218.367188 C 184.902344 218.40625 184.820312 218.445312 184.738281 218.488281 C 184.78125 218.488281 185.066406 218.367188 184.820312 218.445312 C 184.65625 218.488281 184.496094 218.527344 184.371094 218.570312 C 184.863281 218.445312 184.371094 218.527344 184.25 218.527344 C 184.042969 218.570312 184.332031 218.527344 184.414062 218.570312 C 184.332031 218.527344 184.25 218.527344 184.207031 218.527344 C 183.964844 218.445312 183.839844 218.324219 184.125 218.527344 C 184.003906 218.445312 183.839844 218.367188 183.675781 218.285156 C 183.390625 218.121094 183.839844 218.488281 183.59375 218.203125 C 183.472656 218.078125 183.351562 217.957031 183.226562 217.832031 C 183.1875 217.75 182.859375 217.421875 182.980469 217.585938 C 183.144531 217.792969 182.898438 217.464844 182.898438 217.464844 C 182.820312 217.382812 182.777344 217.257812 182.695312 217.175781 C 182.492188 216.847656 182.289062 216.519531 182.125 216.191406 C 182.042969 216.03125 181.960938 215.824219 181.878906 215.660156 C 181.835938 215.539062 181.796875 215.457031 181.757812 215.332031 C 181.757812 215.292969 181.550781 214.882812 181.675781 215.210938 C 180.242188 211.765625 179.550781 208.039062 178.9375 204.351562 C 178.8125 203.734375 178.730469 203.121094 178.648438 202.503906 C 178.609375 202.300781 178.570312 202.097656 178.570312 201.890625 C 178.527344 201.726562 178.488281 201.03125 178.527344 201.6875 C 178.445312 200.414062 178.28125 199.1875 178.160156 197.914062 C 177.832031 194.023438 177.425781 190.128906 176.730469 186.277344 C 176.117188 182.875 175.300781 178.984375 173.011719 176.320312 C 172.070312 175.253906 170.761719 174.476562 169.292969 174.476562 C 166.636719 174.515625 164.960938 176.6875 163.980469 178.941406 C 162.589844 182.21875 162.097656 185.664062 161.609375 189.144531 C 161.078125 192.957031 160.179688 196.726562 159.359375 200.496094 C 158.625 203.777344 157.890625 207.09375 157.03125 210.332031 C 156.5 212.300781 155.886719 214.308594 155.027344 215.988281 C 154.578125 216.929688 154.007812 217.832031 153.476562 218.445312 C 153.3125 218.609375 153.148438 218.773438 152.984375 218.9375 C 152.902344 219.019531 152.414062 219.390625 152.617188 219.265625 C 152.453125 219.390625 152.289062 219.472656 152.128906 219.59375 C 152.003906 219.675781 151.882812 219.71875 151.757812 219.800781 C 152.003906 219.675781 151.71875 219.839844 151.597656 219.839844 C 151.433594 219.882812 151.226562 219.964844 151.066406 219.964844 C 150.617188 220.046875 151.351562 219.964844 150.902344 219.964844 C 150.820312 219.964844 150.695312 219.964844 150.617188 219.964844 C 150.535156 219.964844 150.410156 219.964844 150.328125 219.964844 C 149.839844 219.921875 150.492188 220.003906 150.207031 219.964844 C 149.921875 219.921875 149.59375 219.839844 149.308594 219.71875 C 148.449219 219.429688 147.46875 218.773438 146.773438 218.121094 C 143.382812 214.964844 142.523438 209.59375 141.871094 205.046875 C 141.011719 198.859375 140.195312 192.382812 140.195312 185.992188 C 140.195312 182.21875 140.359375 178.492188 140.644531 174.71875 C 140.683594 173.859375 139.867188 173.164062 139.089844 173.164062 C 138.070312 173.164062 137.457031 173.902344 137.414062 174.761719 Z M 137.414062 174.761719 " fill-opacity="1" fill-rule="nonzero"/></g><g clip-path="url(#a7a2da60a1)"><path fill="#2c3d53" d="M 91.234375 80.078125 C 94.339844 76.160156 96.933594 71.621094 98.988281 66.539062 C 103.96875 72.054688 105.210938 78.433594 105.320312 83.070312 C 105.464844 89.4375 103.539062 96.066406 100.066406 101.734375 C 99.730469 101.3125 99.390625 100.917969 99.058594 100.546875 C 94.125 95.015625 86.414062 93.136719 79.867188 95.863281 C 73.457031 98.539062 67.644531 105.734375 69.507812 113.800781 C 71.21875 121.1875 78.769531 124.515625 84.96875 123.898438 C 89.351562 123.464844 93.738281 121.867188 97.527344 119.390625 C 97.554688 119.605469 97.582031 148.003906 97.582031 148.003906 C 97.5625 150.851562 99.859375 153.175781 102.710938 153.191406 C 102.722656 153.191406 102.734375 153.191406 102.746094 153.191406 C 105.582031 153.191406 107.890625 150.90625 107.90625 148.074219 C 107.90625 148.074219 108.09375 122.988281 107.902344 119.449219 C 107.757812 116.886719 106.992188 114.128906 105.875 111.453125 C 112.296875 103.292969 115.875 92.992188 115.640625 82.832031 C 115.402344 72.386719 111.042969 63.007812 103.371094 56.429688 C 103.054688 56.15625 102.726562 55.890625 102.394531 55.628906 C 103.972656 48.785156 104.777344 32.03125 104.777344 32.03125 C 104.777344 29.183594 102.46875 26.875 99.617188 26.875 C 96.765625 26.875 94.453125 29.183594 94.453125 32.03125 C 94.453125 32.03125 94.089844 44.308594 92.9375 50.445312 C 82.640625 46.601562 70.085938 46.542969 61.257812 51.046875 C 52.21875 55.652344 47.738281 64.167969 48.640625 75.019531 C 49.503906 85.421875 57.964844 93.746094 67.902344 93.980469 C 75.910156 94.160156 83.777344 89.488281 91.234375 80.078125 Z M 89.914062 111.898438 C 88.0625 112.902344 86.074219 113.582031 83.949219 113.65625 C 82.125 113.722656 80 113.328125 79.574219 111.480469 C 78.769531 108.011719 82.992188 104.9375 86.097656 104.9375 C 87.988281 104.9375 89.921875 105.808594 91.347656 107.40625 C 91.996094 108.132812 92.625 108.9375 93.222656 109.792969 C 93.382812 110.042969 90.179688 111.753906 89.914062 111.898438 Z M 58.929688 74.167969 C 58.375 67.480469 60.671875 62.921875 65.953125 60.230469 C 69.070312 58.640625 73.003906 57.886719 77.109375 57.886719 C 81.574219 57.886719 86.238281 58.777344 90.273438 60.453125 C 88.59375 65.175781 86.285156 69.707031 83.136719 73.679688 C 77.800781 80.414062 72.722656 83.726562 68.140625 83.667969 C 63.566406 83.5625 59.351562 79.214844 58.929688 74.167969 " fill-opacity="1" fill-rule="nonzero"/></g><path fill="#2c3d53" d="M 138.683594 237.867188 C 136.539062 231.992188 133.339844 226.78125 130.238281 221.753906 C 126.1875 215.15625 122.339844 208.914062 121.203125 201.722656 C 120.480469 197.316406 118.621094 185.609375 109.949219 184.21875 C 109.507812 184.140625 95.980469 184.140625 95.566406 184.21875 C 86.867188 185.609375 85.007812 197.316406 84.285156 201.722656 C 83.148438 208.914062 79.300781 215.15625 75.246094 221.753906 C 72.148438 226.78125 68.949219 231.992188 66.804688 237.867188 C 59.988281 256.507812 65.875 276.4375 81.132812 286.335938 C 94.042969 294.742188 112.0625 294.636719 124.84375 286.027344 C 139.6875 276.023438 145.394531 256.222656 138.683594 237.867188 M 119.085938 277.46875 C 111.933594 282.289062 102.148438 283.941406 93.941406 281.101562 C 91.511719 280.277344 88.929688 279.117188 86.761719 277.699219 C 75.582031 270.429688 71.347656 255.5 76.511719 241.398438 C 78.292969 236.5 81.082031 231.964844 84.050781 227.144531 C 88.464844 219.976562 93.035156 212.550781 94.480469 203.347656 C 95.515625 196.925781 96.855469 194.96875 97.320312 194.453125 L 108.164062 194.453125 C 108.628906 194.96875 109.972656 196.925781 111.003906 203.347656 C 112.453125 212.550781 117.023438 219.976562 121.433594 227.144531 C 124.40625 231.964844 127.195312 236.5 128.976562 241.398438 C 134.0625 255.296875 129.980469 270.121094 119.085938 277.46875 " fill-opacity="1" fill-rule="nonzero"/><path fill="#e4eef6" d="M 119.085938 277.46875 C 111.9375 282.289062 102.148438 283.9375 93.941406 281.101562 C 91.511719 280.277344 88.929688 279.117188 86.761719 277.699219 C 75.582031 270.429688 71.347656 255.5 76.511719 241.398438 C 78.292969 236.5 81.082031 231.964844 84.050781 227.140625 C 88.464844 219.976562 93.035156 212.550781 94.484375 203.347656 C 95.515625 196.925781 96.859375 194.96875 97.324219 194.453125 L 108.164062 194.453125 C 108.628906 194.96875 109.972656 196.925781 111.003906 203.347656 C 112.453125 212.550781 117.019531 219.976562 121.4375 227.140625 C 124.40625 231.964844 127.191406 236.5 128.976562 241.398438 C 134.0625 255.296875 129.984375 270.121094 119.085938 277.46875 " fill-opacity="1" fill-rule="nonzero"/><path fill="#2c3d53" d="M 329.738281 237.867188 C 327.597656 231.988281 324.394531 226.78125 321.296875 221.753906 C 317.242188 215.152344 313.394531 208.914062 312.261719 201.722656 C 311.535156 197.3125 309.679688 185.609375 301.003906 184.214844 C 300.5625 184.140625 287.035156 184.140625 286.621094 184.214844 C 277.921875 185.609375 276.0625 197.3125 275.339844 201.722656 C 274.203125 208.914062 270.355469 215.152344 266.304688 221.753906 C 263.203125 226.78125 260.003906 231.988281 257.863281 237.867188 C 251.042969 256.507812 256.933594 276.4375 272.191406 286.359375 C 282.078125 292.78125 295.476562 294.429688 306.605469 290.488281 C 309.757812 289.378906 313.136719 287.882812 315.898438 286.027344 C 330.746094 276.023438 336.453125 256.222656 329.738281 237.867188 M 310.144531 277.46875 C 300.898438 283.707031 287.136719 283.757812 277.820312 277.699219 C 266.636719 270.429688 262.40625 255.5 267.566406 241.398438 C 269.351562 236.5 272.140625 231.964844 275.105469 227.140625 C 279.523438 219.972656 284.089844 212.550781 285.535156 203.34375 C 286.570312 196.925781 287.914062 194.964844 288.378906 194.449219 L 299.222656 194.449219 C 299.683594 194.964844 301.03125 196.925781 302.0625 203.34375 C 303.507812 212.550781 308.078125 219.972656 312.492188 227.140625 C 315.460938 231.964844 318.25 236.5 320.03125 241.398438 C 325.117188 255.296875 321.039062 270.121094 310.144531 277.46875 " fill-opacity="1" fill-rule="nonzero"/><path fill="#e4eef6" d="M 310.144531 277.46875 C 300.898438 283.707031 287.136719 283.757812 277.816406 277.699219 C 266.636719 270.429688 262.402344 255.503906 267.566406 241.398438 C 269.351562 236.5 272.136719 231.964844 275.105469 227.144531 C 279.523438 219.976562 284.09375 212.550781 285.535156 203.347656 C 286.570312 196.929688 287.910156 194.964844 288.375 194.453125 L 299.21875 194.453125 C 299.683594 194.964844 301.027344 196.929688 302.0625 203.347656 C 303.507812 212.550781 308.074219 219.976562 312.492188 227.144531 C 315.460938 231.964844 318.25 236.5 320.03125 241.398438 C 325.117188 255.296875 321.035156 270.121094 310.144531 277.46875 " fill-opacity="1" fill-rule="nonzero"/><path fill="#2c3d53" d="M 97.582031 163.496094 C 94.730469 163.496094 92.417969 165.804688 92.417969 168.652344 C 92.417969 171.5 94.730469 173.808594 97.582031 173.808594 L 107.910156 173.808594 C 110.757812 173.808594 113.070312 171.5 113.070312 168.652344 C 113.070312 165.804688 110.757812 163.496094 107.910156 163.496094 L 97.582031 163.496094 " fill-opacity="1" fill-rule="nonzero"/><path fill="#2c3d53" d="M 288.636719 163.496094 C 285.785156 163.496094 283.472656 165.804688 283.472656 168.652344 C 283.472656 171.5 285.785156 173.808594 288.636719 173.808594 L 298.964844 173.808594 C 301.816406 173.808594 304.128906 171.5 304.128906 168.652344 C 304.128906 165.804688 301.816406 163.496094 298.964844 163.496094 L 288.636719 163.496094 " fill-opacity="1" fill-rule="nonzero"/><g clip-path="url(#aa81d51b6a)"><path fill="#2c3d53" d="M 284.453125 105.96875 C 282.007812 108.167969 278.308594 111.488281 278.308594 117.765625 C 278.308594 124.277344 282.625 127.605469 285.480469 129.804688 C 288.132812 131.851562 288.636719 132.46875 288.636719 133.6875 L 288.636719 148.039062 C 288.636719 150.886719 290.945312 153.195312 293.800781 153.195312 C 296.652344 153.195312 298.964844 150.886719 298.964844 148.039062 L 298.964844 133.6875 C 298.964844 127.171875 294.644531 123.84375 291.792969 121.644531 C 289.136719 119.597656 288.636719 118.980469 288.636719 117.765625 C 288.636719 116.238281 289.152344 115.621094 291.359375 113.636719 C 293.804688 111.441406 297.5 108.121094 297.5 101.84375 C 297.5 95.566406 293.800781 92.25 291.359375 90.054688 C 289.148438 88.074219 288.636719 87.453125 288.636719 85.933594 C 288.636719 84.722656 289.136719 84.105469 291.789062 82.066406 C 294.644531 79.867188 298.964844 76.542969 298.964844 70.035156 L 298.964844 32.03125 C 298.964844 29.183594 296.652344 26.875 293.800781 26.875 C 290.945312 26.875 288.636719 29.183594 288.636719 32.03125 L 288.636719 70.035156 C 288.636719 71.242188 288.132812 71.859375 285.484375 73.898438 C 282.625 76.097656 278.308594 79.421875 278.308594 85.933594 C 278.308594 92.207031 282.007812 95.527344 284.453125 97.722656 C 286.660156 99.699219 287.171875 100.316406 287.171875 101.84375 C 287.171875 103.371094 286.65625 103.988281 284.453125 105.96875 " fill-opacity="1" fill-rule="nonzero"/></g><path fill="#2c3d53" d="M 234.210938 273.960938 C 232.066406 268.082031 228.867188 262.875 225.769531 257.847656 C 221.714844 251.246094 217.867188 245.007812 216.730469 237.816406 C 216.035156 233.433594 214.175781 221.859375 205.605469 220.335938 C 205.164062 220.234375 191.40625 220.234375 190.941406 220.335938 C 182.367188 221.859375 180.507812 233.433594 179.8125 237.816406 C 178.675781 245.007812 174.828125 251.246094 170.777344 257.847656 C 167.675781 262.875 164.476562 268.082031 162.332031 273.960938 C 155.515625 292.601562 161.402344 312.53125 176.660156 322.429688 C 184.640625 327.636719 194.992188 329.726562 204.390625 328.203125 C 209.992188 327.277344 215.648438 325.316406 220.371094 322.121094 C 235.21875 312.117188 240.921875 292.316406 234.210938 273.960938 M 214.613281 313.5625 C 205.398438 319.773438 191.613281 319.851562 182.289062 313.792969 C 171.109375 306.523438 166.875 291.59375 172.039062 277.492188 C 173.820312 272.59375 176.609375 268.058594 179.578125 263.234375 C 183.992188 256.066406 188.5625 248.644531 190.011719 239.441406 C 191.042969 233.019531 192.386719 231.0625 192.851562 230.546875 L 203.695312 230.546875 C 204.160156 231.0625 205.5 233.019531 206.535156 239.441406 C 207.980469 248.644531 212.550781 256.066406 216.964844 263.234375 C 219.933594 268.058594 222.722656 272.59375 224.503906 277.492188 C 229.589844 291.390625 225.511719 306.214844 214.613281 313.5625 " fill-opacity="1" fill-rule="nonzero"/><path fill="#fcd965" d="M 214.617188 313.5625 C 205.398438 319.773438 191.613281 319.851562 182.292969 313.792969 C 171.113281 306.523438 166.878906 291.59375 172.042969 277.492188 C 173.824219 272.59375 176.613281 268.054688 179.578125 263.234375 C 183.996094 256.066406 188.566406 248.640625 190.011719 239.4375 C 191.042969 233.019531 192.386719 231.0625 192.851562 230.546875 L 203.695312 230.546875 C 204.160156 231.0625 205.503906 233.019531 206.535156 239.4375 C 207.980469 248.640625 212.550781 256.066406 216.964844 263.234375 C 219.933594 268.054688 222.722656 272.59375 224.503906 277.492188 C 229.589844 291.386719 225.511719 306.210938 214.617188 313.5625 " fill-opacity="1" fill-rule="nonzero"/><path fill="#2c3d53" d="M 193.109375 209.925781 L 203.433594 209.925781 C 206.289062 209.925781 208.597656 207.617188 208.597656 204.769531 C 208.597656 201.921875 206.289062 199.613281 203.433594 199.613281 L 193.109375 199.613281 C 190.257812 199.613281 187.945312 201.921875 187.945312 204.769531 C 187.945312 207.617188 190.257812 209.925781 193.109375 209.925781 " fill-opacity="1" fill-rule="nonzero"/><g clip-path="url(#818697c133)"><path fill="#2c3d53" d="M 197.9375 338.378906 C 195.085938 338.378906 192.773438 340.6875 192.773438 343.535156 L 192.773438 351.714844 C 192.773438 354.566406 195.085938 356.871094 197.9375 356.871094 C 200.789062 356.871094 203.101562 354.566406 203.101562 351.714844 L 203.101562 343.535156 C 203.101562 340.6875 200.789062 338.378906 197.9375 338.378906 " fill-opacity="1" fill-rule="nonzero"/></g><path fill="#2c3d53" d="M 174.738281 336.980469 L 169.183594 340.753906 C 166.824219 342.355469 166.214844 345.5625 167.820312 347.917969 C 169.398438 350.238281 172.671875 350.855469 174.992188 349.28125 L 180.546875 345.503906 C 182.902344 343.902344 183.515625 340.695312 181.910156 338.34375 C 180.308594 335.984375 177.09375 335.378906 174.738281 336.980469 " fill-opacity="1" fill-rule="nonzero"/><path fill="#2c3d53" d="M 168.648438 329.9375 C 168.011719 327.160156 165.242188 325.441406 162.460938 326.066406 L 155.808594 327.59375 C 153.027344 328.230469 151.292969 330.996094 151.929688 333.769531 C 152.558594 336.503906 155.390625 338.261719 158.117188 337.644531 L 164.773438 336.117188 C 167.550781 335.480469 169.285156 332.714844 168.648438 329.9375 " fill-opacity="1" fill-rule="nonzero"/><path fill="#2c3d53" d="M 227.363281 340.753906 L 221.808594 336.980469 C 219.445312 335.378906 216.238281 335.992188 214.632812 338.34375 C 213.027344 340.699219 213.636719 343.90625 215.996094 345.503906 L 221.554688 349.28125 C 223.882812 350.859375 227.144531 350.242188 228.726562 347.917969 C 230.332031 345.5625 229.722656 342.355469 227.363281 340.753906 " fill-opacity="1" fill-rule="nonzero"/><path fill="#2c3d53" d="M 240.738281 327.59375 L 234.082031 326.066406 C 231.3125 325.441406 228.535156 327.164062 227.894531 329.9375 C 227.257812 332.714844 228.992188 335.480469 231.773438 336.117188 C 231.773438 336.117188 239.203125 337.773438 239.585938 337.773438 C 241.9375 337.773438 244.0625 336.15625 244.613281 333.769531 C 245.253906 330.996094 243.515625 328.230469 240.738281 327.59375 " fill-opacity="1" fill-rule="nonzero"/><g clip-path="url(#53c5f7c9c5)"><path fill="#2c3d53" d="M 198.273438 189.292969 C 201.121094 189.292969 203.4375 186.984375 203.4375 184.140625 L 203.4375 32.03125 C 203.4375 29.183594 201.121094 26.875 198.273438 26.875 C 195.421875 26.875 193.109375 29.183594 193.109375 32.03125 L 193.109375 184.140625 C 193.109375 186.984375 195.421875 189.292969 198.273438 189.292969 " fill-opacity="1" fill-rule="nonzero"/></g><path fill="#2c3d53" d="M 176.308594 87.460938 C 179.160156 87.460938 181.472656 85.152344 181.472656 82.304688 C 181.472656 79.457031 179.160156 77.148438 176.308594 77.148438 C 173.457031 77.148438 171.144531 79.457031 171.144531 82.304688 C 171.144531 85.152344 173.457031 87.460938 176.308594 87.460938 " fill-opacity="1" fill-rule="nonzero"/><path fill="#2c3d53" d="M 167.207031 109.34375 C 170.058594 109.34375 172.371094 107.035156 172.371094 104.1875 C 172.371094 101.335938 170.058594 99.03125 167.207031 99.03125 C 164.355469 99.03125 162.042969 101.335938 162.042969 104.1875 C 162.042969 107.035156 164.355469 109.34375 167.207031 109.34375 " fill-opacity="1" fill-rule="nonzero"/><path fill="#2c3d53" d="M 176.226562 120.875 C 173.375 120.875 171.0625 123.183594 171.0625 126.03125 C 171.0625 128.878906 173.375 131.1875 176.226562 131.1875 C 179.078125 131.1875 181.390625 128.878906 181.390625 126.03125 C 181.390625 123.183594 179.078125 120.875 176.226562 120.875 " fill-opacity="1" fill-rule="nonzero"/><path fill="#2c3d53" d="M 220.101562 87.445312 C 222.953125 87.445312 225.265625 85.136719 225.265625 82.289062 C 225.265625 79.441406 222.953125 77.132812 220.101562 77.132812 C 217.25 77.132812 214.9375 79.441406 214.9375 82.289062 C 214.9375 85.136719 217.25 87.445312 220.101562 87.445312 " fill-opacity="1" fill-rule="nonzero"/><path fill="#2c3d53" d="M 229.203125 109.324219 C 232.054688 109.324219 234.367188 107.015625 234.367188 104.167969 C 234.367188 101.320312 232.054688 99.011719 229.203125 99.011719 C 226.351562 99.011719 224.039062 101.320312 224.039062 104.167969 C 224.039062 107.015625 226.351562 109.324219 229.203125 109.324219 " fill-opacity="1" fill-rule="nonzero"/><path fill="#2c3d53" d="M 220.183594 120.859375 C 217.328125 120.859375 215.019531 123.167969 215.019531 126.015625 C 215.019531 128.859375 217.328125 131.171875 220.183594 131.171875 C 223.03125 131.171875 225.347656 128.859375 225.347656 126.015625 C 225.347656 123.167969 223.03125 120.859375 220.183594 120.859375 " fill-opacity="1" fill-rule="nonzero"/><path fill="#929ea9" d="M 75.148438 246.0625 C 74.792969 247.679688 74.550781 249.292969 74.429688 250.894531 C 74.429688 250.898438 74.429688 250.90625 74.429688 250.910156 C 74.550781 249.304688 74.789062 247.6875 75.148438 246.0625 M 75.167969 245.984375 C 75.164062 245.988281 75.164062 245.996094 75.164062 246 C 75.164062 245.996094 75.164062 245.988281 75.167969 245.984375 M 108.164062 194.453125 L 97.324219 194.453125 C 96.859375 194.96875 95.515625 196.925781 94.484375 203.347656 C 93.035156 212.550781 88.464844 219.976562 84.050781 227.140625 C 81.082031 231.964844 78.292969 236.5 76.511719 241.398438 C 78.292969 236.5 81.082031 231.964844 84.050781 227.140625 C 88.464844 219.976562 93.035156 212.550781 94.484375 203.347656 C 95.515625 196.925781 96.859375 194.96875 97.324219 194.453125 L 108.164062 194.453125 C 108.628906 194.96875 109.972656 196.925781 111.003906 203.347656 C 112.453125 212.550781 117.019531 219.976562 121.4375 227.140625 C 124.40625 231.964844 127.191406 236.5 128.976562 241.398438 C 129.8125 243.683594 130.402344 245.996094 130.75 248.296875 C 130.402344 246 129.816406 243.6875 128.976562 241.398438 C 127.191406 236.5 124.40625 231.964844 121.4375 227.140625 C 117.019531 219.976562 112.453125 212.550781 111.003906 203.347656 C 109.972656 196.925781 108.628906 194.96875 108.164062 194.453125 " fill-opacity="1" fill-rule="nonzero"/><path fill="#f4f8fc" d="M 108.164062 194.453125 L 97.324219 194.453125 C 96.859375 194.96875 95.515625 196.925781 94.484375 203.347656 C 93.035156 212.550781 88.464844 219.976562 84.050781 227.140625 C 81.082031 231.964844 78.292969 236.5 76.511719 241.398438 C 75.957031 242.921875 75.507812 244.453125 75.167969 245.984375 C 75.164062 245.988281 75.164062 245.996094 75.164062 246 C 75.15625 246.023438 75.152344 246.042969 75.148438 246.0625 C 74.789062 247.6875 74.550781 249.304688 74.429688 250.910156 C 74.496094 251.761719 74.59375 252.601562 74.726562 253.433594 C 75.089844 251.144531 75.683594 248.832031 76.511719 246.554688 C 78.292969 241.65625 81.082031 237.121094 84.050781 232.300781 C 88.464844 225.132812 93.035156 217.707031 94.484375 208.503906 C 95.515625 202.082031 96.859375 200.125 97.324219 199.609375 L 108.164062 199.609375 C 108.628906 200.125 109.972656 202.082031 111.003906 208.503906 C 112.453125 217.707031 117.019531 225.132812 121.4375 232.300781 C 124.40625 237.121094 127.191406 241.65625 128.976562 246.554688 C 129.800781 248.8125 130.382812 251.105469 130.738281 253.382812 C 130.875 252.53125 130.972656 251.671875 131.039062 250.800781 C 130.972656 249.96875 130.878906 249.132812 130.75 248.296875 C 130.402344 245.996094 129.8125 243.683594 128.976562 241.398438 C 127.191406 236.5 124.40625 231.964844 121.4375 227.140625 C 117.019531 219.976562 112.453125 212.550781 111.003906 203.347656 C 109.972656 196.925781 108.628906 194.96875 108.164062 194.453125 " fill-opacity="1" fill-rule="nonzero"/><path fill="#5f6f7f" d="M 74.421875 250.808594 C 73.570312 261.742188 78.0625 272.054688 86.761719 277.699219 C 79.441406 272.9375 75.097656 264.890625 74.421875 255.941406 C 74.421875 255.949219 74.421875 255.957031 74.421875 255.964844 C 74.292969 254.300781 74.296875 252.605469 74.429688 250.894531 C 74.425781 250.863281 74.421875 250.835938 74.421875 250.808594 M 131.042969 250.757812 C 131.039062 250.765625 131.039062 250.769531 131.039062 250.777344 C 131.109375 251.683594 131.148438 252.585938 131.148438 253.480469 C 131.136719 263.242188 126.832031 272.242188 119.085938 277.46875 C 127.554688 271.769531 131.894531 261.558594 131.042969 250.757812 " fill-opacity="1" fill-rule="nonzero"/><path fill="#c1c7ce" d="M 131.039062 250.777344 C 131.039062 250.785156 131.039062 250.792969 131.039062 250.800781 C 131.171875 252.523438 131.167969 254.234375 131.042969 255.914062 C 130.972656 255.074219 130.871094 254.230469 130.738281 253.382812 C 129.519531 261.121094 125.472656 267.996094 119.085938 272.3125 C 114.3125 275.53125 108.363281 277.335938 102.492188 277.335938 C 99.570312 277.335938 96.667969 276.886719 93.941406 275.945312 C 91.511719 275.121094 88.933594 273.960938 86.761719 272.542969 C 80.179688 268.242188 75.984375 261.308594 74.726562 253.433594 C 74.59375 254.273438 74.492188 255.113281 74.421875 255.941406 C 75.097656 264.890625 79.441406 272.9375 86.761719 277.699219 C 88.933594 279.117188 91.511719 280.277344 93.941406 281.101562 C 96.667969 282.042969 99.570312 282.492188 102.492188 282.492188 C 108.363281 282.492188 114.3125 280.6875 119.085938 277.46875 C 126.832031 272.242188 131.136719 263.242188 131.148438 253.480469 C 131.148438 252.585938 131.109375 251.683594 131.039062 250.777344 " fill-opacity="1" fill-rule="nonzero"/><path fill="#979fa7" d="M 74.429688 250.894531 C 74.296875 252.605469 74.292969 254.300781 74.421875 255.964844 C 74.421875 255.957031 74.421875 255.949219 74.421875 255.941406 C 74.363281 255.125 74.332031 254.296875 74.332031 253.46875 C 74.332031 252.621094 74.363281 251.769531 74.429688 250.910156 C 74.429688 250.90625 74.429688 250.898438 74.429688 250.894531 " fill-opacity="1" fill-rule="nonzero"/><path fill="#c7cdd1" d="M 74.429688 250.910156 C 74.363281 251.769531 74.332031 252.621094 74.332031 253.46875 C 74.332031 254.296875 74.363281 255.125 74.421875 255.941406 C 74.492188 255.113281 74.59375 254.273438 74.726562 253.433594 C 74.597656 252.601562 74.496094 251.761719 74.429688 250.910156 M 131.039062 250.800781 C 130.972656 251.671875 130.875 252.53125 130.738281 253.382812 C 130.871094 254.230469 130.972656 255.074219 131.042969 255.914062 C 131.167969 254.234375 131.171875 252.523438 131.039062 250.800781 " fill-opacity="1" fill-rule="nonzero"/><path fill="#5f6f7f" d="M 265.476562 250.808594 C 264.625 261.742188 269.117188 272.050781 277.820312 277.699219 C 270.496094 272.9375 266.152344 264.890625 265.480469 255.941406 C 265.480469 255.949219 265.476562 255.957031 265.476562 255.964844 C 265.351562 254.300781 265.351562 252.605469 265.484375 250.890625 C 265.480469 250.863281 265.480469 250.835938 265.476562 250.808594 M 322.097656 250.757812 C 322.097656 250.761719 322.097656 250.769531 322.097656 250.773438 C 322.167969 251.679688 322.203125 252.582031 322.203125 253.480469 C 322.191406 263.242188 317.886719 272.242188 310.144531 277.46875 C 318.613281 271.769531 322.949219 261.558594 322.097656 250.757812 " fill-opacity="1" fill-rule="nonzero"/><path fill="#c1c7ce" d="M 322.09375 250.773438 C 322.09375 250.78125 322.09375 250.789062 322.09375 250.796875 C 322.226562 252.523438 322.226562 254.234375 322.097656 255.914062 C 322.027344 255.074219 321.925781 254.230469 321.792969 253.382812 C 320.574219 261.121094 316.527344 268 310.140625 272.3125 C 305.46875 275.46875 299.636719 277.039062 293.808594 277.039062 C 288.113281 277.039062 282.425781 275.539062 277.816406 272.542969 C 271.230469 268.246094 267.039062 261.308594 265.785156 253.429688 C 265.648438 254.273438 265.550781 255.113281 265.476562 255.945312 C 266.152344 264.890625 270.496094 272.9375 277.816406 277.699219 C 282.425781 280.695312 288.113281 282.195312 293.808594 282.195312 C 299.636719 282.195312 305.46875 280.621094 310.140625 277.46875 C 317.890625 272.242188 322.191406 263.242188 322.203125 253.480469 C 322.203125 252.582031 322.164062 251.679688 322.09375 250.773438 " fill-opacity="1" fill-rule="nonzero"/><path fill="#929ea9" d="M 266.109375 246.507812 C 265.804688 247.972656 265.597656 249.4375 265.484375 250.894531 C 265.484375 250.898438 265.484375 250.902344 265.484375 250.910156 C 265.597656 249.449219 265.804688 247.980469 266.109375 246.507812 M 266.121094 246.441406 C 266.121094 246.445312 266.121094 246.445312 266.121094 246.449219 C 266.121094 246.445312 266.121094 246.445312 266.121094 246.441406 M 299.222656 194.453125 L 288.378906 194.453125 C 287.914062 194.964844 286.570312 196.925781 285.539062 203.34375 C 284.09375 212.550781 279.519531 219.976562 275.105469 227.144531 C 272.136719 231.964844 269.351562 236.5 267.566406 241.398438 C 269.351562 236.5 272.136719 231.964844 275.105469 227.144531 C 279.519531 219.976562 284.09375 212.550781 285.539062 203.34375 C 286.570312 196.925781 287.914062 194.964844 288.378906 194.453125 L 299.222656 194.453125 C 299.683594 194.964844 301.027344 196.925781 302.0625 203.34375 C 303.507812 212.550781 308.074219 219.976562 312.492188 227.144531 C 315.460938 231.964844 318.25 236.5 320.03125 241.398438 C 320.863281 243.675781 321.453125 245.976562 321.800781 248.265625 C 321.453125 245.976562 320.867188 243.675781 320.03125 241.398438 C 318.25 236.5 315.460938 231.964844 312.492188 227.144531 C 308.074219 219.976562 303.507812 212.550781 302.0625 203.34375 C 301.027344 196.925781 299.683594 194.964844 299.222656 194.453125 " fill-opacity="1" fill-rule="nonzero"/><path fill="#f4f8fc" d="M 299.222656 194.453125 L 288.378906 194.453125 C 287.910156 194.96875 286.570312 196.925781 285.539062 203.34375 C 284.089844 212.550781 279.523438 219.976562 275.109375 227.144531 C 272.136719 231.964844 269.351562 236.5 267.570312 241.398438 C 266.957031 243.070312 266.476562 244.757812 266.121094 246.441406 C 266.121094 246.445312 266.121094 246.445312 266.121094 246.449219 C 266.117188 246.46875 266.113281 246.488281 266.109375 246.507812 C 265.804688 247.980469 265.597656 249.449219 265.484375 250.910156 C 265.550781 251.761719 265.652344 252.601562 265.78125 253.429688 C 266.144531 251.144531 266.738281 248.828125 267.570312 246.554688 C 269.351562 241.65625 272.136719 237.121094 275.109375 232.296875 C 279.523438 225.132812 284.089844 217.707031 285.539062 208.503906 C 286.570312 202.082031 287.910156 200.125 288.378906 199.609375 L 299.222656 199.609375 C 299.6875 200.125 301.027344 202.082031 302.058594 208.503906 C 303.507812 217.707031 308.078125 225.132812 312.492188 232.296875 C 315.460938 237.121094 318.246094 241.65625 320.03125 246.554688 C 320.859375 248.808594 321.441406 251.105469 321.792969 253.382812 C 321.929688 252.53125 322.027344 251.667969 322.09375 250.796875 C 322.027344 249.957031 321.933594 249.113281 321.804688 248.265625 C 321.453125 245.976562 320.863281 243.675781 320.03125 241.398438 C 318.246094 236.5 315.460938 231.964844 312.492188 227.144531 C 308.078125 219.976562 303.507812 212.550781 302.058594 203.34375 C 301.027344 196.925781 299.6875 194.96875 299.222656 194.453125 " fill-opacity="1" fill-rule="nonzero"/><path fill="#e3e7e9" d="M 322.09375 250.796875 C 322.027344 251.667969 321.929688 252.53125 321.792969 253.382812 C 321.925781 254.230469 322.027344 255.074219 322.097656 255.914062 C 322.226562 254.234375 322.226562 252.523438 322.09375 250.796875 " fill-opacity="1" fill-rule="nonzero"/><path fill="#b2b9be" d="M 265.484375 250.890625 C 265.351562 252.605469 265.351562 254.300781 265.476562 255.964844 C 265.480469 255.957031 265.480469 255.949219 265.480469 255.941406 C 265.417969 255.125 265.386719 254.296875 265.386719 253.46875 C 265.386719 252.621094 265.421875 251.765625 265.484375 250.910156 C 265.484375 250.902344 265.484375 250.898438 265.484375 250.890625 " fill-opacity="1" fill-rule="nonzero"/><path fill="#e3e7e9" d="M 265.484375 250.910156 C 265.417969 251.769531 265.386719 252.621094 265.386719 253.46875 C 265.386719 254.300781 265.417969 255.125 265.476562 255.945312 C 265.546875 255.113281 265.648438 254.273438 265.78125 253.429688 C 265.648438 252.601562 265.550781 251.761719 265.484375 250.910156 " fill-opacity="1" fill-rule="nonzero"/><path fill="#8e9690" d="M 170.582031 282.609375 C 170.277344 284.074219 170.070312 285.535156 169.957031 286.984375 C 169.957031 286.992188 169.957031 286.996094 169.957031 287.003906 C 170.070312 285.546875 170.277344 284.078125 170.582031 282.609375 M 170.59375 282.535156 C 170.59375 282.539062 170.59375 282.539062 170.59375 282.542969 C 170.59375 282.539062 170.59375 282.539062 170.59375 282.535156 M 203.695312 230.546875 L 192.851562 230.546875 C 192.386719 231.058594 191.042969 233.019531 190.011719 239.4375 C 188.566406 248.644531 183.996094 256.066406 179.582031 263.234375 C 176.609375 268.058594 173.824219 272.59375 172.042969 277.492188 C 173.824219 272.59375 176.609375 268.058594 179.582031 263.234375 C 183.996094 256.066406 188.566406 248.644531 190.011719 239.4375 C 191.042969 233.019531 192.386719 231.058594 192.851562 230.546875 L 203.695312 230.546875 C 204.160156 231.058594 205.5 233.019531 206.535156 239.4375 C 207.980469 248.644531 212.550781 256.066406 216.964844 263.234375 C 219.933594 268.058594 222.722656 272.59375 224.503906 277.492188 C 225.335938 279.769531 225.925781 282.074219 226.277344 284.363281 C 225.929688 282.074219 225.339844 279.769531 224.503906 277.492188 C 222.722656 272.59375 219.933594 268.058594 216.964844 263.234375 C 212.550781 256.066406 207.980469 248.644531 206.535156 239.4375 C 205.5 233.019531 204.160156 231.058594 203.695312 230.546875 " fill-opacity="1" fill-rule="nonzero"/><path fill="#fae497" d="M 203.695312 230.546875 L 192.847656 230.546875 C 192.386719 231.0625 191.042969 233.019531 190.007812 239.441406 C 188.5625 248.644531 183.992188 256.070312 179.578125 263.234375 C 176.609375 268.058594 173.820312 272.59375 172.039062 277.492188 C 171.429688 279.167969 170.945312 280.851562 170.59375 282.539062 C 170.59375 282.539062 170.59375 282.539062 170.59375 282.542969 C 170.589844 282.5625 170.582031 282.585938 170.578125 282.609375 C 170.273438 284.078125 170.066406 285.546875 169.957031 287.003906 C 170.023438 287.855469 170.125 288.695312 170.253906 289.527344 C 170.617188 287.238281 171.210938 284.925781 172.039062 282.648438 C 173.820312 277.75 176.609375 273.214844 179.578125 268.390625 C 183.992188 261.226562 188.5625 253.800781 190.007812 244.597656 C 191.042969 238.179688 192.386719 236.21875 192.847656 235.703125 L 203.695312 235.703125 C 204.160156 236.21875 205.5 238.179688 206.53125 244.597656 C 207.976562 253.800781 212.546875 261.226562 216.964844 268.390625 C 219.933594 273.214844 222.71875 277.75 224.503906 282.648438 C 225.332031 284.902344 225.910156 287.199219 226.265625 289.476562 C 226.398438 288.625 226.5 287.761719 226.566406 286.890625 C 226.5 286.050781 226.402344 285.207031 226.277344 284.363281 C 225.925781 282.074219 225.335938 279.769531 224.503906 277.492188 C 222.71875 272.59375 219.933594 268.058594 216.964844 263.234375 C 212.546875 256.070312 207.976562 248.644531 206.53125 239.441406 C 205.5 233.019531 204.160156 231.0625 203.695312 230.546875 " fill-opacity="1" fill-rule="nonzero"/><path fill="#5f6150" d="M 169.949219 286.902344 C 169.097656 297.832031 173.589844 308.148438 182.289062 313.792969 C 174.96875 309.03125 170.625 300.984375 169.953125 292.035156 C 169.953125 292.042969 169.949219 292.050781 169.949219 292.058594 C 169.820312 290.394531 169.824219 288.699219 169.957031 286.984375 C 169.953125 286.957031 169.953125 286.929688 169.949219 286.902344 M 226.566406 286.851562 C 226.566406 286.855469 226.566406 286.863281 226.566406 286.867188 C 226.640625 287.773438 226.675781 288.675781 226.671875 289.574219 C 226.664062 299.335938 222.359375 308.335938 214.617188 313.5625 C 223.082031 307.863281 227.421875 297.652344 226.566406 286.851562 " fill-opacity="1" fill-rule="nonzero"/><path fill="#d6b856" d="M 226.570312 286.867188 C 226.566406 286.875 226.566406 286.882812 226.566406 286.890625 C 226.699219 288.617188 226.699219 290.328125 226.570312 292.007812 C 226.5 291.167969 226.398438 290.324219 226.269531 289.476562 C 225.050781 297.210938 221 304.089844 214.617188 308.402344 C 209.949219 311.550781 204.113281 313.121094 198.273438 313.121094 C 192.582031 313.121094 186.894531 311.625 182.292969 308.636719 C 175.707031 304.335938 171.511719 297.402344 170.257812 289.523438 C 170.125 290.367188 170.023438 291.207031 169.953125 292.035156 C 170.625 300.984375 174.96875 309.03125 182.292969 313.792969 C 186.894531 316.785156 192.582031 318.277344 198.273438 318.277344 C 204.113281 318.277344 209.949219 316.707031 214.617188 313.5625 C 222.363281 308.335938 226.664062 299.335938 226.675781 289.574219 C 226.675781 288.675781 226.640625 287.773438 226.570312 286.867188 " fill-opacity="1" fill-rule="nonzero"/><path fill="#d4bc71" d="M 226.566406 286.890625 C 226.503906 287.761719 226.402344 288.625 226.269531 289.476562 C 226.398438 290.324219 226.5 291.167969 226.570312 292.007812 C 226.699219 290.328125 226.699219 288.617188 226.566406 286.890625 " fill-opacity="1" fill-rule="nonzero"/><path fill="#9a936e" d="M 169.957031 286.988281 C 169.824219 288.699219 169.820312 290.394531 169.949219 292.058594 C 169.949219 292.050781 169.953125 292.042969 169.953125 292.035156 C 169.890625 291.21875 169.859375 290.394531 169.859375 289.5625 C 169.859375 288.714844 169.890625 287.863281 169.957031 287.003906 C 169.957031 286.996094 169.957031 286.992188 169.957031 286.988281 " fill-opacity="1" fill-rule="nonzero"/><path fill="#d4bc71" d="M 169.957031 287.003906 C 169.890625 287.859375 169.859375 288.714844 169.859375 289.5625 C 169.859375 290.390625 169.890625 291.21875 169.953125 292.035156 C 170.023438 291.207031 170.125 290.367188 170.257812 289.523438 C 170.125 288.695312 170.023438 287.851562 169.957031 287.003906 " fill-opacity="1" fill-rule="nonzero"/></svg>