<svg xmlns="http://www.w3.org/2000/svg" xmlns:xlink="http://www.w3.org/1999/xlink" width="512" zoomAndPan="magnify" viewBox="0 0 384 383.999986" height="512" preserveAspectRatio="xMidYMid meet" version="1.0"><defs><clipPath id="796f4f6ab0"><path d="M 51.71875 27 L 293 27 L 293 343 L 51.71875 343 Z M 51.71875 27 " clip-rule="nonzero"/></clipPath><clipPath id="7e3b538f02"><path d="M 220 244 L 332.21875 244 L 332.21875 356.960938 L 220 356.960938 Z M 220 244 " clip-rule="nonzero"/></clipPath></defs><g clip-path="url(#796f4f6ab0)"><path fill="#f0ebeb" d="M 288.90625 342.699219 C 288.851562 342.703125 288.800781 342.703125 288.746094 342.703125 L 76.816406 342.703125 C 69.917969 342.703125 63.648438 339.882812 59.105469 335.34375 C 54.566406 330.800781 51.746094 324.53125 51.746094 317.636719 L 51.746094 52.101562 C 51.746094 45.207031 54.566406 38.9375 59.105469 34.394531 C 63.648438 29.855469 69.917969 27.035156 76.816406 27.035156 L 267.585938 27.035156 C 274.484375 27.035156 280.75 29.855469 285.292969 34.394531 C 289.835938 38.9375 292.652344 45.207031 292.652344 52.101562 L 292.652344 339.117188 C 292.652344 341.097656 291.046875 342.703125 289.066406 342.703125 C 289.015625 342.703125 288.960938 342.699219 288.90625 342.699219 Z M 288.90625 342.699219 " fill-opacity="1" fill-rule="nonzero"/></g><path fill="#27a2db" d="M 178.296875 96.511719 C 176.316406 96.511719 174.710938 94.90625 174.710938 92.925781 C 174.710938 90.945312 176.316406 89.339844 178.296875 89.339844 C 182.03125 89.339844 185.433594 87.808594 187.898438 85.34375 C 190.367188 82.875 191.898438 79.476562 191.898438 75.738281 C 191.898438 72 190.367188 68.601562 187.898438 66.132812 C 185.433594 63.664062 182.03125 62.132812 178.296875 62.132812 L 153.230469 62.132812 L 153.230469 92.925781 C 153.230469 94.90625 151.625 96.511719 149.644531 96.511719 C 147.667969 96.511719 146.0625 94.90625 146.0625 92.925781 L 146.0625 58.546875 C 146.0625 56.570312 147.667969 54.964844 149.644531 54.964844 L 178.296875 54.964844 C 184.011719 54.964844 189.207031 57.300781 192.96875 61.0625 C 196.734375 64.828125 199.070312 70.019531 199.070312 75.738281 C 199.070312 81.453125 196.734375 86.648438 192.96875 90.414062 C 189.207031 94.175781 184.011719 96.511719 178.296875 96.511719 Z M 178.296875 96.511719 " fill-opacity="1" fill-rule="nonzero"/><path fill="#27a2db" d="M 149.644531 89.339844 L 178.296875 89.339844 C 184.011719 89.339844 189.207031 91.679688 192.96875 95.441406 C 196.734375 99.203125 199.070312 104.398438 199.070312 110.117188 C 199.070312 115.832031 196.734375 121.027344 192.96875 124.792969 C 189.207031 128.554688 184.011719 130.890625 178.296875 130.890625 L 149.644531 130.890625 C 147.667969 130.890625 146.0625 129.285156 146.0625 127.304688 L 146.0625 92.925781 C 146.0625 90.945312 147.667969 89.339844 149.644531 89.339844 Z M 178.296875 96.511719 L 153.230469 96.511719 L 153.230469 123.71875 L 178.296875 123.71875 C 182.03125 123.71875 185.433594 122.1875 187.898438 119.722656 C 190.367188 117.253906 191.898438 113.855469 191.898438 110.117188 C 191.898438 106.378906 190.367188 102.976562 187.898438 100.511719 C 185.433594 98.042969 182.03125 96.511719 178.296875 96.511719 Z M 178.296875 96.511719 " fill-opacity="1" fill-rule="nonzero"/><path fill="#27a2db" d="M 261.390625 109.21875 C 261.882812 107.308594 263.835938 106.160156 265.746094 106.65625 C 267.65625 107.152344 268.800781 109.101562 268.308594 111.011719 C 266.808594 116.777344 263.414062 121.792969 258.832031 125.339844 C 254.34375 128.816406 248.730469 130.890625 242.660156 130.890625 C 235.367188 130.890625 228.738281 127.910156 223.9375 123.109375 C 219.136719 118.304688 216.15625 111.679688 216.15625 104.386719 L 216.15625 81.46875 C 216.15625 74.175781 219.136719 67.546875 223.9375 62.746094 C 228.738281 57.945312 235.367188 54.964844 242.660156 54.964844 C 248.730469 54.964844 254.34375 57.039062 258.832031 60.515625 C 263.414062 64.0625 266.808594 69.078125 268.308594 74.839844 C 268.800781 76.753906 267.65625 78.703125 265.746094 79.195312 C 263.835938 79.691406 261.882812 78.542969 261.390625 76.632812 C 260.296875 72.429688 257.8125 68.769531 254.464844 66.171875 C 251.199219 63.644531 247.101562 62.132812 242.660156 62.132812 C 237.347656 62.132812 232.515625 64.308594 229.007812 67.816406 C 225.503906 71.320312 223.324219 76.15625 223.324219 81.46875 L 223.324219 104.386719 C 223.324219 109.699219 225.5 114.53125 229.007812 118.039062 C 232.515625 121.542969 237.347656 123.71875 242.660156 123.71875 C 247.101562 123.71875 251.199219 122.210938 254.464844 119.679688 C 257.8125 117.085938 260.296875 113.421875 261.390625 109.21875 Z M 261.390625 109.21875 " fill-opacity="1" fill-rule="nonzero"/><path fill="#27a2db" d="M 83.136719 127.304688 C 83.136719 129.285156 81.53125 130.890625 79.550781 130.890625 C 77.574219 130.890625 75.96875 129.285156 75.96875 127.304688 L 75.96875 81.46875 C 75.96875 74.175781 78.949219 67.546875 83.75 62.746094 C 88.550781 57.945312 95.179688 54.964844 102.472656 54.964844 C 109.765625 54.964844 116.390625 57.945312 121.191406 62.746094 C 125.996094 67.546875 128.976562 74.175781 128.976562 81.46875 L 128.976562 127.304688 C 128.976562 129.285156 127.371094 130.890625 125.390625 130.890625 C 123.410156 130.890625 121.804688 129.285156 121.804688 127.304688 L 121.804688 81.46875 C 121.804688 76.15625 119.628906 71.320312 116.121094 67.816406 C 112.617188 64.3125 107.785156 62.132812 102.472656 62.132812 C 97.160156 62.132812 92.324219 64.308594 88.820312 67.816406 C 85.3125 71.320312 83.136719 76.15625 83.136719 81.46875 Z M 83.136719 127.304688 " fill-opacity="1" fill-rule="nonzero"/><path fill="#27a2db" d="M 79.550781 107.972656 C 77.574219 107.972656 75.96875 106.367188 75.96875 104.386719 C 75.96875 102.40625 77.574219 100.800781 79.550781 100.800781 L 125.390625 100.800781 C 127.371094 100.800781 128.976562 102.40625 128.976562 104.386719 C 128.976562 106.367188 127.371094 107.972656 125.390625 107.972656 Z M 79.550781 107.972656 " fill-opacity="1" fill-rule="nonzero"/><path fill="#999999" d="M 86.699219 165.253906 C 84.71875 165.253906 83.113281 163.648438 83.113281 161.667969 C 83.113281 159.6875 84.71875 158.082031 86.699219 158.082031 L 257.703125 158.082031 C 259.683594 158.082031 261.289062 159.6875 261.289062 161.667969 C 261.289062 163.648438 259.683594 165.253906 257.703125 165.253906 Z M 86.699219 165.253906 " fill-opacity="1" fill-rule="nonzero"/><path fill="#999999" d="M 86.699219 190.171875 C 84.71875 190.171875 83.113281 188.566406 83.113281 186.585938 C 83.113281 184.609375 84.71875 183.003906 86.699219 183.003906 L 257.703125 183.003906 C 259.683594 183.003906 261.289062 184.609375 261.289062 186.585938 C 261.289062 188.566406 259.683594 190.171875 257.703125 190.171875 Z M 86.699219 190.171875 " fill-opacity="1" fill-rule="nonzero"/><path fill="#999999" d="M 86.699219 215.09375 C 84.71875 215.09375 83.113281 213.488281 83.113281 211.507812 C 83.113281 209.527344 84.71875 207.921875 86.699219 207.921875 L 257.703125 207.921875 C 259.683594 207.921875 261.289062 209.527344 261.289062 211.507812 C 261.289062 213.488281 259.683594 215.09375 257.703125 215.09375 Z M 86.699219 215.09375 " fill-opacity="1" fill-rule="nonzero"/><path fill="#999999" d="M 86.699219 240.015625 C 84.71875 240.015625 83.113281 238.410156 83.113281 236.429688 C 83.113281 234.449219 84.71875 232.84375 86.699219 232.84375 L 257.703125 232.84375 C 259.683594 232.84375 261.289062 234.449219 261.289062 236.429688 C 261.289062 238.410156 259.683594 240.015625 257.703125 240.015625 Z M 86.699219 240.015625 " fill-opacity="1" fill-rule="nonzero"/><path fill="#999999" d="M 86.699219 264.933594 C 84.71875 264.933594 83.113281 263.328125 83.113281 261.347656 C 83.113281 259.371094 84.71875 257.765625 86.699219 257.765625 L 214.308594 257.765625 C 216.289062 257.765625 217.894531 259.371094 217.894531 261.347656 C 217.894531 263.328125 216.289062 264.933594 214.308594 264.933594 Z M 86.699219 264.933594 " fill-opacity="1" fill-rule="nonzero"/><path fill="#999999" d="M 86.699219 289.855469 C 84.71875 289.855469 83.113281 288.25 83.113281 286.269531 C 83.113281 284.289062 84.71875 282.683594 86.699219 282.683594 L 201.199219 282.683594 C 203.179688 282.683594 204.785156 284.289062 204.785156 286.269531 C 204.785156 288.25 203.179688 289.855469 201.199219 289.855469 Z M 86.699219 289.855469 " fill-opacity="1" fill-rule="nonzero"/><path fill="#999999" d="M 86.699219 314.773438 C 84.71875 314.773438 83.113281 313.171875 83.113281 311.191406 C 83.113281 309.210938 84.71875 307.605469 86.699219 307.605469 L 200.335938 307.605469 C 202.316406 307.605469 203.921875 309.210938 203.921875 311.191406 C 203.921875 313.171875 202.316406 314.773438 200.335938 314.773438 Z M 86.699219 314.773438 " fill-opacity="1" fill-rule="nonzero"/><g clip-path="url(#7e3b538f02)"><path fill="#71c285" d="M 276.179688 244.875 C 291.644531 244.875 305.644531 251.140625 315.777344 261.277344 C 325.914062 271.410156 332.183594 285.414062 332.183594 300.878906 C 332.183594 316.34375 325.914062 330.34375 315.777344 340.476562 C 305.644531 350.613281 291.644531 356.882812 276.179688 356.882812 C 260.714844 356.882812 246.710938 350.613281 236.578125 340.476562 C 226.441406 330.34375 220.171875 316.34375 220.171875 300.878906 C 220.171875 285.414062 226.441406 271.410156 236.578125 261.277344 C 246.710938 251.140625 260.714844 244.875 276.179688 244.875 Z M 276.179688 244.875 " fill-opacity="1" fill-rule="evenodd"/></g><path fill="#ffffff" d="M 243.867188 302.324219 C 242.875 300.617188 243.460938 298.429688 245.167969 297.4375 C 246.878906 296.449219 249.066406 297.03125 250.054688 298.742188 L 256.789062 310.402344 L 303.605469 283.371094 C 305.3125 282.382812 307.5 282.964844 308.492188 284.675781 C 309.480469 286.382812 308.898438 288.574219 307.1875 289.5625 L 257.273438 318.382812 C 255.5625 319.371094 253.375 318.789062 252.382812 317.078125 Z M 243.867188 302.324219 " fill-opacity="1" fill-rule="nonzero"/></svg>