<svg xmlns="http://www.w3.org/2000/svg" xmlns:xlink="http://www.w3.org/1999/xlink" width="512" zoomAndPan="magnify" viewBox="0 0 384 383.999986" height="512" preserveAspectRatio="xMidYMid meet" version="1.0"><defs><clipPath id="73091ee6b4"><path d="M 27.144531 27.144531 L 279 27.144531 L 279 356 L 27.144531 356 Z M 27.144531 27.144531 " clip-rule="nonzero"/></clipPath><clipPath id="7e5146c4c9"><path d="M 213 27.144531 L 309 27.144531 L 309 309 L 213 309 Z M 213 27.144531 " clip-rule="nonzero"/></clipPath></defs><g clip-path="url(#73091ee6b4)"><path fill="#e7eaef" d="M 267.996094 275.753906 L 267.996094 339.195312 C 267.996094 339.730469 267.964844 340.265625 267.910156 340.800781 C 267.859375 341.332031 267.777344 341.863281 267.671875 342.390625 C 267.566406 342.914062 267.433594 343.433594 267.277344 343.949219 C 267.121094 344.460938 266.941406 344.964844 266.734375 345.460938 C 266.53125 345.957031 266.300781 346.441406 266.046875 346.914062 C 265.792969 347.386719 265.519531 347.847656 265.222656 348.292969 C 264.925781 348.738281 264.605469 349.167969 264.265625 349.585938 C 263.925781 350 263.566406 350.398438 263.1875 350.777344 C 262.8125 351.15625 262.414062 351.519531 262 351.859375 C 261.585938 352.203125 261.160156 352.523438 260.714844 352.820312 C 260.269531 353.121094 259.808594 353.398438 259.339844 353.652344 C 258.867188 353.910156 258.382812 354.140625 257.890625 354.347656 C 257.394531 354.554688 256.890625 354.738281 256.378906 354.898438 C 255.867188 355.058594 255.347656 355.191406 254.820312 355.300781 C 254.296875 355.40625 253.765625 355.492188 253.234375 355.546875 C 252.699219 355.605469 252.164062 355.632812 251.628906 355.640625 L 43.582031 355.640625 C 43.046875 355.636719 42.507812 355.605469 41.976562 355.550781 C 41.441406 355.496094 40.910156 355.414062 40.382812 355.304688 C 39.859375 355.199219 39.335938 355.066406 38.824219 354.90625 C 38.3125 354.75 37.804688 354.566406 37.3125 354.359375 C 36.816406 354.152344 36.332031 353.921875 35.859375 353.664062 C 35.386719 353.410156 34.925781 353.132812 34.480469 352.835938 C 34.035156 352.535156 33.605469 352.214844 33.1875 351.871094 C 32.773438 351.53125 32.378906 351.171875 31.996094 350.789062 C 31.617188 350.410156 31.257812 350.011719 30.917969 349.597656 C 30.578125 349.179688 30.257812 348.75 29.957031 348.304688 C 29.660156 347.855469 29.382812 347.398438 29.128906 346.921875 C 28.875 346.449219 28.648438 345.964844 28.441406 345.46875 C 28.234375 344.972656 28.050781 344.46875 27.894531 343.953125 C 27.738281 343.441406 27.605469 342.921875 27.5 342.394531 C 27.394531 341.867188 27.3125 341.335938 27.257812 340.800781 C 27.203125 340.269531 27.175781 339.730469 27.171875 339.195312 L 27.171875 43.625 C 27.175781 43.085938 27.203125 42.550781 27.257812 42.019531 C 27.3125 41.484375 27.394531 40.953125 27.5 40.429688 C 27.609375 39.902344 27.738281 39.382812 27.898438 38.871094 C 28.054688 38.355469 28.238281 37.851562 28.441406 37.355469 C 28.648438 36.863281 28.878906 36.378906 29.132812 35.90625 C 29.386719 35.429688 29.664062 34.972656 29.960938 34.527344 C 30.261719 34.082031 30.582031 33.648438 30.921875 33.234375 C 31.261719 32.820312 31.621094 32.421875 32 32.042969 C 32.382812 31.664062 32.777344 31.304688 33.191406 30.964844 C 33.609375 30.621094 34.039062 30.304688 34.484375 30.003906 C 34.929688 29.707031 35.390625 29.429688 35.863281 29.175781 C 36.335938 28.921875 36.820312 28.691406 37.316406 28.484375 C 37.808594 28.277344 38.316406 28.097656 38.828125 27.9375 C 39.339844 27.78125 39.859375 27.648438 40.386719 27.542969 C 40.914062 27.4375 41.441406 27.355469 41.976562 27.300781 C 42.511719 27.246094 43.046875 27.21875 43.582031 27.214844 L 218.742188 27.214844 C 219.46875 27.210938 220.164062 27.347656 220.839844 27.621094 C 221.511719 27.894531 222.105469 28.285156 222.625 28.792969 L 266.417969 72.59375 C 266.933594 73.113281 267.328125 73.710938 267.605469 74.390625 C 267.878906 75.070312 268.007812 75.773438 267.996094 76.503906 L 267.996094 128.984375 C 263.527344 124.964844 258.730469 121.386719 253.605469 118.25 C 248.480469 115.113281 243.109375 112.472656 237.5 110.320312 C 231.886719 108.171875 226.128906 106.550781 220.21875 105.460938 C 214.308594 104.371094 208.347656 103.824219 202.339844 103.828125 C 147.992188 103.828125 103.796875 148.011719 103.796875 202.359375 C 103.796875 256.710938 148 300.871094 202.347656 300.871094 C 208.355469 300.875 214.3125 300.335938 220.21875 299.246094 C 226.128906 298.15625 231.886719 296.539062 237.5 294.394531 C 243.109375 292.246094 248.476562 289.605469 253.605469 286.472656 C 258.730469 283.339844 263.527344 279.765625 267.996094 275.753906 Z M 125.703125 202.359375 C 125.703125 203.613281 125.734375 204.867188 125.796875 206.121094 C 125.859375 207.371094 125.953125 208.621094 126.074219 209.871094 C 126.199219 211.117188 126.351562 212.359375 126.535156 213.601562 C 126.71875 214.839844 126.933594 216.074219 127.179688 217.304688 C 127.425781 218.535156 127.699219 219.757812 128.003906 220.972656 C 128.308594 222.191406 128.644531 223.398438 129.007812 224.597656 C 129.371094 225.796875 129.765625 226.988281 130.1875 228.167969 C 130.613281 229.347656 131.0625 230.515625 131.542969 231.675781 C 132.023438 232.832031 132.53125 233.980469 133.066406 235.113281 C 133.605469 236.246094 134.167969 237.367188 134.757812 238.472656 C 135.351562 239.578125 135.96875 240.667969 136.613281 241.742188 C 137.257812 242.816406 137.929688 243.875 138.625 244.917969 C 139.320312 245.960938 140.042969 246.984375 140.789062 247.992188 C 141.539062 249 142.308594 249.988281 143.105469 250.957031 C 143.898438 251.925781 144.71875 252.875 145.5625 253.800781 C 146.402344 254.730469 147.269531 255.640625 148.15625 256.523438 C 149.042969 257.410156 149.949219 258.277344 150.878906 259.117188 C 151.808594 259.960938 152.757812 260.777344 153.726562 261.574219 C 154.695312 262.367188 155.683594 263.140625 156.691406 263.886719 C 157.699219 264.632812 158.722656 265.355469 159.765625 266.050781 C 160.808594 266.746094 161.867188 267.417969 162.941406 268.0625 C 164.019531 268.707031 165.109375 269.324219 166.214844 269.914062 C 167.320312 270.503906 168.441406 271.066406 169.574219 271.605469 C 170.707031 272.140625 171.851562 272.648438 173.011719 273.128906 C 174.167969 273.605469 175.339844 274.058594 176.519531 274.480469 C 177.699219 274.902344 178.890625 275.292969 180.089844 275.660156 C 181.289062 276.023438 182.496094 276.355469 183.714844 276.660156 C 184.929688 276.964844 186.152344 277.238281 187.382812 277.484375 C 188.613281 277.730469 189.847656 277.941406 191.085938 278.125 C 192.328125 278.308594 193.570312 278.464844 194.820312 278.585938 C 196.066406 278.710938 197.316406 278.800781 198.570312 278.863281 C 199.820312 278.921875 201.074219 278.953125 202.328125 278.953125 C 203.582031 278.953125 204.835938 278.921875 206.085938 278.863281 C 207.339844 278.800781 208.589844 278.707031 209.835938 278.585938 C 211.085938 278.460938 212.328125 278.308594 213.570312 278.125 C 214.808594 277.941406 216.042969 277.726562 217.273438 277.480469 C 218.503906 277.234375 219.726562 276.960938 220.941406 276.65625 C 222.15625 276.351562 223.367188 276.015625 224.566406 275.652344 C 225.765625 275.289062 226.957031 274.894531 228.136719 274.472656 C 229.316406 274.050781 230.484375 273.601562 231.644531 273.121094 C 232.800781 272.640625 233.949219 272.132812 235.082031 271.597656 C 236.214844 271.058594 237.332031 270.496094 238.441406 269.90625 C 239.546875 269.3125 240.636719 268.695312 241.710938 268.050781 C 242.785156 267.40625 243.84375 266.734375 244.886719 266.039062 C 245.929688 265.34375 246.953125 264.621094 247.960938 263.875 C 248.96875 263.128906 249.957031 262.355469 250.925781 261.5625 C 251.894531 260.765625 252.84375 259.945312 253.773438 259.105469 C 254.703125 258.261719 255.609375 257.398438 256.496094 256.511719 C 257.382812 255.625 258.246094 254.71875 259.089844 253.789062 C 259.929688 252.859375 260.75 251.910156 261.542969 250.941406 C 262.339844 249.972656 263.109375 248.984375 263.859375 247.976562 C 264.605469 246.96875 265.324219 245.945312 266.023438 244.902344 C 266.71875 243.859375 267.390625 242.800781 268.035156 241.726562 C 268.679688 240.652344 269.296875 239.558594 269.886719 238.453125 C 270.476562 237.347656 271.042969 236.230469 271.578125 235.097656 C 272.113281 233.960938 272.621094 232.816406 273.101562 231.660156 C 273.582031 230.5 274.03125 229.332031 274.453125 228.148438 C 274.878906 226.96875 275.269531 225.78125 275.632812 224.578125 C 276 223.378906 276.332031 222.171875 276.636719 220.957031 C 276.941406 219.738281 277.214844 218.515625 277.460938 217.289062 C 277.707031 216.058594 277.917969 214.824219 278.105469 213.582031 C 278.289062 212.34375 278.441406 211.097656 278.5625 209.851562 C 278.6875 208.601562 278.78125 207.351562 278.839844 206.101562 C 278.902344 204.847656 278.933594 203.59375 278.933594 202.34375 C 278.933594 201.089844 278.902344 199.835938 278.839844 198.582031 C 278.78125 197.332031 278.6875 196.082031 278.566406 194.832031 C 278.441406 193.585938 278.289062 192.339844 278.105469 191.101562 C 277.921875 189.859375 277.707031 188.625 277.460938 187.398438 C 277.21875 186.167969 276.941406 184.945312 276.636719 183.726562 C 276.332031 182.511719 276 181.304688 275.636719 180.105469 C 275.273438 178.902344 274.878906 177.714844 274.457031 176.535156 C 274.035156 175.351562 273.582031 174.183594 273.101562 173.023438 C 272.625 171.867188 272.117188 170.722656 271.578125 169.585938 C 271.042969 168.453125 270.480469 167.335938 269.890625 166.230469 C 269.296875 165.125 268.679688 164.03125 268.035156 162.957031 C 267.390625 161.882812 266.722656 160.824219 266.023438 159.78125 C 265.328125 158.738281 264.605469 157.714844 263.859375 156.707031 C 263.113281 155.699219 262.34375 154.710938 261.546875 153.742188 C 260.753906 152.773438 259.933594 151.824219 259.089844 150.894531 C 258.25 149.964844 257.386719 149.058594 256.5 148.171875 C 255.613281 147.285156 254.703125 146.417969 253.777344 145.578125 C 252.847656 144.734375 251.898438 143.917969 250.929688 143.121094 C 249.960938 142.324219 248.972656 141.554688 247.964844 140.808594 C 246.957031 140.0625 245.933594 139.339844 244.890625 138.640625 C 243.847656 137.945312 242.789062 137.273438 241.714844 136.628906 C 240.640625 135.984375 239.550781 135.367188 238.445312 134.777344 C 237.339844 134.183594 236.21875 133.621094 235.085938 133.085938 C 233.953125 132.550781 232.804688 132.042969 231.648438 131.5625 C 230.488281 131.082031 229.320312 130.628906 228.140625 130.207031 C 226.960938 129.785156 225.769531 129.390625 224.570312 129.027344 C 223.371094 128.664062 222.164062 128.328125 220.945312 128.023438 C 219.730469 127.71875 218.507812 127.445312 217.277344 127.199219 C 216.046875 126.953125 214.8125 126.742188 213.574219 126.554688 C 212.332031 126.371094 211.089844 126.21875 209.839844 126.09375 C 208.59375 125.972656 207.34375 125.878906 206.089844 125.816406 C 204.839844 125.757812 203.585938 125.726562 202.332031 125.726562 C 201.078125 125.722656 199.824219 125.753906 198.570312 125.8125 C 197.316406 125.875 196.066406 125.964844 194.820312 126.085938 C 193.570312 126.207031 192.324219 126.359375 191.085938 126.542969 C 189.84375 126.726562 188.605469 126.941406 187.375 127.183594 C 186.144531 127.425781 184.921875 127.703125 183.703125 128.003906 C 182.488281 128.308594 181.277344 128.644531 180.078125 129.007812 C 178.878906 129.371094 177.6875 129.761719 176.503906 130.183594 C 175.324219 130.605469 174.152344 131.058594 172.992188 131.535156 C 171.835938 132.015625 170.6875 132.523438 169.554688 133.058594 C 168.417969 133.59375 167.296875 134.160156 166.191406 134.75 C 165.085938 135.339844 163.992188 135.957031 162.917969 136.601562 C 161.839844 137.246094 160.78125 137.917969 159.738281 138.613281 C 158.695312 139.3125 157.667969 140.035156 156.660156 140.78125 C 155.652344 141.527344 154.664062 142.300781 153.695312 143.09375 C 152.726562 143.890625 151.773438 144.710938 150.847656 145.550781 C 149.917969 146.394531 149.007812 147.257812 148.121094 148.148438 C 147.234375 149.035156 146.367188 149.941406 145.527344 150.871094 C 144.683594 151.800781 143.867188 152.75 143.070312 153.722656 C 142.273438 154.691406 141.503906 155.679688 140.753906 156.6875 C 140.007812 157.695312 139.285156 158.722656 138.589844 159.765625 C 137.894531 160.808594 137.222656 161.867188 136.578125 162.945312 C 135.933594 164.019531 135.316406 165.113281 134.726562 166.21875 C 134.132812 167.324219 133.570312 168.445312 133.035156 169.582031 C 132.5 170.714844 131.992188 171.863281 131.511719 173.019531 C 131.03125 174.179688 130.582031 175.351562 130.160156 176.53125 C 129.738281 177.714844 129.347656 178.90625 128.984375 180.105469 C 128.621094 181.304688 128.285156 182.515625 127.980469 183.734375 C 127.679688 184.949219 127.40625 186.171875 127.160156 187.40625 C 126.917969 188.636719 126.703125 189.871094 126.519531 191.113281 C 126.339844 192.351562 126.1875 193.597656 126.066406 194.847656 C 125.941406 196.09375 125.851562 197.347656 125.792969 198.597656 C 125.730469 199.851562 125.703125 201.105469 125.703125 202.359375 Z M 125.703125 202.359375 " fill-opacity="1" fill-rule="nonzero"/></g><path fill="#565d69" d="M 185.894531 70.976562 C 193.195312 70.976562 193.195312 81.929688 185.894531 81.929688 L 103.796875 81.929688 C 96.496094 81.929688 96.496094 70.976562 103.796875 70.976562 Z M 65.484375 147.625 L 98.332031 147.625 C 105.628906 147.625 105.628906 136.675781 98.332031 136.675781 L 65.195312 136.675781 C 57.625 137.0625 58.191406 148.011719 65.484375 147.625 Z M 65.484375 202.339844 C 58.183594 202.339844 58.183594 213.289062 65.484375 213.289062 L 81.886719 213.289062 C 89.1875 213.289062 89.1875 202.339844 81.886719 202.339844 Z M 65.484375 235.183594 C 58.183594 235.183594 58.183594 246.136719 65.484375 246.136719 L 92.808594 246.136719 C 100.109375 246.136719 100.109375 235.183594 92.808594 235.183594 Z M 65.484375 268.039062 C 58.183594 268.039062 58.183594 278.988281 65.484375 278.988281 L 109.261719 278.988281 C 116.5625 278.988281 116.5625 268.039062 109.261719 268.039062 Z M 109.28125 311.84375 L 147.570312 311.84375 C 154.871094 311.84375 154.871094 300.890625 147.570312 300.890625 L 109.035156 300.890625 C 101.417969 301.269531 101.988281 312.21875 109.28125 311.84375 Z M 65.484375 311.84375 L 87.378906 311.84375 C 94.679688 311.84375 94.679688 300.890625 87.378906 300.890625 L 65.195312 300.890625 C 57.625 301.269531 58.191406 312.21875 65.484375 311.84375 Z M 65.484375 180.480469 L 87.378906 180.480469 C 94.679688 180.480469 94.679688 169.527344 87.378906 169.527344 L 65.195312 169.527344 C 57.625 169.914062 58.191406 180.859375 65.484375 180.480469 Z M 65.484375 103.828125 C 58.183594 103.828125 58.183594 114.773438 65.484375 114.773438 L 131.183594 114.773438 C 138.484375 114.773438 138.484375 103.828125 131.183594 103.828125 Z M 65.484375 103.828125 " fill-opacity="1" fill-rule="nonzero"/><g clip-path="url(#7e5146c4c9)"><path fill="#d8dbe0" d="M 218.742188 27.222656 C 219.46875 27.214844 220.167969 27.347656 220.839844 27.621094 C 221.511719 27.890625 222.105469 28.28125 222.625 28.792969 L 266.425781 72.589844 C 266.941406 73.109375 267.332031 73.710938 267.605469 74.390625 C 267.875 75.070312 268.007812 75.773438 267.996094 76.503906 L 267.996094 81.957031 L 229.691406 81.957031 C 229.15625 81.953125 228.621094 81.925781 228.085938 81.871094 C 227.554688 81.816406 227.023438 81.738281 226.496094 81.628906 C 225.972656 81.523438 225.453125 81.394531 224.941406 81.234375 C 224.425781 81.078125 223.921875 80.898438 223.425781 80.691406 C 222.933594 80.484375 222.449219 80.253906 221.976562 80.003906 C 221.503906 79.75 221.042969 79.472656 220.597656 79.175781 C 220.152344 78.875 219.722656 78.554688 219.304688 78.214844 C 218.890625 77.875 218.496094 77.515625 218.117188 77.136719 C 217.734375 76.757812 217.375 76.359375 217.035156 75.945312 C 216.695312 75.53125 216.375 75.101562 216.078125 74.65625 C 215.777344 74.210938 215.5 73.75 215.246094 73.277344 C 214.996094 72.804688 214.765625 72.320312 214.558594 71.824219 C 214.351562 71.332031 214.167969 70.828125 214.011719 70.3125 C 213.855469 69.800781 213.722656 69.28125 213.617188 68.753906 C 213.511719 68.230469 213.429688 67.699219 213.375 67.167969 C 213.320312 66.632812 213.292969 66.097656 213.289062 65.5625 L 213.289062 27.222656 Z M 273.292969 249.15625 L 250.339844 274.527344 L 284.445312 308.632812 L 308.605469 284.46875 Z M 273.292969 249.15625 " fill-opacity="1" fill-rule="nonzero"/></g><path fill="#68b1fc" d="M 348.316406 313.277344 L 310.183594 275.136719 C 309.929688 274.878906 309.65625 274.652344 309.359375 274.449219 C 309.0625 274.25 308.75 274.078125 308.417969 273.941406 C 308.085938 273.800781 307.746094 273.695312 307.394531 273.625 C 307.042969 273.554688 306.6875 273.519531 306.328125 273.519531 C 305.96875 273.519531 305.613281 273.554688 305.261719 273.625 C 304.910156 273.695312 304.570312 273.800781 304.238281 273.941406 C 303.90625 274.078125 303.59375 274.25 303.296875 274.449219 C 303 274.652344 302.726562 274.878906 302.476562 275.136719 L 275.078125 302.460938 C 274.828125 302.714844 274.605469 302.992188 274.40625 303.289062 C 274.210938 303.585938 274.042969 303.902344 273.90625 304.230469 C 273.769531 304.5625 273.667969 304.902344 273.597656 305.253906 C 273.53125 305.601562 273.496094 305.957031 273.496094 306.3125 C 273.496094 306.671875 273.53125 307.023438 273.597656 307.375 C 273.667969 307.726562 273.769531 308.066406 273.90625 308.398438 C 274.042969 308.726562 274.210938 309.042969 274.40625 309.339844 C 274.605469 309.636719 274.828125 309.914062 275.078125 310.167969 L 313.222656 348.316406 C 313.804688 348.84375 314.414062 349.339844 315.042969 349.808594 C 315.675781 350.277344 316.328125 350.714844 317 351.121094 C 317.671875 351.527344 318.363281 351.902344 319.070312 352.242188 C 319.777344 352.582031 320.5 352.890625 321.238281 353.164062 C 321.976562 353.433594 322.722656 353.671875 323.484375 353.875 C 324.242188 354.074219 325.011719 354.238281 325.785156 354.367188 C 326.5625 354.496094 327.339844 354.589844 328.125 354.640625 C 328.910156 354.695312 329.695312 354.714844 330.480469 354.695312 C 331.265625 354.671875 332.046875 354.617188 332.828125 354.523438 C 333.609375 354.425781 334.382812 354.296875 335.152344 354.128906 C 335.917969 353.960938 336.675781 353.757812 337.425781 353.515625 C 338.171875 353.277344 338.910156 353.003906 339.628906 352.691406 C 340.351562 352.382812 341.058594 352.039062 341.75 351.664062 C 342.4375 351.285156 343.109375 350.878906 343.757812 350.4375 C 344.410156 349.996094 345.039062 349.527344 345.644531 349.027344 C 346.25 348.527344 346.832031 348 347.386719 347.441406 C 347.945312 346.886719 348.472656 346.308594 348.972656 345.703125 C 349.476562 345.097656 349.945312 344.46875 350.386719 343.820312 C 350.828125 343.167969 351.238281 342.5 351.617188 341.808594 C 351.996094 341.121094 352.339844 340.414062 352.648438 339.695312 C 352.960938 338.972656 353.238281 338.238281 353.476562 337.488281 C 353.71875 336.742188 353.925781 335.984375 354.09375 335.214844 C 354.261719 334.449219 354.394531 333.675781 354.492188 332.894531 C 354.585938 332.113281 354.644531 331.332031 354.667969 330.546875 C 354.6875 329.761719 354.671875 328.976562 354.617188 328.191406 C 354.566406 327.40625 354.476562 326.628906 354.347656 325.851562 C 354.222656 325.078125 354.058594 324.308594 353.855469 323.550781 C 353.65625 322.789062 353.421875 322.039062 353.148438 321.300781 C 352.878906 320.566406 352.574219 319.84375 352.234375 319.132812 C 351.894531 318.425781 351.519531 317.734375 351.117188 317.0625 C 350.710938 316.386719 350.273438 315.734375 349.804688 315.101562 C 349.339844 314.472656 348.84375 313.863281 348.316406 313.277344 Z M 202.339844 103.828125 C 147.992188 103.828125 103.796875 148.011719 103.796875 202.359375 C 103.796875 256.710938 148 300.871094 202.347656 300.871094 C 203.957031 300.867188 205.570312 300.828125 207.179688 300.75 C 208.789062 300.667969 210.394531 300.546875 212 300.390625 C 213.605469 300.230469 215.203125 300.03125 216.796875 299.792969 C 218.390625 299.558594 219.980469 299.28125 221.558594 298.964844 C 223.140625 298.652344 224.710938 298.296875 226.277344 297.902344 C 227.839844 297.511719 229.390625 297.082031 230.933594 296.613281 C 232.476562 296.144531 234.007812 295.636719 235.523438 295.09375 C 237.042969 294.550781 238.542969 293.96875 240.035156 293.351562 C 241.523438 292.734375 242.996094 292.082031 244.453125 291.390625 C 245.910156 290.703125 247.347656 289.976562 248.769531 289.21875 C 250.191406 288.457031 251.59375 287.664062 252.976562 286.832031 C 254.359375 286.003906 255.71875 285.140625 257.058594 284.246094 C 258.398438 283.351562 259.714844 282.421875 261.011719 281.460938 C 262.304688 280.503906 263.574219 279.511719 264.820312 278.488281 C 266.066406 277.464844 267.289062 276.414062 268.480469 275.332031 C 269.675781 274.246094 270.84375 273.136719 271.984375 271.996094 C 273.121094 270.855469 274.234375 269.691406 275.316406 268.496094 C 276.398438 267.300781 277.453125 266.082031 278.472656 264.835938 C 279.496094 263.589844 280.488281 262.320312 281.449219 261.023438 C 282.410156 259.730469 283.335938 258.414062 284.234375 257.074219 C 285.128906 255.734375 285.992188 254.371094 286.820312 252.988281 C 287.648438 251.605469 288.445312 250.207031 289.203125 248.785156 C 289.964844 247.363281 290.6875 245.921875 291.378906 244.464844 C 292.066406 243.007812 292.722656 241.535156 293.339844 240.046875 C 293.957031 238.558594 294.535156 237.054688 295.082031 235.539062 C 295.625 234.019531 296.128906 232.492188 296.597656 230.949219 C 297.066406 229.40625 297.496094 227.855469 297.890625 226.289062 C 298.28125 224.726562 298.636719 223.15625 298.953125 221.574219 C 299.265625 219.992188 299.542969 218.40625 299.78125 216.8125 C 300.019531 215.21875 300.214844 213.617188 300.375 212.015625 C 300.535156 210.410156 300.652344 208.804688 300.734375 207.191406 C 300.8125 205.582031 300.855469 203.972656 300.855469 202.359375 C 300.847656 148.011719 256.6875 103.828125 202.339844 103.828125 Z M 202.339844 278.988281 C 201.085938 278.988281 199.832031 278.957031 198.578125 278.898438 C 197.328125 278.835938 196.078125 278.742188 194.828125 278.621094 C 193.582031 278.5 192.335938 278.34375 191.097656 278.160156 C 189.855469 277.976562 188.621094 277.761719 187.390625 277.519531 C 186.160156 277.273438 184.9375 277 183.722656 276.695312 C 182.503906 276.390625 181.296875 276.054688 180.097656 275.691406 C 178.898438 275.328125 177.707031 274.933594 176.527344 274.511719 C 175.34375 274.089844 174.175781 273.640625 173.015625 273.160156 C 171.859375 272.679688 170.710938 272.171875 169.578125 271.636719 C 168.445312 271.101562 167.324219 270.535156 166.21875 269.945312 C 165.113281 269.355469 164.023438 268.738281 162.945312 268.09375 C 161.871094 267.445312 160.8125 266.777344 159.769531 266.082031 C 158.726562 265.382812 157.703125 264.660156 156.695312 263.914062 C 155.6875 263.167969 154.699219 262.398438 153.730469 261.601562 C 152.761719 260.804688 151.8125 259.988281 150.882812 259.144531 C 149.953125 258.304688 149.042969 257.4375 148.15625 256.550781 C 147.269531 255.664062 146.40625 254.757812 145.5625 253.828125 C 144.722656 252.898438 143.902344 251.949219 143.109375 250.980469 C 142.3125 250.011719 141.539062 249.023438 140.792969 248.015625 C 140.046875 247.007812 139.324219 245.984375 138.628906 244.941406 C 137.929688 243.898438 137.261719 242.839844 136.617188 241.765625 C 135.972656 240.691406 135.351562 239.597656 134.761719 238.492188 C 134.171875 237.386719 133.605469 236.265625 133.070312 235.132812 C 132.535156 234 132.027344 232.855469 131.546875 231.695312 C 131.066406 230.539062 130.613281 229.367188 130.191406 228.1875 C 129.769531 227.007812 129.375 225.816406 129.011719 224.617188 C 128.648438 223.417969 128.3125 222.207031 128.007812 220.992188 C 127.703125 219.777344 127.429688 218.550781 127.183594 217.324219 C 126.941406 216.09375 126.726562 214.859375 126.542969 213.617188 C 126.355469 212.375 126.203125 211.132812 126.082031 209.886719 C 125.957031 208.636719 125.867188 207.386719 125.804688 206.132812 C 125.742188 204.882812 125.710938 203.628906 125.710938 202.375 C 125.710938 201.121094 125.742188 199.867188 125.804688 198.613281 C 125.863281 197.363281 125.957031 196.113281 126.078125 194.863281 C 126.203125 193.617188 126.355469 192.371094 126.539062 191.132812 C 126.722656 189.890625 126.9375 188.65625 127.183594 187.425781 C 127.425781 186.195312 127.699219 184.972656 128.003906 183.757812 C 128.308594 182.539062 128.644531 181.332031 129.007812 180.132812 C 129.371094 178.933594 129.765625 177.742188 130.1875 176.5625 C 130.609375 175.378906 131.0625 174.210938 131.539062 173.050781 C 132.019531 171.894531 132.527344 170.746094 133.066406 169.613281 C 133.601562 168.480469 134.164062 167.359375 134.753906 166.253906 C 135.347656 165.148438 135.964844 164.058594 136.609375 162.980469 C 137.253906 161.90625 137.921875 160.847656 138.621094 159.804688 C 139.316406 158.761719 140.039062 157.738281 140.785156 156.730469 C 141.53125 155.722656 142.304688 154.734375 143.097656 153.765625 C 143.894531 152.796875 144.714844 151.847656 145.554688 150.917969 C 146.398438 149.988281 147.261719 149.078125 148.148438 148.191406 C 149.035156 147.304688 149.941406 146.441406 150.871094 145.597656 C 151.800781 144.757812 152.75 143.9375 153.71875 143.144531 C 154.6875 142.347656 155.675781 141.574219 156.683594 140.828125 C 157.691406 140.082031 158.714844 139.359375 159.757812 138.664062 C 160.800781 137.964844 161.859375 137.296875 162.933594 136.652344 C 164.011719 136.007812 165.101562 135.386719 166.207031 134.796875 C 167.3125 134.207031 168.433594 133.640625 169.566406 133.105469 C 170.699219 132.570312 171.847656 132.0625 173.003906 131.582031 C 174.164062 131.101562 175.332031 130.648438 176.511719 130.226562 C 177.695312 129.804688 178.882812 129.410156 180.082031 129.046875 C 181.285156 128.683594 182.492188 128.347656 183.707031 128.042969 C 184.925781 127.738281 186.148438 127.464844 187.378906 127.21875 C 188.609375 126.976562 189.84375 126.761719 191.082031 126.578125 C 192.324219 126.390625 193.566406 126.238281 194.816406 126.117188 C 196.0625 125.992188 197.3125 125.898438 198.566406 125.839844 C 199.820312 125.777344 201.070312 125.746094 202.324219 125.746094 C 203.578125 125.746094 204.832031 125.777344 206.085938 125.839844 C 207.335938 125.898438 208.589844 125.992188 209.835938 126.113281 C 211.082031 126.238281 212.328125 126.390625 213.570312 126.574219 C 214.808594 126.757812 216.042969 126.972656 217.273438 127.21875 C 218.503906 127.460938 219.726562 127.734375 220.945312 128.039062 C 222.160156 128.34375 223.367188 128.679688 224.566406 129.042969 C 225.769531 129.40625 226.957031 129.800781 228.140625 130.222656 C 229.320312 130.644531 230.488281 131.097656 231.648438 131.574219 C 232.804688 132.054688 233.953125 132.5625 235.085938 133.097656 C 236.21875 133.636719 237.339844 134.199219 238.445312 134.789062 C 239.550781 135.382812 240.640625 136 241.71875 136.644531 C 242.792969 137.289062 243.851562 137.957031 244.894531 138.65625 C 245.9375 139.351562 246.964844 140.074219 247.96875 140.820312 C 248.976562 141.566406 249.964844 142.339844 250.933594 143.132812 C 251.90625 143.929688 252.855469 144.746094 253.785156 145.589844 C 254.710938 146.433594 255.621094 147.296875 256.507812 148.183594 C 257.394531 149.070312 258.257812 149.976562 259.101562 150.90625 C 259.941406 151.835938 260.761719 152.785156 261.558594 153.753906 C 262.351562 154.722656 263.125 155.710938 263.871094 156.71875 C 264.617188 157.726562 265.339844 158.75 266.039062 159.792969 C 266.734375 160.835938 267.40625 161.894531 268.050781 162.96875 C 268.695312 164.046875 269.3125 165.136719 269.902344 166.242188 C 270.496094 167.347656 271.058594 168.46875 271.59375 169.601562 C 272.132812 170.734375 272.640625 171.882812 273.117188 173.039062 C 273.597656 174.199219 274.050781 175.367188 274.472656 176.546875 C 274.894531 177.730469 275.289062 178.917969 275.652344 180.117188 C 276.015625 181.320312 276.351562 182.527344 276.65625 183.742188 C 276.960938 184.960938 277.234375 186.183594 277.480469 187.414062 C 277.726562 188.640625 277.941406 189.878906 278.125 191.117188 C 278.308594 192.359375 278.460938 193.601562 278.585938 194.851562 C 278.707031 196.097656 278.800781 197.347656 278.863281 198.601562 C 278.921875 199.851562 278.953125 201.105469 278.953125 202.359375 C 278.957031 203.613281 278.925781 204.867188 278.867188 206.121094 C 278.804688 207.375 278.714844 208.625 278.59375 209.875 C 278.472656 211.121094 278.320312 212.367188 278.136719 213.609375 C 277.953125 214.847656 277.738281 216.085938 277.496094 217.316406 C 277.253906 218.546875 276.976562 219.769531 276.675781 220.988281 C 276.371094 222.203125 276.039062 223.414062 275.675781 224.613281 C 275.3125 225.8125 274.917969 227.003906 274.496094 228.1875 C 274.074219 229.367188 273.625 230.539062 273.144531 231.695312 C 272.664062 232.855469 272.15625 234.003906 271.621094 235.136719 C 271.085938 236.269531 270.523438 237.390625 269.933594 238.496094 C 269.339844 239.605469 268.722656 240.695312 268.078125 241.773438 C 267.433594 242.847656 266.765625 243.90625 266.066406 244.949219 C 265.371094 245.996094 264.648438 247.019531 263.902344 248.027344 C 263.15625 249.035156 262.382812 250.023438 261.589844 250.992188 C 260.792969 251.964844 259.972656 252.914062 259.132812 253.84375 C 258.289062 254.773438 257.425781 255.679688 256.539062 256.566406 C 255.652344 257.453125 254.742188 258.320312 253.8125 259.160156 C 252.882812 260.003906 251.933594 260.824219 250.964844 261.617188 C 249.996094 262.414062 249.003906 263.1875 247.996094 263.933594 C 246.992188 264.679688 245.964844 265.402344 244.921875 266.097656 C 243.878906 266.796875 242.820312 267.464844 241.742188 268.109375 C 240.667969 268.753906 239.574219 269.371094 238.46875 269.964844 C 237.363281 270.554688 236.242188 271.117188 235.109375 271.652344 C 233.972656 272.191406 232.828125 272.699219 231.667969 273.175781 C 230.507812 273.65625 229.339844 274.105469 228.15625 274.527344 C 226.976562 274.949219 225.785156 275.34375 224.585938 275.707031 C 223.382812 276.070312 222.175781 276.402344 220.957031 276.707031 C 219.742188 277.011719 218.515625 277.285156 217.285156 277.53125 C 216.054688 277.773438 214.820312 277.988281 213.578125 278.171875 C 212.339844 278.351562 211.09375 278.503906 209.847656 278.628906 C 208.597656 278.75 207.347656 278.839844 206.09375 278.902344 C 204.839844 278.960938 203.585938 278.992188 202.332031 278.988281 Z M 202.339844 278.988281 " fill-opacity="1" fill-rule="nonzero"/><path fill="#fc6067" d="M 218.742188 158.5625 C 217.84375 158.566406 216.953125 158.609375 216.058594 158.699219 C 215.167969 158.789062 214.28125 158.921875 213.402344 159.09375 C 212.523438 159.269531 211.65625 159.488281 210.800781 159.75 C 209.941406 160.011719 209.101562 160.3125 208.273438 160.65625 C 207.445312 161 206.636719 161.382812 205.847656 161.804688 C 205.054688 162.230469 204.289062 162.691406 203.542969 163.1875 C 202.796875 163.6875 202.078125 164.21875 201.386719 164.789062 C 200.695312 165.355469 200.03125 165.957031 199.398438 166.59375 C 198.765625 167.226562 198.164062 167.890625 197.59375 168.582031 C 197.027344 169.273438 196.492188 169.992188 195.996094 170.738281 C 195.496094 171.484375 195.035156 172.25 194.613281 173.042969 C 194.191406 173.832031 193.808594 174.640625 193.464844 175.46875 C 193.121094 176.296875 192.820312 177.136719 192.558594 177.996094 C 192.296875 178.851562 192.082031 179.722656 191.90625 180.601562 C 191.730469 181.480469 191.597656 182.363281 191.507812 183.257812 C 191.421875 184.148438 191.375 185.042969 191.375 185.9375 C 191.378906 186.949219 191.4375 187.960938 191.558594 188.964844 L 165.632812 214.886719 C 165.117188 215.398438 164.722656 215.992188 164.445312 216.660156 C 164.167969 217.332031 164.027344 218.03125 164.027344 218.753906 L 164.027344 235.199219 C 164.027344 235.558594 164.0625 235.914062 164.132812 236.265625 C 164.203125 236.621094 164.308594 236.960938 164.445312 237.292969 C 164.582031 237.625 164.75 237.941406 164.949219 238.238281 C 165.152344 238.539062 165.378906 238.816406 165.632812 239.070312 C 165.886719 239.324219 166.160156 239.550781 166.460938 239.75 C 166.757812 239.949219 167.074219 240.117188 167.40625 240.253906 C 167.738281 240.390625 168.082031 240.496094 168.433594 240.566406 C 168.785156 240.636719 169.140625 240.671875 169.5 240.671875 L 185.921875 240.671875 C 186.28125 240.671875 186.636719 240.632812 186.988281 240.5625 C 187.339844 240.492188 187.679688 240.386719 188.011719 240.25 C 188.34375 240.109375 188.65625 239.941406 188.953125 239.742188 C 189.25 239.542969 189.527344 239.316406 189.78125 239.0625 C 190.03125 238.808594 190.257812 238.53125 190.457031 238.234375 C 190.65625 237.933594 190.824219 237.621094 190.960938 237.289062 C 191.097656 236.957031 191.199219 236.617188 191.269531 236.265625 C 191.339844 235.914062 191.375 235.558594 191.375 235.199219 L 191.375 229.726562 L 196.847656 229.726562 C 197.207031 229.726562 197.5625 229.691406 197.914062 229.621094 C 198.269531 229.550781 198.609375 229.449219 198.941406 229.308594 C 199.273438 229.171875 199.589844 229.003906 199.890625 228.804688 C 200.1875 228.605469 200.464844 228.375 200.71875 228.121094 C 200.972656 227.867188 201.199219 227.589844 201.398438 227.292969 C 201.597656 226.992188 201.765625 226.675781 201.902344 226.34375 C 202.042969 226.011719 202.144531 225.667969 202.214844 225.316406 C 202.285156 224.964844 202.320312 224.609375 202.320312 224.25 L 202.320312 218.777344 L 207.796875 218.777344 C 208.523438 218.777344 209.222656 218.636719 209.890625 218.359375 C 210.5625 218.082031 211.152344 217.6875 211.664062 217.171875 L 215.722656 213.121094 C 232.304688 215.113281 246.109375 202.015625 246.109375 185.9375 C 246.109375 185.042969 246.0625 184.148438 245.972656 183.257812 C 245.886719 182.363281 245.753906 181.480469 245.578125 180.601562 C 245.402344 179.722656 245.183594 178.851562 244.921875 177.996094 C 244.664062 177.136719 244.359375 176.296875 244.019531 175.46875 C 243.675781 174.640625 243.292969 173.832031 242.867188 173.042969 C 242.445312 172.25 241.984375 171.484375 241.488281 170.738281 C 240.988281 169.992188 240.457031 169.273438 239.886719 168.582031 C 239.320312 167.890625 238.71875 167.226562 238.085938 166.59375 C 237.453125 165.957031 236.789062 165.355469 236.097656 164.789062 C 235.402344 164.21875 234.683594 163.6875 233.941406 163.1875 C 233.195312 162.691406 232.425781 162.230469 231.636719 161.804688 C 230.847656 161.382812 230.039062 161 229.210938 160.65625 C 228.382812 160.3125 227.539062 160.011719 226.683594 159.75 C 225.824219 159.488281 224.957031 159.269531 224.078125 159.09375 C 223.199219 158.921875 222.316406 158.789062 221.421875 158.699219 C 220.53125 158.609375 219.636719 158.566406 218.742188 158.5625 Z M 218.742188 158.5625 " fill-opacity="1" fill-rule="nonzero"/><path fill="#e7eaef" d="M 224.214844 185.9375 C 224.214844 186.296875 224.179688 186.652344 224.109375 187.003906 C 224.039062 187.359375 223.933594 187.699219 223.796875 188.03125 C 223.660156 188.363281 223.492188 188.679688 223.292969 188.976562 C 223.089844 189.277344 222.863281 189.554688 222.609375 189.808594 C 222.355469 190.0625 222.082031 190.289062 221.78125 190.488281 C 221.484375 190.6875 221.167969 190.855469 220.835938 190.992188 C 220.503906 191.128906 220.160156 191.234375 219.808594 191.304688 C 219.457031 191.375 219.101562 191.410156 218.742188 191.410156 C 218.382812 191.410156 218.027344 191.375 217.675781 191.304688 C 217.320312 191.234375 216.980469 191.128906 216.648438 190.992188 C 216.316406 190.855469 216 190.6875 215.703125 190.488281 C 215.402344 190.289062 215.125 190.0625 214.871094 189.808594 C 214.617188 189.554688 214.390625 189.277344 214.191406 188.976562 C 213.992188 188.679688 213.824219 188.363281 213.6875 188.03125 C 213.546875 187.699219 213.445312 187.359375 213.375 187.003906 C 213.304688 186.652344 213.269531 186.296875 213.269531 185.9375 C 213.269531 185.578125 213.304688 185.222656 213.375 184.871094 C 213.445312 184.519531 213.546875 184.175781 213.6875 183.84375 C 213.824219 183.511719 213.992188 183.195312 214.191406 182.898438 C 214.390625 182.597656 214.617188 182.324219 214.871094 182.070312 C 215.125 181.8125 215.402344 181.585938 215.703125 181.386719 C 216 181.1875 216.316406 181.019531 216.648438 180.882812 C 216.980469 180.746094 217.320312 180.640625 217.675781 180.570312 C 218.027344 180.5 218.382812 180.464844 218.742188 180.464844 C 219.101562 180.464844 219.457031 180.5 219.808594 180.570312 C 220.160156 180.640625 220.503906 180.746094 220.835938 180.882812 C 221.167969 181.019531 221.484375 181.1875 221.78125 181.386719 C 222.082031 181.585938 222.355469 181.8125 222.609375 182.070312 C 222.863281 182.324219 223.089844 182.597656 223.292969 182.898438 C 223.492188 183.195312 223.660156 183.511719 223.796875 183.84375 C 223.933594 184.175781 224.039062 184.519531 224.109375 184.871094 C 224.179688 185.222656 224.214844 185.578125 224.214844 185.9375 Z M 224.214844 185.9375 " fill-opacity="1" fill-rule="nonzero"/></svg>