<svg width="36" height="36" viewBox="0 0 36 36" fill="none" xmlns="http://www.w3.org/2000/svg">
<path d="M17.5 20.7H13.6299C12.2214 20.7 11.5172 20.7 11.2223 20.2385C10.9274 19.7769 11.2232 19.1379 11.8149 17.8598L17.0463 6.56006C17.4205 5.75182 17.6075 5.3477 17.8038 5.39091C18 5.43413 18 5.87947 18 6.77013V14.8C18 15.0357 18 15.1536 18.0732 15.2268C18.1464 15.3 18.2643 15.3 18.5 15.3H22.3701C23.7786 15.3 24.4828 15.3 24.7777 15.7615C25.0726 16.2231 24.7768 16.8621 24.1851 18.1402L18.9537 29.4399C18.5795 30.2482 18.3925 30.6523 18.1962 30.6091C18 30.5659 18 30.1205 18 29.2299V21.2C18 20.9643 18 20.8464 17.9268 20.7732C17.8536 20.7 17.7357 20.7 17.5 20.7Z" fill="#222222"/>
</svg>
