<svg width="72" height="72" viewBox="0 0 72 72" fill="none" xmlns="http://www.w3.org/2000/svg">
<g clip-path="url(#clip0_205_13)">
<path d="M0 36C0 55.8822 16.1178 72 36 72C55.8823 72 72 55.8822 72 36C72 16.1177 55.8823 0 36 0C16.1178 0 0 16.1177 0 36Z" fill="url(#paint0_linear_205_13)"/>
<path fill-rule="evenodd" clip-rule="evenodd" d="M36 8.07776C20.5775 8.07776 8.07812 20.5787 8.07812 35.9996C8.07812 51.4205 20.5791 63.9219 36 63.9219C40.4108 63.9285 44.7598 62.8853 48.6878 60.8787L51 59.5L53 58L56.2766 55.1931C61.0138 50.1895 63.9203 43.4342 63.9203 35.9996C63.9203 20.5771 51.4193 8.07776 35.9984 8.07776" fill="#181A1F"/>
<path fill-rule="evenodd" clip-rule="evenodd" d="M29.6509 8.80316C17.2891 11.6778 8.0801 22.7617 8.0801 35.998C8.07441 40.1601 9.00297 44.2705 10.7973 48.026C22.3459 41.5072 30.1446 29.1215 30.1446 14.9153C30.1446 12.868 29.9801 10.8241 29.6529 8.80316" fill="#14161A"/>
<path d="M32.3349 26.4915H23.1945C22.5348 26.4915 22 27.0263 22 27.6861C22 28.3458 22.5348 28.8806 23.1945 28.8806H32.3349C32.9946 28.8806 33.5294 28.3458 33.5294 27.6861C33.5294 27.0263 32.9946 26.4915 32.3349 26.4915Z" fill="white"/>
<path d="M48.7577 40.6348H39.7129C39.0268 40.6348 38.4706 41.191 38.4706 41.8771C38.4706 42.5633 39.0268 43.1195 39.7129 43.1195H48.7577C49.4438 43.1195 50 42.5633 50 41.8771C50 41.191 49.4438 40.6348 48.7577 40.6348Z" fill="white"/>
<path d="M48.8532 45.5085H39.6173C38.984 45.5085 38.4706 46.0219 38.4706 46.6552C38.4706 47.2886 38.984 47.802 39.6173 47.802H48.8532C49.4866 47.802 50 47.2886 50 46.6552C50 46.0219 49.4866 45.5085 48.8532 45.5085Z" fill="white"/>
<path d="M32.2871 41.8771H23.2423C22.5562 41.8771 22 42.4333 22 43.1194C22 43.8055 22.5562 44.3617 23.2423 44.3617H32.2871C32.9732 44.3617 33.5294 43.8055 33.5294 43.1194C33.5294 42.4333 32.9732 41.8771 32.2871 41.8771Z" fill="white"/>
<path d="M26.6942 37.036V49.0118C26.6942 49.5576 27.1367 50 27.6824 50C28.2282 50 28.6707 49.5576 28.6707 49.0118V37.036C28.6707 36.4902 28.2282 36.0478 27.6824 36.0478C27.1367 36.0478 26.6942 36.4902 26.6942 37.036Z" fill="white"/>
<path d="M46.8623 22.8417L40.2302 30.9426C39.8497 31.4075 39.8497 32.1611 40.2302 32.626C40.6108 33.0908 41.2278 33.0908 41.6083 32.626L48.2404 24.525C48.6209 24.0602 48.6209 23.3065 48.2404 22.8417C47.8598 22.3769 47.2428 22.3769 46.8623 22.8417Z" fill="white"/>
<path d="M48.2404 30.9426L41.6084 22.8417C41.2278 22.3768 40.6108 22.3768 40.2303 22.8417C39.8497 23.3065 39.8497 24.0601 40.2303 24.525L46.8623 32.6259C47.2429 33.0907 47.8598 33.0907 48.2404 32.6259C48.6209 32.1611 48.6209 31.4074 48.2404 30.9426Z" fill="white"/>
</g>
<defs>
<linearGradient id="paint0_linear_205_13" x1="40.1311" y1="74.2255" x2="32.6222" y2="4.7448" gradientUnits="userSpaceOnUse">
<stop stop-color="#EE5350"/>
<stop offset="1" stop-color="#EE5350"/>
</linearGradient>
<clipPath id="clip0_205_13">
<rect width="72" height="72" fill="white"/>
</clipPath>
</defs>
</svg>
