<svg xmlns="http://www.w3.org/2000/svg" xmlns:xlink="http://www.w3.org/1999/xlink" width="512" zoomAndPan="magnify" viewBox="0 0 384 383.999986" height="512" preserveAspectRatio="xMidYMid meet" version="1.0"><defs><clipPath id="28c88b6197"><path d="M 27.074219 80 L 357.074219 80 L 357.074219 357.074219 L 27.074219 357.074219 Z M 27.074219 80 " clip-rule="nonzero"/></clipPath><clipPath id="f891f4a382"><path d="M 27.074219 27.074219 L 354 27.074219 L 354 38 L 27.074219 38 Z M 27.074219 27.074219 " clip-rule="nonzero"/></clipPath><clipPath id="f2916fa8b1"><path d="M 27.074219 48 L 354 48 L 354 60 L 27.074219 60 Z M 27.074219 48 " clip-rule="nonzero"/></clipPath><clipPath id="1b0dfdbd21"><path d="M 27.074219 70 L 229 70 L 229 82 L 27.074219 82 Z M 27.074219 70 " clip-rule="nonzero"/></clipPath><clipPath id="5fcd8197b7"><path d="M 27.074219 92 L 212 92 L 212 104 L 27.074219 104 Z M 27.074219 92 " clip-rule="nonzero"/></clipPath><clipPath id="4ddc06c308"><path d="M 27.074219 114 L 196 114 L 196 125 L 27.074219 125 Z M 27.074219 114 " clip-rule="nonzero"/></clipPath><clipPath id="cd2f4fcfed"><path d="M 27.074219 135 L 158 135 L 158 147 L 27.074219 147 Z M 27.074219 135 " clip-rule="nonzero"/></clipPath><clipPath id="c54be7088e"><path d="M 27.074219 157 L 136 157 L 136 169 L 27.074219 169 Z M 27.074219 157 " clip-rule="nonzero"/></clipPath><clipPath id="0e5dbd1980"><path d="M 27.074219 179 L 120 179 L 120 191 L 27.074219 191 Z M 27.074219 179 " clip-rule="nonzero"/></clipPath><clipPath id="f9346e265c"><path d="M 27.074219 201 L 87 201 L 87 212 L 27.074219 212 Z M 27.074219 201 " clip-rule="nonzero"/></clipPath><clipPath id="9d717c66b8"><path d="M 27.074219 222 L 77 222 L 77 234 L 27.074219 234 Z M 27.074219 222 " clip-rule="nonzero"/></clipPath><clipPath id="55d108e07a"><path d="M 27.074219 244 L 71 244 L 71 256 L 27.074219 256 Z M 27.074219 244 " clip-rule="nonzero"/></clipPath><clipPath id="ccad847e74"><path d="M 27.074219 266 L 71 266 L 71 278 L 27.074219 278 Z M 27.074219 266 " clip-rule="nonzero"/></clipPath><clipPath id="18afe49856"><path d="M 27.074219 288 L 71 288 L 71 299 L 27.074219 299 Z M 27.074219 288 " clip-rule="nonzero"/></clipPath></defs><path fill="#ebaa39" d="M 110.214844 257.003906 L 137.398438 229.820312 L 215.105469 152.117188 L 186.984375 152.117188 L 96.15625 242.945312 C 92.28125 246.820312 92.28125 253.128906 96.15625 257.003906 C 100.03125 260.878906 106.339844 260.878906 110.214844 257.003906 Z M 110.214844 257.003906 " fill-opacity="1" fill-rule="nonzero"/><path fill="#3c9bb7" d="M 122.183594 281.636719 C 122.101562 281.558594 122.007812 281.5 121.921875 281.425781 C 118.203125 277.964844 115.539062 273.417969 114.53125 268.246094 C 114.523438 268.195312 114.5 268.152344 114.488281 268.105469 L 97.066406 285.527344 L 90.035156 306.617188 L 111.125 299.589844 L 126.140625 284.570312 C 126.085938 284.539062 126.046875 284.496094 125.992188 284.464844 C 124.628906 283.640625 123.355469 282.703125 122.183594 281.636719 Z M 122.183594 281.636719 " fill-opacity="1" fill-rule="nonzero"/><path fill="#3c9bb7" d="M 143.492188 239.101562 L 171.609375 239.101562 L 296.652344 114.058594 L 282.59375 100 Z M 143.492188 239.101562 " fill-opacity="1" fill-rule="nonzero"/><path fill="#ebaa39" d="M 329.273438 152.117188 L 273.972656 152.117188 L 212.140625 213.945312 C 218.421875 217.0625 222.789062 223.476562 222.789062 230.945312 C 222.789062 241.4375 214.253906 249.972656 203.761719 249.972656 L 138.523438 249.972656 C 131.03125 249.972656 124.933594 256.074219 124.933594 263.566406 C 124.933594 264.453125 125.03125 265.308594 125.195312 266.148438 C 125.28125 266.59375 125.433594 267.015625 125.5625 267.445312 C 125.671875 267.804688 125.757812 268.171875 125.894531 268.511719 C 126.117188 269.074219 126.394531 269.601562 126.6875 270.121094 C 126.785156 270.296875 126.867188 270.476562 126.972656 270.644531 C 127.339844 271.234375 127.753906 271.796875 128.210938 272.324219 C 128.265625 272.390625 128.3125 272.453125 128.375 272.519531 C 130.484375 274.878906 133.414062 276.519531 136.757812 276.957031 C 136.8125 276.960938 136.855469 276.988281 136.902344 277 C 137.449219 277.058594 137.96875 277.15625 138.523438 277.15625 L 195.609375 277.15625 C 197.046875 277.15625 198.433594 277.726562 199.453125 278.75 L 214.167969 293.464844 L 274.90625 293.464844 L 303.214844 265.15625 L 310.902344 272.84375 L 290.28125 293.464844 L 346.238281 349.425781 L 342.394531 353.269531 L 353.269531 353.269531 L 353.269531 168.425781 L 349.425781 172.269531 Z M 329.273438 152.117188 " fill-opacity="1" fill-rule="nonzero"/><g clip-path="url(#28c88b6197)"><path fill="#111527" d="M 335.367188 142.835938 C 334.347656 141.8125 332.964844 141.242188 331.523438 141.242188 L 284.84375 141.242188 L 308.183594 117.902344 C 310.308594 115.777344 310.308594 112.339844 308.183594 110.214844 L 286.4375 88.46875 C 284.3125 86.34375 280.875 86.34375 278.75 88.46875 L 277.15625 90.0625 L 272.378906 85.285156 C 266.21875 79.125 255.476562 79.125 249.316406 85.285156 L 213.511719 121.089844 L 221.199219 128.777344 L 257.003906 92.972656 C 259.058594 90.921875 262.636719 90.921875 264.691406 92.972656 L 269.46875 97.75 L 225.976562 141.242188 L 184.734375 141.242188 C 183.292969 141.242188 181.90625 141.8125 180.890625 142.835938 L 88.46875 235.257812 C 84.539062 239.1875 82.375 244.417969 82.375 249.972656 C 82.375 255.53125 84.539062 260.761719 88.46875 264.691406 C 91.03125 267.25 94.113281 268.910156 97.363281 269.851562 L 88.46875 278.746094 C 87.871094 279.34375 87.425781 280.070312 87.152344 280.871094 L 77.519531 309.777344 L 27.074219 309.777344 L 27.074219 320.648438 L 81.441406 320.648438 C 82.015625 320.648438 82.59375 320.558594 83.15625 320.367188 L 115.777344 309.492188 C 116.578125 309.226562 117.304688 308.777344 117.902344 308.183594 L 138.101562 287.988281 C 138.246094 287.988281 138.378906 288.03125 138.523438 288.03125 L 193.355469 288.03125 L 208.074219 302.746094 C 209.089844 303.769531 210.476562 304.339844 211.917969 304.339844 L 277.15625 304.339844 C 278.597656 304.339844 279.984375 303.769531 281 302.746094 L 282.59375 301.152344 L 338.550781 357.113281 L 346.238281 349.425781 L 290.28125 293.464844 L 310.902344 272.84375 L 303.214844 265.15625 L 274.90625 293.464844 L 214.167969 293.464844 L 199.453125 278.75 C 198.433594 277.726562 197.046875 277.15625 195.609375 277.15625 L 138.523438 277.15625 C 137.96875 277.15625 137.449219 277.058594 136.910156 276.992188 C 136.859375 276.984375 136.8125 276.960938 136.761719 276.949219 C 133.417969 276.515625 130.488281 274.875 128.378906 272.515625 C 128.324219 272.449219 128.269531 272.382812 128.214844 272.316406 C 127.765625 271.789062 127.347656 271.230469 126.976562 270.636719 C 126.875 270.46875 126.785156 270.289062 126.695312 270.117188 C 126.402344 269.59375 126.125 269.066406 125.898438 268.507812 C 125.765625 268.164062 125.675781 267.800781 125.570312 267.441406 C 125.4375 267.011719 125.285156 266.589844 125.199219 266.140625 C 125.03125 265.308594 124.933594 264.453125 124.933594 263.566406 C 124.933594 256.074219 131.03125 249.972656 138.523438 249.972656 L 203.761719 249.972656 C 214.253906 249.972656 222.789062 241.4375 222.789062 230.945312 C 222.789062 223.476562 218.421875 217.0625 212.140625 213.945312 L 273.972656 152.117188 L 329.273438 152.117188 L 349.425781 172.269531 L 357.113281 164.582031 Z M 282.59375 100 L 296.652344 114.058594 L 171.609375 239.101562 L 143.492188 239.101562 Z M 203.761719 239.101562 L 186.984375 239.101562 L 203.296875 222.789062 L 203.761719 222.789062 C 208.257812 222.789062 211.917969 226.449219 211.917969 230.945312 C 211.917969 235.441406 208.257812 239.101562 203.761719 239.101562 Z M 96.15625 257.003906 C 92.28125 253.128906 92.28125 246.820312 96.15625 242.945312 L 186.984375 152.117188 L 215.105469 152.117188 L 137.398438 229.820312 L 110.214844 257.003906 C 106.339844 260.878906 100.03125 260.878906 96.15625 257.003906 Z M 111.125 299.589844 L 90.035156 306.617188 L 97.066406 285.527344 L 114.488281 268.105469 C 114.5 268.152344 114.523438 268.195312 114.53125 268.246094 C 115.539062 273.421875 118.207031 277.972656 121.921875 281.425781 C 122.003906 281.5 122.09375 281.558594 122.183594 281.636719 C 123.355469 282.703125 124.628906 283.640625 126 284.464844 C 126.050781 284.496094 126.089844 284.539062 126.144531 284.570312 Z M 111.125 299.589844 " fill-opacity="1" fill-rule="nonzero"/></g><g clip-path="url(#f891f4a382)"><path fill="#111527" d="M 27.074219 27.074219 L 353.269531 27.074219 L 353.269531 37.949219 L 27.074219 37.949219 Z M 27.074219 27.074219 " fill-opacity="1" fill-rule="nonzero"/></g><g clip-path="url(#f2916fa8b1)"><path fill="#111527" d="M 27.074219 48.820312 L 353.269531 48.820312 L 353.269531 59.695312 L 27.074219 59.695312 Z M 27.074219 48.820312 " fill-opacity="1" fill-rule="nonzero"/></g><g clip-path="url(#1b0dfdbd21)"><path fill="#111527" d="M 27.074219 70.566406 L 228.226562 70.566406 L 228.226562 81.441406 L 27.074219 81.441406 Z M 27.074219 70.566406 " fill-opacity="1" fill-rule="nonzero"/></g><g clip-path="url(#5fcd8197b7)"><path fill="#111527" d="M 27.074219 92.3125 L 211.917969 92.3125 L 211.917969 103.1875 L 27.074219 103.1875 Z M 27.074219 92.3125 " fill-opacity="1" fill-rule="nonzero"/></g><g clip-path="url(#4ddc06c308)"><path fill="#111527" d="M 27.074219 114.058594 L 195.609375 114.058594 L 195.609375 124.933594 L 27.074219 124.933594 Z M 27.074219 114.058594 " fill-opacity="1" fill-rule="nonzero"/></g><g clip-path="url(#cd2f4fcfed)"><path fill="#111527" d="M 27.074219 135.804688 L 157.550781 135.804688 L 157.550781 146.679688 L 27.074219 146.679688 Z M 27.074219 135.804688 " fill-opacity="1" fill-rule="nonzero"/></g><g clip-path="url(#c54be7088e)"><path fill="#111527" d="M 27.074219 157.550781 L 135.804688 157.550781 L 135.804688 168.425781 L 27.074219 168.425781 Z M 27.074219 157.550781 " fill-opacity="1" fill-rule="nonzero"/></g><g clip-path="url(#0e5dbd1980)"><path fill="#111527" d="M 27.074219 179.296875 L 119.496094 179.296875 L 119.496094 190.171875 L 27.074219 190.171875 Z M 27.074219 179.296875 " fill-opacity="1" fill-rule="nonzero"/></g><g clip-path="url(#f9346e265c)"><path fill="#111527" d="M 27.074219 201.042969 L 86.875 201.042969 L 86.875 211.917969 L 27.074219 211.917969 Z M 27.074219 201.042969 " fill-opacity="1" fill-rule="nonzero"/></g><g clip-path="url(#9d717c66b8)"><path fill="#111527" d="M 27.074219 222.789062 L 76.003906 222.789062 L 76.003906 233.664062 L 27.074219 233.664062 Z M 27.074219 222.789062 " fill-opacity="1" fill-rule="nonzero"/></g><g clip-path="url(#55d108e07a)"><path fill="#111527" d="M 27.074219 244.539062 L 70.566406 244.539062 L 70.566406 255.410156 L 27.074219 255.410156 Z M 27.074219 244.539062 " fill-opacity="1" fill-rule="nonzero"/></g><g clip-path="url(#ccad847e74)"><path fill="#111527" d="M 27.074219 266.285156 L 70.566406 266.285156 L 70.566406 277.15625 L 27.074219 277.15625 Z M 27.074219 266.285156 " fill-opacity="1" fill-rule="nonzero"/></g><g clip-path="url(#18afe49856)"><path fill="#111527" d="M 27.074219 288.03125 L 70.566406 288.03125 L 70.566406 298.902344 L 27.074219 298.902344 Z M 27.074219 288.03125 " fill-opacity="1" fill-rule="nonzero"/></g><path fill="#111527" d="M 304.339844 70.566406 L 353.269531 70.566406 L 353.269531 81.441406 L 304.339844 81.441406 Z M 304.339844 70.566406 " fill-opacity="1" fill-rule="nonzero"/><path fill="#111527" d="M 320.648438 92.3125 L 353.269531 92.3125 L 353.269531 103.1875 L 320.648438 103.1875 Z M 320.648438 92.3125 " fill-opacity="1" fill-rule="nonzero"/><path fill="#111527" d="M 326.085938 114.058594 L 353.269531 114.058594 L 353.269531 124.933594 L 326.085938 124.933594 Z M 326.085938 114.058594 " fill-opacity="1" fill-rule="nonzero"/></svg>