<svg xmlns="http://www.w3.org/2000/svg" xmlns:xlink="http://www.w3.org/1999/xlink" width="512" zoomAndPan="magnify" viewBox="0 0 384 383.999986" height="512" preserveAspectRatio="xMidYMid meet" version="1.0"><defs><g/><clipPath id="9035abddf3"><path d="M 66 157 L 359.574219 157 L 359.574219 228 L 66 228 Z M 66 157 " clip-rule="nonzero"/></clipPath><clipPath id="a72e462150"><path d="M 24.941406 150.570312 L 109 150.570312 L 109 235 L 24.941406 235 Z M 24.941406 150.570312 " clip-rule="nonzero"/></clipPath></defs><g clip-path="url(#9035abddf3)"><path fill="#e8f1f7" d="M 66.707031 157.949219 L 325.066406 157.949219 C 326.195312 157.949219 327.324219 158.003906 328.449219 158.117188 C 329.574219 158.226562 330.691406 158.394531 331.800781 158.617188 C 332.910156 158.839844 334.003906 159.117188 335.085938 159.449219 C 336.167969 159.777344 337.230469 160.164062 338.273438 160.601562 C 339.320312 161.035156 340.339844 161.523438 341.335938 162.0625 C 342.332031 162.601562 343.300781 163.1875 344.242188 163.820312 C 345.179688 164.453125 346.089844 165.132812 346.960938 165.855469 C 347.835938 166.582031 348.671875 167.347656 349.472656 168.152344 C 350.269531 168.960938 351.03125 169.804688 351.746094 170.6875 C 352.464844 171.570312 353.136719 172.484375 353.765625 173.433594 C 354.394531 174.382812 354.972656 175.363281 355.507812 176.367188 C 356.039062 177.375 356.523438 178.40625 356.953125 179.460938 C 357.386719 180.515625 357.765625 181.589844 358.09375 182.679688 C 358.421875 183.773438 358.699219 184.878906 358.917969 186 C 359.140625 187.117188 359.304688 188.246094 359.414062 189.382812 C 359.527344 190.515625 359.582031 191.65625 359.582031 192.796875 C 359.582031 193.9375 359.527344 195.078125 359.414062 196.214844 C 359.304688 197.347656 359.140625 198.476562 358.917969 199.597656 C 358.699219 200.714844 358.421875 201.820312 358.09375 202.914062 C 357.765625 204.007812 357.386719 205.078125 356.953125 206.132812 C 356.523438 207.1875 356.039062 208.21875 355.507812 209.226562 C 354.972656 210.234375 354.394531 211.210938 353.765625 212.160156 C 353.136719 213.109375 352.464844 214.023438 351.746094 214.90625 C 351.03125 215.789062 350.269531 216.632812 349.472656 217.441406 C 348.671875 218.25 347.835938 219.011719 346.960938 219.738281 C 346.089844 220.460938 345.179688 221.140625 344.242188 221.773438 C 343.300781 222.410156 342.332031 222.996094 341.335938 223.53125 C 340.339844 224.070312 339.320312 224.558594 338.273438 224.996094 C 337.230469 225.433594 336.167969 225.816406 335.085938 226.148438 C 334.003906 226.480469 332.910156 226.753906 331.800781 226.976562 C 330.691406 227.199219 329.574219 227.367188 328.449219 227.480469 C 327.324219 227.589844 326.195312 227.648438 325.066406 227.648438 L 66.707031 227.648438 Z M 66.707031 157.949219 " fill-opacity="1" fill-rule="nonzero"/></g><g clip-path="url(#a72e462150)"><path fill="#0089fe" d="M 108.46875 192.796875 C 108.46875 194.179688 108.398438 195.554688 108.265625 196.929688 C 108.132812 198.304688 107.933594 199.667969 107.664062 201.023438 C 107.398438 202.378906 107.066406 203.71875 106.667969 205.039062 C 106.273438 206.359375 105.8125 207.660156 105.289062 208.933594 C 104.765625 210.210938 104.179688 211.457031 103.535156 212.675781 C 102.890625 213.894531 102.1875 215.078125 101.429688 216.226562 C 100.667969 217.375 99.855469 218.480469 98.988281 219.550781 C 98.121094 220.617188 97.203125 221.640625 96.234375 222.617188 C 95.269531 223.59375 94.257812 224.519531 93.199219 225.394531 C 92.140625 226.269531 91.042969 227.09375 89.90625 227.859375 C 88.769531 228.628906 87.597656 229.335938 86.390625 229.988281 C 85.1875 230.636719 83.949219 231.226562 82.6875 231.757812 C 81.421875 232.285156 80.136719 232.75 78.828125 233.152344 C 77.519531 233.550781 76.195312 233.886719 74.851562 234.15625 C 73.511719 234.425781 72.160156 234.628906 70.796875 234.765625 C 69.4375 234.898438 68.074219 234.96875 66.707031 234.96875 C 65.335938 234.96875 63.972656 234.898438 62.613281 234.765625 C 61.25 234.628906 59.898438 234.425781 58.558594 234.15625 C 57.214844 233.886719 55.890625 233.550781 54.582031 233.152344 C 53.273438 232.75 51.988281 232.285156 50.722656 231.757812 C 49.460938 231.226562 48.226562 230.636719 47.019531 229.988281 C 45.8125 229.335938 44.640625 228.628906 43.503906 227.859375 C 42.367188 227.09375 41.269531 226.269531 40.210938 225.394531 C 39.15625 224.519531 38.140625 223.59375 37.175781 222.617188 C 36.207031 221.640625 35.289062 220.617188 34.421875 219.550781 C 33.554688 218.480469 32.742188 217.375 31.980469 216.226562 C 31.222656 215.078125 30.519531 213.894531 29.875 212.675781 C 29.230469 211.457031 28.644531 210.210938 28.121094 208.933594 C 27.597656 207.660156 27.136719 206.359375 26.742188 205.039062 C 26.34375 203.71875 26.011719 202.378906 25.746094 201.023438 C 25.480469 199.667969 25.277344 198.304688 25.144531 196.929688 C 25.011719 195.554688 24.941406 194.179688 24.941406 192.796875 C 24.941406 191.417969 25.011719 190.039062 25.144531 188.664062 C 25.277344 187.289062 25.480469 185.925781 25.746094 184.570312 C 26.011719 183.214844 26.34375 181.878906 26.742188 180.554688 C 27.136719 179.234375 27.597656 177.9375 28.121094 176.660156 C 28.644531 175.382812 29.230469 174.136719 29.875 172.917969 C 30.519531 171.699219 31.222656 170.519531 31.980469 169.371094 C 32.742188 168.222656 33.554688 167.113281 34.421875 166.046875 C 35.289062 164.976562 36.207031 163.957031 37.175781 162.980469 C 38.140625 162.003906 39.15625 161.078125 40.210938 160.199219 C 41.269531 159.324219 42.367188 158.503906 43.503906 157.734375 C 44.640625 156.96875 45.8125 156.257812 47.019531 155.609375 C 48.226562 154.957031 49.460938 154.367188 50.722656 153.839844 C 51.988281 153.308594 53.273438 152.84375 54.582031 152.445312 C 55.890625 152.042969 57.214844 151.707031 58.558594 151.4375 C 59.898438 151.167969 61.25 150.964844 62.613281 150.832031 C 63.972656 150.695312 65.335938 150.628906 66.707031 150.628906 C 68.074219 150.628906 69.4375 150.695312 70.796875 150.832031 C 72.160156 150.964844 73.511719 151.167969 74.851562 151.4375 C 76.195312 151.707031 77.519531 152.042969 78.828125 152.445312 C 80.136719 152.84375 81.421875 153.308594 82.6875 153.839844 C 83.949219 154.367188 85.1875 154.957031 86.390625 155.609375 C 87.597656 156.257812 88.769531 156.96875 89.90625 157.734375 C 91.042969 158.503906 92.140625 159.324219 93.199219 160.199219 C 94.257812 161.078125 95.269531 162.003906 96.234375 162.980469 C 97.203125 163.957031 98.121094 164.976562 98.988281 166.046875 C 99.855469 167.113281 100.667969 168.222656 101.429688 169.371094 C 102.1875 170.519531 102.890625 171.699219 103.535156 172.917969 C 104.179688 174.136719 104.765625 175.382812 105.289062 176.660156 C 105.8125 177.9375 106.273438 179.234375 106.667969 180.554688 C 107.066406 181.878906 107.398438 183.214844 107.664062 184.570312 C 107.933594 185.925781 108.132812 187.289062 108.265625 188.664062 C 108.398438 190.039062 108.46875 191.417969 108.46875 192.796875 Z M 108.46875 192.796875 " fill-opacity="1" fill-rule="nonzero"/></g><path fill="#0071f9" d="M 101.363281 192.796875 C 101.363281 193.945312 101.304688 195.085938 101.195312 196.226562 C 101.082031 197.367188 100.917969 198.5 100.695312 199.625 C 100.472656 200.75 100.199219 201.859375 99.871094 202.957031 C 99.539062 204.050781 99.15625 205.128906 98.722656 206.1875 C 98.289062 207.25 97.804688 208.28125 97.269531 209.292969 C 96.734375 210.304688 96.152344 211.285156 95.519531 212.238281 C 94.890625 213.191406 94.214844 214.113281 93.496094 214.996094 C 92.773438 215.882812 92.015625 216.730469 91.210938 217.542969 C 90.410156 218.351562 89.570312 219.121094 88.691406 219.847656 C 87.8125 220.574219 86.902344 221.257812 85.960938 221.894531 C 85.015625 222.53125 84.042969 223.121094 83.042969 223.660156 C 82.042969 224.199219 81.015625 224.691406 79.96875 225.128906 C 78.917969 225.566406 77.851562 225.953125 76.765625 226.285156 C 75.679688 226.617188 74.578125 226.894531 73.464844 227.121094 C 72.351562 227.34375 71.230469 227.511719 70.101562 227.625 C 68.972656 227.734375 67.839844 227.792969 66.707031 227.792969 C 65.570312 227.792969 64.4375 227.734375 63.308594 227.625 C 62.179688 227.511719 61.058594 227.34375 59.945312 227.121094 C 58.832031 226.894531 57.730469 226.617188 56.644531 226.285156 C 55.558594 225.953125 54.492188 225.566406 53.441406 225.128906 C 52.394531 224.691406 51.371094 224.199219 50.367188 223.660156 C 49.367188 223.121094 48.394531 222.53125 47.449219 221.894531 C 46.507812 221.257812 45.597656 220.574219 44.71875 219.847656 C 43.84375 219.121094 43.003906 218.351562 42.199219 217.542969 C 41.398438 216.730469 40.636719 215.882812 39.914062 214.996094 C 39.195312 214.113281 38.519531 213.191406 37.890625 212.238281 C 37.257812 211.285156 36.675781 210.304688 36.140625 209.292969 C 35.605469 208.28125 35.121094 207.25 34.6875 206.1875 C 34.253906 205.128906 33.871094 204.050781 33.539062 202.957031 C 33.210938 201.859375 32.9375 200.75 32.714844 199.625 C 32.492188 198.5 32.328125 197.367188 32.214844 196.226562 C 32.105469 195.085938 32.046875 193.945312 32.046875 192.796875 C 32.046875 191.652344 32.105469 190.507812 32.214844 189.367188 C 32.328125 188.226562 32.492188 187.09375 32.714844 185.96875 C 32.9375 184.847656 33.210938 183.734375 33.539062 182.640625 C 33.871094 181.542969 34.253906 180.464844 34.6875 179.40625 C 35.121094 178.347656 35.605469 177.3125 36.140625 176.300781 C 36.675781 175.289062 37.257812 174.308594 37.890625 173.355469 C 38.519531 172.402344 39.195312 171.484375 39.914062 170.597656 C 40.636719 169.710938 41.398438 168.863281 42.199219 168.054688 C 43.003906 167.242188 43.84375 166.472656 44.71875 165.746094 C 45.597656 165.019531 46.507812 164.335938 47.449219 163.699219 C 48.394531 163.0625 49.367188 162.476562 50.367188 161.933594 C 51.371094 161.394531 52.394531 160.90625 53.441406 160.46875 C 54.492188 160.027344 55.558594 159.644531 56.644531 159.308594 C 57.730469 158.976562 58.832031 158.699219 59.945312 158.476562 C 61.058594 158.25 62.179688 158.085938 63.308594 157.972656 C 64.4375 157.859375 65.570312 157.804688 66.707031 157.804688 C 67.839844 157.804688 68.972656 157.859375 70.101562 157.972656 C 71.230469 158.085938 72.351562 158.25 73.464844 158.476562 C 74.578125 158.699219 75.679688 158.976562 76.765625 159.308594 C 77.851562 159.644531 78.917969 160.027344 79.96875 160.46875 C 81.015625 160.90625 82.042969 161.394531 83.042969 161.933594 C 84.042969 162.476562 85.015625 163.0625 85.960938 163.699219 C 86.902344 164.335938 87.8125 165.019531 88.691406 165.746094 C 89.570312 166.472656 90.410156 167.242188 91.210938 168.054688 C 92.015625 168.863281 92.773438 169.710938 93.496094 170.597656 C 94.214844 171.484375 94.890625 172.402344 95.519531 173.355469 C 96.152344 174.308594 96.734375 175.289062 97.269531 176.300781 C 97.804688 177.3125 98.289062 178.347656 98.722656 179.40625 C 99.15625 180.464844 99.539062 181.542969 99.871094 182.640625 C 100.199219 183.734375 100.472656 184.847656 100.695312 185.96875 C 100.917969 187.09375 101.082031 188.226562 101.195312 189.367188 C 101.304688 190.507812 101.363281 191.652344 101.363281 192.796875 Z M 101.363281 192.796875 " fill-opacity="1" fill-rule="nonzero"/><path fill="#ffffff" d="M 84.851562 185.117188 C 84.816406 184.953125 84.726562 184.832031 84.578125 184.753906 L 67.214844 175.117188 C 66.875 174.933594 66.535156 174.933594 66.195312 175.117188 L 48.828125 184.753906 C 48.714844 184.816406 48.632812 184.90625 48.582031 185.03125 C 48.535156 185.152344 48.53125 185.277344 48.570312 185.402344 L 48.570312 201.617188 C 48.570312 201.890625 48.597656 202.160156 48.648438 202.425781 C 48.703125 202.695312 48.78125 202.953125 48.882812 203.207031 C 48.988281 203.457031 49.113281 203.699219 49.261719 203.925781 C 49.414062 204.152344 49.582031 204.363281 49.773438 204.554688 C 49.964844 204.746094 50.171875 204.917969 50.398438 205.070312 C 50.621094 205.222656 50.859375 205.351562 51.109375 205.453125 C 51.359375 205.558594 51.617188 205.636719 51.882812 205.691406 C 52.144531 205.746094 52.414062 205.769531 52.683594 205.769531 L 80.75 205.769531 C 81.019531 205.769531 81.289062 205.746094 81.554688 205.691406 C 81.816406 205.636719 82.074219 205.558594 82.324219 205.453125 C 82.574219 205.351562 82.8125 205.222656 83.035156 205.070312 C 83.261719 204.917969 83.46875 204.746094 83.660156 204.554688 C 83.851562 204.363281 84.019531 204.152344 84.171875 203.925781 C 84.320312 203.699219 84.449219 203.457031 84.550781 203.207031 C 84.65625 202.953125 84.734375 202.695312 84.785156 202.425781 C 84.839844 202.160156 84.863281 201.890625 84.863281 201.617188 L 84.863281 185.105469 Z M 68.535156 195.550781 C 67.964844 195.863281 67.355469 196.019531 66.707031 196.019531 C 66.058594 196.019531 65.445312 195.863281 64.875 195.550781 L 49.632812 185.792969 L 83.78125 185.792969 Z M 68.535156 195.550781 " fill-opacity="1" fill-rule="nonzero"/><g fill="#470dbb" fill-opacity="1"><g transform="translate(156.821164, 204.613051)"><g><path d="M 10.609375 0.34375 C 9.078125 0.34375 7.703125 0.140625 6.484375 -0.265625 C 5.273438 -0.679688 4.265625 -1.226562 3.453125 -1.90625 C 2.648438 -2.582031 2.050781 -3.320312 1.65625 -4.125 L 3.21875 -6.03125 L 3.640625 -6.03125 C 5.140625 -3.488281 7.460938 -2.21875 10.609375 -2.21875 C 12.429688 -2.21875 13.785156 -2.597656 14.671875 -3.359375 C 15.566406 -4.128906 16.015625 -5.191406 16.015625 -6.546875 C 16.015625 -7.347656 15.867188 -8.023438 15.578125 -8.578125 C 15.285156 -9.128906 14.800781 -9.601562 14.125 -10 C 13.445312 -10.394531 12.523438 -10.734375 11.359375 -11.015625 L 8.53125 -11.71875 C 6.414062 -12.226562 4.859375 -13.035156 3.859375 -14.140625 C 2.859375 -15.253906 2.359375 -16.664062 2.359375 -18.375 C 2.359375 -19.570312 2.664062 -20.644531 3.28125 -21.59375 C 3.90625 -22.539062 4.8125 -23.28125 6 -23.8125 C 7.195312 -24.34375 8.625 -24.609375 10.28125 -24.609375 C 12.113281 -24.609375 13.65625 -24.347656 14.90625 -23.828125 C 16.164062 -23.316406 17.171875 -22.546875 17.921875 -21.515625 L 16.53125 -19.640625 L 16.109375 -19.640625 C 15.410156 -20.492188 14.585938 -21.117188 13.640625 -21.515625 C 12.691406 -21.921875 11.570312 -22.125 10.28125 -22.125 C 8.601562 -22.125 7.332031 -21.796875 6.46875 -21.140625 C 5.613281 -20.484375 5.1875 -19.582031 5.1875 -18.4375 C 5.1875 -17.34375 5.5 -16.472656 6.125 -15.828125 C 6.757812 -15.179688 7.828125 -14.679688 9.328125 -14.328125 L 12.234375 -13.625 C 14.585938 -13.070312 16.289062 -12.222656 17.34375 -11.078125 C 18.40625 -9.929688 18.9375 -8.46875 18.9375 -6.6875 C 18.9375 -5.3125 18.628906 -4.09375 18.015625 -3.03125 C 17.398438 -1.976562 16.46875 -1.148438 15.21875 -0.546875 C 13.96875 0.046875 12.429688 0.34375 10.609375 0.34375 Z M 10.609375 0.34375 "/></g></g></g><g fill="#470dbb" fill-opacity="1"><g transform="translate(177.609928, 204.613051)"><g><path d="M 9.046875 0.34375 C 6.972656 0.34375 5.429688 -0.203125 4.421875 -1.296875 C 3.410156 -2.390625 2.90625 -3.992188 2.90625 -6.109375 L 2.90625 -18.296875 L 5.609375 -18.296875 L 5.609375 -6.171875 C 5.609375 -3.398438 6.914062 -2.015625 9.53125 -2.015625 C 11.1875 -2.015625 12.492188 -2.554688 13.453125 -3.640625 C 14.421875 -4.722656 14.90625 -6.476562 14.90625 -8.90625 L 14.90625 -18.296875 L 17.609375 -18.296875 L 17.609375 0 L 15.046875 0 L 15.046875 -2.875 L 14.703125 -2.953125 C 14.066406 -1.835938 13.3125 -1.007812 12.4375 -0.46875 C 11.5625 0.0703125 10.429688 0.34375 9.046875 0.34375 Z M 9.046875 0.34375 "/></g></g></g><g fill="#470dbb" fill-opacity="1"><g transform="translate(198.398693, 204.613051)"><g><path d="M 12.15625 0.34375 C 10.800781 0.34375 9.625 0.0820312 8.625 -0.4375 C 7.625 -0.96875 6.828125 -1.660156 6.234375 -2.515625 L 5.890625 -2.453125 L 5.890625 0 L 3.1875 0 L 3.1875 -25.65625 L 5.890625 -25.65625 L 5.890625 -15.5625 L 6.234375 -15.5 C 7.628906 -17.601562 9.65625 -18.65625 12.3125 -18.65625 C 13.8125 -18.65625 15.125 -18.304688 16.25 -17.609375 C 17.382812 -16.910156 18.265625 -15.847656 18.890625 -14.421875 C 19.515625 -13.003906 19.828125 -11.242188 19.828125 -9.140625 C 19.828125 -7.066406 19.5 -5.316406 18.84375 -3.890625 C 18.1875 -2.472656 17.28125 -1.410156 16.125 -0.703125 C 14.976562 -0.00390625 13.65625 0.34375 12.15625 0.34375 Z M 11.515625 -2.078125 C 15.171875 -2.078125 17 -4.429688 17 -9.140625 C 17 -11.585938 16.519531 -13.378906 15.5625 -14.515625 C 14.613281 -15.660156 13.265625 -16.234375 11.515625 -16.234375 C 9.796875 -16.234375 8.425781 -15.648438 7.40625 -14.484375 C 6.394531 -13.316406 5.890625 -11.535156 5.890625 -9.140625 C 5.890625 -6.765625 6.394531 -4.992188 7.40625 -3.828125 C 8.425781 -2.660156 9.796875 -2.078125 11.515625 -2.078125 Z M 11.515625 -2.078125 "/></g></g></g><g fill="#470dbb" fill-opacity="1"><g transform="translate(220.232696, 204.613051)"><g><path d="M 4.546875 -21.84375 C 3.972656 -21.84375 3.503906 -22.019531 3.140625 -22.375 C 2.785156 -22.738281 2.609375 -23.195312 2.609375 -23.75 C 2.609375 -24.300781 2.785156 -24.753906 3.140625 -25.109375 C 3.503906 -25.472656 3.972656 -25.65625 4.546875 -25.65625 C 5.117188 -25.65625 5.582031 -25.472656 5.9375 -25.109375 C 6.300781 -24.753906 6.484375 -24.300781 6.484375 -23.75 C 6.484375 -23.195312 6.300781 -22.738281 5.9375 -22.375 C 5.582031 -22.019531 5.117188 -21.84375 4.546875 -21.84375 Z M 0.890625 7.765625 C 0.316406 7.765625 -0.1875 7.722656 -0.625 7.640625 C -1.070312 7.554688 -1.5 7.4375 -1.90625 7.28125 L -1.5 5.1875 L -1.171875 5.09375 C -0.617188 5.300781 -0.0546875 5.40625 0.515625 5.40625 C 1.378906 5.40625 2.039062 5.117188 2.5 4.546875 C 2.957031 3.984375 3.1875 3.171875 3.1875 2.109375 L 3.1875 -18.296875 L 5.890625 -18.296875 L 5.890625 2.015625 C 5.890625 3.847656 5.453125 5.265625 4.578125 6.265625 C 3.703125 7.265625 2.472656 7.765625 0.890625 7.765625 Z M 0.890625 7.765625 "/></g></g></g><g fill="#470dbb" fill-opacity="1"><g transform="translate(229.308081, 204.613051)"><g><path d="M 17.4375 -8.53125 L 4.859375 -8.53125 C 4.941406 -6.300781 5.476562 -4.664062 6.46875 -3.625 C 7.457031 -2.59375 8.8125 -2.078125 10.53125 -2.078125 C 11.84375 -2.078125 12.894531 -2.304688 13.6875 -2.765625 C 14.488281 -3.234375 15.113281 -3.96875 15.5625 -4.96875 L 15.90625 -4.96875 L 17.671875 -3.921875 C 17.140625 -2.585938 16.289062 -1.539062 15.125 -0.78125 C 13.957031 -0.03125 12.425781 0.34375 10.53125 0.34375 C 8.757812 0.34375 7.238281 -0.00390625 5.96875 -0.703125 C 4.695312 -1.398438 3.71875 -2.453125 3.03125 -3.859375 C 2.351562 -5.273438 2.015625 -7.035156 2.015625 -9.140625 C 2.015625 -11.222656 2.375 -12.976562 3.09375 -14.40625 C 3.820312 -15.832031 4.8125 -16.894531 6.0625 -17.59375 C 7.320312 -18.300781 8.757812 -18.65625 10.375 -18.65625 C 12.71875 -18.65625 14.546875 -17.992188 15.859375 -16.671875 C 17.179688 -15.347656 17.847656 -13.382812 17.859375 -10.78125 C 17.859375 -9.769531 17.832031 -9.085938 17.78125 -8.734375 Z M 15.1875 -10.78125 C 15.132812 -12.726562 14.695312 -14.144531 13.875 -15.03125 C 13.0625 -15.914062 11.894531 -16.359375 10.375 -16.359375 C 8.769531 -16.359375 7.507812 -15.910156 6.59375 -15.015625 C 5.6875 -14.128906 5.128906 -12.71875 4.921875 -10.78125 Z M 15.1875 -10.78125 "/></g></g></g><g fill="#470dbb" fill-opacity="1"><g transform="translate(248.819318, 204.613051)"><g><path d="M 10.5 0.34375 C 8.882812 0.34375 7.4375 -0.0195312 6.15625 -0.75 C 4.875 -1.488281 3.863281 -2.570312 3.125 -4 C 2.382812 -5.4375 2.015625 -7.148438 2.015625 -9.140625 C 2.015625 -11.140625 2.382812 -12.851562 3.125 -14.28125 C 3.863281 -15.71875 4.875 -16.804688 6.15625 -17.546875 C 7.4375 -18.285156 8.882812 -18.65625 10.5 -18.65625 C 12.4375 -18.65625 13.976562 -18.289062 15.125 -17.5625 C 16.269531 -16.832031 17.097656 -15.859375 17.609375 -14.640625 L 15.765625 -13.3125 L 15.4375 -13.3125 C 14.9375 -14.3125 14.296875 -15.046875 13.515625 -15.515625 C 12.734375 -15.992188 11.726562 -16.234375 10.5 -16.234375 C 9.375 -16.234375 8.382812 -15.96875 7.53125 -15.4375 C 6.675781 -14.90625 6.015625 -14.109375 5.546875 -13.046875 C 5.078125 -11.984375 4.84375 -10.679688 4.84375 -9.140625 C 4.84375 -7.617188 5.078125 -6.328125 5.546875 -5.265625 C 6.023438 -4.210938 6.6875 -3.414062 7.53125 -2.875 C 8.382812 -2.34375 9.375 -2.078125 10.5 -2.078125 C 11.769531 -2.078125 12.820312 -2.363281 13.65625 -2.9375 C 14.5 -3.507812 15.15625 -4.414062 15.625 -5.65625 L 15.984375 -5.65625 L 17.75 -4.609375 C 17.28125 -3.078125 16.429688 -1.867188 15.203125 -0.984375 C 13.984375 -0.0976562 12.414062 0.34375 10.5 0.34375 Z M 10.5 0.34375 "/></g></g></g><g fill="#470dbb" fill-opacity="1"><g transform="translate(267.683505, 204.613051)"><g><path d="M 12.375 -2.90625 L 13.234375 -0.96875 C 12.804688 -0.53125 12.238281 -0.203125 11.53125 0.015625 C 10.832031 0.234375 10.078125 0.34375 9.265625 0.34375 C 5.765625 0.34375 4.015625 -1.425781 4.015625 -4.96875 L 4.015625 -16.09375 L 0.828125 -16.09375 L 0.828125 -18.3125 L 4.015625 -18.3125 L 4.015625 -22.1875 L 6.71875 -22.640625 L 6.71875 -18.3125 L 12.609375 -18.3125 L 12.609375 -16.09375 L 6.71875 -16.09375 L 6.71875 -5.234375 C 6.71875 -3.128906 7.628906 -2.078125 9.453125 -2.078125 C 10.453125 -2.078125 11.3125 -2.351562 12.03125 -2.90625 Z M 12.375 -2.90625 "/></g></g></g></svg>