<svg xmlns="http://www.w3.org/2000/svg" xmlns:xlink="http://www.w3.org/1999/xlink" width="512" zoomAndPan="magnify" viewBox="0 0 384 383.999986" height="512" preserveAspectRatio="xMidYMid meet" version="1.0"><defs><clipPath id="c685ae3900"><path d="M 27 90 L 356.878906 90 L 356.878906 318 L 27 318 Z M 27 90 " clip-rule="nonzero"/></clipPath><clipPath id="b8bebf3d65"><path d="M 152 255 L 232 255 L 232 333.367188 L 152 333.367188 Z M 152 255 " clip-rule="nonzero"/></clipPath></defs><g clip-path="url(#c685ae3900)"><path fill="#7e57c2" d="M 27.511719 90.5625 L 356.25 90.5625 L 356.25 317.703125 L 27.511719 317.703125 Z M 27.511719 90.5625 " fill-opacity="1" fill-rule="nonzero"/></g><g clip-path="url(#b8bebf3d65)"><path fill="#7e57c2" d="M 191.878906 255.042969 C 190.597656 255.042969 189.320312 255.105469 188.042969 255.230469 C 186.769531 255.355469 185.503906 255.542969 184.246094 255.796875 C 182.988281 256.046875 181.746094 256.355469 180.519531 256.730469 C 179.292969 257.101562 178.089844 257.53125 176.902344 258.023438 C 175.71875 258.515625 174.5625 259.0625 173.433594 259.667969 C 172.300781 260.269531 171.203125 260.929688 170.136719 261.640625 C 169.074219 262.355469 168.042969 263.117188 167.054688 263.933594 C 166.0625 264.746094 165.113281 265.605469 164.207031 266.511719 C 163.300781 267.417969 162.441406 268.367188 161.628906 269.359375 C 160.816406 270.351562 160.050781 271.382812 159.339844 272.449219 C 158.628906 273.515625 157.96875 274.613281 157.367188 275.742188 C 156.761719 276.875 156.214844 278.03125 155.722656 279.21875 C 155.234375 280.402344 154.800781 281.609375 154.429688 282.835938 C 154.058594 284.0625 153.746094 285.304688 153.496094 286.5625 C 153.246094 287.824219 153.058594 289.089844 152.933594 290.367188 C 152.808594 291.640625 152.746094 292.921875 152.746094 294.203125 C 152.746094 295.488281 152.808594 296.765625 152.933594 298.042969 C 153.058594 299.320312 153.246094 300.585938 153.496094 301.84375 C 153.746094 303.101562 154.058594 304.34375 154.429688 305.574219 C 154.800781 306.800781 155.234375 308.007812 155.722656 309.191406 C 156.214844 310.375 156.761719 311.535156 157.367188 312.664062 C 157.96875 313.796875 158.628906 314.894531 159.339844 315.960938 C 160.050781 317.027344 160.816406 318.058594 161.628906 319.046875 C 162.441406 320.039062 163.300781 320.988281 164.207031 321.894531 C 165.113281 322.804688 166.0625 323.664062 167.054688 324.476562 C 168.042969 325.289062 169.074219 326.054688 170.136719 326.765625 C 171.203125 327.480469 172.300781 328.136719 173.433594 328.742188 C 174.5625 329.347656 175.71875 329.894531 176.902344 330.386719 C 178.089844 330.875 179.292969 331.308594 180.519531 331.679688 C 181.746094 332.050781 182.988281 332.363281 184.246094 332.613281 C 185.503906 332.863281 186.769531 333.050781 188.042969 333.179688 C 189.320312 333.304688 190.597656 333.367188 191.878906 333.367188 C 193.164062 333.367188 194.441406 333.304688 195.71875 333.179688 C 196.992188 333.050781 198.257812 332.863281 199.515625 332.613281 C 200.773438 332.363281 202.015625 332.050781 203.242188 331.679688 C 204.46875 331.308594 205.671875 330.875 206.859375 330.386719 C 208.042969 329.894531 209.199219 329.347656 210.328125 328.742188 C 211.460938 328.136719 212.558594 327.480469 213.625 326.765625 C 214.6875 326.054688 215.71875 325.289062 216.707031 324.476562 C 217.699219 323.664062 218.648438 322.804688 219.554688 321.894531 C 220.460938 320.988281 221.320312 320.039062 222.132812 319.046875 C 222.945312 318.058594 223.710938 317.027344 224.421875 315.960938 C 225.132812 314.894531 225.792969 313.796875 226.394531 312.664062 C 227 311.535156 227.546875 310.375 228.039062 309.191406 C 228.527344 308.007812 228.960938 306.800781 229.332031 305.574219 C 229.703125 304.34375 230.015625 303.101562 230.265625 301.84375 C 230.515625 300.585938 230.703125 299.320312 230.828125 298.042969 C 230.953125 296.765625 231.015625 295.488281 231.015625 294.203125 C 231.015625 292.921875 230.953125 291.640625 230.828125 290.367188 C 230.703125 289.089844 230.515625 287.824219 230.265625 286.5625 C 230.015625 285.304688 229.703125 284.0625 229.332031 282.835938 C 228.960938 281.609375 228.527344 280.402344 228.039062 279.21875 C 227.546875 278.03125 227 276.875 226.394531 275.742188 C 225.792969 274.613281 225.132812 273.515625 224.421875 272.449219 C 223.710938 271.382812 222.945312 270.351562 222.132812 269.359375 C 221.320312 268.367188 220.460938 267.417969 219.554688 266.511719 C 218.648438 265.605469 217.699219 264.746094 216.707031 263.933594 C 215.71875 263.117188 214.6875 262.355469 213.625 261.640625 C 212.558594 260.929688 211.460938 260.269531 210.328125 259.667969 C 209.199219 259.0625 208.042969 258.515625 206.859375 258.023438 C 205.671875 257.53125 204.46875 257.101562 203.242188 256.730469 C 202.015625 256.355469 200.773438 256.046875 199.515625 255.796875 C 198.257812 255.542969 196.992188 255.355469 195.71875 255.230469 C 194.441406 255.105469 193.164062 255.042969 191.878906 255.042969 Z M 191.878906 255.042969 " fill-opacity="1" fill-rule="nonzero"/></g><path fill="#5e35b1" d="M 191.878906 270.707031 C 191.113281 270.707031 190.34375 270.746094 189.578125 270.820312 C 188.8125 270.894531 188.054688 271.007812 187.300781 271.160156 C 186.546875 271.308594 185.800781 271.496094 185.066406 271.71875 C 184.328125 271.941406 183.605469 272.203125 182.894531 272.496094 C 182.183594 272.789062 181.488281 273.117188 180.8125 273.480469 C 180.132812 273.84375 179.476562 274.238281 178.835938 274.667969 C 178.195312 275.09375 177.578125 275.554688 176.984375 276.039062 C 176.390625 276.527344 175.820312 277.046875 175.277344 277.589844 C 174.734375 278.132812 174.21875 278.703125 173.730469 279.296875 C 173.242188 279.894531 172.785156 280.511719 172.355469 281.148438 C 171.929688 281.789062 171.535156 282.449219 171.171875 283.128906 C 170.808594 283.808594 170.480469 284.5 170.1875 285.210938 C 169.890625 285.921875 169.632812 286.648438 169.410156 287.382812 C 169.1875 288.121094 169 288.867188 168.851562 289.621094 C 168.699219 290.375 168.585938 291.136719 168.511719 291.902344 C 168.4375 292.667969 168.398438 293.433594 168.398438 294.203125 C 168.398438 294.972656 168.4375 295.742188 168.511719 296.507812 C 168.585938 297.273438 168.699219 298.035156 168.851562 298.789062 C 169 299.542969 169.1875 300.289062 169.410156 301.027344 C 169.632812 301.761719 169.890625 302.484375 170.1875 303.195312 C 170.480469 303.90625 170.808594 304.601562 171.171875 305.28125 C 171.535156 305.960938 171.929688 306.617188 172.355469 307.257812 C 172.785156 307.898438 173.242188 308.515625 173.730469 309.109375 C 174.21875 309.707031 174.734375 310.277344 175.277344 310.820312 C 175.820312 311.363281 176.390625 311.878906 176.984375 312.367188 C 177.578125 312.855469 178.195312 313.3125 178.835938 313.742188 C 179.476562 314.167969 180.132812 314.566406 180.8125 314.925781 C 181.488281 315.289062 182.183594 315.617188 182.894531 315.914062 C 183.605469 316.207031 184.328125 316.464844 185.066406 316.691406 C 185.800781 316.914062 186.546875 317.101562 187.300781 317.25 C 188.054688 317.402344 188.8125 317.511719 189.578125 317.589844 C 190.34375 317.664062 191.113281 317.703125 191.878906 317.703125 C 192.648438 317.703125 193.417969 317.664062 194.183594 317.589844 C 194.949219 317.511719 195.707031 317.402344 196.460938 317.25 C 197.214844 317.101562 197.960938 316.914062 198.695312 316.691406 C 199.433594 316.464844 200.15625 316.207031 200.867188 315.914062 C 201.578125 315.617188 202.273438 315.289062 202.949219 314.925781 C 203.628906 314.566406 204.285156 314.167969 204.925781 313.742188 C 205.566406 313.3125 206.183594 312.855469 206.777344 312.367188 C 207.371094 311.878906 207.941406 311.363281 208.484375 310.820312 C 209.027344 310.277344 209.542969 309.707031 210.03125 309.109375 C 210.519531 308.515625 210.976562 307.898438 211.40625 307.257812 C 211.832031 306.617188 212.226562 305.960938 212.589844 305.28125 C 212.953125 304.601562 213.28125 303.90625 213.574219 303.195312 C 213.871094 302.484375 214.128906 301.761719 214.351562 301.027344 C 214.574219 300.289062 214.761719 299.542969 214.910156 298.789062 C 215.0625 298.035156 215.175781 297.273438 215.25 296.507812 C 215.324219 295.742188 215.363281 294.972656 215.363281 294.203125 C 215.363281 293.433594 215.324219 292.667969 215.25 291.902344 C 215.175781 291.136719 215.0625 290.375 214.910156 289.621094 C 214.761719 288.867188 214.574219 288.121094 214.351562 287.382812 C 214.128906 286.648438 213.871094 285.921875 213.574219 285.210938 C 213.28125 284.5 212.953125 283.808594 212.589844 283.128906 C 212.226562 282.449219 211.832031 281.789062 211.40625 281.148438 C 210.976562 280.511719 210.519531 279.894531 210.03125 279.296875 C 209.542969 278.703125 209.027344 278.132812 208.484375 277.589844 C 207.941406 277.046875 207.371094 276.527344 206.777344 276.039062 C 206.183594 275.554688 205.566406 275.09375 204.925781 274.667969 C 204.285156 274.238281 203.628906 273.84375 202.949219 273.480469 C 202.273438 273.117188 201.578125 272.789062 200.867188 272.496094 C 200.15625 272.203125 199.433594 271.941406 198.695312 271.71875 C 197.960938 271.496094 197.214844 271.308594 196.460938 271.160156 C 195.707031 271.007812 194.949219 270.894531 194.183594 270.820312 C 193.417969 270.746094 192.648438 270.707031 191.878906 270.707031 Z M 191.878906 270.707031 " fill-opacity="1" fill-rule="nonzero"/><path fill="#d7ccc8" d="M 317.117188 67.066406 L 199.707031 90.5625 L 184.054688 90.5625 L 66.644531 67.066406 L 50.992188 106.226562 L 50.992188 294.203125 L 332.769531 294.203125 L 332.769531 106.226562 Z M 317.117188 67.066406 " fill-opacity="1" fill-rule="nonzero"/><path fill="#bcaaa4" d="M 66.644531 270.707031 L 184.054688 270.707031 L 184.054688 294.203125 L 199.707031 294.203125 L 199.707031 270.707031 L 317.117188 270.707031 L 332.769531 294.203125 L 50.992188 294.203125 Z M 66.644531 270.707031 " fill-opacity="1" fill-rule="nonzero"/><path fill="#efebe9" d="M 317.117188 67.066406 C 317.117188 67.066406 199.707031 67.066406 199.707031 90.5625 C 199.707031 114.058594 199.707031 294.203125 199.707031 294.203125 C 199.707031 270.707031 317.117188 270.707031 317.117188 270.707031 Z M 66.644531 67.066406 C 66.644531 67.066406 184.054688 67.066406 184.054688 90.5625 C 184.054688 114.058594 184.054688 294.203125 184.054688 294.203125 C 184.054688 270.707031 66.644531 270.707031 66.644531 270.707031 Z M 66.644531 67.066406 " fill-opacity="1" fill-rule="nonzero"/><path fill="#ff8a65" d="M 140.222656 53.75 L 141.785156 60.015625 C 142.570312 65.5 147.265625 69.414062 151.960938 70.199219 L 158.222656 71.765625 C 161.355469 72.546875 161.355469 77.246094 158.222656 77.246094 L 151.960938 78.8125 C 146.484375 79.597656 142.570312 84.296875 141.785156 88.996094 L 140.222656 95.261719 C 139.4375 98.394531 134.742188 98.394531 134.742188 95.261719 L 133.175781 88.996094 C 132.394531 83.511719 127.699219 79.597656 123 78.8125 L 116.738281 77.246094 C 113.609375 76.464844 113.609375 71.765625 116.738281 71.765625 L 123 70.199219 C 128.480469 69.414062 132.394531 64.714844 133.175781 60.015625 L 134.742188 53.75 C 134.742188 50.617188 139.4375 50.617188 140.222656 53.75 Z M 140.222656 53.75 " fill-opacity="1" fill-rule="nonzero"/><path fill="#ff7043" d="M 271.71875 146.957031 L 272.5 151.65625 C 273.285156 154.789062 275.632812 157.921875 279.546875 158.703125 L 284.242188 159.488281 C 286.589844 160.269531 286.589844 162.621094 284.242188 163.402344 L 279.546875 164.1875 C 276.414062 164.96875 273.285156 167.320312 272.5 171.234375 L 271.71875 175.933594 C 270.933594 178.285156 268.585938 178.285156 267.804688 175.933594 L 267.023438 171.234375 C 266.238281 168.101562 263.890625 164.96875 259.976562 164.1875 L 255.28125 163.402344 C 252.933594 162.621094 252.933594 160.269531 255.28125 159.488281 L 259.976562 158.703125 C 263.109375 157.921875 266.238281 155.570312 267.023438 151.65625 L 267.804688 146.957031 C 268.585938 144.605469 271.71875 144.605469 271.71875 146.957031 Z M 271.71875 146.957031 " fill-opacity="1" fill-rule="nonzero"/><path fill="#ff8a65" d="M 154.308594 201.78125 L 155.09375 206.480469 C 155.875 209.613281 158.222656 212.746094 162.136719 213.53125 L 166.832031 214.3125 C 169.183594 215.097656 169.183594 217.445312 166.832031 218.230469 L 162.136719 219.011719 C 159.007812 219.796875 155.875 222.144531 155.09375 226.0625 L 154.308594 230.761719 C 153.527344 233.113281 151.179688 233.113281 150.398438 230.761719 L 149.613281 226.0625 C 148.832031 222.929688 146.484375 219.796875 142.570312 219.011719 L 137.875 218.230469 C 135.523438 217.445312 135.523438 215.097656 137.875 214.3125 L 142.570312 213.53125 C 145.699219 212.746094 148.832031 210.398438 149.613281 206.480469 L 150.398438 201.78125 C 151.179688 199.433594 154.308594 199.433594 154.308594 201.78125 Z M 154.308594 201.78125 " fill-opacity="1" fill-rule="nonzero"/></svg>