<svg xmlns="http://www.w3.org/2000/svg" xmlns:xlink="http://www.w3.org/1999/xlink" width="512" zoomAndPan="magnify" viewBox="0 0 384 383.999986" height="512" preserveAspectRatio="xMidYMid meet" version="1.0"><defs><clipPath id="a3ebef709c"><path d="M 26.210938 26.210938 L 357.710938 26.210938 L 357.710938 357.710938 L 26.210938 357.710938 Z M 26.210938 26.210938 " clip-rule="nonzero"/></clipPath></defs><path fill="#d3d6dd" d="M 354.078125 69.011719 L 354.078125 55.523438 C 354.078125 41.515625 342.667969 30.101562 328.660156 30.101562 L 55.78125 30.101562 C 41.773438 30.101562 30.359375 41.515625 30.359375 55.523438 L 30.359375 69.011719 Z M 354.078125 69.011719 " fill-opacity="1" fill-rule="nonzero"/><path fill="#9facbd" d="M 76.53125 49.296875 C 76.53125 49.839844 76.480469 50.382812 76.371094 50.914062 C 76.265625 51.449219 76.109375 51.96875 75.902344 52.472656 C 75.691406 52.976562 75.4375 53.453125 75.132812 53.90625 C 74.832031 54.359375 74.488281 54.78125 74.101562 55.164062 C 73.714844 55.550781 73.296875 55.894531 72.84375 56.199219 C 72.390625 56.5 71.910156 56.757812 71.410156 56.964844 C 70.90625 57.171875 70.386719 57.332031 69.851562 57.4375 C 69.316406 57.542969 68.777344 57.597656 68.230469 57.597656 C 67.6875 57.597656 67.148438 57.542969 66.613281 57.4375 C 66.078125 57.332031 65.558594 57.171875 65.054688 56.964844 C 64.550781 56.757812 64.074219 56.5 63.621094 56.199219 C 63.167969 55.894531 62.746094 55.550781 62.363281 55.164062 C 61.976562 54.78125 61.632812 54.359375 61.332031 53.90625 C 61.027344 53.453125 60.773438 52.976562 60.5625 52.472656 C 60.355469 51.96875 60.195312 51.449219 60.089844 50.914062 C 59.984375 50.382812 59.929688 49.839844 59.929688 49.296875 C 59.929688 48.75 59.984375 48.210938 60.089844 47.675781 C 60.195312 47.144531 60.355469 46.625 60.5625 46.121094 C 60.773438 45.617188 61.027344 45.136719 61.332031 44.683594 C 61.632812 44.230469 61.976562 43.8125 62.363281 43.425781 C 62.746094 43.042969 63.167969 42.699219 63.621094 42.394531 C 64.074219 42.09375 64.550781 41.835938 65.054688 41.628906 C 65.558594 41.417969 66.078125 41.261719 66.613281 41.15625 C 67.148438 41.050781 67.6875 40.996094 68.230469 40.996094 C 68.777344 40.996094 69.316406 41.050781 69.851562 41.15625 C 70.386719 41.261719 70.90625 41.417969 71.410156 41.628906 C 71.910156 41.835938 72.390625 42.09375 72.84375 42.394531 C 73.296875 42.699219 73.714844 43.042969 74.101562 43.425781 C 74.488281 43.8125 74.832031 44.230469 75.132812 44.683594 C 75.4375 45.136719 75.691406 45.617188 75.902344 46.121094 C 76.109375 46.625 76.265625 47.144531 76.371094 47.675781 C 76.480469 48.210938 76.53125 48.75 76.53125 49.296875 Z M 76.53125 49.296875 " fill-opacity="1" fill-rule="nonzero"/><path fill="#9facbd" d="M 108.695312 49.296875 C 108.695312 49.839844 108.644531 50.382812 108.539062 50.914062 C 108.429688 51.449219 108.273438 51.96875 108.066406 52.472656 C 107.855469 52.976562 107.601562 53.453125 107.296875 53.90625 C 106.996094 54.359375 106.652344 54.78125 106.265625 55.164062 C 105.878906 55.550781 105.460938 55.894531 105.007812 56.199219 C 104.554688 56.5 104.078125 56.757812 103.574219 56.964844 C 103.070312 57.171875 102.550781 57.332031 102.015625 57.4375 C 101.480469 57.542969 100.941406 57.597656 100.394531 57.597656 C 99.851562 57.597656 99.3125 57.542969 98.777344 57.4375 C 98.242188 57.332031 97.722656 57.171875 97.21875 56.964844 C 96.714844 56.757812 96.238281 56.5 95.785156 56.199219 C 95.332031 55.894531 94.914062 55.550781 94.527344 55.164062 C 94.140625 54.78125 93.796875 54.359375 93.496094 53.90625 C 93.191406 53.453125 92.9375 52.976562 92.726562 52.472656 C 92.519531 51.96875 92.363281 51.449219 92.253906 50.914062 C 92.148438 50.382812 92.097656 49.839844 92.097656 49.296875 C 92.097656 48.75 92.148438 48.210938 92.253906 47.675781 C 92.363281 47.144531 92.519531 46.625 92.726562 46.121094 C 92.9375 45.617188 93.191406 45.136719 93.496094 44.683594 C 93.796875 44.230469 94.140625 43.8125 94.527344 43.425781 C 94.914062 43.042969 95.332031 42.699219 95.785156 42.394531 C 96.238281 42.09375 96.714844 41.835938 97.21875 41.628906 C 97.722656 41.417969 98.242188 41.261719 98.777344 41.15625 C 99.3125 41.050781 99.851562 40.996094 100.394531 40.996094 C 100.941406 40.996094 101.480469 41.050781 102.015625 41.15625 C 102.550781 41.261719 103.070312 41.417969 103.574219 41.628906 C 104.078125 41.835938 104.554688 42.09375 105.007812 42.394531 C 105.460938 42.699219 105.878906 43.042969 106.265625 43.425781 C 106.652344 43.8125 106.996094 44.230469 107.296875 44.683594 C 107.601562 45.136719 107.855469 45.617188 108.066406 46.121094 C 108.273438 46.625 108.429688 47.144531 108.539062 47.675781 C 108.644531 48.210938 108.695312 48.75 108.695312 49.296875 Z M 108.695312 49.296875 " fill-opacity="1" fill-rule="nonzero"/><path fill="#9facbd" d="M 140.859375 49.296875 C 140.859375 49.839844 140.808594 50.382812 140.703125 50.914062 C 140.59375 51.449219 140.4375 51.96875 140.230469 52.472656 C 140.019531 52.976562 139.765625 53.453125 139.460938 53.90625 C 139.160156 54.359375 138.816406 54.78125 138.429688 55.164062 C 138.042969 55.550781 137.625 55.894531 137.171875 56.199219 C 136.71875 56.5 136.242188 56.757812 135.738281 56.964844 C 135.234375 57.171875 134.714844 57.332031 134.179688 57.4375 C 133.644531 57.542969 133.105469 57.597656 132.558594 57.597656 C 132.015625 57.597656 131.476562 57.542969 130.941406 57.4375 C 130.40625 57.332031 129.886719 57.171875 129.382812 56.964844 C 128.878906 56.757812 128.402344 56.5 127.949219 56.199219 C 127.496094 55.894531 127.078125 55.550781 126.691406 55.164062 C 126.304688 54.78125 125.960938 54.359375 125.660156 53.90625 C 125.355469 53.453125 125.101562 52.976562 124.890625 52.472656 C 124.683594 51.96875 124.527344 51.449219 124.417969 50.914062 C 124.3125 50.382812 124.261719 49.839844 124.261719 49.296875 C 124.261719 48.75 124.3125 48.210938 124.417969 47.675781 C 124.527344 47.144531 124.683594 46.625 124.890625 46.121094 C 125.101562 45.617188 125.355469 45.136719 125.660156 44.683594 C 125.960938 44.230469 126.304688 43.8125 126.691406 43.425781 C 127.078125 43.042969 127.496094 42.699219 127.949219 42.394531 C 128.402344 42.09375 128.878906 41.835938 129.382812 41.628906 C 129.886719 41.417969 130.40625 41.261719 130.941406 41.15625 C 131.476562 41.050781 132.015625 40.996094 132.558594 40.996094 C 133.105469 40.996094 133.644531 41.050781 134.179688 41.15625 C 134.714844 41.261719 135.234375 41.417969 135.738281 41.628906 C 136.242188 41.835938 136.71875 42.09375 137.171875 42.394531 C 137.625 42.699219 138.042969 43.042969 138.429688 43.425781 C 138.816406 43.8125 139.160156 44.230469 139.460938 44.683594 C 139.765625 45.136719 140.019531 45.617188 140.230469 46.121094 C 140.4375 46.625 140.59375 47.144531 140.703125 47.675781 C 140.808594 48.210938 140.859375 48.75 140.859375 49.296875 Z M 140.859375 49.296875 " fill-opacity="1" fill-rule="nonzero"/><path fill="#9facbd" d="M 324.507812 53.445312 L 196.890625 53.445312 C 194.8125 53.445312 192.738281 51.890625 192.738281 49.296875 C 192.738281 46.703125 194.296875 45.144531 196.890625 45.144531 L 324.507812 45.144531 C 326.585938 45.144531 328.660156 46.703125 328.660156 49.296875 C 328.660156 51.890625 326.585938 53.445312 324.507812 53.445312 Z M 324.507812 53.445312 " fill-opacity="1" fill-rule="nonzero"/><path fill="#f86868" d="M 72.382812 170.691406 L 48 148.382812 C 46.960938 147.347656 46.960938 146.308594 46.960938 145.269531 C 46.960938 144.234375 47.480469 143.195312 48.519531 142.15625 L 74.976562 121.40625 C 76.53125 119.851562 79.125 120.371094 80.683594 121.925781 C 82.238281 123.480469 81.71875 126.074219 80.164062 127.632812 L 57.335938 145.269531 L 78.609375 164.464844 C 80.164062 166.023438 80.164062 168.617188 78.609375 170.171875 C 76.53125 172.246094 73.9375 172.246094 72.382812 170.691406 Z M 72.382812 170.691406 " fill-opacity="1" fill-rule="nonzero"/><path fill="#f86868" d="M 136.191406 170.171875 C 134.636719 168.617188 134.636719 166.023438 136.191406 164.464844 L 157.460938 145.269531 L 134.636719 127.632812 C 133.078125 126.074219 132.5625 124 134.117188 121.925781 C 135.671875 120.371094 137.75 119.851562 139.824219 121.40625 L 166.28125 142.15625 C 167.320312 142.675781 167.835938 143.714844 167.835938 145.269531 C 167.835938 146.308594 167.320312 147.347656 166.800781 148.382812 L 142.417969 170.691406 C 139.824219 172.246094 137.230469 172.246094 136.191406 170.171875 Z M 136.191406 170.171875 " fill-opacity="1" fill-rule="nonzero"/><path fill="#f86868" d="M 96.246094 180.027344 C 94.171875 179.511719 93.132812 177.433594 93.652344 175.359375 L 112.847656 115.179688 C 113.367188 113.105469 115.441406 112.070312 117.515625 112.585938 C 119.589844 113.105469 120.628906 115.179688 120.109375 117.257812 L 100.914062 177.433594 C 100.394531 179.511719 98.320312 180.546875 96.246094 180.027344 Z M 96.246094 180.027344 " fill-opacity="1" fill-rule="nonzero"/><path fill="#9facbd" d="M 56.820312 211.675781 C 55.78125 211.675781 54.742188 211.15625 54.226562 210.636719 C 53.707031 210.117188 53.1875 209.082031 53.1875 208.042969 C 53.1875 207.003906 53.707031 205.96875 54.226562 205.449219 C 55.78125 203.894531 58.375 203.894531 59.929688 205.449219 C 60.449219 205.96875 60.96875 207.003906 60.96875 208.042969 C 60.96875 209.082031 60.449219 210.117188 59.929688 210.636719 C 58.375 211.15625 57.855469 211.675781 56.820312 211.675781 Z M 56.820312 211.675781 " fill-opacity="1" fill-rule="nonzero"/><path fill="#9facbd" d="M 157.460938 213.75 L 68.75 213.75 C 66.675781 213.75 64.601562 212.191406 64.601562 209.597656 C 64.601562 207.003906 66.15625 205.449219 68.75 205.449219 L 157.460938 205.449219 C 159.535156 205.449219 161.613281 207.003906 161.613281 209.597656 C 161.613281 212.191406 159.535156 213.75 157.460938 213.75 Z M 157.460938 213.75 " fill-opacity="1" fill-rule="nonzero"/><path fill="#9facbd" d="M 157.460938 254.734375 L 68.75 254.734375 C 66.675781 254.734375 64.601562 253.175781 64.601562 250.582031 C 64.601562 247.988281 66.15625 246.433594 68.75 246.433594 L 157.460938 246.433594 C 159.535156 246.433594 161.613281 247.988281 161.613281 250.582031 C 161.613281 253.175781 159.535156 254.734375 157.460938 254.734375 Z M 157.460938 254.734375 " fill-opacity="1" fill-rule="nonzero"/><path fill="#9facbd" d="M 56.820312 252.140625 C 55.78125 252.140625 54.742188 251.621094 54.226562 251.101562 C 53.707031 250.582031 52.667969 249.027344 52.667969 247.988281 C 52.667969 246.953125 53.1875 245.914062 53.707031 245.394531 C 55.261719 243.839844 57.855469 243.839844 59.414062 245.394531 C 59.929688 245.914062 60.449219 246.953125 60.449219 247.988281 C 60.449219 249.027344 59.929688 250.0625 59.414062 250.582031 C 58.894531 251.101562 57.855469 252.140625 56.820312 252.140625 Z M 56.820312 252.140625 " fill-opacity="1" fill-rule="nonzero"/><path fill="#f9ae5b" d="M 248.765625 183.660156 L 248.765625 229.3125 L 245.136719 233.464844 L 245.136719 237.613281 L 247.210938 239.6875 C 248.765625 241.246094 248.765625 242.800781 247.730469 244.875 C 246.691406 246.433594 245.65625 247.988281 245.136719 249.546875 C 243.578125 252.65625 242.542969 255.769531 242.023438 259.402344 C 241.503906 261.476562 239.949219 262.515625 238.390625 262.515625 L 232.683594 262.515625 L 232.683594 271.851562 L 238.390625 271.851562 C 240.464844 271.851562 242.023438 273.410156 242.023438 274.964844 C 242.542969 278.597656 243.578125 281.710938 245.136719 284.824219 C 245.65625 286.378906 246.691406 287.933594 247.730469 289.492188 C 248.765625 291.046875 248.765625 293.121094 247.210938 294.679688 L 245.136719 296.753906 L 245.136719 297.273438 L 249.285156 297.273438 L 249.285156 336.699219 C 249.285156 346.558594 241.503906 354.339844 231.648438 354.339844 C 221.789062 354.339844 214.007812 346.558594 214.007812 336.699219 L 214.007812 183.660156 C 185.996094 169.652344 183.402344 130.746094 209.859375 113.625 L 209.859375 143.195312 L 230.089844 158.238281 L 252.917969 143.195312 L 252.917969 114.144531 C 279.375 130.746094 276.78125 170.171875 248.765625 183.660156 Z M 248.765625 183.660156 " fill-opacity="1" fill-rule="nonzero"/><path fill="#000000" d="M 239.949219 329.957031 C 239.949219 330.535156 239.890625 331.109375 239.777344 331.675781 C 239.664062 332.246094 239.5 332.796875 239.277344 333.332031 C 239.054688 333.867188 238.785156 334.375 238.460938 334.855469 C 238.140625 335.335938 237.773438 335.78125 237.363281 336.191406 C 236.957031 336.601562 236.511719 336.96875 236.027344 337.289062 C 235.546875 337.609375 235.039062 337.882812 234.503906 338.105469 C 233.96875 338.324219 233.417969 338.492188 232.847656 338.605469 C 232.28125 338.71875 231.707031 338.773438 231.128906 338.773438 C 230.550781 338.773438 229.976562 338.71875 229.40625 338.605469 C 228.839844 338.492188 228.289062 338.324219 227.753906 338.105469 C 227.21875 337.882812 226.710938 337.609375 226.230469 337.289062 C 225.746094 336.96875 225.300781 336.601562 224.890625 336.191406 C 224.484375 335.78125 224.117188 335.335938 223.796875 334.855469 C 223.472656 334.375 223.203125 333.867188 222.980469 333.332031 C 222.757812 332.796875 222.589844 332.246094 222.480469 331.675781 C 222.367188 331.109375 222.308594 330.535156 222.308594 329.957031 C 222.308594 329.378906 222.367188 328.804688 222.480469 328.234375 C 222.589844 327.667969 222.757812 327.117188 222.980469 326.582031 C 223.203125 326.046875 223.472656 325.539062 223.796875 325.054688 C 224.117188 324.574219 224.484375 324.128906 224.890625 323.71875 C 225.300781 323.308594 225.746094 322.945312 226.230469 322.625 C 226.710938 322.300781 227.21875 322.03125 227.753906 321.808594 C 228.289062 321.585938 228.839844 321.417969 229.40625 321.304688 C 229.976562 321.191406 230.550781 321.136719 231.128906 321.136719 C 231.707031 321.136719 232.28125 321.191406 232.847656 321.304688 C 233.417969 321.417969 233.96875 321.585938 234.503906 321.808594 C 235.039062 322.03125 235.546875 322.300781 236.027344 322.625 C 236.511719 322.945312 236.957031 323.308594 237.363281 323.71875 C 237.773438 324.128906 238.140625 324.574219 238.460938 325.054688 C 238.785156 325.539062 239.054688 326.046875 239.277344 326.582031 C 239.5 327.117188 239.664062 327.667969 239.777344 328.234375 C 239.890625 328.804688 239.949219 329.378906 239.949219 329.957031 Z M 239.949219 329.957031 " fill-opacity="1" fill-rule="nonzero"/><path fill="#86d2ff" d="M 334.367188 275.484375 L 334.367188 258.363281 L 324.507812 258.363281 C 323.472656 252.65625 320.878906 247.46875 317.765625 242.800781 L 324.507812 236.058594 L 312.578125 223.085938 L 305.832031 229.832031 C 301.164062 226.71875 295.976562 224.644531 290.269531 223.085938 L 290.269531 213.230469 L 273.148438 213.230469 L 273.148438 223.085938 C 267.441406 224.125 262.253906 226.71875 257.585938 229.832031 L 249.804688 223.085938 L 237.355469 235.539062 L 244.097656 242.28125 C 240.984375 246.953125 238.910156 252.140625 237.355469 257.847656 L 227.496094 257.847656 L 227.496094 274.964844 L 237.355469 274.964844 C 238.390625 280.671875 240.984375 285.859375 244.097656 290.527344 L 237.355469 297.273438 L 249.804688 309.722656 L 256.546875 302.980469 C 261.21875 306.09375 266.40625 308.167969 272.113281 309.722656 L 272.113281 319.582031 L 289.230469 319.582031 L 289.230469 309.722656 C 294.9375 308.6875 300.125 306.09375 304.796875 302.980469 L 311.539062 309.722656 L 323.988281 297.273438 L 317.246094 290.527344 C 320.359375 285.859375 322.433594 280.671875 323.988281 274.964844 L 334.367188 274.964844 Z M 280.929688 291.566406 C 267.441406 291.566406 256.03125 280.671875 256.03125 266.664062 C 256.03125 252.65625 266.925781 241.761719 280.929688 241.761719 C 294.9375 241.761719 305.832031 252.65625 305.832031 266.664062 C 305.832031 280.671875 294.9375 291.566406 280.929688 291.566406 Z M 280.929688 291.566406 " fill-opacity="1" fill-rule="nonzero"/><g clip-path="url(#a3ebef709c)"><path fill="#000000" d="M 357.710938 55.523438 C 357.710938 39.441406 344.742188 26.46875 328.660156 26.46875 L 55.78125 26.46875 C 41.253906 26.46875 29.324219 37.363281 27.25 51.371094 C 26.730469 52.929688 26.210938 55.003906 26.210938 57.078125 L 26.730469 301.421875 C 26.730469 302.460938 27.25 303.5 27.765625 304.015625 C 28.285156 304.535156 29.324219 305.054688 30.359375 305.054688 L 209.339844 304.535156 L 209.339844 336.179688 C 209.339844 348.113281 218.679688 357.453125 230.609375 357.453125 C 242.542969 357.453125 251.878906 347.59375 251.878906 336.179688 L 251.878906 312.835938 L 256.546875 308.167969 C 260.179688 310.242188 263.8125 311.796875 267.960938 312.835938 L 267.960938 319.582031 C 267.960938 321.65625 269.519531 323.730469 272.113281 323.730469 L 289.230469 323.730469 C 291.308594 323.730469 293.382812 322.175781 293.382812 319.582031 L 293.382812 312.835938 C 297.53125 311.796875 301.164062 310.242188 304.796875 308.167969 L 309.464844 312.835938 C 311.019531 314.394531 313.613281 314.394531 315.171875 312.835938 L 323.988281 304.015625 L 354.078125 304.015625 C 356.15625 304.015625 357.710938 302.460938 357.710938 299.867188 Z M 34.511719 55.523438 C 34.511719 54.484375 34.511719 53.445312 35.03125 52.410156 C 37.105469 43.070312 45.40625 35.808594 55.78125 35.808594 L 328.660156 35.289062 C 334.367188 35.289062 339.554688 37.363281 343.703125 41.515625 C 347.855469 45.664062 349.929688 50.851562 349.929688 56.558594 L 349.929688 65.378906 L 34.511719 65.378906 Z M 245.136719 336.179688 C 245.136719 343.964844 238.910156 349.667969 231.648438 349.667969 C 223.867188 349.667969 218.160156 343.445312 218.160156 336.179688 L 218.160156 183.660156 C 218.160156 182.105469 217.121094 181.066406 216.085938 180.027344 C 204.152344 174.324219 196.371094 162.910156 195.851562 149.421875 C 195.332031 139.046875 198.964844 128.667969 206.746094 121.40625 L 206.746094 142.675781 C 206.746094 143.714844 207.265625 145.269531 208.300781 145.789062 L 228.535156 160.835938 C 230.089844 161.871094 231.648438 161.871094 233.203125 160.835938 L 256.03125 145.789062 C 257.066406 145.269531 257.585938 143.714844 257.585938 142.675781 L 257.585938 121.40625 C 264.847656 128.667969 269 138.527344 268.480469 149.421875 C 267.960938 162.390625 260.179688 173.804688 248.25 180.027344 C 246.691406 180.546875 246.171875 182.105469 246.171875 183.660156 L 246.171875 222.570312 L 235.796875 232.945312 C 234.242188 234.5 234.242188 237.09375 235.796875 238.652344 L 240.464844 243.320312 C 238.390625 246.953125 236.835938 250.582031 235.796875 254.734375 L 229.054688 254.734375 C 226.976562 254.734375 224.902344 256.289062 224.902344 258.882812 L 224.902344 276.003906 C 224.902344 278.078125 226.460938 280.152344 229.054688 280.152344 L 235.796875 280.152344 C 236.835938 284.304688 238.390625 287.933594 240.464844 291.566406 C 235.796875 296.234375 235.277344 296.234375 234.761719 297.792969 C 234.242188 299.347656 234.761719 300.90625 235.796875 301.941406 C 236.316406 302.460938 246.691406 312.835938 246.171875 312.316406 L 246.171875 336.179688 Z M 312.578125 305.054688 L 308.425781 300.90625 C 306.871094 299.347656 305.3125 299.347656 303.757812 300.386719 C 299.089844 303.5 293.902344 305.574219 289.230469 306.09375 C 287.15625 306.609375 286.121094 308.167969 286.121094 309.722656 L 286.121094 315.429688 L 276.78125 315.429688 L 276.78125 309.722656 C 276.78125 304.015625 270.035156 307.128906 259.144531 299.867188 C 257.585938 298.828125 255.511719 298.828125 253.953125 300.386719 C 253.4375 300.90625 249.804688 304.535156 250.324219 304.015625 L 249.804688 304.015625 C 249.285156 303.5 243.0625 297.273438 243.578125 297.792969 C 244.097656 297.273438 248.25 293.121094 247.730469 293.640625 C 249.285156 292.085938 249.285156 290.011719 248.25 288.453125 C 245.65625 284.304688 243.578125 279.632812 242.542969 273.929688 C 242.023438 271.851562 240.464844 270.816406 238.910156 270.816406 L 233.203125 270.816406 L 233.203125 261.476562 L 238.910156 261.476562 C 240.984375 261.476562 242.542969 259.921875 242.542969 258.363281 C 243.578125 253.695312 245.136719 249.027344 248.25 243.839844 C 249.285156 242.28125 249.285156 240.207031 247.730469 238.652344 C 247.210938 238.132812 243.058594 233.980469 243.578125 234.5 C 244.097656 233.980469 250.84375 227.238281 250.324219 227.757812 C 250.84375 228.273438 254.992188 232.425781 254.472656 231.90625 C 256.03125 233.464844 258.105469 233.464844 259.660156 232.425781 C 263.8125 229.3125 269 227.238281 274.1875 226.71875 C 275.742188 226.199219 277.300781 224.644531 277.300781 223.085938 L 277.300781 217.382812 L 286.636719 217.382812 L 286.636719 223.085938 C 286.636719 225.164062 288.195312 226.71875 289.75 226.71875 C 294.9375 227.757812 299.609375 229.832031 304.277344 232.425781 C 305.832031 233.464844 307.90625 233.464844 308.945312 231.90625 L 313.097656 227.757812 L 319.839844 234.5 L 315.691406 238.652344 C 314.132812 240.207031 314.132812 241.761719 315.171875 243.839844 C 318.285156 247.988281 319.839844 253.175781 320.878906 258.363281 C 321.914062 263.035156 327.621094 260.957031 330.734375 261.476562 L 330.734375 270.816406 L 325.027344 270.816406 C 322.953125 270.816406 321.394531 272.371094 321.394531 273.929688 C 320.359375 279.117188 318.285156 283.785156 315.171875 288.453125 C 314.132812 290.011719 314.652344 292.085938 315.691406 293.121094 C 316.207031 293.640625 320.359375 297.792969 319.839844 297.273438 C 318.800781 298.828125 312.058594 305.574219 312.578125 305.054688 Z M 328.140625 296.753906 C 328.140625 296.234375 327.621094 295.714844 327.621094 295.714844 L 322.953125 290.527344 C 325.027344 286.898438 326.585938 283.265625 327.621094 279.117188 L 334.367188 279.117188 C 336.441406 279.117188 338.515625 277.558594 338.515625 274.964844 L 338.515625 257.847656 C 338.515625 255.769531 336.960938 253.695312 334.367188 253.695312 L 327.621094 253.695312 C 326.585938 249.546875 325.027344 245.914062 322.953125 242.28125 L 327.621094 237.613281 C 329.179688 236.058594 329.179688 233.464844 327.621094 231.90625 L 315.171875 219.457031 C 313.613281 217.898438 311.019531 217.898438 309.464844 219.457031 L 304.796875 224.125 C 301.164062 222.050781 297.53125 220.492188 293.382812 219.457031 L 293.382812 212.710938 C 293.382812 210.636719 291.824219 208.5625 289.230469 208.5625 L 272.113281 208.5625 C 270.035156 208.5625 267.960938 210.117188 267.960938 212.710938 L 267.960938 219.457031 C 263.8125 220.492188 260.179688 222.050781 256.546875 224.125 L 251.878906 219.457031 L 251.878906 184.699219 C 264.847656 177.433594 273.148438 163.945312 274.1875 148.902344 C 275.226562 132.820312 267.441406 118.292969 253.953125 109.476562 C 252.917969 108.957031 251.359375 108.4375 249.804688 109.476562 C 248.765625 109.992188 247.730469 111.550781 247.730469 113.105469 L 247.730469 140.601562 L 229.054688 153.050781 L 212.453125 140.601562 L 212.453125 114.144531 C 212.453125 112.585938 211.933594 111.550781 210.378906 110.511719 C 209.339844 109.992188 207.785156 109.992188 206.226562 110.511719 C 192.738281 119.332031 184.957031 133.859375 185.996094 149.941406 C 187.03125 164.984375 195.332031 178.472656 208.300781 185.734375 L 208.300781 296.753906 L 34.511719 297.273438 L 33.992188 72.640625 L 349.929688 72.640625 L 350.449219 296.234375 Z M 328.140625 296.753906 " fill-opacity="1" fill-rule="nonzero"/></g><path fill="#000000" d="M 280.929688 238.132812 C 266.40625 238.132812 254.472656 248.507812 252.398438 262.515625 C 251.878906 264.070312 251.878906 265.628906 251.878906 266.664062 C 251.878906 267.703125 251.878906 269.777344 252.398438 270.816406 C 254.472656 284.824219 266.40625 295.199219 280.929688 295.199219 C 296.496094 295.199219 309.464844 282.226562 309.464844 266.664062 C 309.984375 251.101562 297.011719 238.132812 280.929688 238.132812 Z M 280.929688 287.417969 C 269.519531 287.417969 260.179688 278.078125 260.179688 266.664062 C 260.179688 255.25 269.519531 245.914062 280.929688 245.914062 C 292.34375 245.914062 301.683594 255.25 301.683594 266.664062 C 302.203125 278.078125 292.863281 287.417969 280.929688 287.417969 Z M 280.929688 287.417969 " fill-opacity="1" fill-rule="nonzero"/></svg>