<svg xmlns="http://www.w3.org/2000/svg" xmlns:xlink="http://www.w3.org/1999/xlink" width="512" zoomAndPan="magnify" viewBox="0 0 384 383.999986" height="512" preserveAspectRatio="xMidYMid meet" version="1.0"><defs><clipPath id="19b6742122"><path d="M 27.109375 83 L 312 83 L 312 249 L 27.109375 249 Z M 27.109375 83 " clip-rule="nonzero"/></clipPath><clipPath id="d4c3b1c41e"><path d="M 197 169 L 357.109375 169 L 357.109375 328.554688 L 197 328.554688 Z M 197 169 " clip-rule="nonzero"/></clipPath><clipPath id="20a9c8193b"><path d="M 197 169 L 295 169 L 295 328.554688 L 197 328.554688 Z M 197 169 " clip-rule="nonzero"/></clipPath><clipPath id="e94466aa26"><path d="M 27.109375 83 L 312 83 L 312 160 L 27.109375 160 Z M 27.109375 83 " clip-rule="nonzero"/></clipPath><clipPath id="d51e8a00a3"><path d="M 27.109375 55.554688 L 312 55.554688 L 312 149 L 27.109375 149 Z M 27.109375 55.554688 " clip-rule="nonzero"/></clipPath></defs><g clip-path="url(#19b6742122)"><path fill="#f68c12" d="M 311.578125 83.992188 L 311.578125 237.554688 C 311.578125 243.820312 306.445312 248.929688 300.199219 248.929688 L 38.511719 248.929688 C 32.242188 248.929688 27.132812 243.820312 27.132812 237.554688 L 27.132812 83.992188 L 38.511719 89.457031 L 55.578125 97.632812 L 154.578125 145.132812 C 163.886719 149.621094 174.820312 149.621094 184.132812 145.132812 L 311.578125 83.992188 " fill-opacity="1" fill-rule="nonzero"/></g><path fill="#f89c23" d="M 311.578125 83.992188 L 311.578125 214.804688 L 101.089844 214.804688 C 75.957031 214.804688 55.578125 194.429688 55.578125 169.304688 L 55.578125 97.632812 L 154.578125 145.132812 C 163.886719 149.621094 174.820312 149.621094 184.132812 145.132812 L 311.578125 83.992188 " fill-opacity="1" fill-rule="nonzero"/><path fill="#f68c12" d="M 311.578125 178.011719 L 311.578125 237.554688 C 311.578125 243.820312 306.445312 248.929688 300.199219 248.929688 L 186.644531 248.929688 C 186.488281 247.039062 186.421875 245.175781 186.421875 243.242188 C 186.421875 199.273438 222.089844 163.617188 266.066406 163.617188 C 278.246094 163.617188 289.84375 166.347656 300.199219 171.304688 C 304.175781 173.238281 308 175.457031 311.578125 178.011719 " fill-opacity="1" fill-rule="nonzero"/><g clip-path="url(#d4c3b1c41e)"><path fill="#fad314" d="M 357.089844 248.929688 C 357.089844 292.894531 321.421875 328.554688 277.445312 328.554688 C 233.464844 328.554688 197.800781 292.894531 197.800781 248.929688 C 197.800781 204.960938 233.464844 169.304688 277.445312 169.304688 C 289.621094 169.304688 301.222656 172.035156 311.578125 176.992188 C 338.488281 189.789062 357.089844 217.179688 357.089844 248.929688 " fill-opacity="1" fill-rule="nonzero"/></g><g clip-path="url(#20a9c8193b)"><path fill="#facb07" d="M 294.511719 326.734375 C 289 327.933594 283.3125 328.554688 277.445312 328.554688 C 233.464844 328.554688 197.800781 292.894531 197.800781 248.929688 C 197.800781 204.960938 233.464844 169.304688 277.445312 169.304688 C 283.246094 169.304688 289 169.925781 294.445312 171.125 C 258.667969 178.96875 231.933594 210.828125 231.933594 248.929688 C 231.933594 287.03125 258.734375 318.890625 294.511719 326.734375 " fill-opacity="1" fill-rule="nonzero"/></g><g clip-path="url(#e94466aa26)"><path fill="#f68c12" d="M 184.132812 145.132812 C 174.820312 149.621094 163.886719 149.621094 154.578125 145.132812 L 27.132812 83.992188 L 27.132812 89.679688 L 165.957031 156.507812 C 175.265625 160.996094 186.199219 160.996094 195.511719 156.507812 L 311.578125 100.832031 L 311.578125 83.992188 L 184.132812 145.132812 " fill-opacity="1" fill-rule="nonzero"/></g><g clip-path="url(#d51e8a00a3)"><path fill="#f89c23" d="M 311.578125 66.929688 L 311.578125 83.992188 L 252.3125 112.429688 L 184.132812 145.132812 C 174.820312 149.621094 163.886719 149.621094 154.578125 145.132812 L 27.132812 83.992188 L 27.132812 66.929688 C 27.132812 60.664062 32.242188 55.554688 38.511719 55.554688 L 300.199219 55.554688 C 306.445312 55.554688 311.578125 60.664062 311.578125 66.929688 " fill-opacity="1" fill-rule="nonzero"/></g><path fill="#f68c12" d="M 78.332031 288.742188 L 66.957031 288.742188 L 66.957031 277.367188 L 78.332031 277.367188 L 78.332031 288.742188 " fill-opacity="1" fill-rule="nonzero"/><path fill="#f68c12" d="M 146.601562 288.742188 L 89.710938 288.742188 L 89.710938 277.367188 L 146.601562 277.367188 L 146.601562 288.742188 " fill-opacity="1" fill-rule="nonzero"/><path fill="#f9ac3e" d="M 72.644531 231.867188 L 61.265625 231.867188 C 51.84375 231.867188 44.199219 224.222656 44.199219 214.804688 L 44.199219 203.429688 L 55.578125 203.429688 L 55.578125 214.804688 C 55.578125 217.9375 58.132812 220.492188 61.265625 220.492188 L 72.644531 220.492188 L 72.644531 231.867188 " fill-opacity="1" fill-rule="nonzero"/><path fill="#f9ac3e" d="M 55.578125 192.054688 L 44.199219 192.054688 L 44.199219 180.679688 L 55.578125 180.679688 L 55.578125 192.054688 " fill-opacity="1" fill-rule="nonzero"/><path fill="#51c3a6" d="M 293.554688 216.738281 L 261.332031 248.929688 L 245.246094 265.035156 L 237.222656 289.140625 L 261.332031 281.121094 L 293.554688 248.929688 L 309.644531 232.820312 L 293.554688 216.738281 " fill-opacity="1" fill-rule="nonzero"/><path fill="#e9eaea" d="M 317.667969 208.71875 C 315.957031 207.007812 313.800781 205.941406 311.578125 205.585938 C 308.042969 204.960938 304.289062 205.984375 301.554688 208.71875 L 293.554688 216.738281 L 309.644531 232.820312 L 311.578125 230.910156 L 317.667969 224.824219 C 319.890625 222.601562 321.023438 219.691406 321.023438 216.738281 C 321.023438 213.847656 319.890625 210.9375 317.667969 208.71875 " fill-opacity="1" fill-rule="nonzero"/><path fill="#339d84" d="M 305.601562 236.867188 L 289.511719 220.78125 L 297.554688 212.738281 L 313.644531 228.824219 L 305.601562 236.867188 " fill-opacity="1" fill-rule="nonzero"/></svg>