<svg xmlns="http://www.w3.org/2000/svg" xmlns:xlink="http://www.w3.org/1999/xlink" width="512" zoomAndPan="magnify" viewBox="0 0 384 383.999986" height="512" preserveAspectRatio="xMidYMid meet" version="1.0"><defs><clipPath id="c5adfa3459"><path d="M 27 105 L 356.980469 105 L 356.980469 320.535156 L 27 320.535156 Z M 27 105 " clip-rule="nonzero"/></clipPath><clipPath id="f508cd92bb"><path d="M 189 73 L 356.980469 73 L 356.980469 115 L 189 115 Z M 189 73 " clip-rule="nonzero"/></clipPath><clipPath id="57783888ee"><path d="M 27 63.285156 L 218 63.285156 L 218 115 L 27 115 Z M 27 63.285156 " clip-rule="nonzero"/></clipPath></defs><path fill="#f5f5f5" d="M 351.191406 305.707031 L 351.191406 112.332031 L 32.695312 112.332031 L 32.695312 305.707031 C 32.695312 310.039062 36.269531 313.613281 40.683594 313.613281 L 343.277344 313.613281 C 347.613281 313.613281 351.191406 310.039062 351.191406 305.707031 Z M 351.191406 305.707031 " fill-opacity="1" fill-rule="evenodd"/><g clip-path="url(#c5adfa3459)"><path fill="#64798a" d="M 340.082031 320.535156 L 43.804688 320.535156 C 34.597656 320.535156 27.0625 313.007812 27.0625 303.804688 L 27.0625 109.898438 C 27.0625 107.390625 29.042969 105.410156 31.554688 105.410156 L 352.332031 105.410156 C 354.84375 105.410156 356.894531 107.390625 356.894531 109.898438 L 356.894531 303.730469 C 356.894531 313.007812 349.363281 320.535156 340.082031 320.535156 Z M 36.042969 114.386719 L 36.042969 303.730469 C 36.042969 308.0625 39.542969 311.484375 43.804688 311.484375 L 340.082031 311.484375 C 344.34375 311.484375 347.84375 307.988281 347.84375 303.730469 L 347.84375 114.386719 Z M 36.042969 114.386719 " fill-opacity="1" fill-rule="evenodd"/></g><g clip-path="url(#f508cd92bb)"><path fill="#2a3e4d" d="M 208.148438 114.386719 L 190.269531 80.46875 C 189.582031 79.101562 189.582031 77.429688 190.421875 76.058594 C 191.257812 74.765625 192.703125 73.929688 194.300781 73.929688 L 334.375 73.929688 C 346.777344 73.929688 356.894531 83.96875 356.894531 96.4375 L 356.894531 114.386719 Z M 208.148438 114.386719 " fill-opacity="1" fill-rule="evenodd"/></g><g clip-path="url(#57783888ee)"><path fill="#3a556a" d="M 27.0625 114.386719 L 27.0625 91.117188 C 27.0625 75.753906 39.542969 63.285156 54.910156 63.285156 L 188.671875 63.285156 C 190.34375 63.285156 191.941406 64.195312 192.703125 65.71875 L 217.277344 112.332031 C 217.582031 112.941406 217.734375 113.699219 217.734375 114.386719 Z M 27.0625 114.386719 " fill-opacity="1" fill-rule="evenodd"/></g><path fill="#2a3e4d" d="M 66.171875 104.347656 C 58.867188 104.347656 52.933594 98.417969 52.933594 91.117188 C 52.933594 83.816406 58.867188 77.886719 66.171875 77.886719 C 73.476562 77.886719 79.410156 83.816406 79.410156 91.117188 C 79.410156 98.417969 73.476562 104.347656 66.171875 104.347656 Z M 66.171875 104.347656 " fill-opacity="1" fill-rule="evenodd"/><path fill="#2a3e4d" d="M 99.042969 104.347656 C 91.738281 104.347656 85.800781 98.417969 85.800781 91.117188 C 85.800781 83.816406 91.738281 77.886719 99.042969 77.886719 C 106.347656 77.886719 112.28125 83.816406 112.28125 91.117188 C 112.28125 98.417969 106.347656 104.347656 99.042969 104.347656 Z M 99.042969 104.347656 " fill-opacity="1" fill-rule="evenodd"/><path fill="#2a3e4d" d="M 131.910156 104.347656 C 124.605469 104.347656 118.671875 98.417969 118.671875 91.117188 C 118.671875 83.816406 124.605469 77.886719 131.910156 77.886719 C 139.214844 77.886719 145.148438 83.816406 145.148438 91.117188 C 145.148438 98.417969 139.214844 104.347656 131.910156 104.347656 Z M 131.910156 104.347656 " fill-opacity="1" fill-rule="evenodd"/><path fill="#fcd462" d="M 66.171875 99.9375 C 61.304688 99.9375 57.347656 95.984375 57.347656 91.117188 C 57.347656 86.25 61.304688 82.296875 66.171875 82.296875 C 71.042969 82.296875 75 86.25 75 91.117188 C 75 95.984375 71.042969 99.9375 66.171875 99.9375 Z M 66.171875 99.9375 " fill-opacity="1" fill-rule="evenodd"/><path fill="#27a2db" d="M 99.042969 99.9375 C 94.171875 99.9375 90.214844 95.984375 90.214844 91.117188 C 90.214844 86.25 94.171875 82.296875 99.042969 82.296875 C 103.910156 82.296875 107.867188 86.25 107.867188 91.117188 C 107.867188 95.984375 103.910156 99.9375 99.042969 99.9375 Z M 99.042969 99.9375 " fill-opacity="1" fill-rule="evenodd"/><path fill="#44c4a1" d="M 131.910156 99.9375 C 127.042969 99.9375 123.085938 95.984375 123.085938 91.117188 C 123.085938 86.25 127.042969 82.296875 131.910156 82.296875 C 136.78125 82.296875 140.738281 86.25 140.738281 91.117188 C 140.738281 95.984375 136.78125 99.9375 131.910156 99.9375 Z M 131.910156 99.9375 " fill-opacity="1" fill-rule="evenodd"/><path fill="#ef5350" d="M 300.972656 220.082031 L 82.910156 220.082031 C 73.019531 220.082031 64.957031 212.023438 64.957031 202.136719 L 64.957031 149.820312 C 64.957031 139.933594 73.019531 131.875 82.910156 131.875 L 300.972656 131.875 C 310.863281 131.875 318.929688 139.933594 318.929688 149.820312 L 318.929688 202.136719 C 318.929688 212.023438 310.863281 220.082031 300.972656 220.082031 Z M 300.972656 220.082031 " fill-opacity="1" fill-rule="evenodd"/><path fill="#3b566a" d="M 307.667969 298.484375 L 76.214844 298.484375 C 73.703125 298.484375 71.652344 296.503906 71.652344 293.996094 C 71.652344 291.488281 73.703125 289.507812 76.214844 289.507812 L 307.667969 289.507812 C 310.179688 289.507812 312.234375 291.488281 312.234375 293.996094 C 312.234375 296.503906 310.179688 298.484375 307.667969 298.484375 Z M 307.667969 298.484375 " fill-opacity="1" fill-rule="evenodd"/><path fill="#3b566a" d="M 307.667969 275.0625 L 76.214844 275.0625 C 73.703125 275.0625 71.652344 273.007812 71.652344 270.5 C 71.652344 268.066406 73.703125 266.011719 76.214844 266.011719 L 307.667969 266.011719 C 310.179688 266.011719 312.234375 268.066406 312.234375 270.5 C 312.234375 273.007812 310.179688 275.0625 307.667969 275.0625 Z M 307.667969 275.0625 " fill-opacity="1" fill-rule="evenodd"/><path fill="#3b566a" d="M 307.667969 251.566406 L 76.214844 251.566406 C 73.703125 251.566406 71.652344 249.585938 71.652344 247.078125 C 71.652344 244.570312 73.703125 242.515625 76.214844 242.515625 L 307.667969 242.515625 C 310.179688 242.515625 312.234375 244.570312 312.234375 247.078125 C 312.234375 249.585938 310.179688 251.566406 307.667969 251.566406 Z M 307.667969 251.566406 " fill-opacity="1" fill-rule="evenodd"/><path fill="#f5f5f5" d="M 131.605469 180.464844 C 129.09375 180.464844 127.042969 178.488281 127.042969 175.980469 C 127.042969 173.46875 129.09375 171.492188 131.605469 171.492188 C 135.488281 171.492188 138.605469 168.296875 138.605469 164.421875 C 138.605469 160.542969 135.488281 157.347656 131.605469 157.347656 L 121.945312 157.347656 L 121.945312 175.980469 C 121.945312 178.488281 119.890625 180.542969 117.453125 180.542969 C 114.945312 180.542969 112.890625 178.488281 112.890625 175.980469 L 112.890625 152.863281 C 112.890625 150.351562 114.945312 148.375 117.453125 148.375 L 131.605469 148.375 C 140.433594 148.375 147.660156 155.523438 147.660156 164.421875 C 147.660156 173.242188 140.433594 180.464844 131.605469 180.464844 Z M 131.605469 180.464844 " fill-opacity="1" fill-rule="evenodd"/><path fill="#f5f5f5" d="M 131.605469 203.660156 L 117.453125 203.660156 C 114.945312 203.660156 112.890625 201.605469 112.890625 199.09375 L 112.890625 175.980469 C 112.890625 173.46875 114.945312 171.492188 117.453125 171.492188 L 131.605469 171.492188 C 140.433594 171.492188 147.660156 178.714844 147.660156 187.539062 C 147.660156 196.359375 140.433594 203.660156 131.605469 203.660156 Z M 121.945312 194.609375 L 131.605469 194.609375 C 135.488281 194.609375 138.605469 191.414062 138.605469 187.539062 C 138.605469 183.660156 135.488281 180.542969 131.605469 180.542969 L 121.945312 180.542969 Z M 121.945312 194.609375 " fill-opacity="1" fill-rule="evenodd"/><path fill="#f5f5f5" d="M 179.769531 203.660156 L 157.09375 203.660156 C 154.660156 203.660156 152.605469 201.605469 152.605469 199.09375 L 152.605469 152.863281 C 152.605469 150.351562 154.660156 148.375 157.09375 148.375 C 159.605469 148.375 161.660156 150.351562 161.660156 152.863281 L 161.660156 194.609375 L 179.769531 194.609375 C 182.28125 194.609375 184.332031 196.664062 184.332031 199.09375 C 184.332031 201.605469 182.28125 203.660156 179.769531 203.660156 Z M 179.769531 203.660156 " fill-opacity="1" fill-rule="evenodd"/><path fill="#f5f5f5" d="M 208.453125 203.660156 C 197.878906 203.660156 189.203125 194.988281 189.203125 184.417969 L 189.203125 167.539062 C 189.203125 156.890625 197.878906 148.300781 208.453125 148.300781 C 219.027344 148.300781 227.625 156.890625 227.625 167.539062 L 227.625 184.417969 C 227.625 194.988281 219.027344 203.660156 208.453125 203.660156 Z M 208.453125 157.347656 C 202.824219 157.347656 198.257812 161.910156 198.257812 167.539062 L 198.257812 184.417969 C 198.257812 190.046875 202.824219 194.609375 208.453125 194.609375 C 214.082031 194.609375 218.648438 190.046875 218.648438 184.417969 L 218.648438 167.539062 C 218.648438 161.910156 214.082031 157.347656 208.453125 157.347656 Z M 208.453125 157.347656 " fill-opacity="1" fill-rule="evenodd"/><path fill="#f5f5f5" d="M 251.820312 203.660156 C 241.167969 203.660156 232.570312 194.988281 232.570312 184.417969 L 232.570312 167.539062 C 232.570312 156.890625 241.167969 148.300781 251.820312 148.300781 C 256.082031 148.300781 260.117188 149.746094 263.539062 152.328125 C 265.515625 153.925781 265.820312 156.742188 264.300781 158.71875 C 262.777344 160.617188 259.964844 161 257.984375 159.476562 C 256.160156 158.109375 254.027344 157.347656 251.746094 157.347656 C 246.191406 157.347656 241.550781 161.910156 241.550781 167.539062 L 241.550781 184.417969 C 241.550781 190.046875 246.117188 194.609375 251.746094 194.609375 C 255.777344 194.609375 259.203125 192.328125 260.875 188.90625 L 253.570312 188.90625 C 251.0625 188.90625 249.082031 186.929688 249.082031 184.417969 C 249.082031 181.910156 251.0625 179.933594 253.570312 179.933594 L 266.429688 179.933594 C 268.941406 179.933594 270.996094 181.910156 270.996094 184.417969 C 270.996094 194.988281 262.398438 203.660156 251.820312 203.660156 Z M 251.820312 203.660156 " fill-opacity="1" fill-rule="evenodd"/></svg>