<svg xmlns="http://www.w3.org/2000/svg" xmlns:xlink="http://www.w3.org/1999/xlink" width="512" zoomAndPan="magnify" viewBox="0 0 384 383.999986" height="512" preserveAspectRatio="xMidYMid meet" version="1.0"><defs><clipPath id="d1e5bc5f2e"><path d="M 115.199219 197 L 256 197 L 256 201 L 115.199219 201 Z M 115.199219 197 " clip-rule="nonzero"/></clipPath><clipPath id="84ba06d43f"><path d="M 253 191 L 268.949219 191 L 268.949219 206 L 253 206 Z M 253 191 " clip-rule="nonzero"/></clipPath><clipPath id="f4cec1a39a"><path d="M 136 172 L 241 172 L 241 223.242188 L 136 223.242188 Z M 136 172 " clip-rule="nonzero"/></clipPath><clipPath id="030692ac75"><path d="M 27 118 L 183 118 L 183 344.082031 L 27 344.082031 Z M 27 118 " clip-rule="nonzero"/></clipPath><clipPath id="d7c5de3779"><path d="M 201 118 L 357 118 L 357 344.082031 L 201 344.082031 Z M 201 118 " clip-rule="nonzero"/></clipPath><clipPath id="7e030e0a18"><path d="M 182 118 L 202 118 L 202 344.082031 L 182 344.082031 Z M 182 118 " clip-rule="nonzero"/></clipPath></defs><g clip-path="url(#d1e5bc5f2e)"><path fill="#ffffff" d="M 117.269531 200.375 C 118.492188 200.375 119.71875 200.375 120.90625 200.375 C 124.214844 200.375 127.527344 200.375 130.835938 200.375 C 135.738281 200.375 140.644531 200.375 145.546875 200.375 C 151.515625 200.375 157.480469 200.375 163.488281 200.375 C 170.027344 200.375 176.566406 200.375 183.105469 200.375 C 189.726562 200.375 196.304688 200.375 202.925781 200.375 C 209.097656 200.375 215.226562 200.375 221.398438 200.375 C 226.585938 200.375 231.816406 200.375 237.007812 200.375 C 240.769531 200.375 244.488281 200.375 248.246094 200.375 C 250.003906 200.375 251.800781 200.414062 253.558594 200.375 C 253.640625 200.375 253.722656 200.375 253.804688 200.375 C 255.808594 200.375 255.808594 197.261719 253.804688 197.261719 C 252.578125 197.261719 251.351562 197.261719 250.167969 197.261719 C 246.855469 197.261719 243.546875 197.261719 240.238281 197.261719 C 235.332031 197.261719 230.429688 197.261719 225.523438 197.261719 C 219.558594 197.261719 213.589844 197.261719 207.585938 197.261719 C 201.046875 197.261719 194.507812 197.261719 187.96875 197.261719 C 181.347656 197.261719 174.769531 197.261719 168.148438 197.261719 C 161.976562 197.261719 155.847656 197.261719 149.675781 197.261719 C 144.484375 197.261719 139.253906 197.261719 134.0625 197.261719 C 130.304688 197.261719 126.585938 197.261719 122.824219 197.261719 C 121.070312 197.261719 119.269531 197.21875 117.511719 197.261719 C 117.429688 197.261719 117.347656 197.261719 117.269531 197.261719 C 115.265625 197.261719 115.265625 200.375 117.269531 200.375 Z M 117.269531 200.375 " fill-opacity="1" fill-rule="nonzero"/></g><g clip-path="url(#84ba06d43f)"><path fill="#ffffff" d="M 253.886719 193.324219 L 254.253906 204.1875 C 254.296875 205.375 255.5625 206.113281 256.625 205.539062 L 267.699219 199.433594 C 268.882812 198.777344 268.761719 197.054688 267.535156 196.5625 L 256.09375 191.808594 C 254.988281 191.359375 253.84375 192.179688 253.886719 193.324219 Z M 253.886719 193.324219 " fill-opacity="1" fill-rule="nonzero"/></g><path fill="#ffffff" d="M 233.332031 174.148438 L 243.792969 177.015625 C 244.9375 177.34375 246.039062 176.320312 245.792969 175.128906 L 243.21875 162.714844 C 242.933594 161.402344 241.257812 160.992188 240.398438 162.015625 L 232.511719 171.566406 C 231.777344 172.464844 232.226562 173.820312 233.332031 174.148438 Z M 233.332031 174.148438 " fill-opacity="1" fill-rule="nonzero"/><g clip-path="url(#f4cec1a39a)"><path fill="#ffffff" d="M 137.414062 174.761719 C 136.882812 182.710938 136.71875 190.664062 137.78125 198.570312 C 138.152344 201.152344 138.4375 203.40625 138.804688 206.113281 C 139.171875 208.613281 139.621094 211.152344 140.4375 213.570312 C 141.257812 215.949219 142.402344 218.285156 144.199219 220.128906 C 145.875 221.808594 148.328125 223.242188 150.820312 223.117188 C 155.640625 222.875 157.929688 217.503906 159.238281 213.570312 C 160.015625 211.152344 160.585938 208.613281 161.160156 206.152344 C 162.058594 202.261719 162.917969 198.324219 163.734375 194.433594 C 164.511719 190.742188 164.671875 186.972656 165.613281 183.328125 C 165.980469 181.933594 166.429688 180.457031 167.167969 179.1875 C 167.65625 178.328125 168.148438 177.875 169.085938 177.589844 C 168.636719 177.710938 169.003906 177.589844 169.210938 177.589844 C 169.414062 177.589844 169.742188 177.710938 169.292969 177.589844 C 169.375 177.628906 169.496094 177.628906 169.617188 177.671875 C 169.699219 177.671875 169.78125 177.710938 169.863281 177.753906 C 169.699219 177.710938 169.578125 177.589844 169.78125 177.753906 C 169.90625 177.835938 169.988281 177.875 170.109375 177.957031 C 170.394531 178.121094 169.90625 177.710938 170.191406 178 C 170.394531 178.246094 170.640625 178.449219 170.84375 178.695312 C 170.558594 178.328125 170.886719 178.777344 170.96875 178.859375 C 171.050781 178.984375 171.128906 179.148438 171.210938 179.269531 C 171.417969 179.636719 171.621094 179.964844 171.785156 180.335938 C 171.824219 180.457031 171.988281 180.828125 171.867188 180.539062 C 171.949219 180.746094 172.03125 180.949219 172.113281 181.15625 C 172.273438 181.5625 172.398438 182.015625 172.5625 182.425781 C 173.132812 184.308594 173.542969 186.234375 173.867188 188.164062 C 173.949219 188.652344 174.03125 189.144531 174.113281 189.636719 C 174.15625 189.882812 174.195312 190.128906 174.195312 190.335938 C 174.195312 190.457031 174.238281 190.582031 174.238281 190.742188 C 174.238281 190.867188 174.238281 190.867188 174.238281 190.703125 C 174.238281 190.785156 174.277344 190.867188 174.277344 190.949219 C 174.398438 191.933594 174.523438 192.957031 174.644531 193.941406 C 174.929688 196.808594 175.054688 199.761719 175.542969 202.585938 C 176.035156 205.742188 176.566406 208.898438 177.382812 211.972656 C 177.914062 213.898438 178.527344 215.824219 179.425781 217.628906 C 180.121094 219.019531 181.101562 220.496094 182.53125 221.234375 C 184.371094 222.175781 186.332031 221.601562 187.761719 220.25 C 189.808594 218.40625 190.625 215.457031 191.441406 212.914062 C 193.566406 206.316406 194.75 199.433594 196.183594 192.671875 C 196.714844 190.089844 197.285156 187.546875 198.101562 185.046875 C 198.796875 182.792969 199.777344 180.335938 201.289062 178.695312 C 201.496094 178.492188 201.699219 178.285156 201.902344 178.082031 C 202.148438 177.875 202.066406 177.917969 202.3125 177.753906 C 202.476562 177.628906 202.640625 177.546875 202.800781 177.464844 C 202.84375 177.464844 203.171875 177.300781 202.925781 177.425781 C 202.679688 177.507812 203.007812 177.382812 203.089844 177.382812 C 203.332031 177.34375 203.539062 177.34375 203.171875 177.34375 C 203.292969 177.34375 203.496094 177.34375 203.621094 177.34375 C 203.210938 177.382812 203.457031 177.34375 203.660156 177.382812 C 204.070312 177.507812 203.496094 177.21875 203.824219 177.464844 C 203.90625 177.546875 204.355469 177.835938 203.988281 177.546875 C 204.109375 177.628906 204.191406 177.710938 204.273438 177.792969 C 204.394531 177.917969 204.519531 178.039062 204.640625 178.164062 C 204.683594 178.203125 204.722656 178.285156 204.765625 178.328125 C 204.519531 178 204.765625 178.328125 204.804688 178.410156 C 205.253906 179.105469 205.664062 179.84375 205.992188 180.621094 C 205.867188 180.335938 206.113281 180.867188 206.113281 180.992188 C 206.195312 181.195312 206.277344 181.402344 206.359375 181.605469 C 206.523438 182.097656 206.683594 182.546875 206.847656 183.039062 C 207.132812 184.023438 207.421875 185.007812 207.664062 186.03125 C 208.074219 187.792969 208.402344 189.515625 208.726562 191.277344 C 209.75 197.097656 210.851562 202.914062 211.914062 208.734375 C 212.40625 211.5625 212.816406 214.390625 213.960938 217.011719 C 214.859375 219.101562 216.371094 221.355469 218.742188 221.890625 C 221.96875 222.628906 224.667969 220.292969 226.382812 217.832031 C 228.425781 214.839844 229.898438 211.480469 231.082031 208.039062 C 232.269531 204.636719 233.25 201.113281 234.351562 197.667969 C 235.539062 193.859375 236.640625 190.007812 237.664062 186.152344 C 238.683594 182.382812 239.625 178.613281 240.605469 174.84375 C 241.09375 172.875 238.113281 172.058594 237.582031 174.023438 C 235.578125 181.644531 233.65625 189.308594 231.285156 196.851562 C 229.203125 203.53125 227.566406 210.660156 223.480469 216.480469 C 222.703125 217.546875 221.683594 218.570312 220.375 218.898438 C 220.089844 218.980469 219.722656 218.980469 219.4375 218.898438 C 219.476562 218.898438 218.984375 218.773438 219.191406 218.816406 C 219.394531 218.898438 218.945312 218.691406 218.984375 218.691406 C 218.902344 218.652344 218.824219 218.570312 218.742188 218.527344 C 218.453125 218.367188 218.78125 218.609375 218.578125 218.40625 C 217.066406 217.136719 216.371094 215.046875 215.878906 213.039062 C 215.023438 209.636719 214.574219 206.070312 213.960938 202.628906 C 213.347656 199.226562 212.691406 195.824219 212.039062 192.425781 C 211.425781 189.1875 210.894531 185.949219 209.996094 182.792969 C 209.136719 179.84375 207.746094 175.210938 204.316406 174.3125 C 202.394531 173.820312 200.597656 174.925781 199.328125 176.195312 C 197.488281 178.082031 196.34375 180.539062 195.488281 183 C 194.589844 185.457031 194.015625 188 193.445312 190.539062 C 192.832031 193.40625 192.175781 196.277344 191.5625 199.1875 C 190.789062 202.914062 190.050781 206.6875 188.949219 210.332031 C 188.253906 212.667969 187.601562 215.457031 186.128906 217.382812 C 185.800781 217.832031 185.433594 218.121094 184.984375 218.367188 C 184.902344 218.40625 184.820312 218.445312 184.738281 218.488281 C 184.78125 218.488281 185.066406 218.367188 184.820312 218.445312 C 184.65625 218.488281 184.496094 218.527344 184.371094 218.570312 C 184.863281 218.445312 184.371094 218.527344 184.25 218.527344 C 184.042969 218.570312 184.332031 218.527344 184.414062 218.570312 C 184.332031 218.527344 184.25 218.527344 184.207031 218.527344 C 183.964844 218.445312 183.839844 218.324219 184.125 218.527344 C 184.003906 218.445312 183.839844 218.367188 183.675781 218.285156 C 183.390625 218.121094 183.839844 218.488281 183.59375 218.203125 C 183.472656 218.078125 183.351562 217.957031 183.226562 217.832031 C 183.1875 217.75 182.859375 217.421875 182.980469 217.585938 C 183.144531 217.792969 182.898438 217.464844 182.898438 217.464844 C 182.820312 217.382812 182.777344 217.257812 182.695312 217.175781 C 182.492188 216.847656 182.289062 216.519531 182.125 216.191406 C 182.042969 216.03125 181.960938 215.824219 181.878906 215.660156 C 181.835938 215.539062 181.796875 215.457031 181.757812 215.332031 C 181.757812 215.292969 181.550781 214.882812 181.675781 215.210938 C 180.242188 211.765625 179.550781 208.039062 178.9375 204.351562 C 178.8125 203.734375 178.730469 203.121094 178.648438 202.503906 C 178.609375 202.300781 178.570312 202.097656 178.570312 201.890625 C 178.527344 201.726562 178.488281 201.03125 178.527344 201.6875 C 178.445312 200.414062 178.28125 199.1875 178.160156 197.914062 C 177.832031 194.023438 177.425781 190.128906 176.730469 186.277344 C 176.117188 182.875 175.300781 178.984375 173.011719 176.320312 C 172.070312 175.253906 170.761719 174.476562 169.292969 174.476562 C 166.636719 174.515625 164.960938 176.6875 163.980469 178.941406 C 162.589844 182.21875 162.097656 185.664062 161.609375 189.144531 C 161.078125 192.957031 160.179688 196.726562 159.359375 200.496094 C 158.625 203.777344 157.890625 207.09375 157.03125 210.332031 C 156.5 212.300781 155.886719 214.308594 155.027344 215.988281 C 154.578125 216.929688 154.007812 217.832031 153.476562 218.445312 C 153.3125 218.609375 153.148438 218.773438 152.984375 218.9375 C 152.902344 219.019531 152.414062 219.390625 152.617188 219.265625 C 152.453125 219.390625 152.289062 219.472656 152.128906 219.59375 C 152.003906 219.675781 151.882812 219.71875 151.757812 219.800781 C 152.003906 219.675781 151.71875 219.839844 151.597656 219.839844 C 151.433594 219.882812 151.226562 219.964844 151.066406 219.964844 C 150.617188 220.046875 151.351562 219.964844 150.902344 219.964844 C 150.820312 219.964844 150.695312 219.964844 150.617188 219.964844 C 150.535156 219.964844 150.410156 219.964844 150.328125 219.964844 C 149.839844 219.921875 150.492188 220.003906 150.207031 219.964844 C 149.921875 219.921875 149.59375 219.839844 149.308594 219.71875 C 148.449219 219.429688 147.46875 218.773438 146.773438 218.121094 C 143.382812 214.964844 142.523438 209.59375 141.871094 205.046875 C 141.011719 198.859375 140.195312 192.382812 140.195312 185.992188 C 140.195312 182.21875 140.359375 178.492188 140.644531 174.71875 C 140.683594 173.859375 139.867188 173.164062 139.089844 173.164062 C 138.070312 173.164062 137.457031 173.902344 137.414062 174.761719 Z M 137.414062 174.761719 " fill-opacity="1" fill-rule="nonzero"/></g><g clip-path="url(#030692ac75)"><path fill="#ef303f" d="M 182.089844 344.085938 L 27.117188 344.085938 L 27.117188 118.925781 L 182.089844 118.925781 L 182.089844 344.085938 " fill-opacity="1" fill-rule="nonzero"/></g><g clip-path="url(#d7c5de3779)"><path fill="#ef303f" d="M 356.886719 344.085938 L 201.917969 344.085938 L 201.917969 118.925781 L 356.886719 118.925781 L 356.886719 344.085938 " fill-opacity="1" fill-rule="nonzero"/></g><g clip-path="url(#7e030e0a18)"><path fill="#d11e2e" d="M 182.089844 344.085938 L 201.917969 344.085938 L 201.917969 118.925781 L 182.089844 118.925781 L 182.089844 344.085938 " fill-opacity="1" fill-rule="nonzero"/></g><path fill="#bdbcbc" d="M 32.496094 122.511719 L 37.089844 100.984375 L 192.0625 122.511719 L 192.0625 335.816406 L 32.496094 335.816406 L 32.496094 122.511719 " fill-opacity="1" fill-rule="nonzero"/><path fill="#d3d2d2" d="M 192.0625 335.816406 C 192.0625 335.816406 184.203125 319.695312 154.347656 319.695312 C 124.488281 319.695312 37.089844 326.144531 37.089844 326.144531 L 37.089844 100.984375 C 37.089844 100.984375 132.019531 94.535156 158.378906 94.535156 C 184.738281 94.535156 192.0625 110.65625 192.0625 110.65625 L 192.0625 335.816406 " fill-opacity="1" fill-rule="nonzero"/><path fill="#bdbcbc" d="M 351.570312 122.511719 L 346.972656 100.980469 L 192.003906 122.511719 L 192.003906 335.816406 L 351.570312 335.816406 L 351.570312 122.511719 " fill-opacity="1" fill-rule="nonzero"/><path fill="#e5e4e4" d="M 192.003906 335.816406 C 192.003906 335.816406 199.863281 319.695312 229.722656 319.695312 C 259.578125 319.695312 346.976562 326.144531 346.976562 326.144531 L 346.976562 100.980469 C 346.976562 100.980469 252.046875 94.53125 225.6875 94.53125 C 199.328125 94.53125 192.003906 110.652344 192.003906 110.652344 L 192.003906 335.816406 " fill-opacity="1" fill-rule="nonzero"/><path fill="#3d4d57" d="M 52.980469 128.152344 C 52.980469 128.152344 53.347656 128.132812 54.042969 128.097656 C 59.238281 127.832031 82.71875 126.636719 106.476562 125.507812 C 118.351562 124.941406 130.300781 124.394531 140.0625 123.988281 C 144.945312 123.785156 149.28125 123.617188 152.789062 123.5 C 156.296875 123.382812 158.976562 123.316406 160.535156 123.316406 C 167.160156 123.316406 172.59375 124.507812 176.359375 125.699219 C 178.246094 126.289062 179.710938 126.886719 180.703125 127.328125 C 181.199219 127.546875 181.578125 127.730469 181.828125 127.859375 C 181.953125 127.921875 182.046875 127.96875 182.105469 128.003906 C 182.136719 128.019531 182.160156 128.03125 182.171875 128.039062 L 182.191406 128.046875 L 182.25 127.949219 L 182.191406 128.046875 L 182.25 127.949219 L 182.191406 128.046875 L 182.984375 126.644531 C 182.945312 126.621094 180.742188 125.386719 176.847656 124.160156 C 172.949219 122.929688 167.355469 121.703125 160.535156 121.703125 C 158.832031 121.703125 155.886719 121.78125 152.023438 121.910156 C 124.976562 122.839844 52.902344 126.539062 52.898438 126.539062 L 52.980469 128.152344 " fill-opacity="1" fill-rule="nonzero"/><path fill="#3d4d57" d="M 52.980469 147 C 52.980469 147 53.347656 146.980469 54.042969 146.945312 C 59.238281 146.679688 82.71875 145.484375 106.476562 144.355469 C 118.351562 143.789062 130.300781 143.242188 140.0625 142.835938 C 144.945312 142.632812 149.28125 142.464844 152.789062 142.347656 C 156.296875 142.230469 158.976562 142.164062 160.535156 142.164062 C 167.160156 142.164062 172.59375 143.355469 176.359375 144.542969 C 178.246094 145.140625 179.710938 145.730469 180.703125 146.175781 C 181.199219 146.394531 181.578125 146.578125 181.828125 146.703125 C 181.953125 146.769531 182.046875 146.816406 182.105469 146.851562 C 182.136719 146.867188 182.160156 146.878906 182.171875 146.886719 L 182.191406 146.894531 L 182.191406 146.898438 L 182.246094 146.800781 L 182.191406 146.898438 L 182.246094 146.800781 L 182.191406 146.898438 L 182.984375 145.492188 C 182.945312 145.46875 180.742188 144.238281 176.847656 143.007812 C 172.949219 141.777344 167.355469 140.550781 160.535156 140.550781 C 158.832031 140.550781 155.886719 140.628906 152.023438 140.761719 C 124.976562 141.6875 52.902344 145.390625 52.898438 145.390625 L 52.980469 147 " fill-opacity="1" fill-rule="nonzero"/><path fill="#3d4d57" d="M 52.980469 165.847656 C 52.980469 165.847656 53.347656 165.832031 54.042969 165.792969 C 59.238281 165.53125 82.71875 164.332031 106.476562 163.207031 C 118.351562 162.640625 130.300781 162.09375 140.0625 161.6875 C 144.945312 161.484375 149.28125 161.316406 152.789062 161.199219 C 156.296875 161.082031 158.976562 161.015625 160.535156 161.015625 C 167.160156 161.015625 172.59375 162.207031 176.359375 163.394531 C 178.246094 163.988281 179.710938 164.582031 180.703125 165.027344 C 181.199219 165.246094 181.578125 165.429688 181.828125 165.554688 C 181.953125 165.617188 182.046875 165.667969 182.105469 165.699219 C 182.136719 165.714844 182.160156 165.730469 182.171875 165.738281 L 182.191406 165.746094 L 182.25 165.648438 L 182.191406 165.746094 L 182.25 165.648438 L 182.191406 165.746094 L 182.984375 164.339844 C 182.945312 164.320312 180.742188 163.085938 176.847656 161.859375 C 172.949219 160.628906 167.355469 159.402344 160.535156 159.402344 C 158.832031 159.402344 155.886719 159.480469 152.023438 159.613281 C 124.976562 160.535156 52.902344 164.238281 52.898438 164.238281 L 52.980469 165.847656 " fill-opacity="1" fill-rule="nonzero"/><path fill="#3d4d57" d="M 52.980469 184.699219 C 52.980469 184.699219 53.347656 184.675781 54.042969 184.644531 C 59.238281 184.378906 82.71875 183.183594 106.476562 182.054688 C 118.351562 181.488281 130.300781 180.941406 140.0625 180.535156 C 144.945312 180.328125 149.28125 180.164062 152.789062 180.046875 C 156.296875 179.929688 158.976562 179.863281 160.535156 179.863281 C 167.160156 179.863281 172.59375 181.054688 176.359375 182.242188 C 178.246094 182.835938 179.710938 183.429688 180.703125 183.871094 C 181.199219 184.09375 181.578125 184.277344 181.828125 184.402344 C 181.953125 184.46875 182.046875 184.515625 182.105469 184.546875 C 182.136719 184.566406 182.160156 184.578125 182.171875 184.585938 L 182.191406 184.59375 L 182.25 184.488281 L 182.191406 184.59375 L 182.25 184.488281 L 182.191406 184.59375 L 182.984375 183.191406 C 182.945312 183.167969 180.742188 181.9375 176.847656 180.707031 C 172.949219 179.476562 167.355469 178.25 160.535156 178.25 C 158.832031 178.25 155.886719 178.328125 152.023438 178.457031 C 124.976562 179.382812 52.902344 183.085938 52.898438 183.085938 L 52.980469 184.699219 " fill-opacity="1" fill-rule="nonzero"/><path fill="#3d4d57" d="M 52.980469 203.546875 C 52.980469 203.546875 53.347656 203.527344 54.042969 203.492188 C 59.238281 203.226562 82.71875 202.03125 106.476562 200.902344 C 118.351562 200.335938 130.300781 199.789062 140.0625 199.382812 C 144.945312 199.179688 149.28125 199.007812 152.789062 198.894531 C 156.296875 198.777344 158.976562 198.710938 160.535156 198.710938 C 167.160156 198.710938 172.59375 199.902344 176.359375 201.089844 C 178.246094 201.6875 179.710938 202.277344 180.703125 202.722656 C 181.199219 202.941406 181.578125 203.125 181.828125 203.253906 C 181.953125 203.316406 182.046875 203.363281 182.105469 203.398438 C 182.136719 203.414062 182.160156 203.425781 182.171875 203.433594 L 182.191406 203.441406 L 182.191406 203.445312 L 182.25 203.34375 L 182.191406 203.445312 L 182.25 203.34375 L 182.191406 203.445312 L 182.984375 202.039062 C 182.945312 202.015625 180.742188 200.785156 176.847656 199.554688 C 172.949219 198.324219 167.355469 197.097656 160.535156 197.097656 C 158.832031 197.097656 155.886719 197.175781 152.023438 197.304688 C 124.976562 198.234375 52.902344 201.9375 52.898438 201.9375 L 52.980469 203.546875 " fill-opacity="1" fill-rule="nonzero"/><path fill="#3d4d57" d="M 52.980469 222.394531 C 52.980469 222.394531 53.347656 222.375 54.042969 222.339844 C 59.238281 222.074219 82.71875 220.878906 106.476562 219.75 C 118.351562 219.183594 130.300781 218.636719 140.0625 218.230469 C 144.945312 218.027344 149.28125 217.859375 152.789062 217.742188 C 156.296875 217.625 158.976562 217.558594 160.535156 217.558594 C 167.160156 217.558594 172.59375 218.75 176.359375 219.941406 C 178.246094 220.535156 179.710938 221.128906 180.703125 221.570312 C 181.199219 221.789062 181.578125 221.972656 181.828125 222.101562 C 181.953125 222.164062 182.046875 222.214844 182.105469 222.246094 C 182.136719 222.261719 182.160156 222.273438 182.171875 222.28125 L 182.191406 222.292969 L 182.25 222.191406 L 182.191406 222.292969 L 182.25 222.191406 L 182.191406 222.292969 L 182.984375 220.886719 C 182.945312 220.863281 180.742188 219.632812 176.847656 218.402344 C 172.949219 217.171875 167.355469 215.949219 160.535156 215.949219 C 158.832031 215.949219 155.886719 216.023438 152.023438 216.15625 C 124.976562 217.082031 52.902344 220.785156 52.898438 220.785156 L 52.980469 222.394531 " fill-opacity="1" fill-rule="nonzero"/><path fill="#3d4d57" d="M 52.980469 241.242188 C 52.980469 241.242188 53.347656 241.222656 54.042969 241.1875 C 59.238281 240.921875 82.71875 239.726562 106.476562 238.597656 C 118.351562 238.03125 130.300781 237.484375 140.0625 237.078125 C 144.945312 236.875 149.28125 236.707031 152.789062 236.589844 C 156.296875 236.472656 158.976562 236.40625 160.535156 236.40625 C 167.160156 236.40625 172.59375 237.597656 176.359375 238.789062 C 178.246094 239.382812 179.710938 239.972656 180.703125 240.417969 C 181.199219 240.636719 181.578125 240.820312 181.828125 240.949219 C 181.953125 241.011719 182.046875 241.0625 182.105469 241.09375 C 182.136719 241.109375 182.160156 241.121094 182.171875 241.128906 L 182.191406 241.136719 L 182.191406 241.140625 L 182.25 241.035156 L 182.191406 241.140625 L 182.25 241.035156 L 182.191406 241.140625 L 182.984375 239.734375 C 182.945312 239.714844 180.742188 238.480469 176.847656 237.25 C 172.949219 236.019531 167.355469 234.792969 160.535156 234.792969 C 158.832031 234.792969 155.886719 234.871094 152.023438 235.003906 C 124.976562 235.929688 52.902344 239.632812 52.898438 239.632812 L 52.980469 241.242188 " fill-opacity="1" fill-rule="nonzero"/><path fill="#3d4d57" d="M 52.980469 260.089844 C 52.980469 260.089844 53.347656 260.070312 54.042969 260.035156 C 59.238281 259.769531 82.71875 258.574219 106.476562 257.445312 C 118.351562 256.882812 130.300781 256.332031 140.0625 255.925781 C 144.945312 255.722656 149.28125 255.554688 152.789062 255.4375 C 156.296875 255.320312 158.976562 255.253906 160.535156 255.253906 C 167.160156 255.253906 172.59375 256.445312 176.359375 257.632812 C 178.246094 258.230469 179.710938 258.824219 180.703125 259.265625 C 181.199219 259.484375 181.578125 259.667969 181.828125 259.796875 C 181.953125 259.859375 182.046875 259.910156 182.105469 259.941406 C 182.136719 259.957031 182.160156 259.96875 182.171875 259.976562 L 182.191406 259.984375 L 182.191406 259.988281 L 182.25 259.878906 L 182.191406 259.988281 L 182.25 259.878906 L 182.191406 259.988281 L 182.984375 258.582031 C 182.945312 258.558594 180.742188 257.328125 176.847656 256.097656 C 172.949219 254.871094 167.355469 253.644531 160.535156 253.644531 C 158.832031 253.644531 155.886719 253.71875 152.023438 253.851562 C 124.976562 254.777344 52.902344 258.480469 52.898438 258.480469 L 52.980469 260.089844 " fill-opacity="1" fill-rule="nonzero"/><path fill="#3d4d57" d="M 52.980469 278.9375 C 52.980469 278.9375 53.347656 278.917969 54.042969 278.886719 C 59.238281 278.617188 82.71875 277.421875 106.476562 276.292969 C 118.351562 275.730469 130.300781 275.183594 140.0625 274.777344 C 144.945312 274.574219 149.28125 274.402344 152.789062 274.289062 C 156.296875 274.167969 158.976562 274.105469 160.535156 274.105469 C 167.160156 274.105469 172.59375 275.296875 176.359375 276.484375 C 178.246094 277.078125 179.710938 277.671875 180.703125 278.113281 C 181.199219 278.335938 181.578125 278.519531 181.828125 278.644531 C 181.953125 278.710938 182.046875 278.757812 182.105469 278.792969 C 182.136719 278.808594 182.160156 278.820312 182.171875 278.828125 L 182.191406 278.835938 L 182.25 278.730469 L 182.191406 278.835938 L 182.25 278.730469 L 182.191406 278.835938 L 182.984375 277.433594 C 182.945312 277.410156 180.742188 276.175781 176.847656 274.949219 C 172.949219 273.71875 167.355469 272.492188 160.535156 272.492188 C 158.832031 272.492188 155.886719 272.566406 152.023438 272.699219 C 124.976562 273.628906 52.902344 277.328125 52.898438 277.328125 L 52.980469 278.9375 " fill-opacity="1" fill-rule="nonzero"/><path fill="#3d4d57" d="M 52.980469 297.785156 C 52.980469 297.785156 53.347656 297.769531 54.042969 297.730469 C 59.238281 297.46875 82.71875 296.273438 106.476562 295.140625 C 118.351562 294.578125 130.300781 294.03125 140.0625 293.625 C 144.945312 293.421875 149.28125 293.253906 152.789062 293.136719 C 156.296875 293.019531 158.976562 292.953125 160.535156 292.953125 C 167.160156 292.953125 172.59375 294.144531 176.359375 295.332031 C 178.246094 295.925781 179.710938 296.519531 180.703125 296.960938 C 181.199219 297.183594 181.578125 297.367188 181.828125 297.492188 C 181.953125 297.554688 182.046875 297.605469 182.105469 297.636719 C 182.136719 297.652344 182.160156 297.667969 182.171875 297.671875 L 182.191406 297.683594 L 182.25 297.578125 L 182.191406 297.683594 L 182.25 297.578125 L 182.191406 297.683594 L 182.984375 296.277344 C 182.945312 296.257812 180.742188 295.023438 176.847656 293.796875 C 172.949219 292.566406 167.355469 291.339844 160.535156 291.339844 C 158.832031 291.339844 155.886719 291.414062 152.023438 291.546875 C 124.976562 292.476562 52.902344 296.175781 52.898438 296.175781 L 52.980469 297.785156 " fill-opacity="1" fill-rule="nonzero"/><path fill="#3d4d57" d="M 334.339844 126.539062 C 334.335938 126.539062 310.800781 125.332031 285.582031 124.121094 C 272.972656 123.515625 259.941406 122.914062 249.222656 122.460938 C 243.859375 122.230469 239.082031 122.042969 235.214844 121.910156 C 231.347656 121.777344 228.40625 121.703125 226.703125 121.703125 C 219.882812 121.703125 214.285156 122.929688 210.390625 124.160156 C 206.492188 125.390625 204.292969 126.621094 204.25 126.644531 L 205.042969 128.046875 L 204.988281 127.945312 L 205.042969 128.046875 L 204.988281 127.945312 L 205.042969 128.046875 C 205.070312 128.035156 207.199219 126.847656 210.964844 125.667969 C 214.730469 124.488281 220.128906 123.316406 226.703125 123.316406 C 228.363281 123.316406 231.300781 123.390625 235.160156 123.523438 C 248.664062 123.984375 273.441406 125.144531 294.839844 126.183594 C 305.535156 126.707031 315.390625 127.195312 322.570312 127.558594 C 326.160156 127.738281 329.082031 127.886719 331.105469 127.992188 C 332.117188 128.042969 332.90625 128.082031 333.4375 128.109375 C 333.972656 128.136719 334.253906 128.152344 334.253906 128.152344 L 334.339844 126.539062 " fill-opacity="1" fill-rule="nonzero"/><path fill="#3d4d57" d="M 334.339844 145.390625 C 334.335938 145.390625 310.800781 144.179688 285.582031 142.972656 C 272.972656 142.363281 259.941406 141.761719 249.222656 141.308594 C 243.859375 141.078125 239.082031 140.890625 235.214844 140.757812 C 231.347656 140.625 228.40625 140.550781 226.703125 140.550781 C 219.882812 140.550781 214.285156 141.777344 210.390625 143.003906 C 206.492188 144.234375 204.292969 145.46875 204.25 145.492188 L 205.042969 146.894531 L 204.988281 146.796875 L 205.042969 146.894531 L 204.988281 146.796875 L 205.042969 146.894531 C 205.070312 146.882812 207.199219 145.695312 210.964844 144.515625 C 214.730469 143.335938 220.128906 142.160156 226.703125 142.164062 C 228.363281 142.160156 231.300781 142.238281 235.160156 142.371094 C 248.664062 142.832031 273.441406 143.988281 294.839844 145.03125 C 305.535156 145.550781 315.390625 146.042969 322.570312 146.40625 C 326.160156 146.585938 329.082031 146.734375 331.105469 146.839844 C 332.117188 146.890625 332.90625 146.929688 333.4375 146.957031 C 333.972656 146.984375 334.253906 147 334.253906 147 L 334.339844 145.390625 " fill-opacity="1" fill-rule="nonzero"/><path fill="#3d4d57" d="M 334.339844 164.238281 C 334.335938 164.238281 310.800781 163.03125 285.582031 161.820312 C 272.972656 161.214844 259.941406 160.613281 249.222656 160.15625 C 243.859375 159.933594 239.082031 159.742188 235.214844 159.609375 C 231.347656 159.476562 228.40625 159.402344 226.703125 159.402344 C 219.882812 159.402344 214.285156 160.628906 210.390625 161.859375 C 206.492188 163.085938 204.292969 164.320312 204.25 164.339844 L 205.042969 165.746094 L 204.984375 165.644531 L 205.042969 165.746094 L 204.984375 165.644531 L 205.042969 165.746094 C 205.070312 165.730469 207.199219 164.546875 210.964844 163.367188 C 214.730469 162.1875 220.128906 161.015625 226.703125 161.015625 C 228.363281 161.015625 231.300781 161.089844 235.160156 161.222656 C 248.664062 161.683594 273.441406 162.839844 294.839844 163.882812 C 305.535156 164.402344 315.390625 164.894531 322.570312 165.253906 C 326.160156 165.4375 329.082031 165.582031 331.105469 165.6875 C 332.117188 165.738281 332.90625 165.777344 333.4375 165.804688 C 333.972656 165.835938 334.253906 165.847656 334.253906 165.847656 L 334.339844 164.238281 " fill-opacity="1" fill-rule="nonzero"/><path fill="#3d4d57" d="M 334.339844 183.085938 C 334.335938 183.085938 310.800781 181.878906 285.582031 180.667969 C 272.972656 180.0625 259.941406 179.460938 249.222656 179.007812 C 243.859375 178.78125 239.082031 178.589844 235.214844 178.457031 C 231.347656 178.328125 228.40625 178.25 226.703125 178.25 C 219.882812 178.25 214.285156 179.476562 210.390625 180.707031 C 206.492188 181.933594 204.292969 183.167969 204.25 183.1875 L 205.042969 184.59375 L 204.988281 184.492188 L 205.042969 184.59375 L 204.988281 184.492188 L 205.042969 184.59375 C 205.070312 184.578125 207.199219 183.394531 210.964844 182.214844 C 214.730469 181.035156 220.128906 179.863281 226.703125 179.863281 C 228.363281 179.863281 231.300781 179.9375 235.160156 180.070312 C 248.664062 180.53125 273.441406 181.6875 294.839844 182.730469 C 305.535156 183.25 315.390625 183.742188 322.570312 184.105469 C 326.160156 184.285156 329.082031 184.433594 331.105469 184.535156 C 332.117188 184.589844 332.90625 184.628906 333.4375 184.65625 C 333.972656 184.683594 334.253906 184.695312 334.253906 184.695312 L 334.339844 183.085938 " fill-opacity="1" fill-rule="nonzero"/><path fill="#3d4d57" d="M 334.339844 201.9375 C 334.335938 201.9375 310.800781 200.726562 285.582031 199.515625 C 272.972656 198.910156 259.941406 198.308594 249.222656 197.851562 C 243.859375 197.625 239.082031 197.4375 235.214844 197.304688 C 231.347656 197.171875 228.40625 197.097656 226.703125 197.097656 C 219.882812 197.097656 214.285156 198.324219 210.390625 199.554688 C 206.492188 200.785156 204.292969 202.015625 204.25 202.039062 L 205.042969 203.445312 L 204.984375 203.339844 L 205.042969 203.445312 L 204.984375 203.339844 L 205.042969 203.445312 C 205.070312 203.425781 207.199219 202.242188 210.964844 201.0625 C 214.730469 199.882812 220.128906 198.710938 226.703125 198.710938 C 228.363281 198.710938 231.300781 198.785156 235.160156 198.917969 C 248.664062 199.378906 273.441406 200.535156 294.839844 201.578125 C 305.535156 202.097656 315.390625 202.589844 322.570312 202.953125 C 326.160156 203.132812 329.082031 203.28125 331.105469 203.382812 C 332.117188 203.4375 332.90625 203.476562 333.4375 203.503906 C 333.972656 203.53125 334.253906 203.546875 334.253906 203.546875 L 334.339844 201.9375 " fill-opacity="1" fill-rule="nonzero"/><path fill="#3d4d57" d="M 334.339844 220.785156 C 334.335938 220.785156 310.800781 219.574219 285.582031 218.367188 C 272.972656 217.761719 259.941406 217.15625 249.222656 216.703125 C 243.859375 216.476562 239.082031 216.285156 235.214844 216.152344 C 231.347656 216.019531 228.40625 215.945312 226.703125 215.945312 C 219.882812 215.945312 214.285156 217.171875 210.390625 218.402344 C 206.492188 219.632812 204.292969 220.863281 204.25 220.886719 L 205.042969 222.292969 L 204.988281 222.191406 L 205.042969 222.292969 L 204.988281 222.191406 L 205.042969 222.292969 C 205.070312 222.277344 207.199219 221.089844 210.964844 219.910156 C 214.730469 218.734375 220.128906 217.558594 226.703125 217.558594 C 228.363281 217.558594 231.300781 217.632812 235.160156 217.765625 C 248.664062 218.226562 273.441406 219.386719 294.839844 220.425781 C 305.535156 220.949219 315.390625 221.4375 322.570312 221.800781 C 326.160156 221.980469 329.082031 222.128906 331.105469 222.230469 C 332.117188 222.285156 332.90625 222.324219 333.4375 222.351562 C 333.972656 222.378906 334.253906 222.394531 334.253906 222.394531 L 334.339844 220.785156 " fill-opacity="1" fill-rule="nonzero"/><path fill="#3d4d57" d="M 334.339844 239.632812 C 334.335938 239.632812 310.800781 238.421875 285.582031 237.214844 C 272.972656 236.609375 259.941406 236.003906 249.222656 235.550781 C 243.859375 235.324219 239.082031 235.132812 235.214844 235.003906 C 231.347656 234.871094 228.40625 234.792969 226.703125 234.792969 C 219.882812 234.792969 214.285156 236.019531 210.390625 237.25 C 206.492188 238.480469 204.292969 239.710938 204.25 239.734375 L 205.042969 241.140625 L 204.988281 241.039062 L 205.042969 241.140625 L 204.988281 241.039062 L 205.042969 241.140625 C 205.070312 241.125 207.199219 239.9375 210.964844 238.761719 C 214.730469 237.582031 220.128906 236.40625 226.703125 236.40625 C 228.363281 236.40625 231.300781 236.480469 235.160156 236.613281 C 248.664062 237.074219 273.441406 238.234375 294.839844 239.273438 C 305.535156 239.792969 315.390625 240.285156 322.570312 240.648438 C 326.160156 240.828125 329.082031 240.976562 331.105469 241.082031 C 332.117188 241.132812 332.90625 241.171875 333.4375 241.199219 C 333.972656 241.226562 334.253906 241.242188 334.253906 241.242188 L 334.339844 239.632812 " fill-opacity="1" fill-rule="nonzero"/><path fill="#3d4d57" d="M 334.339844 258.480469 C 334.335938 258.480469 310.800781 257.269531 285.582031 256.0625 C 272.972656 255.457031 259.941406 254.851562 249.222656 254.398438 C 243.859375 254.171875 239.082031 253.984375 235.214844 253.851562 C 231.347656 253.71875 228.40625 253.640625 226.703125 253.640625 C 219.882812 253.640625 214.285156 254.867188 210.390625 256.097656 C 206.492188 257.328125 204.292969 258.558594 204.25 258.582031 L 205.042969 259.988281 L 204.984375 259.886719 L 205.042969 259.988281 L 204.984375 259.886719 L 205.042969 259.988281 C 205.070312 259.972656 207.199219 258.785156 210.964844 257.605469 C 214.730469 256.425781 220.128906 255.253906 226.703125 255.253906 C 228.363281 255.253906 231.300781 255.328125 235.160156 255.460938 C 248.664062 255.925781 273.441406 257.082031 294.839844 258.121094 C 305.535156 258.644531 315.390625 259.132812 322.570312 259.496094 C 326.160156 259.675781 329.082031 259.824219 331.105469 259.925781 C 332.117188 259.980469 332.90625 260.019531 333.4375 260.046875 C 333.972656 260.074219 334.253906 260.089844 334.253906 260.089844 L 334.339844 258.480469 " fill-opacity="1" fill-rule="nonzero"/><path fill="#3d4d57" d="M 251.613281 273.347656 C 245.6875 273.09375 240.367188 272.882812 236.078125 272.730469 C 231.785156 272.578125 228.53125 272.492188 226.703125 272.492188 C 219.882812 272.492188 214.285156 273.71875 210.386719 274.949219 C 206.492188 276.175781 204.289062 277.410156 204.25 277.433594 L 205.042969 278.835938 L 204.984375 278.734375 L 205.042969 278.835938 L 204.984375 278.734375 L 205.042969 278.835938 C 205.070312 278.820312 207.199219 277.636719 210.960938 276.457031 C 214.726562 275.277344 220.125 274.105469 226.703125 274.105469 C 228.484375 274.105469 231.738281 274.1875 236.019531 274.339844 C 240.304688 274.492188 245.621094 274.707031 251.542969 274.960938 L 251.613281 273.347656 " fill-opacity="1" fill-rule="nonzero"/><path fill="#e6431b" d="M 275.859375 239.667969 L 254.070312 232.070312 L 308.597656 75.992188 L 330.386719 83.585938 L 275.859375 239.667969 " fill-opacity="1" fill-rule="nonzero"/><path fill="#f1511b" d="M 269.992188 237.621094 L 259.9375 234.117188 L 314.460938 78.035156 L 324.519531 81.539062 L 269.992188 237.621094 " fill-opacity="1" fill-rule="nonzero"/><path fill="#d3d2d2" d="M 336.527344 66.007812 L 314.734375 58.414062 L 308.59375 75.992188 L 330.382812 83.585938 L 336.527344 66.007812 " fill-opacity="1" fill-rule="nonzero"/><path fill="#ffffff" d="M 335.140625 69.972656 L 336.527344 66.007812 L 335.140625 69.972656 " fill-opacity="1" fill-rule="nonzero"/><path fill="#e8e7e7" d="M 335.140625 69.972656 C 334.933594 68.851562 334.515625 67.851562 333.621094 67.203125 C 332.035156 66.054688 330.140625 65.566406 328.476562 64.546875 C 327.183594 63.757812 325.96875 62.835938 324.761719 61.90625 L 336.527344 66.007812 L 335.140625 69.972656 " fill-opacity="1" fill-rule="nonzero"/><path fill="#d93b5a" d="M 341.203125 52.613281 C 342.761719 48.148438 321.3125 39.578125 319.414062 45.019531 C 317.511719 50.460938 314.734375 58.414062 314.734375 58.414062 L 336.523438 66.007812 C 336.523438 66.007812 339.644531 57.078125 341.203125 52.613281 " fill-opacity="1" fill-rule="nonzero"/><path fill="#ffffff" d="M 341.203125 52.609375 C 341.207031 52.609375 341.207031 52.605469 341.207031 52.597656 C 341.207031 52.605469 341.207031 52.609375 341.203125 52.609375 M 341.210938 52.59375 C 341.210938 52.59375 341.210938 52.59375 341.210938 52.589844 C 341.210938 52.59375 341.210938 52.59375 341.210938 52.59375 M 341.214844 52.585938 C 341.214844 52.582031 341.214844 52.582031 341.214844 52.582031 C 341.214844 52.582031 341.214844 52.582031 341.214844 52.585938 M 341.214844 52.574219 L 341.214844 52.574219 M 341.21875 52.5625 L 341.21875 52.5625 M 341.222656 52.554688 C 341.222656 52.554688 341.222656 52.554688 341.222656 52.550781 C 341.222656 52.554688 341.222656 52.554688 341.222656 52.554688 M 341.226562 52.546875 C 341.226562 52.542969 341.226562 52.542969 341.226562 52.542969 C 341.226562 52.542969 341.226562 52.542969 341.226562 52.546875 M 341.230469 52.535156 C 341.230469 52.535156 341.230469 52.53125 341.230469 52.53125 C 341.230469 52.53125 341.230469 52.535156 341.230469 52.535156 M 341.230469 52.523438 L 341.230469 52.523438 M 341.234375 52.515625 L 341.234375 52.515625 M 341.238281 52.503906 L 341.238281 52.503906 " fill-opacity="1" fill-rule="nonzero"/><path fill="#e86f86" d="M 339.765625 56.726562 C 339.203125 54.65625 339.050781 52.292969 338.835938 51.3125 C 338.648438 50.46875 337.808594 49.234375 337.027344 48.816406 C 332.785156 46.550781 327.148438 47.257812 324.402344 43.324219 C 331.15625 43.910156 342.101562 49.238281 341.238281 52.503906 C 341.238281 52.507812 341.238281 52.507812 341.238281 52.507812 C 341.238281 52.507812 341.234375 52.511719 341.234375 52.515625 C 341.230469 52.519531 341.230469 52.519531 341.230469 52.523438 C 341.230469 52.53125 341.226562 52.53125 341.226562 52.535156 C 341.226562 52.539062 341.226562 52.539062 341.226562 52.542969 C 341.226562 52.542969 341.226562 52.542969 341.226562 52.546875 C 341.226562 52.546875 341.222656 52.550781 341.222656 52.554688 C 341.222656 52.554688 341.222656 52.554688 341.222656 52.558594 C 341.222656 52.558594 341.222656 52.5625 341.21875 52.5625 C 341.21875 52.5625 341.21875 52.566406 341.21875 52.566406 C 341.21875 52.566406 341.21875 52.570312 341.214844 52.570312 C 341.214844 52.574219 341.214844 52.578125 341.214844 52.578125 C 341.214844 52.578125 341.214844 52.582031 341.214844 52.582031 C 341.210938 52.582031 341.210938 52.582031 341.210938 52.585938 C 341.210938 52.589844 341.210938 52.589844 341.210938 52.59375 C 341.210938 52.59375 341.210938 52.59375 341.210938 52.597656 C 341.210938 52.597656 341.207031 52.601562 341.207031 52.601562 C 341.207031 52.605469 341.207031 52.605469 341.203125 52.613281 L 339.765625 56.726562 " fill-opacity="1" fill-rule="nonzero"/><path fill="#c22a4d" d="M 336.527344 66.007812 L 324.761719 61.90625 L 320.933594 60.574219 L 314.734375 58.414062 C 314.734375 58.414062 317.511719 50.457031 319.414062 45.019531 C 319.660156 44.320312 320.226562 43.855469 321.023438 43.578125 C 318.769531 49.554688 323.179688 57.574219 328.996094 60.25 C 331.921875 61.597656 334.84375 62.363281 337.707031 62.621094 C 337.027344 64.5625 336.539062 65.960938 336.527344 66.007812 " fill-opacity="1" fill-rule="nonzero"/><path fill="#bdbcbc" d="M 332.722656 76.886719 L 310.933594 69.292969 L 310.253906 71.246094 L 332.042969 78.84375 L 332.722656 76.886719 " fill-opacity="1" fill-rule="nonzero"/><path fill="#bdbcbc" d="M 334.71875 71.167969 L 312.933594 63.574219 L 312.25 65.527344 L 334.039062 73.121094 L 334.71875 71.167969 " fill-opacity="1" fill-rule="nonzero"/><path fill="#d3d2d2" d="M 330.382812 83.585938 L 332.183594 78.433594 L 332.707031 76.933594 L 330.382812 83.585938 " fill-opacity="1" fill-rule="nonzero"/><path fill="#c84316" d="M 324.519531 81.539062 L 314.460938 78.035156 L 324.519531 81.539062 " fill-opacity="1" fill-rule="nonzero"/><path fill="#b0aeaf" d="M 330.382812 83.585938 L 324.519531 81.539062 L 314.464844 78.035156 L 308.597656 75.992188 L 312.25 65.527344 L 316.261719 66.921875 C 316.042969 68.324219 316.222656 69.824219 316.902344 71.371094 L 310.9375 69.292969 L 310.253906 71.246094 L 318.683594 74.183594 C 321.042969 76.988281 324.132812 78.238281 327.230469 78.238281 C 328.027344 78.238281 328.824219 78.152344 329.609375 77.992188 L 332.042969 78.839844 L 332.1875 78.429688 L 330.382812 83.585938 M 316.855469 64.9375 L 312.9375 63.574219 L 314.738281 58.414062 L 320.933594 60.570312 C 319.105469 61.667969 317.65625 63.175781 316.855469 64.9375 " fill-opacity="1" fill-rule="nonzero"/><path fill="#a1223e" d="M 320.933594 60.570312 L 314.738281 58.410156 L 320.9375 60.570312 C 320.9375 60.570312 320.9375 60.570312 320.933594 60.570312 " fill-opacity="1" fill-rule="nonzero"/><path fill="#9e9c9c" d="M 332.039062 78.84375 L 329.609375 77.996094 C 330.675781 77.777344 331.71875 77.421875 332.707031 76.933594 L 332.183594 78.433594 L 332.039062 78.84375 M 318.683594 74.1875 L 310.253906 71.246094 L 310.933594 69.296875 L 316.898438 71.375 C 317.253906 72.179688 317.742188 72.992188 318.378906 73.8125 C 318.476562 73.941406 318.582031 74.066406 318.683594 74.1875 " fill-opacity="1" fill-rule="nonzero"/><path fill="#9e9c9c" d="M 316.257812 66.925781 L 312.25 65.527344 L 312.933594 63.574219 L 316.855469 64.941406 C 316.570312 65.570312 316.367188 66.234375 316.257812 66.925781 " fill-opacity="1" fill-rule="nonzero"/><path fill="#f89f70" d="M 251.578125 274.1875 L 275.863281 239.664062 L 254.070312 232.070312 Z M 251.578125 274.1875 " fill-opacity="1" fill-rule="nonzero"/><path fill="#181117" d="M 252.109375 265.195312 L 251.578125 274.1875 L 256.765625 266.816406 Z M 252.109375 265.195312 " fill-opacity="1" fill-rule="nonzero"/></svg>