<svg xmlns="http://www.w3.org/2000/svg" xmlns:xlink="http://www.w3.org/1999/xlink" width="512" zoomAndPan="magnify" viewBox="0 0 384 383.999986" height="512" preserveAspectRatio="xMidYMid meet" version="1.0"><defs><clipPath id="d3e3f8468d"><path d="M 27 26.886719 L 356.886719 26.886719 L 356.886719 355 L 27 355 Z M 27 26.886719 " clip-rule="nonzero"/></clipPath></defs><g clip-path="url(#d3e3f8468d)"><path fill="#ef5350" d="M 191.597656 26.515625 C 190.707031 26.527344 189.816406 26.585938 188.929688 26.683594 C 188.039062 26.785156 187.160156 26.929688 186.285156 27.117188 C 185.414062 27.304688 184.550781 27.53125 183.699219 27.804688 C 182.847656 28.078125 182.011719 28.390625 181.191406 28.742188 C 180.371094 29.097656 179.570312 29.488281 178.789062 29.921875 C 178.007812 30.355469 177.25 30.824219 176.511719 31.332031 C 175.777344 31.835938 175.070312 32.378906 174.386719 32.957031 C 173.703125 33.53125 173.050781 34.140625 172.429688 34.78125 C 171.804688 35.421875 171.214844 36.089844 170.660156 36.789062 C 170.101562 37.488281 169.582031 38.210938 169.09375 38.960938 C 168.609375 39.710938 168.160156 40.484375 167.75 41.277344 C 167.339844 42.070312 166.96875 42.882812 166.640625 43.714844 C 166.308594 44.542969 166.019531 45.386719 165.773438 46.246094 C 165.527344 47.105469 165.320312 47.972656 165.160156 48.851562 C 164.996094 49.730469 164.878906 50.613281 164.804688 51.503906 C 164.726562 52.394531 164.695312 53.285156 164.707031 54.179688 L 164.707031 163.34375 L 55.542969 163.34375 C 54.640625 163.332031 53.742188 163.363281 52.84375 163.4375 C 51.945312 163.515625 51.050781 163.636719 50.164062 163.800781 C 49.277344 163.964844 48.402344 164.175781 47.535156 164.425781 C 46.667969 164.679688 45.816406 164.972656 44.980469 165.308594 C 44.144531 165.644531 43.324219 166.023438 42.527344 166.441406 C 41.726562 166.855469 40.949219 167.3125 40.195312 167.808594 C 39.441406 168.300781 38.714844 168.832031 38.011719 169.398438 C 37.308594 169.964844 36.636719 170.566406 35.996094 171.199219 C 35.351562 171.832031 34.742188 172.496094 34.167969 173.191406 C 33.589844 173.882812 33.050781 174.605469 32.542969 175.351562 C 32.039062 176.097656 31.574219 176.867188 31.144531 177.664062 C 30.714844 178.457031 30.328125 179.269531 29.980469 180.101562 C 29.628906 180.933594 29.324219 181.78125 29.058594 182.640625 C 28.796875 183.503906 28.574219 184.378906 28.398438 185.261719 C 28.21875 186.148438 28.085938 187.039062 27.996094 187.933594 C 27.910156 188.832031 27.863281 189.734375 27.863281 190.632812 C 27.863281 191.535156 27.910156 192.4375 27.996094 193.332031 C 28.085938 194.230469 28.21875 195.121094 28.398438 196.007812 C 28.574219 196.890625 28.796875 197.765625 29.058594 198.625 C 29.324219 199.488281 29.628906 200.335938 29.980469 201.167969 C 30.328125 202 30.714844 202.8125 31.144531 203.605469 C 31.574219 204.402344 32.039062 205.171875 32.542969 205.917969 C 33.050781 206.664062 33.589844 207.386719 34.167969 208.078125 C 34.742188 208.773438 35.351562 209.4375 35.996094 210.070312 C 36.636719 210.703125 37.308594 211.304688 38.011719 211.871094 C 38.714844 212.4375 39.441406 212.96875 40.195312 213.460938 C 40.949219 213.957031 41.726562 214.414062 42.527344 214.828125 C 43.324219 215.246094 44.144531 215.625 44.980469 215.960938 C 45.816406 216.296875 46.667969 216.589844 47.535156 216.84375 C 48.402344 217.09375 49.277344 217.304688 50.164062 217.46875 C 51.050781 217.632812 51.945312 217.753906 52.84375 217.832031 C 53.742188 217.90625 54.640625 217.9375 55.542969 217.925781 L 164.707031 217.925781 L 164.707031 327.089844 C 164.695312 327.992188 164.726562 328.890625 164.804688 329.792969 C 164.878906 330.691406 165 331.582031 165.167969 332.46875 C 165.332031 333.355469 165.539062 334.234375 165.792969 335.097656 C 166.042969 335.964844 166.335938 336.816406 166.671875 337.652344 C 167.011719 338.488281 167.386719 339.308594 167.804688 340.109375 C 168.222656 340.90625 168.679688 341.683594 169.171875 342.4375 C 169.667969 343.191406 170.195312 343.921875 170.765625 344.621094 C 171.332031 345.324219 171.929688 345.996094 172.5625 346.640625 C 173.195312 347.28125 173.859375 347.890625 174.554688 348.46875 C 175.246094 349.042969 175.96875 349.585938 176.714844 350.089844 C 177.460938 350.59375 178.234375 351.0625 179.027344 351.488281 C 179.820312 351.917969 180.632812 352.308594 181.464844 352.65625 C 182.296875 353.003906 183.144531 353.308594 184.007812 353.574219 C 184.871094 353.835938 185.742188 354.058594 186.628906 354.234375 C 187.511719 354.414062 188.402344 354.546875 189.300781 354.636719 C 190.199219 354.726562 191.097656 354.769531 192 354.769531 C 192.902344 354.769531 193.800781 354.726562 194.699219 354.636719 C 195.597656 354.546875 196.488281 354.414062 197.371094 354.234375 C 198.253906 354.058594 199.128906 353.835938 199.992188 353.574219 C 200.855469 353.308594 201.699219 353.003906 202.535156 352.65625 C 203.367188 352.308594 204.179688 351.917969 204.972656 351.488281 C 205.765625 351.0625 206.535156 350.59375 207.28125 350.089844 C 208.03125 349.585938 208.75 349.042969 209.445312 348.46875 C 210.136719 347.890625 210.800781 347.28125 211.433594 346.640625 C 212.066406 345.996094 212.667969 345.324219 213.234375 344.621094 C 213.800781 343.921875 214.332031 343.191406 214.828125 342.4375 C 215.320312 341.683594 215.777344 340.90625 216.195312 340.109375 C 216.613281 339.308594 216.988281 338.488281 217.324219 337.652344 C 217.660156 336.816406 217.957031 335.964844 218.207031 335.097656 C 218.460938 334.234375 218.667969 333.355469 218.832031 332.46875 C 218.996094 331.582031 219.117188 330.691406 219.195312 329.792969 C 219.269531 328.890625 219.304688 327.992188 219.289062 327.089844 L 219.289062 217.925781 L 328.453125 217.925781 C 329.355469 217.9375 330.257812 217.90625 331.15625 217.832031 C 332.054688 217.753906 332.945312 217.632812 333.832031 217.46875 C 334.722656 217.304688 335.597656 217.09375 336.464844 216.84375 C 337.328125 216.589844 338.179688 216.296875 339.019531 215.960938 C 339.855469 215.625 340.671875 215.246094 341.472656 214.828125 C 342.273438 214.414062 343.050781 213.957031 343.804688 213.460938 C 344.558594 212.96875 345.285156 212.4375 345.988281 211.871094 C 346.6875 211.304688 347.359375 210.703125 348.003906 210.070312 C 348.644531 209.4375 349.253906 208.773438 349.832031 208.078125 C 350.40625 207.386719 350.949219 206.664062 351.453125 205.917969 C 351.960938 205.171875 352.425781 204.402344 352.855469 203.605469 C 353.285156 202.8125 353.671875 202 354.019531 201.167969 C 354.367188 200.335938 354.675781 199.488281 354.9375 198.625 C 355.203125 197.765625 355.421875 196.890625 355.601562 196.007812 C 355.777344 195.121094 355.910156 194.230469 356 193.332031 C 356.089844 192.4375 356.132812 191.535156 356.132812 190.632812 C 356.132812 189.734375 356.089844 188.832031 356 187.933594 C 355.910156 187.039062 355.777344 186.148438 355.601562 185.261719 C 355.421875 184.378906 355.203125 183.503906 354.9375 182.640625 C 354.675781 181.78125 354.367188 180.933594 354.019531 180.101562 C 353.671875 179.269531 353.285156 178.457031 352.855469 177.664062 C 352.425781 176.867188 351.960938 176.097656 351.453125 175.351562 C 350.949219 174.605469 350.40625 173.882812 349.832031 173.191406 C 349.253906 172.496094 348.644531 171.832031 348.003906 171.199219 C 347.359375 170.566406 346.6875 169.964844 345.988281 169.398438 C 345.285156 168.832031 344.558594 168.300781 343.804688 167.808594 C 343.050781 167.3125 342.273438 166.855469 341.472656 166.441406 C 340.671875 166.023438 339.855469 165.644531 339.019531 165.308594 C 338.179688 164.972656 337.328125 164.679688 336.464844 164.425781 C 335.597656 164.175781 334.722656 163.964844 333.832031 163.800781 C 332.945312 163.636719 332.054688 163.515625 331.15625 163.4375 C 330.257812 163.363281 329.355469 163.332031 328.453125 163.34375 L 219.289062 163.34375 L 219.289062 54.179688 C 219.304688 53.269531 219.269531 52.359375 219.191406 51.453125 C 219.113281 50.546875 218.988281 49.648438 218.820312 48.753906 C 218.652344 47.859375 218.441406 46.976562 218.183594 46.101562 C 217.925781 45.230469 217.625 44.371094 217.285156 43.527344 C 216.941406 42.683594 216.558594 41.859375 216.132812 41.054688 C 215.707031 40.25 215.242188 39.46875 214.738281 38.710938 C 214.234375 37.953125 213.695312 37.222656 213.121094 36.519531 C 212.542969 35.8125 211.933594 35.140625 211.289062 34.496094 C 210.644531 33.855469 209.972656 33.246094 209.265625 32.667969 C 208.5625 32.09375 207.832031 31.554688 207.070312 31.050781 C 206.3125 30.546875 205.53125 30.085938 204.726562 29.660156 C 203.921875 29.234375 203.097656 28.851562 202.253906 28.511719 C 201.410156 28.167969 200.550781 27.871094 199.679688 27.613281 C 198.804688 27.359375 197.921875 27.148438 197.027344 26.980469 C 196.132812 26.8125 195.230469 26.6875 194.324219 26.609375 C 193.417969 26.535156 192.507812 26.5 191.597656 26.515625 Z M 191.597656 26.515625 " fill-opacity="1" fill-rule="nonzero"/></g></svg>