<svg xmlns="http://www.w3.org/2000/svg" xmlns:xlink="http://www.w3.org/1999/xlink" width="512" zoomAndPan="magnify" viewBox="0 0 384 383.999986" height="512" preserveAspectRatio="xMidYMid meet" version="1.0"><defs><clipPath id="aba6edc6ae"><path d="M 64.648438 26.875 L 319.648438 26.875 L 319.648438 356.875 L 64.648438 356.875 Z M 64.648438 26.875 " clip-rule="nonzero"/></clipPath><clipPath id="55d1fea0e4"><path d="M 64.648438 27 L 319.648438 27 L 319.648438 356.875 L 64.648438 356.875 Z M 64.648438 27 " clip-rule="nonzero"/></clipPath></defs><g clip-path="url(#aba6edc6ae)"><path fill="#f4f6f8" d="M 86.824219 26.875 L 297.503906 26.875 C 298.230469 26.875 298.953125 26.910156 299.671875 26.980469 C 300.394531 27.050781 301.109375 27.15625 301.820312 27.300781 C 302.527344 27.441406 303.230469 27.617188 303.921875 27.824219 C 304.617188 28.035156 305.296875 28.277344 305.964844 28.554688 C 306.636719 28.832031 307.289062 29.140625 307.929688 29.480469 C 308.566406 29.820312 309.1875 30.191406 309.789062 30.59375 C 310.390625 30.996094 310.972656 31.425781 311.53125 31.882812 C 312.09375 32.34375 312.628906 32.828125 313.140625 33.339844 C 313.652344 33.851562 314.136719 34.386719 314.597656 34.945312 C 315.058594 35.503906 315.488281 36.082031 315.890625 36.683594 C 316.292969 37.285156 316.664062 37.902344 317.003906 38.539062 C 317.347656 39.179688 317.65625 39.832031 317.933594 40.5 C 318.210938 41.167969 318.453125 41.847656 318.664062 42.539062 C 318.875 43.230469 319.050781 43.929688 319.191406 44.636719 C 319.332031 45.347656 319.4375 46.0625 319.511719 46.78125 C 319.582031 47.5 319.617188 48.222656 319.617188 48.945312 L 319.617188 334.804688 C 319.617188 335.527344 319.582031 336.25 319.511719 336.96875 C 319.4375 337.6875 319.332031 338.402344 319.191406 339.113281 C 319.050781 339.820312 318.875 340.519531 318.664062 341.210938 C 318.453125 341.902344 318.210938 342.582031 317.933594 343.25 C 317.65625 343.917969 317.347656 344.570312 317.003906 345.210938 C 316.664062 345.847656 316.292969 346.464844 315.890625 347.066406 C 315.488281 347.667969 315.058594 348.246094 314.597656 348.808594 C 314.136719 349.367188 313.652344 349.898438 313.140625 350.410156 C 312.628906 350.921875 312.09375 351.40625 311.53125 351.867188 C 310.972656 352.324219 310.390625 352.753906 309.789062 353.15625 C 309.1875 353.558594 308.566406 353.929688 307.929688 354.269531 C 307.289062 354.609375 306.636719 354.917969 305.964844 355.195312 C 305.296875 355.472656 304.617188 355.714844 303.921875 355.925781 C 303.230469 356.132812 302.527344 356.308594 301.820312 356.449219 C 301.109375 356.59375 300.394531 356.699219 299.671875 356.769531 C 298.953125 356.839844 298.230469 356.875 297.503906 356.875 L 86.824219 356.875 C 86.101562 356.875 85.378906 356.839844 84.65625 356.769531 C 83.9375 356.699219 83.222656 356.59375 82.511719 356.449219 C 81.800781 356.308594 81.097656 356.132812 80.40625 355.925781 C 79.710938 355.714844 79.03125 355.472656 78.363281 355.195312 C 77.695312 354.917969 77.039062 354.609375 76.402344 354.269531 C 75.761719 353.929688 75.140625 353.558594 74.539062 353.15625 C 73.9375 352.753906 73.355469 352.324219 72.796875 351.867188 C 72.238281 351.40625 71.703125 350.921875 71.1875 350.410156 C 70.675781 349.898438 70.191406 349.367188 69.730469 348.808594 C 69.273438 348.246094 68.839844 347.667969 68.4375 347.066406 C 68.035156 346.464844 67.664062 345.847656 67.324219 345.210938 C 66.980469 344.570312 66.671875 343.917969 66.394531 343.25 C 66.117188 342.582031 65.875 341.902344 65.664062 341.210938 C 65.453125 340.519531 65.277344 339.820312 65.136719 339.113281 C 64.996094 338.402344 64.890625 337.6875 64.820312 336.96875 C 64.75 336.25 64.710938 335.527344 64.710938 334.804688 L 64.710938 48.945312 C 64.710938 48.222656 64.75 47.5 64.820312 46.78125 C 64.890625 46.0625 64.996094 45.347656 65.136719 44.636719 C 65.277344 43.929688 65.453125 43.230469 65.664062 42.539062 C 65.875 41.847656 66.117188 41.167969 66.394531 40.5 C 66.671875 39.832031 66.980469 39.179688 67.324219 38.539062 C 67.664062 37.902344 68.035156 37.285156 68.4375 36.683594 C 68.839844 36.082031 69.273438 35.503906 69.730469 34.945312 C 70.191406 34.386719 70.675781 33.851562 71.1875 33.339844 C 71.703125 32.828125 72.238281 32.34375 72.796875 31.882812 C 73.355469 31.425781 73.9375 30.996094 74.539062 30.59375 C 75.140625 30.191406 75.761719 29.820312 76.402344 29.480469 C 77.039062 29.140625 77.695312 28.832031 78.363281 28.554688 C 79.03125 28.277344 79.710938 28.035156 80.40625 27.824219 C 81.097656 27.617188 81.800781 27.441406 82.511719 27.300781 C 83.222656 27.15625 83.9375 27.050781 84.65625 26.980469 C 85.378906 26.910156 86.101562 26.875 86.824219 26.875 Z M 86.824219 26.875 " fill-opacity="1" fill-rule="nonzero"/></g><g clip-path="url(#55d1fea0e4)"><path fill="#e4e8eb" d="M 319.582031 48.945312 L 319.582031 334.804688 C 319.582031 335.527344 319.546875 336.25 319.476562 336.96875 C 319.40625 337.6875 319.296875 338.402344 319.15625 339.113281 C 319.015625 339.820312 318.839844 340.519531 318.628906 341.210938 C 318.417969 341.902344 318.175781 342.582031 317.898438 343.25 C 317.621094 343.917969 317.3125 344.570312 316.972656 345.210938 C 316.628906 345.847656 316.257812 346.464844 315.855469 347.066406 C 315.453125 347.667969 315.023438 348.246094 314.5625 348.808594 C 314.105469 349.367188 313.617188 349.898438 313.105469 350.410156 C 312.59375 350.921875 312.058594 351.40625 311.496094 351.867188 C 310.9375 352.324219 310.355469 352.753906 309.753906 353.15625 C 309.152344 353.558594 308.53125 353.929688 307.894531 354.269531 C 307.253906 354.609375 306.601562 354.917969 305.933594 355.195312 C 305.261719 355.472656 304.582031 355.714844 303.890625 355.925781 C 303.195312 356.132812 302.496094 356.308594 301.785156 356.449219 C 301.074219 356.59375 300.359375 356.699219 299.636719 356.769531 C 298.917969 356.839844 298.195312 356.875 297.46875 356.875 L 86.824219 356.875 C 85.511719 356.875 84.207031 356.761719 82.910156 356.53125 C 81.617188 356.296875 80.355469 355.953125 79.121094 355.496094 C 77.890625 355.039062 76.707031 354.476562 75.578125 353.808594 C 74.445312 353.140625 73.382812 352.378906 72.386719 351.519531 C 71.394531 350.660156 70.484375 349.722656 69.65625 348.703125 C 68.832031 347.679688 68.101562 346.59375 67.46875 345.445312 C 66.839844 344.292969 66.3125 343.097656 65.898438 341.851562 C 65.480469 340.609375 65.175781 339.335938 64.988281 338.039062 C 66.058594 338.234375 67.136719 338.324219 68.226562 338.3125 L 132.117188 338.3125 C 134.878906 338.3125 137.636719 338.246094 140.394531 338.109375 C 143.15625 337.972656 145.910156 337.773438 148.65625 337.5 C 151.40625 337.230469 154.144531 336.894531 156.878906 336.488281 C 159.609375 336.085938 162.332031 335.613281 165.039062 335.074219 C 167.75 334.539062 170.441406 333.933594 173.121094 333.265625 C 175.800781 332.59375 178.460938 331.859375 181.105469 331.058594 C 183.75 330.257812 186.371094 329.394531 188.96875 328.464844 C 191.570312 327.539062 194.148438 326.546875 196.699219 325.492188 C 199.25 324.4375 201.773438 323.320312 204.273438 322.140625 C 206.769531 320.960938 209.234375 319.722656 211.671875 318.421875 C 214.105469 317.125 216.507812 315.765625 218.878906 314.347656 C 221.246094 312.929688 223.578125 311.457031 225.875 309.925781 C 228.171875 308.394531 230.429688 306.808594 232.648438 305.164062 C 234.867188 303.523438 237.042969 301.828125 239.179688 300.078125 C 241.3125 298.332031 243.40625 296.53125 245.449219 294.679688 C 247.496094 292.828125 249.496094 290.925781 251.449219 288.976562 C 253.402344 287.027344 255.308594 285.035156 257.160156 282.992188 C 259.015625 280.949219 260.820312 278.863281 262.574219 276.730469 C 264.324219 274.601562 266.023438 272.425781 267.667969 270.214844 C 269.3125 268 270.902344 265.746094 272.4375 263.453125 C 273.972656 261.160156 275.449219 258.832031 276.871094 256.46875 C 278.289062 254.105469 279.652344 251.707031 280.953125 249.277344 C 282.253906 246.84375 283.496094 244.382812 284.675781 241.890625 C 285.859375 239.398438 286.976562 236.878906 288.035156 234.332031 C 289.089844 231.785156 290.085938 229.214844 291.015625 226.621094 C 291.945312 224.023438 292.8125 221.40625 293.613281 218.769531 C 294.414062 216.132812 295.152344 213.476562 295.824219 210.800781 C 296.492188 208.128906 297.097656 205.4375 297.636719 202.734375 C 298.175781 200.03125 298.648438 197.316406 299.054688 194.589844 C 299.457031 191.863281 299.796875 189.128906 300.066406 186.386719 C 300.339844 183.640625 300.542969 180.894531 300.675781 178.140625 C 300.8125 175.386719 300.878906 172.632812 300.878906 169.875 L 300.878906 30.3125 C 300.894531 29.226562 300.800781 28.148438 300.605469 27.082031 C 301.914062 27.261719 303.195312 27.558594 304.453125 27.972656 C 305.707031 28.382812 306.914062 28.90625 308.078125 29.535156 C 309.238281 30.164062 310.335938 30.894531 311.363281 31.71875 C 312.394531 32.546875 313.34375 33.457031 314.207031 34.453125 C 315.074219 35.453125 315.84375 36.519531 316.515625 37.652344 C 317.1875 38.789062 317.753906 39.976562 318.214844 41.210938 C 318.671875 42.449219 319.015625 43.71875 319.246094 45.015625 C 319.476562 46.316406 319.589844 47.625 319.582031 48.945312 Z M 319.582031 48.945312 " fill-opacity="1" fill-rule="nonzero"/></g><path fill="#b4df80" d="M 99.738281 193.730469 L 157.671875 193.730469 L 157.671875 251.550781 L 99.738281 251.550781 Z M 99.738281 193.730469 " fill-opacity="1" fill-rule="nonzero"/><path fill="#f76c82" d="M 248.667969 53.207031 L 248.667969 141.035156 C 248.667969 151.175781 238.332031 159.355469 225.660156 159.355469 C 212.984375 159.355469 202.480469 151.175781 202.480469 141.035156 C 202.480469 130.894531 212.8125 122.710938 225.554688 122.710938 C 228.824219 122.699219 231.992188 123.25 235.0625 124.363281 L 235.0625 80.535156 L 181.816406 90.539062 L 181.816406 154.714844 C 181.816406 164.820312 171.480469 173.039062 158.808594 173.039062 C 146.132812 173.039062 135.730469 164.820312 135.730469 154.714844 C 135.730469 144.609375 146.0625 136.359375 158.808594 136.359375 C 162.070312 136.367188 165.238281 136.917969 168.3125 138.007812 L 168.3125 68.125 Z M 248.667969 53.207031 " fill-opacity="1" fill-rule="nonzero"/><path fill="#434a54" d="M 284.554688 207.445312 L 180.644531 207.445312 C 180.1875 207.445312 179.746094 207.359375 179.324219 207.183594 C 178.902344 207.011719 178.53125 206.761719 178.207031 206.441406 C 177.886719 206.117188 177.636719 205.746094 177.460938 205.324219 C 177.285156 204.902344 177.199219 204.464844 177.199219 204.007812 C 177.199219 203.554688 177.285156 203.113281 177.460938 202.695312 C 177.636719 202.273438 177.886719 201.902344 178.207031 201.578125 C 178.53125 201.257812 178.902344 201.007812 179.324219 200.832031 C 179.746094 200.660156 180.1875 200.570312 180.644531 200.570312 L 284.554688 200.570312 C 285.011719 200.570312 285.449219 200.660156 285.871094 200.832031 C 286.292969 201.007812 286.667969 201.257812 286.988281 201.578125 C 287.3125 201.902344 287.5625 202.273438 287.738281 202.695312 C 287.910156 203.113281 288 203.554688 288 204.007812 C 288 204.464844 287.910156 204.902344 287.738281 205.324219 C 287.5625 205.746094 287.3125 206.117188 286.988281 206.441406 C 286.667969 206.761719 286.292969 207.011719 285.871094 207.183594 C 285.449219 207.359375 285.011719 207.445312 284.554688 207.445312 Z M 284.554688 207.445312 " fill-opacity="1" fill-rule="nonzero"/><path fill="#434a54" d="M 281.902344 227.625 L 180.644531 227.625 C 180.1875 227.625 179.746094 227.539062 179.324219 227.363281 C 178.902344 227.1875 178.53125 226.941406 178.207031 226.617188 C 177.886719 226.296875 177.636719 225.925781 177.460938 225.503906 C 177.285156 225.082031 177.199219 224.644531 177.199219 224.1875 C 177.199219 223.730469 177.285156 223.292969 177.460938 222.871094 C 177.636719 222.449219 177.886719 222.078125 178.207031 221.757812 C 178.53125 221.433594 178.902344 221.1875 179.324219 221.011719 C 179.746094 220.835938 180.1875 220.75 180.644531 220.75 L 281.902344 220.75 C 282.359375 220.75 282.796875 220.835938 283.222656 221.011719 C 283.644531 221.1875 284.015625 221.433594 284.339844 221.757812 C 284.660156 222.078125 284.910156 222.449219 285.085938 222.871094 C 285.257812 223.292969 285.347656 223.730469 285.347656 224.1875 C 285.347656 224.644531 285.257812 225.082031 285.085938 225.503906 C 284.910156 225.925781 284.660156 226.296875 284.339844 226.617188 C 284.015625 226.941406 283.644531 227.1875 283.222656 227.363281 C 282.796875 227.539062 282.359375 227.625 281.902344 227.625 Z M 281.902344 227.625 " fill-opacity="1" fill-rule="nonzero"/><path fill="#434a54" d="M 234.304688 247.769531 L 180.644531 247.769531 C 180.1875 247.769531 179.746094 247.683594 179.324219 247.507812 C 178.902344 247.332031 178.53125 247.085938 178.207031 246.761719 C 177.886719 246.441406 177.636719 246.066406 177.460938 245.648438 C 177.285156 245.226562 177.199219 244.789062 177.199219 244.332031 C 177.199219 243.875 177.285156 243.4375 177.460938 243.015625 C 177.636719 242.59375 177.886719 242.222656 178.207031 241.902344 C 178.53125 241.578125 178.902344 241.328125 179.324219 241.15625 C 179.746094 240.980469 180.1875 240.894531 180.644531 240.894531 L 234.304688 240.894531 C 234.761719 240.894531 235.199219 240.980469 235.621094 241.15625 C 236.042969 241.328125 236.417969 241.578125 236.738281 241.902344 C 237.0625 242.222656 237.3125 242.59375 237.484375 243.015625 C 237.660156 243.4375 237.75 243.875 237.75 244.332031 C 237.75 244.789062 237.660156 245.226562 237.484375 245.648438 C 237.3125 246.066406 237.0625 246.441406 236.738281 246.761719 C 236.417969 247.085938 236.042969 247.332031 235.621094 247.507812 C 235.199219 247.683594 234.761719 247.769531 234.304688 247.769531 Z M 234.304688 247.769531 " fill-opacity="1" fill-rule="nonzero"/><path fill="#ffffff" d="M 124.261719 237.867188 C 123.308594 237.875 122.496094 237.542969 121.816406 236.871094 L 112.585938 227.625 C 112.265625 227.304688 112.019531 226.933594 111.84375 226.511719 C 111.671875 226.09375 111.585938 225.65625 111.585938 225.203125 C 111.585938 224.746094 111.671875 224.3125 111.84375 223.890625 C 112.019531 223.472656 112.265625 223.101562 112.585938 222.777344 C 112.910156 222.457031 113.28125 222.210938 113.703125 222.039062 C 114.121094 221.863281 114.558594 221.777344 115.015625 221.777344 C 115.46875 221.777344 115.90625 221.867188 116.328125 222.039062 C 116.75 222.210938 117.121094 222.457031 117.441406 222.777344 L 124.332031 229.652344 L 142.136719 211.847656 C 142.460938 211.527344 142.832031 211.28125 143.253906 211.105469 C 143.671875 210.933594 144.109375 210.847656 144.566406 210.847656 C 145.019531 210.847656 145.457031 210.933594 145.878906 211.105469 C 146.300781 211.28125 146.671875 211.527344 146.996094 211.847656 C 147.320312 212.167969 147.570312 212.542969 147.75 212.964844 C 147.925781 213.390625 148.011719 213.828125 148.011719 214.289062 C 148.011719 214.746094 147.925781 215.1875 147.75 215.609375 C 147.570312 216.03125 147.320312 216.40625 146.996094 216.726562 L 126.707031 236.871094 C 126.03125 237.542969 125.214844 237.875 124.261719 237.867188 Z M 124.261719 237.867188 " fill-opacity="1" fill-rule="nonzero"/><path fill="#fbd277" d="M 99.738281 272.828125 L 157.671875 272.828125 L 157.671875 330.648438 L 99.738281 330.648438 Z M 99.738281 272.828125 " fill-opacity="1" fill-rule="nonzero"/><path fill="#434a54" d="M 284.554688 286.542969 L 180.644531 286.542969 C 180.1875 286.542969 179.746094 286.457031 179.324219 286.28125 C 178.902344 286.109375 178.53125 285.859375 178.207031 285.535156 C 177.886719 285.214844 177.636719 284.84375 177.460938 284.421875 C 177.285156 284 177.199219 283.5625 177.199219 283.105469 C 177.199219 282.652344 177.285156 282.210938 177.460938 281.789062 C 177.636719 281.371094 177.886719 280.996094 178.207031 280.675781 C 178.53125 280.351562 178.902344 280.105469 179.324219 279.929688 C 179.746094 279.757812 180.1875 279.667969 180.644531 279.667969 L 284.554688 279.667969 C 285.011719 279.667969 285.449219 279.757812 285.871094 279.929688 C 286.292969 280.105469 286.667969 280.351562 286.988281 280.675781 C 287.3125 280.996094 287.5625 281.371094 287.738281 281.789062 C 287.910156 282.210938 288 282.652344 288 283.105469 C 288 283.5625 287.910156 284 287.738281 284.421875 C 287.5625 284.84375 287.3125 285.214844 286.988281 285.535156 C 286.667969 285.859375 286.292969 286.109375 285.871094 286.28125 C 285.449219 286.457031 285.011719 286.542969 284.554688 286.542969 Z M 284.554688 286.542969 " fill-opacity="1" fill-rule="nonzero"/><path fill="#434a54" d="M 281.902344 306.722656 L 180.644531 306.722656 C 180.1875 306.722656 179.746094 306.636719 179.324219 306.460938 C 178.902344 306.285156 178.53125 306.039062 178.207031 305.714844 C 177.886719 305.394531 177.636719 305.019531 177.460938 304.601562 C 177.285156 304.179688 177.199219 303.742188 177.199219 303.285156 C 177.199219 302.828125 177.285156 302.390625 177.460938 301.96875 C 177.636719 301.546875 177.886719 301.175781 178.207031 300.855469 C 178.53125 300.53125 178.902344 300.28125 179.324219 300.109375 C 179.746094 299.933594 180.1875 299.847656 180.644531 299.847656 L 281.902344 299.847656 C 282.359375 299.847656 282.796875 299.933594 283.222656 300.109375 C 283.644531 300.28125 284.015625 300.53125 284.339844 300.855469 C 284.660156 301.175781 284.910156 301.546875 285.085938 301.96875 C 285.257812 302.390625 285.347656 302.828125 285.347656 303.285156 C 285.347656 303.742188 285.257812 304.179688 285.085938 304.601562 C 284.910156 305.019531 284.660156 305.394531 284.339844 305.714844 C 284.015625 306.039062 283.644531 306.285156 283.222656 306.460938 C 282.796875 306.636719 282.359375 306.722656 281.902344 306.722656 Z M 281.902344 306.722656 " fill-opacity="1" fill-rule="nonzero"/><path fill="#434a54" d="M 234.304688 326.867188 L 180.644531 326.867188 C 180.1875 326.867188 179.746094 326.777344 179.324219 326.605469 C 178.902344 326.429688 178.53125 326.179688 178.207031 325.859375 C 177.886719 325.535156 177.636719 325.164062 177.460938 324.742188 C 177.285156 324.324219 177.199219 323.882812 177.199219 323.429688 C 177.199219 322.972656 177.285156 322.535156 177.460938 322.113281 C 177.636719 321.691406 177.886719 321.320312 178.207031 320.996094 C 178.53125 320.675781 178.902344 320.425781 179.324219 320.253906 C 179.746094 320.078125 180.1875 319.992188 180.644531 319.992188 L 234.304688 319.992188 C 234.761719 319.992188 235.199219 320.078125 235.621094 320.253906 C 236.042969 320.425781 236.417969 320.675781 236.738281 320.996094 C 237.0625 321.320312 237.3125 321.691406 237.484375 322.113281 C 237.660156 322.535156 237.75 322.972656 237.75 323.429688 C 237.75 323.882812 237.660156 324.324219 237.484375 324.742188 C 237.3125 325.164062 237.0625 325.535156 236.738281 325.859375 C 236.417969 326.179688 236.042969 326.429688 235.621094 326.605469 C 235.199219 326.777344 234.761719 326.867188 234.304688 326.867188 Z M 234.304688 326.867188 " fill-opacity="1" fill-rule="nonzero"/><path fill="#ffffff" d="M 124.261719 316.964844 C 123.308594 316.972656 122.496094 316.640625 121.816406 315.96875 L 112.585938 306.757812 C 112.261719 306.433594 112.011719 306.0625 111.835938 305.644531 C 111.660156 305.222656 111.570312 304.785156 111.570312 304.328125 C 111.566406 303.871094 111.652344 303.433594 111.828125 303.011719 C 112 302.589844 112.246094 302.214844 112.570312 301.890625 C 112.890625 301.570312 113.261719 301.320312 113.683594 301.144531 C 114.105469 300.964844 114.546875 300.878906 115.003906 300.875 C 115.460938 300.875 115.898438 300.960938 116.324219 301.132812 C 116.746094 301.304688 117.117188 301.554688 117.441406 301.875 L 124.332031 308.75 L 142.136719 290.945312 C 142.460938 290.625 142.832031 290.378906 143.253906 290.203125 C 143.671875 290.03125 144.109375 289.945312 144.566406 289.945312 C 145.019531 289.945312 145.457031 290.03125 145.878906 290.203125 C 146.300781 290.378906 146.671875 290.625 146.996094 290.945312 C 147.320312 291.265625 147.570312 291.640625 147.75 292.0625 C 147.925781 292.484375 148.011719 292.925781 148.011719 293.382812 C 148.011719 293.84375 147.925781 294.285156 147.75 294.707031 C 147.570312 295.128906 147.320312 295.503906 146.996094 295.824219 L 126.707031 315.96875 C 126.03125 316.640625 125.214844 316.972656 124.261719 316.964844 Z M 124.261719 316.964844 " fill-opacity="1" fill-rule="nonzero"/></svg>