<svg width="32" height="32" viewBox="0 0 32 32" fill="none" xmlns="http://www.w3.org/2000/svg">
<path d="M30.8572 11.4286C30.8572 10.8223 30.6163 10.241 30.1877 9.8123C29.7591 9.38366 29.1776 9.14284 28.5715 9.14284H24L20.5715 4.57141H11.4286L8.00003 9.14284H3.4286C2.82238 9.14284 2.24101 9.38366 1.81235 9.8123C1.3837 10.241 1.14288 10.8223 1.14288 11.4286V25.1428C1.14288 25.749 1.3837 26.3305 1.81235 26.7591C2.24101 27.1876 2.82238 27.4286 3.4286 27.4286H28.5715C29.1776 27.4286 29.7591 27.1876 30.1877 26.7591C30.6163 26.3305 30.8572 25.749 30.8572 25.1428V11.4286Z" stroke="black" stroke-linecap="round" stroke-linejoin="round"/>
<path d="M16 22.2857C18.8404 22.2857 21.1429 19.9832 21.1429 17.1429C21.1429 14.3025 18.8404 12 16 12C13.1597 12 10.8572 14.3025 10.8572 17.1429C10.8572 19.9832 13.1597 22.2857 16 22.2857Z" stroke="black" stroke-linecap="round" stroke-linejoin="round"/>
</svg>
