<svg width="32" height="32" viewBox="0 0 32 32" fill="none" xmlns="http://www.w3.org/2000/svg">
<path d="M11.9544 5.14282L12.9373 2.60568C13.103 2.17611 13.3947 1.80662 13.774 1.54559C14.1533 1.28457 14.6026 1.14418 15.063 1.14282H16.9373C17.3977 1.14418 17.847 1.28457 18.2263 1.54559C18.6056 1.80662 18.8972 2.17611 19.063 2.60568L20.0458 5.14282L23.3829 7.06282L26.08 6.65139C26.5292 6.59043 26.9863 6.66435 27.3934 6.86378C27.8003 7.06321 28.1388 7.37912 28.3658 7.77139L29.28 9.37139C29.5143 9.76991 29.6224 10.2301 29.5898 10.6912C29.5571 11.1523 29.3854 11.5927 29.0972 11.9543L27.4286 14.08V17.92L29.1429 20.0457C29.4311 20.4072 29.6028 20.8476 29.6355 21.3087C29.6682 21.7698 29.56 22.23 29.3258 22.6285L28.4115 24.2285C28.1845 24.6208 27.846 24.9366 27.4391 25.1362C27.032 25.3355 26.5749 25.4096 26.1258 25.3485L23.4286 24.9371L20.0916 26.8571L19.1087 29.3942C18.9429 29.8237 18.6513 30.1933 18.272 30.4544C17.8927 30.7154 17.4434 30.8557 16.983 30.8571H15.063C14.6026 30.8557 14.1533 30.7154 13.774 30.4544C13.3947 30.1933 13.103 29.8237 12.9373 29.3942L11.9544 26.8571L8.61727 24.9371L5.92013 25.3485C5.47103 25.4096 5.01393 25.3355 4.60694 25.1362C4.19997 24.9366 3.86145 24.6208 3.63441 24.2285L2.72013 22.6285C2.48584 22.23 2.37791 21.7698 2.41055 21.3087C2.44319 20.8476 2.61489 20.4072 2.90299 20.0457L4.57156 17.92V14.08L2.85727 11.9543C2.56918 11.5927 2.39748 11.1523 2.36484 10.6912C2.3322 10.2301 2.44013 9.76991 2.67441 9.37139L3.5887 7.77139C3.81574 7.37912 4.15425 7.06321 4.56123 6.86378C4.96822 6.66435 5.42532 6.59043 5.87441 6.65139L8.57156 7.06282L11.9544 5.14282ZM11.4287 16C11.4287 16.9041 11.6968 17.7879 12.1991 18.5397C12.7015 19.2915 13.4154 19.8774 14.2507 20.2234C15.086 20.5694 16.0052 20.6599 16.892 20.4836C17.7787 20.3072 18.5933 19.8718 19.2326 19.2324C19.8719 18.5931 20.3073 17.7786 20.4837 16.8918C20.6601 16.005 20.5696 15.0859 20.2236 14.2505C19.8776 13.4152 19.2916 12.7013 18.5399 12.199C17.7881 11.6967 16.9043 11.4285 16.0001 11.4285C14.7877 11.4285 13.625 11.9102 12.7676 12.7675C11.9103 13.6248 11.4287 14.7876 11.4287 16Z" stroke="black" stroke-linecap="round" stroke-linejoin="round"/>
</svg>
