<svg width="32" height="32" viewBox="0 0 32 32" fill="none" xmlns="http://www.w3.org/2000/svg">
<g clip-path="url(#clip0_1222_37564)">
<path d="M16 30.8569C12.652 27.1707 8.11153 24.7833 3.17715 24.114C2.61551 24.0518 2.09679 23.7837 1.72112 23.3618C1.34544 22.9396 1.13944 22.3933 1.14286 21.8283V3.42826C1.14284 3.09811 1.21434 2.77187 1.35245 2.47199C1.49055 2.17212 1.69197 1.90572 1.94286 1.69112C2.18934 1.48042 2.47782 1.32458 2.78915 1.23394C3.10047 1.1433 3.42753 1.11994 3.74858 1.1654C8.46696 1.9485 12.7834 4.29999 16 7.83969V30.8569Z" stroke="black" stroke-linecap="round" stroke-linejoin="round"/>
<path d="M16 30.8569C19.348 27.1707 23.8885 24.7833 28.8229 24.114C29.3845 24.0518 29.9033 23.7837 30.2789 23.3618C30.6546 22.9396 30.8606 22.3933 30.8571 21.8283V3.42826C30.8571 3.09811 30.7856 2.77187 30.6475 2.47199C30.5095 2.17212 30.3081 1.90572 30.0571 1.69112C29.8107 1.48042 29.5223 1.32458 29.211 1.23394C28.8994 1.1433 28.5726 1.11994 28.2514 1.1654C23.533 1.9485 19.2166 4.29999 16 7.83969V30.8569Z" stroke="black" stroke-linecap="round" stroke-linejoin="round"/>
</g>
<defs>
<clipPath id="clip0_1222_37564">
<rect width="32" height="32" fill="white"/>
</clipPath>
</defs>
</svg>
