<svg width="36" height="36" viewBox="0 0 36 36" fill="none" xmlns="http://www.w3.org/2000/svg">
<path d="M18.75 4.5H11.7C9.17976 4.5 7.91965 4.5 6.95704 4.99047C6.11031 5.4219 5.4219 6.11031 4.99047 6.95704C4.5 7.91965 4.5 9.17976 4.5 11.7V24.3C4.5 26.8202 4.5 28.0804 4.99047 29.043C5.4219 29.8897 6.11031 30.5781 6.95704 31.0095C7.91965 31.5 9.17976 31.5 11.7 31.5H25.5C26.895 31.5 27.5924 31.5 28.1647 31.3467C29.7176 30.9306 30.9306 29.7176 31.3467 28.1647C31.5 27.5924 31.5 26.895 31.5 25.5M28.5 12V3M24 7.5H33M15.75 12.75C15.75 14.4069 14.4069 15.75 12.75 15.75C11.0931 15.75 9.75 14.4069 9.75 12.75C9.75 11.0931 11.0931 9.75 12.75 9.75C14.4069 9.75 15.75 11.0931 15.75 12.75ZM22.4851 17.8772L9.79672 29.4121C9.08304 30.0609 8.7262 30.3853 8.69464 30.6663C8.66728 30.9099 8.76068 31.1515 8.94478 31.3133C9.15717 31.5 9.63942 31.5 10.6039 31.5H24.684C26.8427 31.5 27.9221 31.5 28.7699 31.1373C29.8342 30.6821 30.6821 29.8342 31.1373 28.7699C31.5 27.9221 31.5 26.8427 31.5 24.684C31.5 23.9576 31.5 23.5945 31.4206 23.2562C31.3208 22.8312 31.1295 22.433 30.8599 22.0896C30.6454 21.8163 30.3618 21.5894 29.7946 21.1357L25.5987 17.779C25.0311 17.3249 24.7473 17.0978 24.4347 17.0177C24.1592 16.947 23.8693 16.9562 23.5988 17.044C23.2919 17.1437 23.023 17.3882 22.4851 17.8772Z" stroke="black" stroke-width="2" stroke-linecap="round" stroke-linejoin="round"/>
</svg>
